<svg xmlns="http://www.w3.org/2000/svg" xmlns:xlink="http://www.w3.org/1999/xlink" contentStyleType="text/css" data-diagram-type="DESCRIPTION" height="514px" preserveAspectRatio="none" style="width:1048px;height:514px;background:#FFFFFF;" version="1.1" viewBox="0 0 1048 514" width="1048px" zoomAndPan="magnify"><title>Virtual Fridge Dependency Diagram</title><defs/><g><g class="title" data-source-line="1"><text fill="#000000" font-family="sans-serif" font-size="14" font-weight="bold" lengthAdjust="spacing" textLength="283.2061" x="375.8332" y="22.9951">Virtual Fridge Dependency Diagram</text></g><!--cluster Backend--><g class="cluster" data-entity="Backend" data-source-line="21" data-uid="ent0011" id="cluster_Backend"><path d="M384.8,224.2369 L453.0109,224.2369 A3.75,3.75 0 0 1 455.5109,226.7369 L462.5109,246.5338 L497.74,246.5338 A2.5,2.5 0 0 1 500.24,249.0338 L500.24,450.7369 A2.5,2.5 0 0 1 497.74,453.2369 L384.8,453.2369 A2.5,2.5 0 0 1 382.3,450.7369 L382.3,226.7369 A2.5,2.5 0 0 1 384.8,224.2369" fill="none" style="stroke:#000000;stroke-width:1.5;"/><line style="stroke:#000000;stroke-width:1.5;" x1="382.3" x2="462.5109" y1="246.5338" y2="246.5338"/><text fill="#000000" font-family="sans-serif" font-size="14" font-weight="bold" lengthAdjust="spacing" textLength="67.2109" x="386.3" y="239.232">Backend</text></g><!--entity user--><g class="entity" data-entity="user" data-source-line="22" data-uid="ent0012" id="entity_user"><rect fill="#FFFFFF" height="36.2969" rx="2.5" ry="2.5" style="stroke:#000000;stroke-width:0.5;" width="51.9102" x="415.31" y="259.0869"/><text fill="#000000" font-family="sans-serif" font-size="14" lengthAdjust="spacing" textLength="31.9102" x="425.31" y="282.082">User</text></g><!--entity food--><g class="entity" data-entity="food" data-source-line="23" data-uid="ent0013" id="entity_food"><rect fill="#FFFFFF" height="36.2969" rx="2.5" ry="2.5" style="stroke:#000000;stroke-width:0.5;" width="85.9395" x="398.3" y="330.0869"/><text fill="#000000" font-family="sans-serif" font-size="14" lengthAdjust="spacing" textLength="65.9395" x="408.3" y="353.082">FoodItem</text></g><!--entity recipe--><g class="entity" data-entity="recipe" data-source-line="24" data-uid="ent0014" id="entity_recipe"><rect fill="#FFFFFF" height="36.2969" rx="2.5" ry="2.5" style="stroke:#000000;stroke-width:0.5;" width="67.4277" x="407.55" y="401.0869"/><text fill="#000000" font-family="sans-serif" font-size="14" lengthAdjust="spacing" textLength="47.4277" x="417.55" y="424.082">Recipe</text></g><!--entity gnoti--><g class="entity" data-entity="gnoti" data-source-line="10" data-uid="ent0002" id="entity_gnoti"><rect fill="#FFFFFF" height="36.2969" rx="2.5" ry="2.5" style="stroke:#000000;stroke-width:0.5;" width="161.4424" x="881.43" y="254.0869"/><text fill="#000000" font-family="sans-serif" font-size="14" lengthAdjust="spacing" textLength="141.4424" x="891.43" y="277.082">Google Notifications</text></g><!--entity gnoti2--><g class="entity" data-entity="gnoti2" data-source-line="11" data-uid="ent0003" id="entity_gnoti2"><rect fill="#FFFFFF" height="36.2969" rx="2.5" ry="2.5" style="stroke:#000000;stroke-width:0.5;" width="161.4424" x="7" y="216.0869"/><text fill="#000000" font-family="sans-serif" font-size="14" lengthAdjust="spacing" textLength="141.4424" x="17" y="239.082">Google Notifications</text></g><!--entity gauth--><g class="entity" data-entity="gauth" data-source-line="12" data-uid="ent0004" id="entity_gauth"><rect fill="#FFFFFF" height="36.2969" rx="2.5" ry="2.5" style="stroke:#000000;stroke-width:0.5;" width="106.6318" x="586.4" y="104.0869"/><text fill="#000000" font-family="sans-serif" font-size="14" lengthAdjust="spacing" textLength="86.6318" x="596.4" y="127.082">Google Auth</text></g><!--entity ocr--><g class="entity" data-entity="ocr" data-source-line="13" data-uid="ent0005" id="entity_ocr"><rect fill="#FFFFFF" height="36.2969" rx="2.5" ry="2.5" style="stroke:#000000;stroke-width:0.5;" width="50.5225" x="416.01" y="101.0869"/><text fill="#000000" font-family="sans-serif" font-size="14" lengthAdjust="spacing" textLength="30.5225" x="426.01" y="124.082">OCR</text></g><!--entity bscan--><g class="entity" data-entity="bscan" data-source-line="14" data-uid="ent0006" id="entity_bscan"><rect fill="#FFFFFF" height="36.2969" rx="2.5" ry="2.5" style="stroke:#000000;stroke-width:0.5;" width="139.4307" x="371.55" y="172.0869"/><text fill="#000000" font-family="sans-serif" font-size="14" lengthAdjust="spacing" textLength="119.4307" x="381.55" y="195.082">Barcode Scanner</text></g><!--entity off--><g class="entity" data-entity="off" data-source-line="15" data-uid="ent0007" id="entity_off"><rect fill="#FFFFFF" height="36.2969" rx="2.5" ry="2.5" style="stroke:#000000;stroke-width:0.5;" width="137.4756" x="570.98" y="330.0869"/><text fill="#000000" font-family="sans-serif" font-size="14" lengthAdjust="spacing" textLength="117.4756" x="580.98" y="353.082">Open Food Facts</text></g><!--entity rapi--><g class="entity" data-entity="rapi" data-source-line="16" data-uid="ent0008" id="entity_rapi"><rect fill="#FFFFFF" height="36.2969" rx="2.5" ry="2.5" style="stroke:#000000;stroke-width:0.5;" width="94.0264" x="592.71" y="401.0869"/><text fill="#000000" font-family="sans-serif" font-size="14" lengthAdjust="spacing" textLength="74.0264" x="602.71" y="424.082">Recipe API</text></g><!--entity dseek--><g class="entity" data-entity="dseek" data-source-line="17" data-uid="ent0009" id="entity_dseek"><rect fill="#FFFFFF" height="36.2969" rx="2.5" ry="2.5" style="stroke:#000000;stroke-width:0.5;" width="89.5215" x="594.96" y="472.0869"/><text fill="#000000" font-family="sans-serif" font-size="14" lengthAdjust="spacing" textLength="69.5215" x="604.96" y="495.082">Deepseek</text></g><!--entity fe--><g class="entity" data-entity="fe" data-source-line="20" data-uid="ent0010" id="entity_fe"><rect fill="#FFFFFF" height="36.2969" rx="2.5" ry="2.5" style="stroke:#000000;stroke-width:0.5;" width="83.1094" x="228.44" y="216.0869"/><text fill="#000000" font-family="sans-serif" font-size="14" lengthAdjust="spacing" textLength="63.1094" x="238.44" y="239.082">Frontend</text></g><!--entity db--><g class="entity" data-entity="db" data-source-line="26" data-uid="ent0015" id="entity_db"><path d="M619.53,259.5869 C619.53,249.5869 639.7224,249.5869 639.7224,249.5869 C639.7224,249.5869 659.9148,249.5869 659.9148,259.5869 L659.9148,284.8837 C659.9148,294.8837 639.7224,294.8837 639.7224,294.8837 C639.7224,294.8837 619.53,294.8837 619.53,284.8837 L619.53,259.5869" fill="#F1F1F1" style="stroke:#181818;stroke-width:0.5;"/><path d="M619.53,259.5869 C619.53,269.5869 639.7224,269.5869 639.7224,269.5869 C639.7224,269.5869 659.9148,269.5869 659.9148,259.5869" fill="none" style="stroke:#181818;stroke-width:0.5;"/><text fill="#000000" font-family="sans-serif" font-size="14" lengthAdjust="spacing" textLength="20.3848" x="629.53" y="286.582">DB</text></g><!--entity cron--><g class="entity" data-entity="cron" data-source-line="27" data-uid="ent0016" id="entity_cron"><rect fill="#FFFFFF" height="36.2969" rx="2.5" ry="2.5" style="stroke:#000000;stroke-width:0.5;" width="52.9697" x="768.46" y="254.0869"/><text fill="#000000" font-family="sans-serif" font-size="14" lengthAdjust="spacing" textLength="32.9697" x="778.46" y="277.082">Cron</text></g><!--link fe to ocr--><g class="link" data-entity-1="fe" data-entity-2="ocr" data-source-line="30" data-uid="lnk17" id="link_fe_ocr"><path d="M291.64,215.7669 C311.35,198.6569 342.28,173.0669 371.55,154.2369 C385.63,145.1869 396.9228,139.2063 410.3428,132.8163" fill="none" id="fe-to-ocr" style="stroke:#181818;stroke-width:1;"/><polygon fill="#181818" points="415.76,130.2369,405.9145,130.4946,411.2456,132.3864,409.3538,137.7175,415.76,130.2369" style="stroke:#181818;stroke-width:1;"/></g><!--link fe to bscan--><g class="link" data-entity-1="fe" data-entity-2="bscan" data-source-line="31" data-uid="lnk18" id="link_fe_bscan"><path d="M311.97,223.5869 C329.78,218.9569 345.3328,214.9157 365.4628,209.6857" fill="none" id="fe-to-bscan" style="stroke:#181818;stroke-width:1;"/><polygon fill="#181818" points="371.27,208.1769,361.5533,206.5686,366.4307,209.4342,363.565,214.3115,371.27,208.1769" style="stroke:#181818;stroke-width:1;"/></g><!--link fe to gauth--><g class="link" data-entity-1="fe" data-entity-2="gauth" data-source-line="32" data-uid="lnk19" id="link_fe_gauth"><path d="M276.8,215.7369 C288.49,182.0869 318.38,111.7169 371.55,83.2369 C446.14,43.2969 542.912,76.5747 596.722,101.1447" fill="none" id="fe-to-gauth" style="stroke:#181818;stroke-width:1;"/><polygon fill="#181818" points="602.18,103.6369,595.6545,96.26,597.6317,101.5601,592.3316,103.5373,602.18,103.6369" style="stroke:#181818;stroke-width:1;"/></g><!--link fe to user--><g class="link" data-entity-1="fe" data-entity-2="user" data-source-line="34" data-uid="lnk20" id="link_fe_user"><path d="M311.97,244.6469 C344.07,252.7969 381.8746,262.41 409.0846,269.32" fill="none" id="fe-to-user" style="stroke:#181818;stroke-width:1;"/><polygon fill="#181818" points="414.9,270.7969,407.1614,264.7047,410.0538,269.5662,405.1923,272.4586,414.9,270.7969" style="stroke:#181818;stroke-width:1;"/></g><!--link fe to food--><g class="link" data-entity-1="fe" data-entity-2="food" data-source-line="35" data-uid="lnk21" id="link_fe_food"><path d="M292.06,252.7769 C311.81,269.6569 342.55,294.7169 371.55,313.2369 C380.69,319.0769 385.5923,321.9866 395.3123,326.9766" fill="none" id="fe-to-food" style="stroke:#181818;stroke-width:1;"/><polygon fill="#181818" points="400.65,329.7169,394.4703,322.048,396.2019,327.4333,390.8166,329.165,400.65,329.7169" style="stroke:#181818;stroke-width:1;"/></g><!--link fe to recipe--><g class="link" data-entity-1="fe" data-entity-2="recipe" data-source-line="36" data-uid="lnk22" id="link_fe_recipe"><path d="M279.42,252.5769 C294.26,283.2269 327.69,345.3269 371.55,384.2369 C381.97,393.4769 389.8236,398.4481 401.9436,404.1081" fill="none" id="fe-to-recipe" style="stroke:#181818;stroke-width:1;"/><polygon fill="#181818" points="407.38,406.6469,400.9179,399.2144,402.8497,404.5312,397.5329,406.463,407.38,406.6469" style="stroke:#181818;stroke-width:1;"/></g><!--link user to db--><g class="link" data-entity-1="user" data-entity-2="db" data-source-line="38" data-uid="lnk23" id="link_user_db"><path d="M467.55,276.5969 C507.24,275.5869 577.3319,273.7992 613.1619,272.8892" fill="none" id="user-to-db" style="stroke:#181818;stroke-width:1;"/><polygon fill="#181818" points="619.16,272.7369,610.0613,268.9667,614.1616,272.8638,610.2645,276.9641,619.16,272.7369" style="stroke:#181818;stroke-width:1;"/></g><!--link food to db--><g class="link" data-entity-1="food" data-entity-2="db" data-source-line="39" data-uid="lnk24" id="link_food_db"><path d="M484.41,331.9369 C526.01,315.8369 582.2043,294.1021 613.4743,282.0021" fill="none" id="food-to-db" style="stroke:#181818;stroke-width:1;"/><polygon fill="#181818" points="619.07,279.8369,609.233,279.3543,614.4069,281.6413,612.12,286.8152,619.07,279.8369" style="stroke:#181818;stroke-width:1;"/></g><!--link user to gauth--><g class="link" data-entity-1="user" data-entity-2="gauth" data-source-line="41" data-uid="lnk25" id="link_user_gauth"><path d="M467.6,258.8569 C480.66,249.2669 496.79,237.2769 510.98,226.2369 C548.68,196.9269 586.9487,165.4356 612.1987,144.4156" fill="none" id="user-to-gauth" style="stroke:#181818;stroke-width:1;"/><polygon fill="#181818" points="616.81,140.5769,607.3339,143.2608,612.9673,143.7759,612.4523,149.4092,616.81,140.5769" style="stroke:#181818;stroke-width:1;"/></g><!--link food to off--><g class="link" data-entity-1="food" data-entity-2="off" data-source-line="42" data-uid="lnk26" id="link_food_off"><path d="M484.41,348.2369 C509.55,348.2369 536.07,348.2369 564.76,348.2369" fill="none" id="food-to-off" style="stroke:#181818;stroke-width:1;"/><polygon fill="#181818" points="570.76,348.2369,561.76,344.2369,565.76,348.2369,561.76,352.2369,570.76,348.2369" style="stroke:#181818;stroke-width:1;"/></g><!--link recipe to rapi--><g class="link" data-entity-1="recipe" data-entity-2="rapi" data-source-line="43" data-uid="lnk27" id="link_recipe_rapi"><path d="M475.15,419.2369 C507.26,419.2369 550.43,419.2369 586.48,419.2369" fill="none" id="recipe-to-rapi" style="stroke:#181818;stroke-width:1;"/><polygon fill="#181818" points="592.48,419.2369,583.48,415.2369,587.48,419.2369,583.48,423.2369,592.48,419.2369" style="stroke:#181818;stroke-width:1;"/></g><!--link recipe to dseek--><g class="link" data-entity-1="recipe" data-entity-2="dseek" data-source-line="44" data-uid="lnk28" id="link_recipe_dseek"><path d="M475.15,431.1269 C507.92,442.9669 552.797,459.1881 589.027,472.2781" fill="none" id="recipe-to-dseek" style="stroke:#181818;stroke-width:1;"/><polygon fill="#181818" points="594.67,474.3169,587.5647,467.4967,589.9675,472.6179,584.8463,475.0206,594.67,474.3169" style="stroke:#181818;stroke-width:1;"/></g><!--link db to cron--><g class="link" data-entity-1="db" data-entity-2="cron" data-source-line="46" data-uid="lnk29" id="link_db_cron"><path d="M660.13,272.2369 C687.51,272.2369 731.53,272.2369 762.05,272.2369" fill="none" id="db-to-cron" style="stroke:#181818;stroke-width:1;"/><polygon fill="#181818" points="768.05,272.2369,759.05,268.2369,763.05,272.2369,759.05,276.2369,768.05,272.2369" style="stroke:#181818;stroke-width:1;"/></g><!--link cron to gnoti--><g class="link" data-entity-1="cron" data-entity-2="gnoti" data-source-line="47" data-uid="lnk30" id="link_cron_gnoti"><path d="M821.76,272.2369 C837.91,272.2369 853.68,272.2369 875.21,272.2369" fill="none" id="cron-to-gnoti" style="stroke:#181818;stroke-width:1;"/><polygon fill="#181818" points="881.21,272.2369,872.21,268.2369,876.21,272.2369,872.21,276.2369,881.21,272.2369" style="stroke:#181818;stroke-width:1;"/></g><!--link gnoti2 to fe--><g class="link" data-entity-1="gnoti2" data-entity-2="fe" data-source-line="48" data-uid="lnk31" id="link_gnoti2_fe"><path d="M168.84,234.2369 C189.34,234.2369 204.54,234.2369 222.13,234.2369" fill="none" id="gnoti2-to-fe" style="stroke:#181818;stroke-width:1;"/><polygon fill="#181818" points="228.13,234.2369,219.13,230.2369,223.13,234.2369,219.13,238.2369,228.13,234.2369" style="stroke:#181818;stroke-width:1;"/></g><!--SRC=[ZLB1JiCm3BtdAwnTWCCkV00IsnZY0cW8EBk9sqNhaYf99H3Ytt6SZBKI1mvjd_rUt1VRoQQUuCs6D68Fss1DHx2XWPmXfpzXOx4BU5GzjGcIXs2xVG9Z0-balLCg7gmRa2MGK-WwBlUb05Qe3rtmepDht_i0xtkRAETzC1HARjMpI7qhTG5t7uc2Omj7RyQUeZfNMznxdx-FFjdMQip_ZGl029tZrF-Lrtz8RyUqBmfaD1KyhNT2U1scwHK6xGt1YqRdA8YaYHpCpdB_OEkzWItgL2pujfrATgJjmFz_VX0su32xoOPeY4G78Kr6kKlRu5tYqG3oqt3p64zFdNWvrP8QM8ATk1RjGaOpEV0QwnL61dCgstz8T2orE9ZJnN_nBf3dQ31XWp7RNnNZpTJTcjr9MeUyEHVdFRCKuNAsObUg9LWkRwJz5POsrw3CwnI9_Oh5QyNLcigy9DXHva_uJ9HwlroTLXwHrAdZESLr8gQHIEwJNwMIR6NPk6A8VW00]--></g></svg>