<svg xmlns="http://www.w3.org/2000/svg" xmlns:xlink="http://www.w3.org/1999/xlink" contentStyleType="text/css" data-diagram-type="SEQUENCE" height="1561px" preserveAspectRatio="none" style="width:1779px;height:1561px;background:#FFFFFF;" version="1.1" viewBox="0 0 1779 1561" width="1779px" zoomAndPan="magnify"><title>Use Case 2: Log Food via Barcode</title><defs/><g><text fill="#000000" font-family="sans-serif" font-size="14" font-weight="bold" lengthAdjust="spacing" textLength="266.54" x="757.5713" y="27.9951">Use Case 2: Log Food via Barcode</text><g><title>Frontend</title><rect fill="#FFFFFF" height="1247.4453" style="stroke:#181818;stroke-width:1;" width="10" x="240.689" y="164.8594"/></g><g><title>ML Kit</title><rect fill="#FFFFFF" height="44.2656" style="stroke:#181818;stroke-width:1;" width="10" x="488.9116" y="280.3906"/></g><g><title>FridgeController</title><rect fill="#FFFFFF" height="868.4531" style="stroke:#181818;stroke-width:1;" width="10" x="629.2559" y="384.0547"/></g><g><title>Open Food Facts</title><rect fill="#FFFFFF" height="59.3984" style="stroke:#181818;stroke-width:1;" width="10" x="897.3657" y="597.7891"/></g><g><title>FoodTypeModel</title><rect fill="#FFFFFF" height="111.5313" style="stroke:#181818;stroke-width:1;" width="10" x="1093.9399" y="413.1875"/></g><g><title>FoodTypeModel</title><rect fill="#FFFFFF" height="132.7969" style="stroke:#181818;stroke-width:1;" width="10" x="1093.9399" y="686.3203"/></g><g><title>FoodTypeModel</title><rect fill="#FFFFFF" height="87.3984" style="stroke:#181818;stroke-width:1;" width="10" x="1093.9399" y="1046.3125"/></g><g><title>FoodItemModel</title><rect fill="#FFFFFF" height="132.7969" style="stroke:#181818;stroke-width:1;" width="10" x="1449.4678" y="855.25"/></g><g><title>FoodItemModel</title><rect fill="#FFFFFF" height="160.7969" style="stroke:#181818;stroke-width:1;" width="10" x="1449.4678" y="1017.1797"/></g><g><title>MongoDB</title><rect fill="#FFFFFF" height="29.1328" style="stroke:#181818;stroke-width:1;" width="10" x="1721.0054" y="442.3203"/></g><g><title>MongoDB</title><rect fill="#FFFFFF" height="29.1328" style="stroke:#181818;stroke-width:1;" width="10" x="1721.0054" y="760.8516"/></g><g><title>MongoDB</title><rect fill="#FFFFFF" height="29.1328" style="stroke:#181818;stroke-width:1;" width="10" x="1721.0054" y="929.7813"/></g><g><title>MongoDB</title><rect fill="#FFFFFF" height="29.1328" style="stroke:#181818;stroke-width:1;" width="10" x="1721.0054" y="1075.4453"/></g><rect fill="none" height="340.6641" style="stroke:#000000;stroke-width:1.5;" width="1212.0557" x="560.627" y="486.4531"/><g><title>User</title><rect fill="#000000" fill-opacity="0.00000" height="1361.9766" width="8" x="19.9551" y="118.5938"/><line style="stroke:#181818;stroke-width:0.5;stroke-dasharray:5,5;" x1="23" x2="23" y1="118.5938" y2="1480.5703"/></g><g><title>Frontend</title><rect fill="#000000" fill-opacity="0.00000" height="1361.9766" width="8" x="241.689" y="118.5938"/><line style="stroke:#181818;stroke-width:0.5;stroke-dasharray:5,5;" x1="245.0098" x2="245.0098" y1="118.5938" y2="1480.5703"/></g><g><title>ML Kit</title><rect fill="#000000" fill-opacity="0.00000" height="1361.9766" width="8" x="489.9116" y="118.5938"/><line style="stroke:#181818;stroke-width:0.5;stroke-dasharray:5,5;" x1="493.1963" x2="493.1963" y1="118.5938" y2="1480.5703"/></g><g><title>FridgeController</title><rect fill="#000000" fill-opacity="0.00000" height="1361.9766" width="8" x="630.2559" y="118.5938"/><line style="stroke:#181818;stroke-width:0.5;stroke-dasharray:5,5;" x1="633.627" x2="633.627" y1="118.5938" y2="1480.5703"/></g><g><title>Open Food Facts</title><rect fill="#000000" fill-opacity="0.00000" height="1361.9766" width="8" x="898.3657" y="118.5938"/><line style="stroke:#181818;stroke-width:0.5;stroke-dasharray:5,5;" x1="901.6279" x2="901.6279" y1="118.5938" y2="1480.5703"/></g><g><title>FoodTypeModel</title><rect fill="#000000" fill-opacity="0.00000" height="1361.9766" width="8" x="1094.9399" y="118.5938"/><line style="stroke:#181818;stroke-width:0.5;stroke-dasharray:5,5;" x1="1098.7192" x2="1098.7192" y1="118.5938" y2="1480.5703"/></g><g><title>FoodItemModel</title><rect fill="#000000" fill-opacity="0.00000" height="1361.9766" width="8" x="1450.4678" y="118.5938"/><line style="stroke:#181818;stroke-width:0.5;stroke-dasharray:5,5;" x1="1453.481" x2="1453.481" y1="118.5938" y2="1480.5703"/></g><g><title>MongoDB</title><rect fill="#000000" fill-opacity="0.00000" height="1361.9766" width="8" x="1722.0054" y="118.5938"/><line style="stroke:#181818;stroke-width:0.5;stroke-dasharray:5,5;" x1="1725.3281" x2="1725.3281" y1="118.5938" y2="1480.5703"/></g><g class="participant participant-head" data-participant="User"><text fill="#000000" font-family="sans-serif" font-size="14" lengthAdjust="spacing" textLength="31.9102" x="5" y="115.292">User</text><ellipse cx="23.9551" cy="50.7969" fill="#E2E2F0" rx="8" ry="8" style="stroke:#181818;stroke-width:0.5;"/><path d="M23.9551,58.7969 L23.9551,85.7969 M10.9551,66.7969 L36.9551,66.7969 M23.9551,85.7969 L10.9551,100.7969 M23.9551,85.7969 L36.9551,100.7969" fill="none" style="stroke:#181818;stroke-width:0.5;"/></g><g class="participant participant-tail" data-participant="User"><text fill="#000000" font-family="sans-serif" font-size="14" lengthAdjust="spacing" textLength="31.9102" x="5" y="1492.5654">User</text><ellipse cx="23.9551" cy="1504.3672" fill="#E2E2F0" rx="8" ry="8" style="stroke:#181818;stroke-width:0.5;"/><path d="M23.9551,1512.3672 L23.9551,1539.3672 M10.9551,1520.3672 L36.9551,1520.3672 M23.9551,1539.3672 L10.9551,1554.3672 M23.9551,1539.3672 L36.9551,1554.3672" fill="none" style="stroke:#181818;stroke-width:0.5;"/></g><g class="participant participant-head" data-participant="Frontend"><rect fill="#E2E2F0" height="46.5938" rx="2.5" ry="2.5" style="stroke:#181818;stroke-width:0.5;" width="79.3584" x="206.0098" y="71"/><text fill="#000000" font-family="sans-serif" font-size="14" lengthAdjust="spacing" textLength="63.1094" x="214.1343" y="90.9951">Frontend</text><text fill="#000000" font-family="sans-serif" font-size="14" lengthAdjust="spacing" textLength="65.3584" x="213.0098" y="107.292">(Android)</text></g><g class="participant participant-tail" data-participant="Frontend"><rect fill="#E2E2F0" height="46.5938" rx="2.5" ry="2.5" style="stroke:#181818;stroke-width:0.5;" width="79.3584" x="206.0098" y="1479.5703"/><text fill="#000000" font-family="sans-serif" font-size="14" lengthAdjust="spacing" textLength="63.1094" x="214.1343" y="1499.5654">Frontend</text><text fill="#000000" font-family="sans-serif" font-size="14" lengthAdjust="spacing" textLength="65.3584" x="213.0098" y="1515.8623">(Android)</text></g><g class="participant participant-head" data-participant="MLKit"><rect fill="#E2E2F0" height="46.5938" rx="2.5" ry="2.5" style="stroke:#181818;stroke-width:0.5;" width="133.4307" x="427.1963" y="71"/><text fill="#000000" font-family="sans-serif" font-size="14" lengthAdjust="spacing" textLength="42.8887" x="472.4673" y="90.9951">ML Kit</text><text fill="#000000" font-family="sans-serif" font-size="14" lengthAdjust="spacing" textLength="119.4307" x="434.1963" y="107.292">Barcode Scanner</text></g><g class="participant participant-tail" data-participant="MLKit"><rect fill="#E2E2F0" height="46.5938" rx="2.5" ry="2.5" style="stroke:#181818;stroke-width:0.5;" width="133.4307" x="427.1963" y="1479.5703"/><text fill="#000000" font-family="sans-serif" font-size="14" lengthAdjust="spacing" textLength="42.8887" x="472.4673" y="1499.5654">ML Kit</text><text fill="#000000" font-family="sans-serif" font-size="14" lengthAdjust="spacing" textLength="119.4307" x="434.1963" y="1515.8623">Barcode Scanner</text></g><g class="participant participant-head" data-participant="Controller"><rect fill="#E2E2F0" height="30.2969" rx="2.5" ry="2.5" style="stroke:#181818;stroke-width:0.5;" width="127.2578" x="570.627" y="87.2969"/><text fill="#000000" font-family="sans-serif" font-size="14" lengthAdjust="spacing" textLength="113.2578" x="577.627" y="107.292">FridgeController</text></g><g class="participant participant-tail" data-participant="Controller"><rect fill="#E2E2F0" height="30.2969" rx="2.5" ry="2.5" style="stroke:#181818;stroke-width:0.5;" width="127.2578" x="570.627" y="1479.5703"/><text fill="#000000" font-family="sans-serif" font-size="14" lengthAdjust="spacing" textLength="113.2578" x="577.627" y="1499.5654">FridgeController</text></g><g class="participant participant-head" data-participant="OpenFood"><rect fill="#E2E2F0" height="46.5938" rx="2.5" ry="2.5" style="stroke:#181818;stroke-width:0.5;" width="131.4756" x="836.6279" y="71"/><text fill="#000000" font-family="sans-serif" font-size="14" lengthAdjust="spacing" textLength="117.4756" x="843.6279" y="90.9951">Open Food Facts</text><text fill="#000000" font-family="sans-serif" font-size="14" lengthAdjust="spacing" textLength="22.1484" x="891.2915" y="107.292">API</text></g><g class="participant participant-tail" data-participant="OpenFood"><rect fill="#E2E2F0" height="46.5938" rx="2.5" ry="2.5" style="stroke:#181818;stroke-width:0.5;" width="131.4756" x="836.6279" y="1479.5703"/><text fill="#000000" font-family="sans-serif" font-size="14" lengthAdjust="spacing" textLength="117.4756" x="843.6279" y="1499.5654">Open Food Facts</text><text fill="#000000" font-family="sans-serif" font-size="14" lengthAdjust="spacing" textLength="22.1484" x="891.2915" y="1515.8623">API</text></g><g class="participant participant-head" data-participant="FoodTypeModel"><rect fill="#E2E2F0" height="30.2969" rx="2.5" ry="2.5" style="stroke:#181818;stroke-width:0.5;" width="124.4414" x="1036.7192" y="87.2969"/><text fill="#000000" font-family="sans-serif" font-size="14" lengthAdjust="spacing" textLength="110.4414" x="1043.7192" y="107.292">FoodTypeModel</text></g><g class="participant participant-tail" data-participant="FoodTypeModel"><rect fill="#E2E2F0" height="30.2969" rx="2.5" ry="2.5" style="stroke:#181818;stroke-width:0.5;" width="124.4414" x="1036.7192" y="1479.5703"/><text fill="#000000" font-family="sans-serif" font-size="14" lengthAdjust="spacing" textLength="110.4414" x="1043.7192" y="1499.5654">FoodTypeModel</text></g><g class="participant participant-head" data-participant="FoodItemModel"><rect fill="#E2E2F0" height="30.2969" rx="2.5" ry="2.5" style="stroke:#181818;stroke-width:0.5;" width="121.9736" x="1393.481" y="87.2969"/><text fill="#000000" font-family="sans-serif" font-size="14" lengthAdjust="spacing" textLength="107.9736" x="1400.481" y="107.292">FoodItemModel</text></g><g class="participant participant-tail" data-participant="FoodItemModel"><rect fill="#E2E2F0" height="30.2969" rx="2.5" ry="2.5" style="stroke:#181818;stroke-width:0.5;" width="121.9736" x="1393.481" y="1479.5703"/><text fill="#000000" font-family="sans-serif" font-size="14" lengthAdjust="spacing" textLength="107.9736" x="1400.481" y="1499.5654">FoodItemModel</text></g><g class="participant participant-head" data-participant="DB"><text fill="#000000" font-family="sans-serif" font-size="14" lengthAdjust="spacing" textLength="67.3545" x="1689.3281" y="115.292">MongoDB</text><path d="M1708.0054,66.2969 C1708.0054,56.2969 1726.0054,56.2969 1726.0054,56.2969 C1726.0054,56.2969 1744.0054,56.2969 1744.0054,66.2969 L1744.0054,92.2969 C1744.0054,102.2969 1726.0054,102.2969 1726.0054,102.2969 C1726.0054,102.2969 1708.0054,102.2969 1708.0054,92.2969 L1708.0054,66.2969" fill="#E2E2F0" style="stroke:#181818;stroke-width:0.5;"/><path d="M1708.0054,66.2969 C1708.0054,76.2969 1726.0054,76.2969 1726.0054,76.2969 C1726.0054,76.2969 1744.0054,76.2969 1744.0054,66.2969" fill="none" style="stroke:#181818;stroke-width:0.5;"/></g><g class="participant participant-tail" data-participant="DB"><text fill="#000000" font-family="sans-serif" font-size="14" lengthAdjust="spacing" textLength="67.3545" x="1689.3281" y="1492.5654">MongoDB</text><path d="M1708.0054,1505.8672 C1708.0054,1495.8672 1726.0054,1495.8672 1726.0054,1495.8672 C1726.0054,1495.8672 1744.0054,1495.8672 1744.0054,1505.8672 L1744.0054,1531.8672 C1744.0054,1541.8672 1726.0054,1541.8672 1726.0054,1541.8672 C1726.0054,1541.8672 1708.0054,1541.8672 1708.0054,1531.8672 L1708.0054,1505.8672" fill="#E2E2F0" style="stroke:#181818;stroke-width:0.5;"/><path d="M1708.0054,1505.8672 C1708.0054,1515.8672 1726.0054,1515.8672 1726.0054,1515.8672 C1726.0054,1515.8672 1744.0054,1515.8672 1744.0054,1505.8672" fill="none" style="stroke:#181818;stroke-width:0.5;"/></g><g><title>Frontend</title><rect fill="#FFFFFF" height="1247.4453" style="stroke:#181818;stroke-width:1;" width="10" x="240.689" y="164.8594"/></g><g><title>ML Kit</title><rect fill="#FFFFFF" height="44.2656" style="stroke:#181818;stroke-width:1;" width="10" x="488.9116" y="280.3906"/></g><g><title>FridgeController</title><rect fill="#FFFFFF" height="868.4531" style="stroke:#181818;stroke-width:1;" width="10" x="629.2559" y="384.0547"/></g><g><title>Open Food Facts</title><rect fill="#FFFFFF" height="59.3984" style="stroke:#181818;stroke-width:1;" width="10" x="897.3657" y="597.7891"/></g><g><title>FoodTypeModel</title><rect fill="#FFFFFF" height="111.5313" style="stroke:#181818;stroke-width:1;" width="10" x="1093.9399" y="413.1875"/></g><g><title>FoodTypeModel</title><rect fill="#FFFFFF" height="132.7969" style="stroke:#181818;stroke-width:1;" width="10" x="1093.9399" y="686.3203"/></g><g><title>FoodTypeModel</title><rect fill="#FFFFFF" height="87.3984" style="stroke:#181818;stroke-width:1;" width="10" x="1093.9399" y="1046.3125"/></g><g><title>FoodItemModel</title><rect fill="#FFFFFF" height="132.7969" style="stroke:#181818;stroke-width:1;" width="10" x="1449.4678" y="855.25"/></g><g><title>FoodItemModel</title><rect fill="#FFFFFF" height="160.7969" style="stroke:#181818;stroke-width:1;" width="10" x="1449.4678" y="1017.1797"/></g><g><title>MongoDB</title><rect fill="#FFFFFF" height="29.1328" style="stroke:#181818;stroke-width:1;" width="10" x="1721.0054" y="442.3203"/></g><g><title>MongoDB</title><rect fill="#FFFFFF" height="29.1328" style="stroke:#181818;stroke-width:1;" width="10" x="1721.0054" y="760.8516"/></g><g><title>MongoDB</title><rect fill="#FFFFFF" height="29.1328" style="stroke:#181818;stroke-width:1;" width="10" x="1721.0054" y="929.7813"/></g><g><title>MongoDB</title><rect fill="#FFFFFF" height="29.1328" style="stroke:#181818;stroke-width:1;" width="10" x="1721.0054" y="1075.4453"/></g><g class="message" data-participant-1="User" data-participant-2="Frontend"><polygon fill="#181818" points="228.689,160.8594,238.689,164.8594,228.689,168.8594,232.689,164.8594" style="stroke:#181818;stroke-width:1;"/><line style="stroke:#181818;stroke-width:1;" x1="23.9551" x2="234.689" y1="164.8594" y2="164.8594"/><text fill="#000000" font-family="sans-serif" font-size="13" lengthAdjust="spacing" textLength="115.0068" x="30.9551" y="144.6606">Clicks "Add Food"</text><text fill="#000000" font-family="sans-serif" font-size="13" lengthAdjust="spacing" textLength="183.7139" x="30.9551" y="159.7935">and chooses barcode option</text></g><g class="message" data-participant-1="Frontend" data-participant-2="Frontend"><line style="stroke:#181818;stroke-width:1;" x1="250.689" x2="292.689" y1="209.125" y2="209.125"/><line style="stroke:#181818;stroke-width:1;" x1="292.689" x2="292.689" y1="209.125" y2="222.125"/><line style="stroke:#181818;stroke-width:1;" x1="251.689" x2="292.689" y1="222.125" y2="222.125"/><polygon fill="#181818" points="261.689,218.125,251.689,222.125,261.689,226.125,257.689,222.125" style="stroke:#181818;stroke-width:1;"/><text fill="#000000" font-family="sans-serif" font-size="13" lengthAdjust="spacing" textLength="150.5537" x="257.689" y="188.9263">Opens camera scanner</text><text fill="#000000" font-family="sans-serif" font-size="13" lengthAdjust="spacing" textLength="109.6177" x="257.689" y="204.0591">with back button</text></g><g class="message" data-participant-1="User" data-participant-2="Frontend"><polygon fill="#181818" points="228.689,247.2578,238.689,251.2578,228.689,255.2578,232.689,251.2578" style="stroke:#181818;stroke-width:1;"/><line style="stroke:#181818;stroke-width:1;" x1="23.9551" x2="234.689" y1="251.2578" y2="251.2578"/><text fill="#000000" font-family="sans-serif" font-size="13" lengthAdjust="spacing" textLength="164.9502" x="30.9551" y="246.1919">Positions barcode in view</text></g><g class="message" data-participant-1="Frontend" data-participant-2="MLKit"><polygon fill="#181818" points="476.9116,276.3906,486.9116,280.3906,476.9116,284.3906,480.9116,280.3906" style="stroke:#181818;stroke-width:1;"/><line style="stroke:#181818;stroke-width:1;" x1="250.689" x2="482.9116" y1="280.3906" y2="280.3906"/><text fill="#000000" font-family="sans-serif" font-size="13" lengthAdjust="spacing" textLength="219.2227" x="257.689" y="275.3247">Scan barcode from camera frame</text></g><g class="message" data-participant-1="MLKit" data-participant-2="Frontend"><polygon fill="#181818" points="261.689,320.6563,251.689,324.6563,261.689,328.6563,257.689,324.6563" style="stroke:#181818;stroke-width:1;"/><line style="stroke:#181818;stroke-width:1;stroke-dasharray:2,2;" x1="255.689" x2="492.9116" y1="324.6563" y2="324.6563"/><text fill="#000000" font-family="sans-serif" font-size="13" lengthAdjust="spacing" textLength="161.167" x="267.689" y="304.4575">Barcode detected (once)</text><text fill="#000000" font-family="sans-serif" font-size="13" lengthAdjust="spacing" textLength="159.9102" x="267.689" y="319.5903">barcodeId: "123456789"</text></g><g class="message" data-participant-1="Frontend" data-participant-2="Controller"><polygon fill="#181818" points="617.2559,380.0547,627.2559,384.0547,617.2559,388.0547,621.2559,384.0547" style="stroke:#181818;stroke-width:1;"/><line style="stroke:#181818;stroke-width:1;" x1="250.689" x2="623.2559" y1="384.0547" y2="384.0547"/><text fill="#000000" font-family="sans-serif" font-size="13" lengthAdjust="spacing" textLength="162.3159" x="257.689" y="348.7231">POST /api/fridge/barcode</text><text fill="#000000" font-family="sans-serif" font-size="13" lengthAdjust="spacing" textLength="160.2275" x="257.689" y="363.856">{barcode: "123456789",</text><text fill="#000000" font-family="sans-serif" font-size="13" lengthAdjust="spacing" textLength="197.9707" x="257.689" y="378.9888">Authorization: Bearer &lt;JWT&gt;}</text></g><g class="message" data-participant-1="Controller" data-participant-2="FoodTypeModel"><polygon fill="#181818" points="1081.9399,409.1875,1091.9399,413.1875,1081.9399,417.1875,1085.9399,413.1875" style="stroke:#181818;stroke-width:1;"/><line style="stroke:#181818;stroke-width:1;" x1="639.2559" x2="1087.9399" y1="413.1875" y2="413.1875"/><text fill="#000000" font-family="sans-serif" font-size="13" lengthAdjust="spacing" textLength="191.4136" x="646.2559" y="408.1216">findByBarcode("123456789")</text></g><g class="message" data-participant-1="FoodTypeModel" data-participant-2="DB"><polygon fill="#181818" points="1709.0054,438.3203,1719.0054,442.3203,1709.0054,446.3203,1713.0054,442.3203" style="stroke:#181818;stroke-width:1;"/><line style="stroke:#181818;stroke-width:1;" x1="1103.9399" x2="1715.0054" y1="442.3203" y2="442.3203"/><text fill="#000000" font-family="sans-serif" font-size="13" lengthAdjust="spacing" textLength="327.063" x="1110.9399" y="437.2544">db.foodtypes.findOne({barcodeId: "123456789"})</text></g><g class="message" data-participant-1="DB" data-participant-2="FoodTypeModel"><polygon fill="#181818" points="1114.9399,467.4531,1104.9399,471.4531,1114.9399,475.4531,1110.9399,471.4531" style="stroke:#181818;stroke-width:1;"/><line style="stroke:#181818;stroke-width:1;stroke-dasharray:2,2;" x1="1108.9399" x2="1725.0054" y1="471.4531" y2="471.4531"/><text fill="#000000" font-family="sans-serif" font-size="13" lengthAdjust="spacing" textLength="108.7861" x="1120.9399" y="466.3872">FoodType or null</text></g><path d="M560.627,486.4531 L625.0698,486.4531 L625.0698,493.5859 L615.0698,503.5859 L560.627,503.5859 L560.627,486.4531" fill="#EEEEEE" style="stroke:#000000;stroke-width:1.5;"/><rect fill="none" height="340.6641" style="stroke:#000000;stroke-width:1.5;" width="1212.0557" x="560.627" y="486.4531"/><text fill="#000000" font-family="sans-serif" font-size="13" font-weight="bold" lengthAdjust="spacing" textLength="19.4429" x="575.627" y="499.52">alt</text><text fill="#000000" font-family="sans-serif" font-size="11" font-weight="bold" lengthAdjust="spacing" textLength="187.6177" x="640.0698" y="498.6636">[FoodType exists in database]</text><g class="message" data-participant-1="FoodTypeModel" data-participant-2="Controller"><polygon fill="#181818" points="650.2559,520.7188,640.2559,524.7188,650.2559,528.7188,646.2559,524.7188" style="stroke:#181818;stroke-width:1;"/><line style="stroke:#181818;stroke-width:1;stroke-dasharray:2,2;" x1="644.2559" x2="1097.9399" y1="524.7188" y2="524.7188"/><text fill="#000000" font-family="sans-serif" font-size="13" lengthAdjust="spacing" textLength="421.7891" x="656.2559" y="519.6528">Existing FoodType(id, name, nutrients, barcodeId, shelfLifeDays)</text></g><line style="stroke:#000000;stroke-width:1;stroke-dasharray:2,2;" x1="560.627" x2="1772.6826" y1="533.7188" y2="533.7188"/><text fill="#000000" font-family="sans-serif" font-size="11" font-weight="bold" lengthAdjust="spacing" textLength="171.585" x="565.627" y="543.9292">[FoodType not in database]</text><g class="message" data-participant-1="FoodTypeModel" data-participant-2="Controller"><polygon fill="#181818" points="650.2559,564.6563,640.2559,568.6563,650.2559,572.6563,646.2559,568.6563" style="stroke:#181818;stroke-width:1;"/><line style="stroke:#181818;stroke-width:1;stroke-dasharray:2,2;" x1="644.2559" x2="1097.9399" y1="568.6563" y2="568.6563"/><text fill="#000000" font-family="sans-serif" font-size="13" lengthAdjust="spacing" textLength="23.7021" x="656.2559" y="563.5903">null</text></g><g class="message" data-participant-1="Controller" data-participant-2="OpenFood"><polygon fill="#181818" points="885.3657,593.7891,895.3657,597.7891,885.3657,601.7891,889.3657,597.7891" style="stroke:#181818;stroke-width:1;"/><line style="stroke:#181818;stroke-width:1;" x1="639.2559" x2="891.3657" y1="597.7891" y2="597.7891"/><text fill="#000000" font-family="sans-serif" font-size="13" lengthAdjust="spacing" textLength="239.1099" x="646.2559" y="592.7231">GET /api/v0/product/123456789.json</text></g><g class="message" data-participant-1="OpenFood" data-participant-2="Controller"><polygon fill="#181818" points="650.2559,653.1875,640.2559,657.1875,650.2559,661.1875,646.2559,657.1875" style="stroke:#181818;stroke-width:1;"/><line style="stroke:#181818;stroke-width:1;stroke-dasharray:2,2;" x1="644.2559" x2="901.3657" y1="657.1875" y2="657.1875"/><text fill="#000000" font-family="sans-serif" font-size="13" lengthAdjust="spacing" textLength="83.2876" x="656.2559" y="621.856">Product data</text><text fill="#000000" font-family="sans-serif" font-size="13" lengthAdjust="spacing" textLength="226.2178" x="656.2559" y="636.9888">{product: {product_name, brands,</text><text fill="#000000" font-family="sans-serif" font-size="13" lengthAdjust="spacing" textLength="160.2974" x="656.2559" y="652.1216">nutriments, image_url}}</text></g><g class="message" data-participant-1="Controller" data-participant-2="FoodTypeModel"><polygon fill="#181818" points="1081.9399,682.3203,1091.9399,686.3203,1081.9399,690.3203,1085.9399,686.3203" style="stroke:#181818;stroke-width:1;"/><line style="stroke:#181818;stroke-width:1;" x1="639.2559" x2="1087.9399" y1="686.3203" y2="686.3203"/><text fill="#000000" font-family="sans-serif" font-size="13" lengthAdjust="spacing" textLength="435.6841" x="646.2559" y="681.2544">create({name, barcodeId, nutrients, shelfLifeDays, brand, image})</text></g><g class="message" data-participant-1="FoodTypeModel" data-participant-2="DB"><polygon fill="#181818" points="1709.0054,756.8516,1719.0054,760.8516,1709.0054,764.8516,1713.0054,760.8516" style="stroke:#181818;stroke-width:1;"/><line style="stroke:#181818;stroke-width:1;" x1="1103.9399" x2="1715.0054" y1="760.8516" y2="760.8516"/><text fill="#000000" font-family="sans-serif" font-size="13" lengthAdjust="spacing" textLength="157.9233" x="1110.9399" y="710.3872">db.foodtypes.insertOne(</text><text fill="#000000" font-family="sans-serif" font-size="13" lengthAdjust="spacing" textLength="162.1001" x="1110.9399" y="725.52">{name: "Product Name",</text><text fill="#000000" font-family="sans-serif" font-size="13" lengthAdjust="spacing" textLength="164.0425" x="1110.9399" y="740.6528">barcodeId: "123456789",</text><text fill="#000000" font-family="sans-serif" font-size="13" lengthAdjust="spacing" textLength="221.5522" x="1110.9399" y="755.7856">nutrients: {...}, shelfLifeDays: 7})</text></g><g class="message" data-participant-1="DB" data-participant-2="FoodTypeModel"><polygon fill="#181818" points="1114.9399,785.9844,1104.9399,789.9844,1114.9399,793.9844,1110.9399,789.9844" style="stroke:#181818;stroke-width:1;"/><line style="stroke:#181818;stroke-width:1;stroke-dasharray:2,2;" x1="1108.9399" x2="1725.0054" y1="789.9844" y2="789.9844"/><text fill="#000000" font-family="sans-serif" font-size="13" lengthAdjust="spacing" textLength="165.731" x="1120.9399" y="784.9185">New FoodType document</text></g><g class="message" data-participant-1="FoodTypeModel" data-participant-2="Controller"><polygon fill="#181818" points="650.2559,815.1172,640.2559,819.1172,650.2559,823.1172,646.2559,819.1172" style="stroke:#181818;stroke-width:1;"/><line style="stroke:#181818;stroke-width:1;stroke-dasharray:2,2;" x1="644.2559" x2="1097.9399" y1="819.1172" y2="819.1172"/><text fill="#000000" font-family="sans-serif" font-size="13" lengthAdjust="spacing" textLength="303.3164" x="656.2559" y="814.0513">New FoodType(id, name, nutrients, barcodeId)</text></g><g class="message" data-participant-1="Controller" data-participant-2="FoodItemModel"><polygon fill="#181818" points="1437.4678,851.25,1447.4678,855.25,1437.4678,859.25,1441.4678,855.25" style="stroke:#181818;stroke-width:1;"/><line style="stroke:#181818;stroke-width:1;" x1="639.2559" x2="1443.4678" y1="855.25" y2="855.25"/><text fill="#000000" font-family="sans-serif" font-size="13" lengthAdjust="spacing" textLength="379.7549" x="646.2559" y="850.1841">create({userId, typeId, expirationDate, percentLeft: 100})</text></g><g class="message" data-participant-1="FoodItemModel" data-participant-2="DB"><polygon fill="#181818" points="1709.0054,925.7813,1719.0054,929.7813,1709.0054,933.7813,1713.0054,929.7813" style="stroke:#181818;stroke-width:1;"/><line style="stroke:#181818;stroke-width:1;" x1="1459.4678" x2="1715.0054" y1="929.7813" y2="929.7813"/><text fill="#000000" font-family="sans-serif" font-size="13" lengthAdjust="spacing" textLength="158.2534" x="1466.4678" y="879.3169">db.fooditems.insertOne(</text><text fill="#000000" font-family="sans-serif" font-size="13" lengthAdjust="spacing" textLength="102.2354" x="1466.4678" y="894.4497">{userId, typeId,</text><text fill="#000000" font-family="sans-serif" font-size="13" lengthAdjust="spacing" textLength="242.5376" x="1466.4678" y="909.5825">expirationDate: now + shelfLifeDays,</text><text fill="#000000" font-family="sans-serif" font-size="13" lengthAdjust="spacing" textLength="121.6592" x="1466.4678" y="924.7153">percentLeft: 100})</text></g><g class="message" data-participant-1="DB" data-participant-2="FoodItemModel"><polygon fill="#181818" points="1470.4678,954.9141,1460.4678,958.9141,1470.4678,962.9141,1466.4678,958.9141" style="stroke:#181818;stroke-width:1;"/><line style="stroke:#181818;stroke-width:1;stroke-dasharray:2,2;" x1="1464.4678" x2="1725.0054" y1="958.9141" y2="958.9141"/><text fill="#000000" font-family="sans-serif" font-size="13" lengthAdjust="spacing" textLength="186.8179" x="1476.4678" y="953.8481">Created FoodItem document</text></g><g class="message" data-participant-1="FoodItemModel" data-participant-2="Controller"><polygon fill="#181818" points="650.2559,984.0469,640.2559,988.0469,650.2559,992.0469,646.2559,988.0469" style="stroke:#181818;stroke-width:1;"/><line style="stroke:#181818;stroke-width:1;stroke-dasharray:2,2;" x1="644.2559" x2="1453.4678" y1="988.0469" y2="988.0469"/><text fill="#000000" font-family="sans-serif" font-size="13" lengthAdjust="spacing" textLength="369.6938" x="656.2559" y="982.981">FoodItem(id, userId, typeId, expirationDate, percentLeft)</text></g><g class="message" data-participant-1="Controller" data-participant-2="FoodItemModel"><polygon fill="#181818" points="1437.4678,1013.1797,1447.4678,1017.1797,1437.4678,1021.1797,1441.4678,1017.1797" style="stroke:#181818;stroke-width:1;"/><line style="stroke:#181818;stroke-width:1;" x1="639.2559" x2="1443.4678" y1="1017.1797" y2="1017.1797"/><text fill="#000000" font-family="sans-serif" font-size="13" lengthAdjust="spacing" textLength="223.8057" x="646.2559" y="1012.1138">getAssociatedFoodType(foodItem)</text></g><g class="message" data-participant-1="FoodItemModel" data-participant-2="FoodTypeModel"><polygon fill="#181818" points="1114.9399,1042.3125,1104.9399,1046.3125,1114.9399,1050.3125,1110.9399,1046.3125" style="stroke:#181818;stroke-width:1;"/><line style="stroke:#181818;stroke-width:1;" x1="1108.9399" x2="1448.4678" y1="1046.3125" y2="1046.3125"/><text fill="#000000" font-family="sans-serif" font-size="13" lengthAdjust="spacing" textLength="104.6475" x="1120.9399" y="1041.2466">findById(typeId)</text></g><g class="message" data-participant-1="FoodTypeModel" data-participant-2="DB"><polygon fill="#181818" points="1709.0054,1071.4453,1719.0054,1075.4453,1709.0054,1079.4453,1713.0054,1075.4453" style="stroke:#181818;stroke-width:1;"/><line style="stroke:#181818;stroke-width:1;" x1="1103.9399" x2="1715.0054" y1="1075.4453" y2="1075.4453"/><text fill="#000000" font-family="sans-serif" font-size="13" lengthAdjust="spacing" textLength="235.1553" x="1110.9399" y="1070.3794">db.foodtypes.findOne({_id: typeId})</text></g><g class="message" data-participant-1="DB" data-participant-2="FoodTypeModel"><polygon fill="#181818" points="1114.9399,1100.5781,1104.9399,1104.5781,1114.9399,1108.5781,1110.9399,1104.5781" style="stroke:#181818;stroke-width:1;"/><line style="stroke:#181818;stroke-width:1;stroke-dasharray:2,2;" x1="1108.9399" x2="1725.0054" y1="1104.5781" y2="1104.5781"/><text fill="#000000" font-family="sans-serif" font-size="13" lengthAdjust="spacing" textLength="133.2437" x="1120.9399" y="1099.5122">FoodType document</text></g><g class="message" data-participant-1="FoodTypeModel" data-participant-2="FoodItemModel"><polygon fill="#181818" points="1437.4678,1129.7109,1447.4678,1133.7109,1437.4678,1137.7109,1441.4678,1133.7109" style="stroke:#181818;stroke-width:1;"/><line style="stroke:#181818;stroke-width:1;stroke-dasharray:2,2;" x1="1098.9399" x2="1443.4678" y1="1133.7109" y2="1133.7109"/><text fill="#000000" font-family="sans-serif" font-size="13" lengthAdjust="spacing" textLength="321.5278" x="1105.9399" y="1128.645">FoodType(name, nutrients, image, shelfLifeDays)</text></g><g class="message" data-participant-1="FoodItemModel" data-participant-2="Controller"><polygon fill="#181818" points="650.2559,1173.9766,640.2559,1177.9766,650.2559,1181.9766,646.2559,1177.9766" style="stroke:#181818;stroke-width:1;"/><line style="stroke:#181818;stroke-width:1;stroke-dasharray:2,2;" x1="644.2559" x2="1453.4678" y1="1177.9766" y2="1177.9766"/><text fill="#000000" font-family="sans-serif" font-size="13" lengthAdjust="spacing" textLength="170.7266" x="656.2559" y="1157.7778">Complete FridgeItem data</text><text fill="#000000" font-family="sans-serif" font-size="13" lengthAdjust="spacing" textLength="154.6479" x="656.2559" y="1172.9106">{foodItem + foodType}</text></g><g class="message" data-participant-1="Controller" data-participant-2="Frontend"><polygon fill="#181818" points="261.689,1248.5078,251.689,1252.5078,261.689,1256.5078,257.689,1252.5078" style="stroke:#181818;stroke-width:1;"/><line style="stroke:#181818;stroke-width:1;stroke-dasharray:2,2;" x1="255.689" x2="633.2559" y1="1252.5078" y2="1252.5078"/><text fill="#000000" font-family="sans-serif" font-size="13" lengthAdjust="spacing" textLength="47.7026" x="267.689" y="1202.0435">200 OK</text><text fill="#000000" font-family="sans-serif" font-size="13" lengthAdjust="spacing" textLength="70.5288" x="267.689" y="1217.1763">FridgeItem</text><text fill="#000000" font-family="sans-serif" font-size="13" lengthAdjust="spacing" textLength="182.6221" x="267.689" y="1232.3091">{id, name, brand, nutrients,</text><text fill="#000000" font-family="sans-serif" font-size="13" lengthAdjust="spacing" textLength="237.123" x="267.689" y="1247.4419">image, expirationDate, percentLeft}</text></g><g class="message" data-participant-1="Frontend" data-participant-2="User"><polygon fill="#181818" points="34.9551,1292.7734,24.9551,1296.7734,34.9551,1300.7734,30.9551,1296.7734" style="stroke:#181818;stroke-width:1;"/><line style="stroke:#181818;stroke-width:1;stroke-dasharray:2,2;" x1="28.9551" x2="239.689" y1="1296.7734" y2="1296.7734"/><text fill="#000000" font-family="sans-serif" font-size="13" lengthAdjust="spacing" textLength="182.0889" x="40.9551" y="1276.5747">Display confirmation screen</text><text fill="#000000" font-family="sans-serif" font-size="13" lengthAdjust="spacing" textLength="183.7266" x="40.9551" y="1291.7075">with product info and image</text></g><g class="message" data-participant-1="User" data-participant-2="Frontend"><polygon fill="#181818" points="228.689,1321.9063,238.689,1325.9063,228.689,1329.9063,232.689,1325.9063" style="stroke:#181818;stroke-width:1;"/><line style="stroke:#181818;stroke-width:1;" x1="23.9551" x2="234.689" y1="1325.9063" y2="1325.9063"/><text fill="#000000" font-family="sans-serif" font-size="13" lengthAdjust="spacing" textLength="189.8394" x="30.9551" y="1320.8403">Reviews and clicks "Confirm"</text></g><g class="message" data-participant-1="Frontend" data-participant-2="Frontend"><line style="stroke:#181818;stroke-width:1;" x1="250.689" x2="292.689" y1="1370.1719" y2="1370.1719"/><line style="stroke:#181818;stroke-width:1;" x1="292.689" x2="292.689" y1="1370.1719" y2="1383.1719"/><line style="stroke:#181818;stroke-width:1;" x1="251.689" x2="292.689" y1="1383.1719" y2="1383.1719"/><polygon fill="#181818" points="261.689,1379.1719,251.689,1383.1719,261.689,1387.1719,257.689,1383.1719" style="stroke:#181818;stroke-width:1;"/><text fill="#000000" font-family="sans-serif" font-size="13" lengthAdjust="spacing" textLength="165.293" x="257.689" y="1349.9731">Navigate to fridge screen</text><text fill="#000000" font-family="sans-serif" font-size="13" lengthAdjust="spacing" textLength="111.668" x="257.689" y="1365.106">refresh fridge list</text></g><g class="message" data-participant-1="Frontend" data-participant-2="User"><polygon fill="#181818" points="34.9551,1408.3047,24.9551,1412.3047,34.9551,1416.3047,30.9551,1412.3047" style="stroke:#181818;stroke-width:1;"/><line style="stroke:#181818;stroke-width:1;stroke-dasharray:2,2;" x1="28.9551" x2="244.689" y1="1412.3047" y2="1412.3047"/><text fill="#000000" font-family="sans-serif" font-size="13" lengthAdjust="spacing" textLength="192.7339" x="40.9551" y="1407.2388">Show item in fridge inventory</text></g><path d="M250,1425.3047 L250,1465.3047 L426,1465.3047 L426,1435.3047 L416,1425.3047 L250,1425.3047" fill="#FEFFDD" style="stroke:#181818;stroke-width:0.5;"/><path d="M416,1425.3047 L416,1435.3047 L426,1435.3047 L416,1425.3047" fill="#FEFFDD" style="stroke:#181818;stroke-width:0.5;"/><text fill="#000000" font-family="sans-serif" font-size="13" lengthAdjust="spacing" textLength="155.7397" x="256" y="1442.3716">Back button allows user</text><text fill="#000000" font-family="sans-serif" font-size="13" lengthAdjust="spacing" textLength="138.0234" x="256" y="1457.5044">to cancel at any time</text><!--SRC=[hLRRRjiu47tNLmpyP6DJnyrUsZKM1MAxMQJD3KqM-o8We4NAvbOc1P9swWtyxpkaA56KNQS1DW-EI8tcSixXS0mt1OE_D8CfmP-pCLp91Ln8IM732Ko8oYHbIK8o8vMrKqb9bE4PBuamqBjGKXWcQ2hwvu8goUcW1qH3lHzRNr_1PsvIuTt2VKQ4OCfzSNs5hxhEELsmANfIiYYyNLZ6nhSb4rNY5vYiJiNvtQNxmBwm-ntVkFEmBTarvb5KARTtzeql3Ll5nirEGeaXSujVxrgAXPnDdCriaYGMCNZpeS5Z3DE2PryrzCufTLvwgI22GhQKKZCDSm-DB0sNmkBEDyIm06Zz47krHMh8o8ef0hg2DHLFt2pHO_OLvcjZqDr-EdTISnifHEO2gMTFIHJ9iJDsX3M6kPAhEcIky7_8jYBJ_SARA5vDFMM6POPHw4kHiK4glDTBjEczFVlvbrz_U_V-zrv2MSTfb5OG0rPoU_y0fwJafxdJpQdtc8fd_nHvFa65hCrIAluliG1WQemeXEUFJty_VDY5Mbg2IyApGx6jc37aND39rXVORuKQj6YCH1QjhCVPP0nqFinnt-2-7bgVjuBrdm_3iskvHhdD9XNQSLxr4l04YtLHj36r6YM52JRi6zT6Mn7Keau0_pgPTg3_Q3_YOj6OzJaz0O6ImD-rKPm9eq-WgU44z98L-HNFsOnizS25Q6KLeyGA7RP0IFFAx5pDHoFObp6rTTCOmvyVlQesezDIIRhEp6b3mF0VZQVAVjvuRjgDtQqNUpdTLPvS6IXGxtWCzTDZ1TvSOM_GA5M7ugg2aQ_8WZskLR7RTSjgWXyegQEAJ37yel_i0mLgMeH5BFbiVFpT82vx7z2NnSq5jYDZvOqGs3nGspKmDxYqP_Imxcj4R9e8sd0ut7Mo7SExRegeTRi-V4Xks5FG69NPseBTXTTxE2wtjgSNpi5BmiTsVw3bDFTE876DG5hkBAxsF_jMSkNQsWpVdq39L8QnhrYE6dix6kqwBIbSPT6gmnh7_GvhdS2fY2FZuPDFy5D7IAauba_Snrh5JbsnjDaEDCKKTKheq5E_TTIy0hT1qk4fO7QSemKpvrhBZDla6s7atkZ7YJXusrpIVfNx_t77F78yPPMxrrqiHuY8pqa7cWQDlIFYUipUDV7TatASygbSbGLpGvGT32hjL8stfW4rcdkFknyaEXfhpaOZkFsSYX01dOV3xpjdA30Lli8ZYeiIQKqXOG325En4DuOPrsL1jf19aNErSlvm35IC2Jy5-di5hyvSWXquNVm30-4NPgS_xMmoFwjEAxUzxmoVDsJ35pP98w6QlPhOYkMAwMMzNU2SS2Z_-oMs2TjUxDNkRRdO811IRIC-wZ4umJc0WUABfG6PXtt02REPTu4KXSHQx377DvWUpgyPAeGOh6yB1gzKssNjKC7-0m00]--></g></svg>