<svg xmlns="http://www.w3.org/2000/svg" xmlns:xlink="http://www.w3.org/1999/xlink" contentStyleType="text/css" data-diagram-type="SEQUENCE" height="1089px" preserveAspectRatio="none" style="width:1024px;height:1089px;background:#FFFFFF;" version="1.1" viewBox="0 0 1024 1089" width="1024px" zoomAndPan="magnify"><title>Use Case 2: Log Food via Barcode</title><defs/><g><text fill="#000000" font-family="sans-serif" font-size="14" font-weight="bold" lengthAdjust="spacing" textLength="266.54" x="380.1277" y="27.9951">Use Case 2: Log Food via Barcode</text><rect fill="none" height="207.8672" style="stroke:#000000;stroke-width:1.5;" width="467.1685" x="550.627" y="413.0547"/><g><title>User</title><rect fill="#000000" fill-opacity="0.00000" height="890.1875" width="8" x="19.9551" y="118.5938"/><line style="stroke:#181818;stroke-width:0.5;stroke-dasharray:5,5;" x1="23" x2="23" y1="118.5938" y2="1008.7813"/></g><g><title>Frontend</title><rect fill="#000000" fill-opacity="0.00000" height="890.1875" width="8" x="236.689" y="118.5938"/><line style="stroke:#181818;stroke-width:0.5;stroke-dasharray:5,5;" x1="240.0098" x2="240.0098" y1="118.5938" y2="1008.7813"/></g><g><title>ML Kit</title><rect fill="#000000" fill-opacity="0.00000" height="890.1875" width="8" x="479.9116" y="118.5938"/><line style="stroke:#181818;stroke-width:0.5;stroke-dasharray:5,5;" x1="483.1963" x2="483.1963" y1="118.5938" y2="1008.7813"/></g><g><title>Backend</title><rect fill="#000000" fill-opacity="0.00000" height="890.1875" width="8" x="596.5762" y="118.5938"/><line style="stroke:#181818;stroke-width:0.5;stroke-dasharray:5,5;" x1="599.627" x2="599.627" y1="118.5938" y2="1008.7813"/></g><g><title>Open Food Facts</title><rect fill="#000000" fill-opacity="0.00000" height="890.1875" width="8" x="854.7031" y="118.5938"/><line style="stroke:#181818;stroke-width:0.5;stroke-dasharray:5,5;" x1="857.9653" x2="857.9653" y1="118.5938" y2="1008.7813"/></g><g><title>MongoDB</title><rect fill="#000000" fill-opacity="0.00000" height="890.1875" width="8" x="967.1182" y="118.5938"/><line style="stroke:#181818;stroke-width:0.5;stroke-dasharray:5,5;" x1="970.4409" x2="970.4409" y1="118.5938" y2="1008.7813"/></g><g class="participant participant-head" data-participant="User"><text fill="#000000" font-family="sans-serif" font-size="14" lengthAdjust="spacing" textLength="31.9102" x="5" y="115.292">User</text><ellipse cx="23.9551" cy="50.7969" fill="#E2E2F0" rx="8" ry="8" style="stroke:#181818;stroke-width:0.5;"/><path d="M23.9551,58.7969 L23.9551,85.7969 M10.9551,66.7969 L36.9551,66.7969 M23.9551,85.7969 L10.9551,100.7969 M23.9551,85.7969 L36.9551,100.7969" fill="none" style="stroke:#181818;stroke-width:0.5;"/></g><g class="participant participant-tail" data-participant="User"><text fill="#000000" font-family="sans-serif" font-size="14" lengthAdjust="spacing" textLength="31.9102" x="5" y="1020.7764">User</text><ellipse cx="23.9551" cy="1032.5781" fill="#E2E2F0" rx="8" ry="8" style="stroke:#181818;stroke-width:0.5;"/><path d="M23.9551,1040.5781 L23.9551,1067.5781 M10.9551,1048.5781 L36.9551,1048.5781 M23.9551,1067.5781 L10.9551,1082.5781 M23.9551,1067.5781 L36.9551,1082.5781" fill="none" style="stroke:#181818;stroke-width:0.5;"/></g><g class="participant participant-head" data-participant="Frontend"><rect fill="#E2E2F0" height="46.5938" rx="2.5" ry="2.5" style="stroke:#181818;stroke-width:0.5;" width="79.3584" x="201.0098" y="71"/><text fill="#000000" font-family="sans-serif" font-size="14" lengthAdjust="spacing" textLength="63.1094" x="209.1343" y="90.9951">Frontend</text><text fill="#000000" font-family="sans-serif" font-size="14" lengthAdjust="spacing" textLength="65.3584" x="208.0098" y="107.292">(Android)</text></g><g class="participant participant-tail" data-participant="Frontend"><rect fill="#E2E2F0" height="46.5938" rx="2.5" ry="2.5" style="stroke:#181818;stroke-width:0.5;" width="79.3584" x="201.0098" y="1007.7813"/><text fill="#000000" font-family="sans-serif" font-size="14" lengthAdjust="spacing" textLength="63.1094" x="209.1343" y="1027.7764">Frontend</text><text fill="#000000" font-family="sans-serif" font-size="14" lengthAdjust="spacing" textLength="65.3584" x="208.0098" y="1044.0732">(Android)</text></g><g class="participant participant-head" data-participant="MLKit"><rect fill="#E2E2F0" height="46.5938" rx="2.5" ry="2.5" style="stroke:#181818;stroke-width:0.5;" width="133.4307" x="417.1963" y="71"/><text fill="#000000" font-family="sans-serif" font-size="14" lengthAdjust="spacing" textLength="42.8887" x="462.4673" y="90.9951">ML Kit</text><text fill="#000000" font-family="sans-serif" font-size="14" lengthAdjust="spacing" textLength="119.4307" x="424.1963" y="107.292">Barcode Scanner</text></g><g class="participant participant-tail" data-participant="MLKit"><rect fill="#E2E2F0" height="46.5938" rx="2.5" ry="2.5" style="stroke:#181818;stroke-width:0.5;" width="133.4307" x="417.1963" y="1007.7813"/><text fill="#000000" font-family="sans-serif" font-size="14" lengthAdjust="spacing" textLength="42.8887" x="462.4673" y="1027.7764">ML Kit</text><text fill="#000000" font-family="sans-serif" font-size="14" lengthAdjust="spacing" textLength="119.4307" x="424.1963" y="1044.0732">Barcode Scanner</text></g><g class="participant participant-head" data-participant="Backend"><rect fill="#E2E2F0" height="46.5938" rx="2.5" ry="2.5" style="stroke:#181818;stroke-width:0.5;" width="79.8984" x="560.627" y="71"/><text fill="#000000" font-family="sans-serif" font-size="14" lengthAdjust="spacing" textLength="60.3613" x="570.3955" y="90.9951">Backend</text><text fill="#000000" font-family="sans-serif" font-size="14" lengthAdjust="spacing" textLength="65.8984" x="567.627" y="107.292">(Express)</text></g><g class="participant participant-tail" data-participant="Backend"><rect fill="#E2E2F0" height="46.5938" rx="2.5" ry="2.5" style="stroke:#181818;stroke-width:0.5;" width="79.8984" x="560.627" y="1007.7813"/><text fill="#000000" font-family="sans-serif" font-size="14" lengthAdjust="spacing" textLength="60.3613" x="570.3955" y="1027.7764">Backend</text><text fill="#000000" font-family="sans-serif" font-size="14" lengthAdjust="spacing" textLength="65.8984" x="567.627" y="1044.0732">(Express)</text></g><g class="participant participant-head" data-participant="OpenFood"><rect fill="#E2E2F0" height="46.5938" rx="2.5" ry="2.5" style="stroke:#181818;stroke-width:0.5;" width="131.4756" x="792.9653" y="71"/><text fill="#000000" font-family="sans-serif" font-size="14" lengthAdjust="spacing" textLength="117.4756" x="799.9653" y="90.9951">Open Food Facts</text><text fill="#000000" font-family="sans-serif" font-size="14" lengthAdjust="spacing" textLength="22.1484" x="847.6289" y="107.292">API</text></g><g class="participant participant-tail" data-participant="OpenFood"><rect fill="#E2E2F0" height="46.5938" rx="2.5" ry="2.5" style="stroke:#181818;stroke-width:0.5;" width="131.4756" x="792.9653" y="1007.7813"/><text fill="#000000" font-family="sans-serif" font-size="14" lengthAdjust="spacing" textLength="117.4756" x="799.9653" y="1027.7764">Open Food Facts</text><text fill="#000000" font-family="sans-serif" font-size="14" lengthAdjust="spacing" textLength="22.1484" x="847.6289" y="1044.0732">API</text></g><g class="participant participant-head" data-participant="DB"><text fill="#000000" font-family="sans-serif" font-size="14" lengthAdjust="spacing" textLength="67.3545" x="934.4409" y="115.292">MongoDB</text><path d="M953.1182,66.2969 C953.1182,56.2969 971.1182,56.2969 971.1182,56.2969 C971.1182,56.2969 989.1182,56.2969 989.1182,66.2969 L989.1182,92.2969 C989.1182,102.2969 971.1182,102.2969 971.1182,102.2969 C971.1182,102.2969 953.1182,102.2969 953.1182,92.2969 L953.1182,66.2969" fill="#E2E2F0" style="stroke:#181818;stroke-width:0.5;"/><path d="M953.1182,66.2969 C953.1182,76.2969 971.1182,76.2969 971.1182,76.2969 C971.1182,76.2969 989.1182,76.2969 989.1182,66.2969" fill="none" style="stroke:#181818;stroke-width:0.5;"/></g><g class="participant participant-tail" data-participant="DB"><text fill="#000000" font-family="sans-serif" font-size="14" lengthAdjust="spacing" textLength="67.3545" x="934.4409" y="1020.7764">MongoDB</text><path d="M953.1182,1034.0781 C953.1182,1024.0781 971.1182,1024.0781 971.1182,1024.0781 C971.1182,1024.0781 989.1182,1024.0781 989.1182,1034.0781 L989.1182,1060.0781 C989.1182,1070.0781 971.1182,1070.0781 971.1182,1070.0781 C971.1182,1070.0781 953.1182,1070.0781 953.1182,1060.0781 L953.1182,1034.0781" fill="#E2E2F0" style="stroke:#181818;stroke-width:0.5;"/><path d="M953.1182,1034.0781 C953.1182,1044.0781 971.1182,1044.0781 971.1182,1044.0781 C971.1182,1044.0781 989.1182,1044.0781 989.1182,1034.0781" fill="none" style="stroke:#181818;stroke-width:0.5;"/></g><g class="message" data-participant-1="User" data-participant-2="Frontend"><polygon fill="#181818" points="228.689,160.8594,238.689,164.8594,228.689,168.8594,232.689,164.8594" style="stroke:#181818;stroke-width:1;"/><line style="stroke:#181818;stroke-width:1;" x1="23.9551" x2="234.689" y1="164.8594" y2="164.8594"/><text fill="#000000" font-family="sans-serif" font-size="13" lengthAdjust="spacing" textLength="115.0068" x="30.9551" y="144.6606">Clicks "Add Food"</text><text fill="#000000" font-family="sans-serif" font-size="13" lengthAdjust="spacing" textLength="183.7139" x="30.9551" y="159.7935">and chooses barcode option</text></g><g class="message" data-participant-1="Frontend" data-participant-2="Frontend"><line style="stroke:#181818;stroke-width:1;" x1="240.689" x2="282.689" y1="209.125" y2="209.125"/><line style="stroke:#181818;stroke-width:1;" x1="282.689" x2="282.689" y1="209.125" y2="222.125"/><line style="stroke:#181818;stroke-width:1;" x1="241.689" x2="282.689" y1="222.125" y2="222.125"/><polygon fill="#181818" points="251.689,218.125,241.689,222.125,251.689,226.125,247.689,222.125" style="stroke:#181818;stroke-width:1;"/><text fill="#000000" font-family="sans-serif" font-size="13" lengthAdjust="spacing" textLength="150.5537" x="247.689" y="188.9263">Opens camera scanner</text><text fill="#000000" font-family="sans-serif" font-size="13" lengthAdjust="spacing" textLength="109.6177" x="247.689" y="204.0591">with back button</text></g><g class="message" data-participant-1="User" data-participant-2="Frontend"><polygon fill="#181818" points="228.689,247.2578,238.689,251.2578,228.689,255.2578,232.689,251.2578" style="stroke:#181818;stroke-width:1;"/><line style="stroke:#181818;stroke-width:1;" x1="23.9551" x2="234.689" y1="251.2578" y2="251.2578"/><text fill="#000000" font-family="sans-serif" font-size="13" lengthAdjust="spacing" textLength="164.9502" x="30.9551" y="246.1919">Positions barcode in view</text></g><g class="message" data-participant-1="Frontend" data-participant-2="MLKit"><polygon fill="#181818" points="471.9116,276.3906,481.9116,280.3906,471.9116,284.3906,475.9116,280.3906" style="stroke:#181818;stroke-width:1;"/><line style="stroke:#181818;stroke-width:1;" x1="240.689" x2="477.9116" y1="280.3906" y2="280.3906"/><text fill="#000000" font-family="sans-serif" font-size="13" lengthAdjust="spacing" textLength="219.2227" x="247.689" y="275.3247">Scan barcode from camera frame</text></g><g class="message" data-participant-1="MLKit" data-participant-2="Frontend"><polygon fill="#181818" points="251.689,320.6563,241.689,324.6563,251.689,328.6563,247.689,324.6563" style="stroke:#181818;stroke-width:1;"/><line style="stroke:#181818;stroke-width:1;stroke-dasharray:2,2;" x1="245.689" x2="482.9116" y1="324.6563" y2="324.6563"/><text fill="#000000" font-family="sans-serif" font-size="13" lengthAdjust="spacing" textLength="161.167" x="257.689" y="304.4575">Barcode detected (once)</text><text fill="#000000" font-family="sans-serif" font-size="13" lengthAdjust="spacing" textLength="81.0342" x="257.689" y="319.5903">(barcode ID)</text></g><g class="message" data-participant-1="Frontend" data-participant-2="Backend"><polygon fill="#181818" points="588.5762,364.9219,598.5762,368.9219,588.5762,372.9219,592.5762,368.9219" style="stroke:#181818;stroke-width:1;"/><line style="stroke:#181818;stroke-width:1;" x1="240.689" x2="594.5762" y1="368.9219" y2="368.9219"/><text fill="#000000" font-family="sans-serif" font-size="13" lengthAdjust="spacing" textLength="162.3159" x="247.689" y="348.7231">POST /api/fridge/barcode</text><text fill="#000000" font-family="sans-serif" font-size="13" lengthAdjust="spacing" textLength="164.3662" x="247.689" y="363.856">{barcode: "123456789"}</text></g><g class="message" data-participant-1="Backend" data-participant-2="DB"><polygon fill="#181818" points="959.1182,394.0547,969.1182,398.0547,959.1182,402.0547,963.1182,398.0547" style="stroke:#181818;stroke-width:1;"/><line style="stroke:#181818;stroke-width:1;" x1="600.5762" x2="965.1182" y1="398.0547" y2="398.0547"/><text fill="#000000" font-family="sans-serif" font-size="13" lengthAdjust="spacing" textLength="225.583" x="607.5762" y="392.9888">FoodType.findByBarcode(barcode)</text></g><path d="M550.627,413.0547 L615.0698,413.0547 L615.0698,420.1875 L605.0698,430.1875 L550.627,430.1875 L550.627,413.0547" fill="#EEEEEE" style="stroke:#000000;stroke-width:1.5;"/><rect fill="none" height="207.8672" style="stroke:#000000;stroke-width:1.5;" width="467.1685" x="550.627" y="413.0547"/><text fill="#000000" font-family="sans-serif" font-size="13" font-weight="bold" lengthAdjust="spacing" textLength="19.4429" x="565.627" y="426.1216">alt</text><text fill="#000000" font-family="sans-serif" font-size="11" font-weight="bold" lengthAdjust="spacing" textLength="187.6177" x="630.0698" y="425.2651">[FoodType exists in database]</text><g class="message" data-participant-1="DB" data-participant-2="Backend"><polygon fill="#181818" points="611.5762,447.3203,601.5762,451.3203,611.5762,455.3203,607.5762,451.3203" style="stroke:#181818;stroke-width:1;"/><line style="stroke:#181818;stroke-width:1;stroke-dasharray:2,2;" x1="605.5762" x2="970.1182" y1="451.3203" y2="451.3203"/><text fill="#000000" font-family="sans-serif" font-size="13" lengthAdjust="spacing" textLength="119.1455" x="617.5762" y="446.2544">Existing FoodType</text></g><line style="stroke:#000000;stroke-width:1;stroke-dasharray:2,2;" x1="550.627" x2="1017.7954" y1="460.3203" y2="460.3203"/><text fill="#000000" font-family="sans-serif" font-size="11" font-weight="bold" lengthAdjust="spacing" textLength="171.585" x="555.627" y="470.5308">[FoodType not in database]</text><g class="message" data-participant-1="Backend" data-participant-2="OpenFood"><polygon fill="#181818" points="846.7031,491.2578,856.7031,495.2578,846.7031,499.2578,850.7031,495.2578" style="stroke:#181818;stroke-width:1;"/><line style="stroke:#181818;stroke-width:1;" x1="600.5762" x2="852.7031" y1="495.2578" y2="495.2578"/><text fill="#000000" font-family="sans-serif" font-size="13" lengthAdjust="spacing" textLength="234.127" x="607.5762" y="490.1919">GET /api/v0/product/{barcode}.json</text></g><g class="message" data-participant-1="OpenFood" data-participant-2="Backend"><polygon fill="#181818" points="611.5762,535.5234,601.5762,539.5234,611.5762,543.5234,607.5762,539.5234" style="stroke:#181818;stroke-width:1;"/><line style="stroke:#181818;stroke-width:1;stroke-dasharray:2,2;" x1="605.5762" x2="857.7031" y1="539.5234" y2="539.5234"/><text fill="#000000" font-family="sans-serif" font-size="13" lengthAdjust="spacing" textLength="83.2876" x="617.5762" y="519.3247">Product data</text><text fill="#000000" font-family="sans-serif" font-size="13" lengthAdjust="spacing" textLength="208.9902" x="617.5762" y="534.4575">(name, brand, nutrients, image)</text></g><g class="message" data-participant-1="Backend" data-participant-2="DB"><polygon fill="#181818" points="959.1182,579.7891,969.1182,583.7891,959.1182,587.7891,963.1182,583.7891" style="stroke:#181818;stroke-width:1;"/><line style="stroke:#181818;stroke-width:1;" x1="600.5762" x2="965.1182" y1="583.7891" y2="583.7891"/><text fill="#000000" font-family="sans-serif" font-size="13" lengthAdjust="spacing" textLength="119.3486" x="607.5762" y="563.5903">FoodType.create()</text><text fill="#000000" font-family="sans-serif" font-size="13" lengthAdjust="spacing" textLength="282.5151" x="607.5762" y="578.7231">(name, barcodeId, nutrients, shelfLifeDays)</text></g><g class="message" data-participant-1="DB" data-participant-2="Backend"><polygon fill="#181818" points="611.5762,608.9219,601.5762,612.9219,611.5762,616.9219,607.5762,612.9219" style="stroke:#181818;stroke-width:1;"/><line style="stroke:#181818;stroke-width:1;stroke-dasharray:2,2;" x1="605.5762" x2="970.1182" y1="612.9219" y2="612.9219"/><text fill="#000000" font-family="sans-serif" font-size="13" lengthAdjust="spacing" textLength="165.731" x="617.5762" y="607.856">New FoodType document</text></g><g class="message" data-participant-1="Backend" data-participant-2="DB"><polygon fill="#181818" points="959.1182,660.1875,969.1182,664.1875,959.1182,668.1875,963.1182,664.1875" style="stroke:#181818;stroke-width:1;"/><line style="stroke:#181818;stroke-width:1;" x1="600.5762" x2="965.1182" y1="664.1875" y2="664.1875"/><text fill="#000000" font-family="sans-serif" font-size="13" lengthAdjust="spacing" textLength="117.0571" x="607.5762" y="643.9888">FoodItem.create()</text><text fill="#000000" font-family="sans-serif" font-size="13" lengthAdjust="spacing" textLength="324.0415" x="607.5762" y="659.1216">(userId, typeId, expirationDate, percentLeft=100)</text></g><g class="message" data-participant-1="DB" data-participant-2="Backend"><polygon fill="#181818" points="611.5762,689.3203,601.5762,693.3203,611.5762,697.3203,607.5762,693.3203" style="stroke:#181818;stroke-width:1;"/><line style="stroke:#181818;stroke-width:1;stroke-dasharray:2,2;" x1="605.5762" x2="970.1182" y1="693.3203" y2="693.3203"/><text fill="#000000" font-family="sans-serif" font-size="13" lengthAdjust="spacing" textLength="117.0952" x="617.5762" y="688.2544">Created FoodItem</text></g><g class="message" data-participant-1="Backend" data-participant-2="DB"><polygon fill="#181818" points="959.1182,718.4531,969.1182,722.4531,959.1182,726.4531,963.1182,722.4531" style="stroke:#181818;stroke-width:1;"/><line style="stroke:#181818;stroke-width:1;" x1="600.5762" x2="965.1182" y1="722.4531" y2="722.4531"/><text fill="#000000" font-family="sans-serif" font-size="13" lengthAdjust="spacing" textLength="230.8389" x="607.5762" y="717.3872">FoodItem.getAssociatedFoodType()</text></g><g class="message" data-participant-1="DB" data-participant-2="Backend"><polygon fill="#181818" points="611.5762,747.5859,601.5762,751.5859,611.5762,755.5859,607.5762,751.5859" style="stroke:#181818;stroke-width:1;"/><line style="stroke:#181818;stroke-width:1;stroke-dasharray:2,2;" x1="605.5762" x2="970.1182" y1="751.5859" y2="751.5859"/><text fill="#000000" font-family="sans-serif" font-size="13" lengthAdjust="spacing" textLength="170.7266" x="617.5762" y="746.52">Complete FridgeItem data</text></g><g class="message" data-participant-1="Backend" data-participant-2="Frontend"><polygon fill="#181818" points="251.689,791.8516,241.689,795.8516,251.689,799.8516,247.689,795.8516" style="stroke:#181818;stroke-width:1;"/><line style="stroke:#181818;stroke-width:1;stroke-dasharray:2,2;" x1="245.689" x2="599.5762" y1="795.8516" y2="795.8516"/><text fill="#000000" font-family="sans-serif" font-size="13" lengthAdjust="spacing" textLength="47.7026" x="257.689" y="775.6528">200 OK</text><text fill="#000000" font-family="sans-serif" font-size="13" lengthAdjust="spacing" textLength="173.856" x="257.689" y="790.7856">FridgeItem with full details</text></g><g class="message" data-participant-1="Frontend" data-participant-2="User"><polygon fill="#181818" points="34.9551,836.1172,24.9551,840.1172,34.9551,844.1172,30.9551,840.1172" style="stroke:#181818;stroke-width:1;"/><line style="stroke:#181818;stroke-width:1;stroke-dasharray:2,2;" x1="28.9551" x2="239.689" y1="840.1172" y2="840.1172"/><text fill="#000000" font-family="sans-serif" font-size="13" lengthAdjust="spacing" textLength="182.0889" x="40.9551" y="819.9185">Display confirmation screen</text><text fill="#000000" font-family="sans-serif" font-size="13" lengthAdjust="spacing" textLength="110.5127" x="40.9551" y="835.0513">with product info</text></g><g class="message" data-participant-1="User" data-participant-2="Frontend"><polygon fill="#181818" points="228.689,865.25,238.689,869.25,228.689,873.25,232.689,869.25" style="stroke:#181818;stroke-width:1;"/><line style="stroke:#181818;stroke-width:1;" x1="23.9551" x2="234.689" y1="869.25" y2="869.25"/><text fill="#000000" font-family="sans-serif" font-size="13" lengthAdjust="spacing" textLength="189.8394" x="30.9551" y="864.1841">Reviews and clicks "Confirm"</text></g><g class="message" data-participant-1="Frontend" data-participant-2="Frontend"><line style="stroke:#181818;stroke-width:1;" x1="240.689" x2="282.689" y1="898.3828" y2="898.3828"/><line style="stroke:#181818;stroke-width:1;" x1="282.689" x2="282.689" y1="898.3828" y2="911.3828"/><line style="stroke:#181818;stroke-width:1;" x1="241.689" x2="282.689" y1="911.3828" y2="911.3828"/><polygon fill="#181818" points="251.689,907.3828,241.689,911.3828,251.689,915.3828,247.689,911.3828" style="stroke:#181818;stroke-width:1;"/><text fill="#000000" font-family="sans-serif" font-size="13" lengthAdjust="spacing" textLength="115.356" x="247.689" y="893.3169">Refresh fridge list</text></g><g class="message" data-participant-1="Frontend" data-participant-2="User"><polygon fill="#181818" points="34.9551,936.5156,24.9551,940.5156,34.9551,944.5156,30.9551,940.5156" style="stroke:#181818;stroke-width:1;"/><line style="stroke:#181818;stroke-width:1;stroke-dasharray:2,2;" x1="28.9551" x2="239.689" y1="940.5156" y2="940.5156"/><text fill="#000000" font-family="sans-serif" font-size="13" lengthAdjust="spacing" textLength="192.7339" x="40.9551" y="935.4497">Show item in fridge inventory</text></g><path d="M245,953.5156 L245,993.5156 L421,993.5156 L421,963.5156 L411,953.5156 L245,953.5156" fill="#FEFFDD" style="stroke:#181818;stroke-width:0.5;"/><path d="M411,953.5156 L411,963.5156 L421,963.5156 L411,953.5156" fill="#FEFFDD" style="stroke:#181818;stroke-width:0.5;"/><text fill="#000000" font-family="sans-serif" font-size="13" lengthAdjust="spacing" textLength="155.7397" x="251" y="970.5825">Back button allows user</text><text fill="#000000" font-family="sans-serif" font-size="13" lengthAdjust="spacing" textLength="138.0234" x="251" y="985.7153">to cancel at any time</text><!--SRC=[TLHDR-8m4BtxLuno0eaMslr6sfM0j2jKkgtQxesBiIVWRR0ZsvIYglzznyu7fAKSI1JFlFTc_6QyyZd2NuSmuVHtFeIPMSAbCHAU58Snjy98P8mBRso8iwpWrYkX2guz99VMQ8zQpdLdfAKrIdOJu0xgx-tewnbSAJ_N5IpS2wursfXnFQEZTlYOYySI- -AviEXSYLrzRiVU5AXBtPUarStrw7OQeyD1-CuaztmHYaokZLwQT1oFqp5ZeImu-TM87i8aL-BHGJAICe8cSysr1B4ong63HQNV55uPpUgyDaOWTY3u6Yq7LrOwrrlbLvGl7c6nyPwItvFV6gS2xfv7QReDtB8MKspOCFQm2SoiMTUKcQKdYr5mqYAeso_He_0eeMEqm2xrkSQPfjqsMTLp4dTp_m1zNgX-PfLSOhzAcUkNwcq8oTdvfyzVldxx_YDvPQnA3IZfU1ZR-R0hy3HJMevtbPQQcMXvxfiWm6Vbl0iDgA-F0VtISIofKNKHmfHUDeaCSxhf1aOR_mxZG5VjaI7ylgYgUnhq2slaHlX-NTZhwJz75nPowuIsYjio8T9GCpNrlmSBIyxfWTvugr1xrmErvijGw1iHhUO8YznZfxk7AJLCsr1kXNasKnccVEUwHrlp1xVxFaWZDcjAPM5-ZjtCrEFwa7n3xWoSdhB34vyBPNbmPqeXFIZG2iAROUP_dWq6NVQMVXAnP0F-CUiI_SWv8rI8hnLtZY2QTP6JSydGmO0XDtRy0BdbzlF106wkvleWF0vXjidpC09SvUx0wvGRHd88gN95pdSWZCwKNSUYQOujegx6k388EIipH-Ru3iFGEeYRereean8i-M1dt656UuwqHQsGawkFIRjVcIseK0cPkefL-eakmjWTO-Hs1AkMAmycsw_YqctLtW6UvuR4XGkc4szeRT0Io85x4hm3hsXv1DO0zXy0]--></g></svg>