<?xml version="1.0" encoding="us-ascii" standalone="no"?><svg xmlns="http://www.w3.org/2000/svg" xmlns:xlink="http://www.w3.org/1999/xlink" contentStyleType="text/css" height="705px" preserveAspectRatio="none" style="width:823px;height:705px;background:#FFFFFF;" version="1.1" viewBox="0 0 823 705" width="823px" zoomAndPan="magnify"><defs/><g><text fill="#000000" font-family="sans-serif" font-size="14" font-weight="bold" lengthAdjust="spacing" textLength="256" x="276.5" y="23.5352">Virtual Fridge Dependency Diagram</text><!--cluster Backend--><g id="cluster_Backend"><rect fill="#FFFFFF" height="371" rx="5" ry="5" style="stroke:#000000;stroke-width:1.0;" width="317.5" x="353" y="151.6183"/><text fill="#000000" font-family="sans-serif" font-size="14" font-weight="bold" lengthAdjust="spacing" textLength="59" x="482.25" y="167.1534">Backend</text></g><!--entity Fridge--><g id="elem_Fridge"><rect fill="#FFFFFF" height="36.4883" rx="5" ry="5" style="stroke:#000000;stroke-width:0.5;" width="64" x="386.5" y="257.3683"/><text fill="#000000" font-family="sans-serif" font-size="14" lengthAdjust="spacing" textLength="44" x="396.5" y="280.9034">Fridge</text></g><!--entity FoodItem--><g id="elem_FoodItem"><rect fill="#FFFFFF" height="36.4883" rx="5" ry="5" style="stroke:#000000;stroke-width:0.5;" width="89" x="564" y="257.3683"/><text fill="#000000" font-family="sans-serif" font-size="14" lengthAdjust="spacing" textLength="69" x="574" y="280.9034">Food Item</text></g><!--entity FoodType--><g id="elem_FoodType"><rect fill="#FFFFFF" height="36.4883" rx="5" ry="5" style="stroke:#000000;stroke-width:0.5;" width="92" x="562.5" y="328.3683"/><text fill="#000000" font-family="sans-serif" font-size="14" lengthAdjust="spacing" textLength="72" x="572.5" y="351.9034">Food Type</text></g><!--entity aiVision--><g id="elem_aiVision"><rect fill="#FFFFFF" height="36.4883" rx="5" ry="5" style="stroke:#000000;stroke-width:0.5;" width="80" x="568.5" y="433.3683"/><text fill="#000000" font-family="sans-serif" font-size="14" lengthAdjust="spacing" textLength="60" x="578.5" y="456.9034">AI Vision</text></g><!--entity Media--><g id="elem_Media"><rect fill="#FFFFFF" height="36.4883" rx="5" ry="5" style="stroke:#000000;stroke-width:0.5;" width="61" x="388" y="328.3683"/><text fill="#000000" font-family="sans-serif" font-size="14" lengthAdjust="spacing" textLength="41" x="398" y="351.9034">Media</text></g><!--entity User--><g id="elem_User"><rect fill="#FFFFFF" height="36.4883" rx="5" ry="5" style="stroke:#000000;stroke-width:0.5;" width="51" x="393" y="186.3683"/><text fill="#000000" font-family="sans-serif" font-size="14" lengthAdjust="spacing" textLength="31" x="403" y="209.9034">User</text></g><!--entity Notification--><g id="elem_Notification"><rect fill="#FFFFFF" height="36.4883" rx="5" ry="5" style="stroke:#000000;stroke-width:0.5;" width="99" x="369" y="399.3683"/><text fill="#000000" font-family="sans-serif" font-size="14" lengthAdjust="spacing" textLength="79" x="379" y="422.9034">Notification</text></g><!--entity Recipe--><g id="elem_Recipe"><rect fill="#FFFFFF" height="36.4883" rx="5" ry="5" style="stroke:#000000;stroke-width:0.5;" width="65" x="386" y="470.3683"/><text fill="#000000" font-family="sans-serif" font-size="14" lengthAdjust="spacing" textLength="45" x="396" y="493.9034">Recipe</text></g><!--entity BarcodeScanner--><g id="elem_BarcodeScanner"><rect fill="#FFFFFF" height="36.4883" rx="5" ry="5" style="stroke:#000000;stroke-width:0.5;" width="134" x="19.5" y="257.3683"/><text fill="#000000" font-family="sans-serif" font-size="14" lengthAdjust="spacing" textLength="114" x="29.5" y="280.9034">Barcode Scanner</text></g><!--entity GoogleNotifications_Front--><g id="elem_GoogleNotifications_Front"><rect fill="#FFFFFF" height="36.4883" rx="5" ry="5" style="stroke:#000000;stroke-width:0.5;" width="159" x="7" y="328.3683"/><text fill="#000000" font-family="sans-serif" font-size="14" lengthAdjust="spacing" textLength="139" x="17" y="351.9034">Google Notifications</text></g><!--entity GoogleAuth--><g id="elem_GoogleAuth"><rect fill="#FFFFFF" height="36.4883" rx="5" ry="5" style="stroke:#000000;stroke-width:0.5;" width="106" x="33.5" y="399.3683"/><text fill="#000000" font-family="sans-serif" font-size="14" lengthAdjust="spacing" textLength="86" x="43.5" y="422.9034">Google Auth</text></g><!--entity Frontend--><g id="elem_Frontend"><rect fill="#FFFFFF" height="36.4883" rx="5" ry="5" style="stroke:#000000;stroke-width:0.5;" width="83" x="226" y="328.3683"/><text fill="#000000" font-family="sans-serif" font-size="14" lengthAdjust="spacing" textLength="63" x="236" y="351.9034">Frontend</text></g><!--entity OpenFoodFacts--><g id="elem_OpenFoodFacts"><rect fill="#FFFFFF" height="36.4883" rx="5" ry="5" style="stroke:#000000;stroke-width:0.5;" width="161" x="528" y="99.3683"/><text fill="#000000" font-family="sans-serif" font-size="14" lengthAdjust="spacing" textLength="141" x="538" y="122.9034">Open Food Facts API</text></g><!--entity DB--><g id="elem_DB"><rect fill="#FFFFFF" height="36.4883" rx="5" ry="5" style="stroke:#000000;stroke-width:0.5;" width="38" x="764" y="257.3683"/><text fill="#000000" font-family="sans-serif" font-size="14" lengthAdjust="spacing" textLength="18" x="774" y="280.9034">DB</text></g><!--entity GoogleNotifications_Back--><g id="elem_GoogleNotifications_Back"><rect fill="#FFFFFF" height="36.4883" rx="5" ry="5" style="stroke:#000000;stroke-width:0.5;" width="159" x="529" y="538.3683"/><text fill="#000000" font-family="sans-serif" font-size="14" lengthAdjust="spacing" textLength="139" x="539" y="561.9034">Google Notifications</text></g><!--entity TheMealDB--><g id="elem_TheMealDB"><rect fill="#FFFFFF" height="36.4883" rx="5" ry="5" style="stroke:#000000;stroke-width:0.5;" width="122" x="547.5" y="609.3683"/><text fill="#000000" font-family="sans-serif" font-size="14" lengthAdjust="spacing" textLength="102" x="557.5" y="632.9034">TheMealDB API</text></g><!--entity Gemini--><g id="elem_Gemini"><rect fill="#FFFFFF" height="36.4883" rx="5" ry="5" style="stroke:#000000;stroke-width:0.5;" width="68" x="749" y="573.3683"/><text fill="#000000" font-family="sans-serif" font-size="14" lengthAdjust="spacing" textLength="48" x="759" y="596.9034">Gemini</text></g><!--reverse link BarcodeScanner to Frontend--><g id="link_BarcodeScanner_Frontend"><path d="M140.1071,296.481 C168.3871,307.701 198.45,319.6183 225.56,330.3783 " fill="none" id="BarcodeScanner-backto-Frontend" style="stroke:#181818;stroke-width:1.0;"/><polygon fill="#181818" points="134.53,294.2683,141.4205,301.3054,139.1776,296.1122,144.3708,293.8693,134.53,294.2683" style="stroke:#181818;stroke-width:1.0;"/></g><!--link GoogleNotifications_Front to Frontend--><g id="link_GoogleNotifications_Front_Frontend"><path d="M166.27,346.6183 C186.72,346.6183 201.93,346.6183 219.54,346.6183 " fill="none" id="GoogleNotifications_Front-to-Frontend" style="stroke:#181818;stroke-width:1.0;"/><polygon fill="#181818" points="225.54,346.6183,216.54,342.6183,220.54,346.6183,216.54,350.6183,225.54,346.6183" style="stroke:#181818;stroke-width:1.0;"/></g><!--reverse link GoogleAuth to Frontend--><g id="link_GoogleAuth_Frontend"><path d="M140.1071,396.7456 C168.3871,385.5256 198.45,373.6083 225.56,362.8483 " fill="none" id="GoogleAuth-backto-Frontend" style="stroke:#181818;stroke-width:1.0;"/><polygon fill="#181818" points="134.53,398.9583,144.3708,399.3573,139.1776,397.1144,141.4205,391.9212,134.53,398.9583" style="stroke:#181818;stroke-width:1.0;"/></g><!--link Frontend to Fridge--><g id="link_Frontend_Fridge"><path d="M307.65,327.9583 C332.14,316.2883 357.8432,304.0387 380.7032,293.1487 " fill="none" id="Frontend-to-Fridge" style="stroke:#181818;stroke-width:1.0;"/><polygon fill="#181818" points="386.12,290.5683,376.2746,290.8277,381.606,292.7186,379.7151,298.0501,386.12,290.5683" style="stroke:#181818;stroke-width:1.0;"/></g><!--link Frontend to Media--><g id="link_Frontend_Media"><path d="M309.21,346.6183 C334.03,346.6183 359.19,346.6183 381.71,346.6183 " fill="none" id="Frontend-to-Media" style="stroke:#181818;stroke-width:1.0;"/><polygon fill="#181818" points="387.71,346.6183,378.71,342.6183,382.71,346.6183,378.71,350.6183,387.71,346.6183" style="stroke:#181818;stroke-width:1.0;"/></g><!--link Frontend to User--><g id="link_Frontend_User"><path d="M277.88,328.1883 C290.47,304.9783 314.78,265.0583 345,239.6183 C359,227.8183 372.0786,221.1301 386.9586,215.2601 " fill="none" id="Frontend-to-User" style="stroke:#181818;stroke-width:1.0;"/><polygon fill="#181818" points="392.54,213.0583,382.7,212.6401,387.8888,214.8931,385.6358,220.0819,392.54,213.0583" style="stroke:#181818;stroke-width:1.0;"/></g><!--link Frontend to Recipe--><g id="link_Frontend_Recipe"><path d="M277.88,365.0383 C290.47,388.2483 314.78,428.1683 345,453.6183 C356.97,463.6983 366.8313,469.3036 380.3313,475.0636 " fill="none" id="Frontend-to-Recipe" style="stroke:#181818;stroke-width:1.0;"/><polygon fill="#181818" points="385.85,477.4183,379.1418,470.2072,381.2511,475.4561,376.0022,477.5654,385.85,477.4183" style="stroke:#181818;stroke-width:1.0;"/></g><!--link Frontend to Notification--><g id="link_Frontend_Notification"><path d="M307.65,365.2683 C329.46,375.6583 351.1228,385.9888 372.9428,396.3788 " fill="none" id="Frontend-to-Notification" style="stroke:#181818;stroke-width:1.0;"/><polygon fill="#181818" points="378.36,398.9583,371.9539,391.4776,373.8457,396.8087,368.5145,398.7005,378.36,398.9583" style="stroke:#181818;stroke-width:1.0;"/></g><!--link Fridge to OpenFoodFacts--><g id="link_Fridge_OpenFoodFacts"><path d="M447.83,256.8883 C454.68,251.8983 461.81,246.3083 468,240.6183 C498.16,212.8783 497.33,197.7883 528,170.6183 C542.53,157.7383 555.2899,148.7449 570.3999,139.3149 " fill="none" id="Fridge-to-OpenFoodFacts" style="stroke:#181818;stroke-width:1.0;"/><polygon fill="#181818" points="575.49,136.1383,565.7371,137.5099,571.2483,138.7855,569.9727,144.2967,575.49,136.1383" style="stroke:#181818;stroke-width:1.0;"/></g><!--link Fridge to FoodType--><g id="link_Fridge_FoodType"><path d="M450.97,287.4983 C481.38,298.9883 522.1769,314.3887 556.5769,327.3787 " fill="none" id="Fridge-to-FoodType" style="stroke:#181818;stroke-width:1.0;"/><polygon fill="#181818" points="562.19,329.4983,555.1834,322.5768,557.5124,327.7319,552.3572,330.061,562.19,329.4983" style="stroke:#181818;stroke-width:1.0;"/></g><!--link Fridge to FoodItem--><g id="link_Fridge_FoodItem"><path d="M450.97,275.6183 C481.8,275.6183 523.07,275.6183 557.6,275.6183 " fill="none" id="Fridge-to-FoodItem" style="stroke:#181818;stroke-width:1.0;"/><polygon fill="#181818" points="563.6,275.6183,554.6,271.6183,558.6,275.6183,554.6,279.6183,563.6,275.6183" style="stroke:#181818;stroke-width:1.0;"/></g><!--link FoodItem to DB--><g id="link_FoodItem_DB"><path d="M653.48,275.6183 C689.21,275.6183 731.81,275.6183 757.81,275.6183 " fill="none" id="FoodItem-to-DB" style="stroke:#181818;stroke-width:1.0;"/><polygon fill="#181818" points="763.81,275.6183,754.81,271.6183,758.81,275.6183,754.81,279.6183,763.81,275.6183" style="stroke:#181818;stroke-width:1.0;"/></g><!--link FoodType to DB--><g id="link_FoodType_DB"><path d="M654.82,327.9583 C690.36,313.3283 732.4114,296.0216 758.1214,285.4416 " fill="none" id="FoodType-to-DB" style="stroke:#181818;stroke-width:1.0;"/><polygon fill="#181818" points="763.67,283.1583,753.825,282.8842,759.0462,285.061,756.8694,290.2823,763.67,283.1583" style="stroke:#181818;stroke-width:1.0;"/></g><!--link aiVision to Gemini--><g id="link_aiVision_Gemini"><path d="M632.41,470.2083 C665.4,496.9783 721.291,542.3475 754.341,569.1675 " fill="none" id="aiVision-to-Gemini" style="stroke:#181818;stroke-width:1.0;"/><polygon fill="#181818" points="759,572.9483,754.532,564.1712,755.1175,569.7977,749.4911,570.3831,759,572.9483" style="stroke:#181818;stroke-width:1.0;"/></g><!--link Media to aiVision--><g id="link_Media_aiVision"><path d="M449.29,363.2483 C483.25,382.2183 533.3915,410.2229 568.8115,430.0029 " fill="none" id="Media-to-aiVision" style="stroke:#181818;stroke-width:1.0;"/><polygon fill="#181818" points="574.05,432.9283,568.1425,425.0478,569.6846,430.4904,564.242,432.0325,574.05,432.9283" style="stroke:#181818;stroke-width:1.0;"/></g><!--link Media to FoodType--><g id="link_Media_FoodType"><path d="M449.29,346.6183 C479.63,346.6183 521.05,346.6183 556.08,346.6183 " fill="none" id="Media-to-FoodType" style="stroke:#181818;stroke-width:1.0;"/><polygon fill="#181818" points="562.08,346.6183,553.08,342.6183,557.08,346.6183,553.08,350.6183,562.08,346.6183" style="stroke:#181818;stroke-width:1.0;"/></g><!--link Media to FoodItem--><g id="link_Media_FoodItem"><path d="M449.29,335.3683 C480.04,323.7483 522.7372,307.6288 557.8872,294.3488 " fill="none" id="Media-to-FoodItem" style="stroke:#181818;stroke-width:1.0;"/><polygon fill="#181818" points="563.5,292.2283,553.6671,291.6673,558.8227,293.9954,556.4945,299.151,563.5,292.2283" style="stroke:#181818;stroke-width:1.0;"/></g><!--link User to DB--><g id="link_User_DB"><path d="M429.09,186.0083 C445.09,157.2783 480.24,103.1683 528,81.6183 C593.22,52.1783 628.45,43.4883 689,81.6183 C751.9,121.2183 772.2769,210.5513 778.6469,251.0113 " fill="none" id="User-to-DB" style="stroke:#181818;stroke-width:1.0;"/><polygon fill="#181818" points="779.58,256.9383,782.1316,247.4257,778.8024,251.9991,774.229,248.6699,779.58,256.9383" style="stroke:#181818;stroke-width:1.0;"/></g><!--link Recipe to FoodType--><g id="link_Recipe_FoodType"><path d="M445.53,470.0483 C452.83,464.7783 460.75,459.0083 468,453.6183 C509.14,422.9983 551.6258,390.1744 579.2258,368.6844 " fill="none" id="Recipe-to-FoodType" style="stroke:#181818;stroke-width:1.0;"/><polygon fill="#181818" points="583.96,364.9983,574.4013,367.3714,580.0149,368.0701,579.3162,373.6836,583.96,364.9983" style="stroke:#181818;stroke-width:1.0;"/></g><!--link Recipe to TheMealDB--><g id="link_Recipe_TheMealDB"><path d="M435.18,507.1883 C454.96,529.7383 490.91,567.8083 528,592.6183 C537.15,598.7383 542.1026,601.6933 552.2826,606.3933 " fill="none" id="Recipe-to-TheMealDB" style="stroke:#181818;stroke-width:1.0;"/><polygon fill="#181818" points="557.73,608.9083,551.2355,601.5041,553.1905,606.8124,547.8822,608.7674,557.73,608.9083" style="stroke:#181818;stroke-width:1.0;"/></g><!--link Recipe to Gemini--><g id="link_Recipe_Gemini"><path d="M424.5,507.3283 C435.7,545.0583 466.78,629.5383 528,663.6183 C590.52,698.4183 621.29,686.7583 689,663.6183 C719.72,653.1083 743.9764,632.1791 761.1064,614.5691 " fill="none" id="Recipe-to-Gemini" style="stroke:#181818;stroke-width:1.0;"/><polygon fill="#181818" points="765.29,610.2683,756.1473,613.9305,761.8036,613.8523,761.8818,619.5086,765.29,610.2683" style="stroke:#181818;stroke-width:1.0;"/></g><!--link Notification to GoogleNotifications_Back--><g id="link_Notification_GoogleNotifications_Back"><path d="M447.83,436.3383 C454.68,441.3283 461.81,446.9183 468,452.6183 C498.16,480.3483 494.97,498.3683 528,522.6183 C535.99,528.4783 539.7146,531.0161 548.9046,535.3561 " fill="none" id="Notification-to-GoogleNotifications_Back" style="stroke:#181818;stroke-width:1.0;"/><polygon fill="#181818" points="554.33,537.9183,547.9,530.4581,549.8088,535.7831,544.4837,537.692,554.33,537.9183" style="stroke:#181818;stroke-width:1.0;"/></g><!--SRC=[dLHDRzGm43tNlsBK2t1O2UweqgPXqKeKK2bSaKccYTN4NZbUjHNYlpCpZhDss5uuRVpynlFrtWOJ1eGVneUZ7c3dJTiXr7X0sw9jdg4sklDwL0FU1mWElEdw0Atns0JZh5BJWx47JHHWIDkEdlkj02hTF7JU7MrxxGRduR4t0HbtlaKViLy3aGYxZJHlqSExj-gFKgzWizd0XwU0tb9TeskF0qxWB8GUGOeXWZgblAoqRroByAtHbjwv13t1ZCrGplxe7Fz-Ti7ScqPpAvE4n8i2_xdppeOpqTjZwBCWFgRA9OHckAuouHAM3Yc8HyOnZoRqOEpSU-F6WxDem_HloyAVMusnF7g08YElTCx7d-hY8hzsheLzm34owCG7E4EwUpxWGk93oTdkIKKJpKiusiH3oRd1rcYvbwzrgT-dUM_yiRxCLoAa75YJRx4nSxNnyuocjb_tL2UDhAwIhgAuLrF-GbwGdc6d6re2nSd3Z3CiQ1vGLt9VL_yjE5vc7dpNumtgWGfDoHUao86ZiIQ-Af-fvsj7-XU_Jl3w4vjdCcGLidEIu1lfklGBlC-4h5uq1aLUhMbiXJ9yxGlAdIJBcJE_N2MT5bWKJ069IWfatdM15J9P6Mtn6Ci0dnR3dQOLQvC_HNwit7bsiNXYXR6PrE8gHcbbYPpEoInodZSd_GgmMEa4BTbAI9BnLDB3SHvbI8QTH9I1S_vyR15_IQT_0G00]--></g></svg>