<svg xmlns="http://www.w3.org/2000/svg" xmlns:xlink="http://www.w3.org/1999/xlink" contentStyleType="text/css" data-diagram-type="DESCRIPTION" height="634px" preserveAspectRatio="none" style="width:701px;height:634px;background:#FFFFFF;" version="1.1" viewBox="0 0 701 634" width="701px" zoomAndPan="magnify"><title>Virtual Fridge Dependency Diagram</title><defs/><g><g class="title" data-source-line="1"><text fill="#000000" font-family="sans-serif" font-size="14" font-weight="bold" lengthAdjust="spacing" textLength="283.2061" x="202.3741" y="22.9951">Virtual Fridge Dependency Diagram</text></g><!--cluster Backend--><g class="cluster" data-entity="Backend" data-source-line="19" data-uid="ent0006" id="cluster_Backend"><rect fill="#FFFFFF" height="584" rx="5" ry="5" style="stroke:#000000;stroke-width:1;" width="132.33" x="355.55" y="44.2969"/><text fill="#000000" font-family="sans-serif" font-size="14" font-weight="bold" lengthAdjust="spacing" textLength="67.2109" x="388.1095" y="59.292">Backend</text></g><!--entity Fridge--><g class="entity" data-entity="Fridge" data-source-line="20" data-uid="ent0007" id="entity_Fridge"><rect fill="#FFFFFF" height="36.2969" rx="5" ry="5" style="stroke:#000000;stroke-width:0.5;" width="64.085" x="389.67" y="79.1469"/><text fill="#000000" font-family="sans-serif" font-size="14" lengthAdjust="spacing" textLength="44.085" x="399.67" y="102.142">Fridge</text></g><!--entity FoodItem--><g class="entity" data-entity="FoodItem" data-source-line="21" data-uid="ent0008" id="entity_FoodItem"><rect fill="#FFFFFF" height="36.2969" rx="5" ry="5" style="stroke:#000000;stroke-width:0.5;" width="90.3896" x="376.52" y="221.1469"/><text fill="#000000" font-family="sans-serif" font-size="14" lengthAdjust="spacing" textLength="70.3896" x="386.52" y="244.142">Food Item</text></g><!--entity FoodType--><g class="entity" data-entity="FoodType" data-source-line="22" data-uid="ent0009" id="entity_FoodType"><rect fill="#FFFFFF" height="36.2969" rx="5" ry="5" style="stroke:#000000;stroke-width:0.5;" width="92.8574" x="375.29" y="363.1469"/><text fill="#000000" font-family="sans-serif" font-size="14" lengthAdjust="spacing" textLength="72.8574" x="385.29" y="386.142">Food Type</text></g><!--entity aiVision--><g class="entity" data-entity="aiVision" data-source-line="23" data-uid="ent0010" id="entity_aiVision"><rect fill="#FFFFFF" height="36.2969" rx="5" ry="5" style="stroke:#000000;stroke-width:0.5;" width="80.2451" x="381.59" y="505.1469"/><text fill="#000000" font-family="sans-serif" font-size="14" lengthAdjust="spacing" textLength="60.2451" x="391.59" y="528.142">AI Vision</text></g><!--entity Media--><g class="entity" data-entity="Media" data-source-line="24" data-uid="ent0011" id="entity_Media"><rect fill="#FFFFFF" height="36.2969" rx="5" ry="5" style="stroke:#000000;stroke-width:0.5;" width="62.0479" x="390.69" y="292.1469"/><text fill="#000000" font-family="sans-serif" font-size="14" lengthAdjust="spacing" textLength="42.0479" x="400.69" y="315.142">Media</text></g><!--entity User--><g class="entity" data-entity="User" data-source-line="25" data-uid="ent0012" id="entity_User"><rect fill="#FFFFFF" height="36.2969" rx="5" ry="5" style="stroke:#000000;stroke-width:0.5;" width="51.9102" x="395.76" y="150.1469"/><text fill="#000000" font-family="sans-serif" font-size="14" lengthAdjust="spacing" textLength="31.9102" x="405.76" y="173.142">User</text></g><!--entity Notification--><g class="entity" data-entity="Notification" data-source-line="26" data-uid="ent0013" id="entity_Notification"><rect fill="#FFFFFF" height="36.2969" rx="5" ry="5" style="stroke:#000000;stroke-width:0.5;" width="100.3291" x="371.55" y="576.1469"/><text fill="#000000" font-family="sans-serif" font-size="14" lengthAdjust="spacing" textLength="80.3291" x="381.55" y="599.142">Notification</text></g><!--entity Recipe--><g class="entity" data-entity="Recipe" data-source-line="27" data-uid="ent0014" id="entity_Recipe"><rect fill="#FFFFFF" height="36.2969" rx="5" ry="5" style="stroke:#000000;stroke-width:0.5;" width="67.4277" x="388" y="434.1469"/><text fill="#000000" font-family="sans-serif" font-size="14" lengthAdjust="spacing" textLength="47.4277" x="398" y="457.142">Recipe</text></g><!--entity BarcodeScanner--><g class="entity" data-entity="BarcodeScanner" data-source-line="11" data-uid="ent0002" id="entity_BarcodeScanner"><rect fill="#FFFFFF" height="36.2969" rx="5" ry="5" style="stroke:#000000;stroke-width:0.5;" width="139.4307" x="18.01" y="257.1469"/><text fill="#000000" font-family="sans-serif" font-size="14" lengthAdjust="spacing" textLength="119.4307" x="28.01" y="280.142">Barcode Scanner</text></g><!--entity GoogleNotifications_Front--><g class="entity" data-entity="GoogleNotifications_Front" data-source-line="12" data-uid="ent0003" id="entity_GoogleNotifications_Front"><rect fill="#FFFFFF" height="36.2969" rx="5" ry="5" style="stroke:#000000;stroke-width:0.5;" width="161.4424" x="7" y="328.1469"/><text fill="#000000" font-family="sans-serif" font-size="14" lengthAdjust="spacing" textLength="141.4424" x="17" y="351.142">Google Notifications</text></g><!--entity GoogleAuth--><g class="entity" data-entity="GoogleAuth" data-source-line="13" data-uid="ent0004" id="entity_GoogleAuth"><rect fill="#FFFFFF" height="36.2969" rx="5" ry="5" style="stroke:#000000;stroke-width:0.5;" width="106.6318" x="34.41" y="399.1469"/><text fill="#000000" font-family="sans-serif" font-size="14" lengthAdjust="spacing" textLength="86.6318" x="44.41" y="422.142">Google Auth</text></g><!--entity Frontend--><g class="entity" data-entity="Frontend" data-source-line="16" data-uid="ent0005" id="entity_Frontend"><rect fill="#FFFFFF" height="36.2969" rx="5" ry="5" style="stroke:#000000;stroke-width:0.5;" width="83.1094" x="228.44" y="328.1469"/><text fill="#000000" font-family="sans-serif" font-size="14" lengthAdjust="spacing" textLength="63.1094" x="238.44" y="351.142">Frontend</text></g><!--entity OpenFoodFacts--><g class="entity" data-entity="OpenFoodFacts" data-source-line="31" data-uid="ent0015" id="entity_OpenFoodFacts"><rect fill="#FFFFFF" height="36.2969" rx="5" ry="5" style="stroke:#000000;stroke-width:0.5;" width="164.0742" x="531.88" y="186.1469"/><text fill="#000000" font-family="sans-serif" font-size="14" lengthAdjust="spacing" textLength="144.0742" x="541.88" y="209.142">Open Food Facts API</text></g><!--entity DB--><g class="entity" data-entity="DB" data-source-line="32" data-uid="ent0016" id="entity_DB"><rect fill="#FFFFFF" height="36.2969" rx="5" ry="5" style="stroke:#000000;stroke-width:0.5;" width="40.3848" x="593.73" y="257.1469"/><text fill="#000000" font-family="sans-serif" font-size="14" lengthAdjust="spacing" textLength="20.3848" x="603.73" y="280.142">DB</text></g><!--entity GoogleNotifications_Back--><g class="entity" data-entity="GoogleNotifications_Back" data-source-line="33" data-uid="ent0017" id="entity_GoogleNotifications_Back"><rect fill="#FFFFFF" height="36.2969" rx="5" ry="5" style="stroke:#000000;stroke-width:0.5;" width="161.4424" x="533.2" y="576.1469"/><text fill="#000000" font-family="sans-serif" font-size="14" lengthAdjust="spacing" textLength="141.4424" x="543.2" y="599.142">Google Notifications</text></g><!--entity TheMealDB--><g class="entity" data-entity="TheMealDB" data-source-line="34" data-uid="ent0018" id="entity_TheMealDB"><rect fill="#FFFFFF" height="36.2969" rx="5" ry="5" style="stroke:#000000;stroke-width:0.5;" width="126.1826" x="550.83" y="363.1469"/><text fill="#000000" font-family="sans-serif" font-size="14" lengthAdjust="spacing" textLength="106.1826" x="560.83" y="386.142">TheMealDB API</text></g><!--entity Gemini--><g class="entity" data-entity="Gemini" data-source-line="35" data-uid="ent0019" id="entity_Gemini"><rect fill="#FFFFFF" height="36.2969" rx="5" ry="5" style="stroke:#000000;stroke-width:0.5;" width="69.752" x="579.04" y="434.1469"/><text fill="#000000" font-family="sans-serif" font-size="14" lengthAdjust="spacing" textLength="49.752" x="589.04" y="457.142">Gemini</text></g><!--reverse link BarcodeScanner to Frontend--><g class="link" data-entity-1="BarcodeScanner" data-entity-2="Frontend" data-source-line="38" data-uid="lnk20" id="link_BarcodeScanner_Frontend"><path d="M141.2026,295.9657 C169.8926,307.2657 200.65,319.3769 228.16,330.2169" fill="none" id="BarcodeScanner-backto-Frontend" style="stroke:#181818;stroke-width:1;"/><polygon fill="#181818" points="135.62,293.7669,142.528,300.7868,140.2722,295.5992,145.4597,293.3433,135.62,293.7669" style="stroke:#181818;stroke-width:1;"/></g><!--link GoogleNotifications_Front to Frontend--><g class="link" data-entity-1="GoogleNotifications_Front" data-entity-2="Frontend" data-source-line="39" data-uid="lnk21" id="link_GoogleNotifications_Front_Frontend"><path d="M168.84,346.2969 C189.34,346.2969 204.54,346.2969 222.13,346.2969" fill="none" id="GoogleNotifications_Front-to-Frontend" style="stroke:#181818;stroke-width:1;"/><polygon fill="#181818" points="228.13,346.2969,219.13,342.2969,223.13,346.2969,219.13,350.2969,228.13,346.2969" style="stroke:#181818;stroke-width:1;"/></g><!--reverse link GoogleAuth to Frontend--><g class="link" data-entity-1="GoogleAuth" data-entity-2="Frontend" data-source-line="40" data-uid="lnk22" id="link_GoogleAuth_Frontend"><path d="M141.2026,396.6281 C169.8926,385.3281 200.65,373.2169 228.16,362.3769" fill="none" id="GoogleAuth-backto-Frontend" style="stroke:#181818;stroke-width:1;"/><polygon fill="#181818" points="135.62,398.8269,145.4597,399.2504,140.2722,396.9946,142.528,391.807,135.62,398.8269" style="stroke:#181818;stroke-width:1;"/></g><!--link Frontend to Fridge--><g class="link" data-entity-1="Frontend" data-entity-2="Fridge" data-source-line="43" data-uid="lnk23" id="link_Frontend_Fridge"><path d="M272.87,327.8669 C277.87,287.5669 294.95,190.5969 347.55,132.2969 C358.59,120.0669 369.2138,113.8448 383.5838,108.3648" fill="none" id="Frontend-to-Fridge" style="stroke:#181818;stroke-width:1;"/><polygon fill="#181818" points="389.19,106.2269,379.3554,105.6963,384.5182,108.0085,382.206,113.1712,389.19,106.2269" style="stroke:#181818;stroke-width:1;"/></g><!--link Frontend to FoodItem--><g class="link" data-entity-1="Frontend" data-entity-2="FoodItem" data-source-line="44" data-uid="lnk24" id="link_Frontend_FoodItem"><path d="M287.6,327.7569 C302.27,312.1169 324.82,289.8669 347.55,274.2969 C356.38,268.2469 361.0381,265.3592 370.7781,260.5592" fill="none" id="Frontend-to-FoodItem" style="stroke:#181818;stroke-width:1;"/><polygon fill="#181818" points="376.16,257.9069,366.3189,258.2974,371.675,260.1171,369.8553,265.4733,376.16,257.9069" style="stroke:#181818;stroke-width:1;"/></g><!--link Frontend to FoodType--><g class="link" data-entity-1="Frontend" data-entity-2="FoodType" data-source-line="45" data-uid="lnk25" id="link_Frontend_FoodType"><path d="M311.91,355.8569 C331.39,360.4169 348.9179,364.5095 368.9979,369.2095" fill="none" id="Frontend-to-FoodType" style="stroke:#181818;stroke-width:1;"/><polygon fill="#181818" points="374.84,370.5769,366.9885,364.631,369.9716,369.4374,365.1652,372.4205,374.84,370.5769" style="stroke:#181818;stroke-width:1;"/></g><!--link Frontend to aiVision--><g class="link" data-entity-1="Frontend" data-entity-2="aiVision" data-source-line="46" data-uid="lnk26" id="link_Frontend_aiVision"><path d="M276.74,364.7569 C286.77,394.3169 310.04,452.5569 347.55,488.2969 C357.13,497.4269 364.0769,502.0861 375.9469,507.4761" fill="none" id="Frontend-to-aiVision" style="stroke:#181818;stroke-width:1;"/><polygon fill="#181818" points="381.41,509.9569,374.8691,502.5937,376.8574,507.8896,371.5615,509.8779,381.41,509.9569" style="stroke:#181818;stroke-width:1;"/></g><!--link Frontend to Media--><g class="link" data-entity-1="Frontend" data-entity-2="Media" data-source-line="47" data-uid="lnk27" id="link_Frontend_Media"><path d="M311.91,336.4569 C336.67,330.5069 361.8862,324.4392 384.4762,319.0092" fill="none" id="Frontend-to-Media" style="stroke:#181818;stroke-width:1;"/><polygon fill="#181818" points="390.31,317.6069,380.6244,315.8211,385.4485,318.7754,382.4941,323.5995,390.31,317.6069" style="stroke:#181818;stroke-width:1;"/></g><!--link Frontend to User--><g class="link" data-entity-1="Frontend" data-entity-2="User" data-source-line="48" data-uid="lnk28" id="link_Frontend_User"><path d="M276.71,327.7069 C286.68,297.9369 309.89,239.2869 347.55,203.2969 C360.99,190.4569 374.3872,183.6136 389.6772,178.0036" fill="none" id="Frontend-to-User" style="stroke:#181818;stroke-width:1;"/><polygon fill="#181818" points="395.31,175.9369,385.483,175.2817,390.616,177.6591,388.2386,182.7922,395.31,175.9369" style="stroke:#181818;stroke-width:1;"/></g><!--link Frontend to Recipe--><g class="link" data-entity-1="Frontend" data-entity-2="Recipe" data-source-line="49" data-uid="lnk29" id="link_Frontend_Recipe"><path d="M287.94,364.8769 C302.65,380.2669 325.06,402.0069 347.55,417.2969 C359.9,425.6869 369.0904,430.6603 382.0404,436.5003" fill="none" id="Frontend-to-Recipe" style="stroke:#181818;stroke-width:1;"/><polygon fill="#181818" points="387.51,438.9669,380.9501,431.6206,382.952,436.9114,377.6613,438.9134,387.51,438.9669" style="stroke:#181818;stroke-width:1;"/></g><!--link Frontend to Notification--><g class="link" data-entity-1="Frontend" data-entity-2="Notification" data-source-line="50" data-uid="lnk30" id="link_Frontend_Notification"><path d="M272.9,364.6469 C277.95,404.7569 295.12,501.2769 347.55,559.2969 C354.07,566.5069 357.1115,569.4959 365.7915,574.2259" fill="none" id="Frontend-to-Notification" style="stroke:#181818;stroke-width:1;"/><polygon fill="#181818" points="371.06,577.0969,365.0712,569.278,366.6696,574.7044,361.2432,576.3028,371.06,577.0969" style="stroke:#181818;stroke-width:1;"/></g><!--link Fridge to OpenFoodFacts--><g class="link" data-entity-1="Fridge" data-entity-2="OpenFoodFacts" data-source-line="53" data-uid="lnk31" id="link_Fridge_OpenFoodFacts"><path d="M454.05,111.3969 C467.14,117.5169 482.4,124.9569 495.88,132.2969 C526.88,149.1869 556.1156,167.3682 579.5156,182.4382" fill="none" id="Fridge-to-OpenFoodFacts" style="stroke:#181818;stroke-width:1;"/><polygon fill="#181818" points="584.56,185.6869,579.1592,177.4509,580.3563,182.9796,574.8276,184.1768,584.56,185.6869" style="stroke:#181818;stroke-width:1;"/></g><!--link Fridge to DB--><g class="link" data-entity-1="Fridge" data-entity-2="DB" data-source-line="54" data-uid="lnk32" id="link_Fridge_DB"><path d="M453.99,105.9869 C468.48,111.4269 484.89,119.8369 495.88,132.2969 C529.36,170.2269 497.67,203.0169 531.88,240.2969 C548.15,258.0269 569.1079,265.7675 587.3979,270.1875" fill="none" id="Fridge-to-DB" style="stroke:#181818;stroke-width:1;"/><polygon fill="#181818" points="593.23,271.5969,585.4214,265.5947,588.3699,270.4224,583.5422,273.3709,593.23,271.5969" style="stroke:#181818;stroke-width:1;"/></g><!--link FoodItem to DB--><g class="link" data-entity-1="FoodItem" data-entity-2="DB" data-source-line="55" data-uid="lnk33" id="link_FoodItem_DB"><path d="M467.31,247.7369 C507.28,255.3069 558.1148,264.9203 587.5748,270.5003" fill="none" id="FoodItem-to-DB" style="stroke:#181818;stroke-width:1;"/><polygon fill="#181818" points="593.47,271.6169,585.3716,266.0118,588.5573,270.6864,583.8828,273.8721,593.47,271.6169" style="stroke:#181818;stroke-width:1;"/></g><!--link FoodItem to TheMealDB--><g class="link" data-entity-1="FoodItem" data-entity-2="TheMealDB" data-source-line="56" data-uid="lnk34" id="link_FoodItem_TheMealDB"><path d="M467.09,257.4269 C476.94,262.2869 487.07,267.9769 495.88,274.2969 C514.52,287.6769 515.18,295.5569 531.88,311.2969 C551.09,329.4069 569.3182,345.1067 585.8482,358.9367" fill="none" id="FoodItem-to-TheMealDB" style="stroke:#181818;stroke-width:1;"/><polygon fill="#181818" points="590.45,362.7869,586.1141,353.9438,586.6152,359.5784,580.9806,360.0795,590.45,362.7869" style="stroke:#181818;stroke-width:1;"/></g><!--link FoodItem to OpenFoodFacts--><g class="link" data-entity-1="FoodItem" data-entity-2="OpenFoodFacts" data-source-line="57" data-uid="lnk35" id="link_FoodItem_OpenFoodFacts"><path d="M467.31,231.0869 C486.53,227.5569 503.719,224.3924 525.789,220.3324" fill="none" id="FoodItem-to-OpenFoodFacts" style="stroke:#181818;stroke-width:1;"/><polygon fill="#181818" points="531.69,219.2469,522.1148,216.9412,526.7725,220.1515,523.5622,224.8092,531.69,219.2469" style="stroke:#181818;stroke-width:1;"/></g><!--link FoodItem to Gemini--><g class="link" data-entity-1="FoodItem" data-entity-2="Gemini" data-source-line="58" data-uid="lnk36" id="link_FoodItem_Gemini"><path d="M467.28,253.0669 C477.94,258.2269 488.39,265.1369 495.88,274.2969 C537.38,325.0269 489.42,367.3769 531.88,417.2969 C543.8,431.3069 556.6275,438.0633 572.9675,443.2133" fill="none" id="FoodItem-to-Gemini" style="stroke:#181818;stroke-width:1;"/><polygon fill="#181818" points="578.69,445.0169,571.3087,438.4965,573.9212,443.5139,568.9038,446.1265,578.69,445.0169" style="stroke:#181818;stroke-width:1;"/></g><!--link FoodType to DB--><g class="link" data-entity-1="FoodType" data-entity-2="DB" data-source-line="59" data-uid="lnk37" id="link_FoodType_DB"><path d="M463.33,362.7469 C474.02,357.6269 485.48,351.9269 495.88,346.2969 C531,327.3069 565.3769,305.9021 588.3369,291.2021" fill="none" id="FoodType-to-DB" style="stroke:#181818;stroke-width:1;"/><polygon fill="#181818" points="593.39,287.9669,583.6536,289.451,589.1791,290.6629,587.9672,296.1884,593.39,287.9669" style="stroke:#181818;stroke-width:1;"/></g><!--link FoodType to TheMealDB--><g class="link" data-entity-1="FoodType" data-entity-2="TheMealDB" data-source-line="60" data-uid="lnk38" id="link_FoodType_TheMealDB"><path d="M468.27,381.2969 C492.89,381.2969 517.66,381.2969 544.47,381.2969" fill="none" id="FoodType-to-TheMealDB" style="stroke:#181818;stroke-width:1;"/><polygon fill="#181818" points="550.47,381.2969,541.47,377.2969,545.47,381.2969,541.47,385.2969,550.47,381.2969" style="stroke:#181818;stroke-width:1;"/></g><!--link FoodType to OpenFoodFacts--><g class="link" data-entity-1="FoodType" data-entity-2="OpenFoodFacts" data-source-line="61" data-uid="lnk39" id="link_FoodType_OpenFoodFacts"><path d="M468.32,366.3769 C478.47,361.3169 488.41,354.7269 495.88,346.2969 C529.14,308.7269 497.91,276.2169 531.88,239.2969 C538,232.6469 540.3516,230.0864 548.4316,225.6464" fill="none" id="FoodType-to-OpenFoodFacts" style="stroke:#181818;stroke-width:1;"/><polygon fill="#181818" points="553.69,222.7569,543.8761,223.5855,549.308,225.1648,547.7288,230.5967,553.69,222.7569" style="stroke:#181818;stroke-width:1;"/></g><!--link FoodType to Gemini--><g class="link" data-entity-1="FoodType" data-entity-2="Gemini" data-source-line="62" data-uid="lnk40" id="link_FoodType_Gemini"><path d="M468.27,398.3069 C502.23,410.9769 542.2695,425.9169 573.1295,437.4469" fill="none" id="FoodType-to-Gemini" style="stroke:#181818;stroke-width:1;"/><polygon fill="#181818" points="578.75,439.5469,571.7192,432.6499,574.0662,437.7969,568.9193,440.144,578.75,439.5469" style="stroke:#181818;stroke-width:1;"/></g><!--link aiVision to Gemini--><g class="link" data-entity-1="aiVision" data-entity-2="Gemini" data-source-line="63" data-uid="lnk41" id="link_aiVision_Gemini"><path d="M462.13,508.5869 C496.51,495.7469 540.2687,479.4148 573.0387,467.1848" fill="none" id="aiVision-to-Gemini" style="stroke:#181818;stroke-width:1;"/><polygon fill="#181818" points="578.66,465.0869,568.8295,464.4862,573.9756,466.8351,571.6267,471.9812,578.66,465.0869" style="stroke:#181818;stroke-width:1;"/></g><!--link User to DB--><g class="link" data-entity-1="User" data-entity-2="DB" data-source-line="64" data-uid="lnk42" id="link_User_DB"><path d="M447.98,177.7669 C462.66,183.8969 481.13,192.7069 495.88,203.2969 C514.52,216.6769 512.99,227.2769 531.88,240.2969 C551.19,253.6069 570.6776,261.5807 587.8176,267.3907" fill="none" id="User-to-DB" style="stroke:#181818;stroke-width:1;"/><polygon fill="#181818" points="593.5,269.3169,586.2605,262.6393,588.7647,267.7117,583.6923,270.2159,593.5,269.3169" style="stroke:#181818;stroke-width:1;"/></g><!--link Recipe to DB--><g class="link" data-entity-1="Recipe" data-entity-2="DB" data-source-line="65" data-uid="lnk43" id="link_Recipe_DB"><path d="M455.81,441.8769 C469.5,436.2869 484.73,428.2469 495.88,417.2969 C521.4,392.2169 509.92,373.5369 531.88,345.2969 C549.57,322.5469 570.6999,305.2192 588.4399,292.2992" fill="none" id="Recipe-to-DB" style="stroke:#181818;stroke-width:1;"/><polygon fill="#181818" points="593.29,288.7669,583.6601,290.8319,589.2483,291.7104,588.3698,297.2987,593.29,288.7669" style="stroke:#181818;stroke-width:1;"/></g><!--link Recipe to TheMealDB--><g class="link" data-entity-1="Recipe" data-entity-2="TheMealDB" data-source-line="66" data-uid="lnk44" id="link_Recipe_TheMealDB"><path d="M455.85,439.9269 C485.44,428.8869 523.5786,414.6445 557.3986,402.0245" fill="none" id="Recipe-to-TheMealDB" style="stroke:#181818;stroke-width:1;"/><polygon fill="#181818" points="563.02,399.9269,553.1895,399.3257,558.3355,401.6749,555.9863,406.8209,563.02,399.9269" style="stroke:#181818;stroke-width:1;"/></g><!--link Recipe to Gemini--><g class="link" data-entity-1="Recipe" data-entity-2="Gemini" data-source-line="67" data-uid="lnk45" id="link_Recipe_Gemini"><path d="M455.85,452.2969 C490.22,452.2969 537.74,452.2969 572.56,452.2969" fill="none" id="Recipe-to-Gemini" style="stroke:#181818;stroke-width:1;"/><polygon fill="#181818" points="578.56,452.2969,569.56,448.2969,573.56,452.2969,569.56,456.2969,578.56,452.2969" style="stroke:#181818;stroke-width:1;"/></g><!--link Notification to GoogleNotifications_Back--><g class="link" data-entity-1="Notification" data-entity-2="GoogleNotifications_Back" data-source-line="68" data-uid="lnk46" id="link_Notification_GoogleNotifications_Back"><path d="M472.19,594.2969 C490.68,594.2969 506.19,594.2969 526.75,594.2969" fill="none" id="Notification-to-GoogleNotifications_Back" style="stroke:#181818;stroke-width:1;"/><polygon fill="#181818" points="532.75,594.2969,523.75,590.2969,527.75,594.2969,523.75,598.2969,532.75,594.2969" style="stroke:#181818;stroke-width:1;"/></g><!--SRC=[dLHDRzGm43tNlsBK2t1O2UweqgPXqKeKK2bSaPjC4wk9lNAyQYl4VsV67raxcruuRURDz_YzTSeD2B-KTKSvmCwgjaEeyO2wHTsyGAraP-Ke1dnmu0nOrVKEMcMnSSfe8QP7fG-IGe0XgJigzqS0LB9vxAmvwlRQ3CR2KwySCcviYpPWzmC54NORmgn62n_UYxz2l87DPWEVdXrQJNEDfZqEE87Hu7e4Fmm5Y5FBoqhQnhG8FngfgSubo0aY5g4y-hCn_FlLEFMW6ichJ3ubE0hyzyuQxLQojqVNPqbifibz2jrmEMN2VLeoKXAVZ7EUbEj1wRXxOyQ3qQZTTBwoZu-hXbm-FK3HaPyqzkDFSN6HkurfOUzm315aiG4hGNSl1vo3s2XZjdjYqKJtyZ5I1QECkS5MIU_tNyjHVqxntVXZwSoVn0Vbm3Bu5XiLfmsVAvpQVj_Jd7Iokagy2kHUNFaRQS7l33lPq2DGdY_CECCUpHFgollhwhy9nu-P9z_rU8Doe45JynafUk2ej0fL_MVQ-TeG_xrU9tZxXSKpAP8AoJbHy9tVkjGBVCo8B5uL1cLUBSDO2cNwKXVKEr6MEsTwkKeyBR78p7FKKx50P_8LQA1S0NcU5KXaIu4LH5j8TLOf4mcVPycUxXssyt-hNAnaJUQWfvpLjsQVNho05_LoL-H0kb5UTRRBgZDyNdLsnQhfnZd6vqnTmY5Nh5F738m5yai7_1Ln_0C0]--></g></svg>