<svg xmlns="http://www.w3.org/2000/svg" xmlns:xlink="http://www.w3.org/1999/xlink" contentStyleType="text/css" data-diagram-type="DESCRIPTION" height="651px" preserveAspectRatio="none" style="width:923px;height:651px;background:#FFFFFF;" version="1.1" viewBox="0 0 923 651" width="923px" zoomAndPan="magnify"><title>Virtual Fridge Dependency Diagram</title><defs/><g><g class="title" data-source-line="1"><text fill="#000000" font-family="sans-serif" font-size="14" font-weight="bold" lengthAdjust="spacing" textLength="283.2061" x="313.0941" y="22.9951">Virtual Fridge Dependency Diagram</text></g><!--cluster Backend--><g class="cluster" data-entity="Backend" data-source-line="19" data-uid="ent0006" id="cluster_Backend"><rect fill="#FFFFFF" height="442" rx="5" ry="5" style="stroke:#000000;stroke-width:1;" width="313.17" x="355.55" y="148.3469"/><text fill="#000000" font-family="sans-serif" font-size="14" font-weight="bold" lengthAdjust="spacing" textLength="67.2109" x="478.5295" y="163.342">Backend</text></g><!--entity Fridge--><g class="entity" data-entity="Fridge" data-source-line="20" data-uid="ent0007" id="entity_Fridge"><rect fill="#FFFFFF" height="36.2969" rx="5" ry="5" style="stroke:#000000;stroke-width:0.5;" width="64.085" x="580.56" y="361.1969"/><text fill="#000000" font-family="sans-serif" font-size="14" lengthAdjust="spacing" textLength="44.085" x="590.56" y="384.192">Fridge</text></g><!--entity FoodItem--><g class="entity" data-entity="FoodItem" data-source-line="21" data-uid="ent0008" id="entity_FoodItem"><rect fill="#FFFFFF" height="36.2969" rx="5" ry="5" style="stroke:#000000;stroke-width:0.5;" width="90.3896" x="376.52" y="396.1969"/><text fill="#000000" font-family="sans-serif" font-size="14" lengthAdjust="spacing" textLength="70.3896" x="386.52" y="419.192">Food Item</text></g><!--entity FoodType--><g class="entity" data-entity="FoodType" data-source-line="22" data-uid="ent0009" id="entity_FoodType"><rect fill="#FFFFFF" height="36.2969" rx="5" ry="5" style="stroke:#000000;stroke-width:0.5;" width="92.8574" x="375.29" y="325.1969"/><text fill="#000000" font-family="sans-serif" font-size="14" lengthAdjust="spacing" textLength="72.8574" x="385.29" y="348.192">Food Type</text></g><!--entity aiVision--><g class="entity" data-entity="aiVision" data-source-line="23" data-uid="ent0010" id="entity_aiVision"><rect fill="#FFFFFF" height="36.2969" rx="5" ry="5" style="stroke:#000000;stroke-width:0.5;" width="80.2451" x="572.48" y="467.1969"/><text fill="#000000" font-family="sans-serif" font-size="14" lengthAdjust="spacing" textLength="60.2451" x="582.48" y="490.192">AI Vision</text></g><!--entity Media--><g class="entity" data-entity="Media" data-source-line="24" data-uid="ent0011" id="entity_Media"><rect fill="#FFFFFF" height="36.2969" rx="5" ry="5" style="stroke:#000000;stroke-width:0.5;" width="62.0479" x="390.69" y="467.1969"/><text fill="#000000" font-family="sans-serif" font-size="14" lengthAdjust="spacing" textLength="42.0479" x="400.69" y="490.192">Media</text></g><!--entity User--><g class="entity" data-entity="User" data-source-line="25" data-uid="ent0012" id="entity_User"><rect fill="#FFFFFF" height="36.2969" rx="5" ry="5" style="stroke:#000000;stroke-width:0.5;" width="51.9102" x="395.76" y="183.1969"/><text fill="#000000" font-family="sans-serif" font-size="14" lengthAdjust="spacing" textLength="31.9102" x="405.76" y="206.192">User</text></g><!--entity Notification--><g class="entity" data-entity="Notification" data-source-line="26" data-uid="ent0013" id="entity_Notification"><rect fill="#FFFFFF" height="36.2969" rx="5" ry="5" style="stroke:#000000;stroke-width:0.5;" width="100.3291" x="371.55" y="254.1969"/><text fill="#000000" font-family="sans-serif" font-size="14" lengthAdjust="spacing" textLength="80.3291" x="381.55" y="277.192">Notification</text></g><!--entity Recipe--><g class="entity" data-entity="Recipe" data-source-line="27" data-uid="ent0014" id="entity_Recipe"><rect fill="#FFFFFF" height="36.2969" rx="5" ry="5" style="stroke:#000000;stroke-width:0.5;" width="67.4277" x="388" y="538.1969"/><text fill="#000000" font-family="sans-serif" font-size="14" lengthAdjust="spacing" textLength="47.4277" x="398" y="561.192">Recipe</text></g><!--entity BarcodeScanner--><g class="entity" data-entity="BarcodeScanner" data-source-line="11" data-uid="ent0002" id="entity_BarcodeScanner"><rect fill="#FFFFFF" height="36.2969" rx="5" ry="5" style="stroke:#000000;stroke-width:0.5;" width="139.4307" x="18.01" y="290.1969"/><text fill="#000000" font-family="sans-serif" font-size="14" lengthAdjust="spacing" textLength="119.4307" x="28.01" y="313.192">Barcode Scanner</text></g><!--entity GoogleNotifications_Front--><g class="entity" data-entity="GoogleNotifications_Front" data-source-line="12" data-uid="ent0003" id="entity_GoogleNotifications_Front"><rect fill="#FFFFFF" height="36.2969" rx="5" ry="5" style="stroke:#000000;stroke-width:0.5;" width="161.4424" x="7" y="361.1969"/><text fill="#000000" font-family="sans-serif" font-size="14" lengthAdjust="spacing" textLength="141.4424" x="17" y="384.192">Google Notifications</text></g><!--entity GoogleAuth--><g class="entity" data-entity="GoogleAuth" data-source-line="13" data-uid="ent0004" id="entity_GoogleAuth"><rect fill="#FFFFFF" height="36.2969" rx="5" ry="5" style="stroke:#000000;stroke-width:0.5;" width="106.6318" x="34.41" y="432.1969"/><text fill="#000000" font-family="sans-serif" font-size="14" lengthAdjust="spacing" textLength="86.6318" x="44.41" y="455.192">Google Auth</text></g><!--entity Frontend--><g class="entity" data-entity="Frontend" data-source-line="16" data-uid="ent0005" id="entity_Frontend"><rect fill="#FFFFFF" height="36.2969" rx="5" ry="5" style="stroke:#000000;stroke-width:0.5;" width="83.1094" x="228.44" y="361.1969"/><text fill="#000000" font-family="sans-serif" font-size="14" lengthAdjust="spacing" textLength="63.1094" x="238.44" y="384.192">Frontend</text></g><!--entity OpenFoodFacts--><g class="entity" data-entity="OpenFoodFacts" data-source-line="31" data-uid="ent0015" id="entity_OpenFoodFacts"><rect fill="#FFFFFF" height="36.2969" rx="5" ry="5" style="stroke:#000000;stroke-width:0.5;" width="164.0742" x="753.32" y="361.1969"/><text fill="#000000" font-family="sans-serif" font-size="14" lengthAdjust="spacing" textLength="144.0742" x="763.32" y="384.192">Open Food Facts API</text></g><!--entity DB--><g class="entity" data-entity="DB" data-source-line="32" data-uid="ent0016" id="entity_DB"><rect fill="#FFFFFF" height="36.2969" rx="5" ry="5" style="stroke:#000000;stroke-width:0.5;" width="40.3848" x="815.17" y="290.1969"/><text fill="#000000" font-family="sans-serif" font-size="14" lengthAdjust="spacing" textLength="20.3848" x="825.17" y="313.192">DB</text></g><!--entity GoogleNotifications_Back--><g class="entity" data-entity="GoogleNotifications_Back" data-source-line="33" data-uid="ent0017" id="entity_GoogleNotifications_Back"><rect fill="#FFFFFF" height="36.2969" rx="5" ry="5" style="stroke:#000000;stroke-width:0.5;" width="161.4424" x="531.88" y="96.1969"/><text fill="#000000" font-family="sans-serif" font-size="14" lengthAdjust="spacing" textLength="141.4424" x="541.88" y="119.192">Google Notifications</text></g><!--entity TheMealDB--><g class="entity" data-entity="TheMealDB" data-source-line="34" data-uid="ent0018" id="entity_TheMealDB"><rect fill="#FFFFFF" height="36.2969" rx="5" ry="5" style="stroke:#000000;stroke-width:0.5;" width="126.1826" x="549.51" y="609.1969"/><text fill="#000000" font-family="sans-serif" font-size="14" lengthAdjust="spacing" textLength="106.1826" x="559.51" y="632.192">TheMealDB API</text></g><!--entity Gemini--><g class="entity" data-entity="Gemini" data-source-line="35" data-uid="ent0019" id="entity_Gemini"><rect fill="#FFFFFF" height="36.2969" rx="5" ry="5" style="stroke:#000000;stroke-width:0.5;" width="69.752" x="800.48" y="502.1969"/><text fill="#000000" font-family="sans-serif" font-size="14" lengthAdjust="spacing" textLength="49.752" x="810.48" y="525.192">Gemini</text></g><!--reverse link BarcodeScanner to Frontend--><g class="link" data-entity-1="BarcodeScanner" data-entity-2="Frontend" data-source-line="38" data-uid="lnk20" id="link_BarcodeScanner_Frontend"><path d="M141.2026,329.0157 C169.8926,340.3157 200.65,352.4369 228.16,363.2669" fill="none" id="BarcodeScanner-backto-Frontend" style="stroke:#181818;stroke-width:1;"/><polygon fill="#181818" points="135.62,326.8169,142.528,333.8368,140.2722,328.6492,145.4597,326.3933,135.62,326.8169" style="stroke:#181818;stroke-width:1;"/></g><!--link GoogleNotifications_Front to Frontend--><g class="link" data-entity-1="GoogleNotifications_Front" data-entity-2="Frontend" data-source-line="39" data-uid="lnk21" id="link_GoogleNotifications_Front_Frontend"><path d="M168.84,379.3469 C189.34,379.3469 204.54,379.3469 222.13,379.3469" fill="none" id="GoogleNotifications_Front-to-Frontend" style="stroke:#181818;stroke-width:1;"/><polygon fill="#181818" points="228.13,379.3469,219.13,375.3469,223.13,379.3469,219.13,383.3469,228.13,379.3469" style="stroke:#181818;stroke-width:1;"/></g><!--reverse link GoogleAuth to Frontend--><g class="link" data-entity-1="GoogleAuth" data-entity-2="Frontend" data-source-line="40" data-uid="lnk22" id="link_GoogleAuth_Frontend"><path d="M141.2026,429.6781 C169.8926,418.3781 200.65,406.2669 228.16,395.4369" fill="none" id="GoogleAuth-backto-Frontend" style="stroke:#181818;stroke-width:1;"/><polygon fill="#181818" points="135.62,431.8769,145.4597,432.3004,140.2722,430.0446,142.528,424.857,135.62,431.8769" style="stroke:#181818;stroke-width:1;"/></g><!--link Frontend to FoodItem--><g class="link" data-entity-1="Frontend" data-entity-2="FoodItem" data-source-line="44" data-uid="lnk23" id="link_Frontend_FoodItem"><path d="M311.91,388.9169 C331.82,393.5669 349.9572,397.8122 370.3372,402.5722" fill="none" id="Frontend-to-FoodItem" style="stroke:#181818;stroke-width:1;"/><polygon fill="#181818" points="376.18,403.9369,368.3256,397.9947,371.311,402.7997,366.5061,405.7851,376.18,403.9369" style="stroke:#181818;stroke-width:1;"/></g><!--link Frontend to FoodType--><g class="link" data-entity-1="Frontend" data-entity-2="FoodType" data-source-line="45" data-uid="lnk24" id="link_Frontend_FoodType"><path d="M311.91,369.5069 C331.39,364.8269 348.9264,360.6101 369.0064,355.7801" fill="none" id="Frontend-to-FoodType" style="stroke:#181818;stroke-width:1;"/><polygon fill="#181818" points="374.84,354.3769,365.1541,352.5926,369.9787,355.5462,367.0251,360.3708,374.84,354.3769" style="stroke:#181818;stroke-width:1;"/></g><!--link Frontend to Media--><g class="link" data-entity-1="Frontend" data-entity-2="Media" data-source-line="47" data-uid="lnk25" id="link_Frontend_Media"><path d="M287.94,397.9269 C302.65,413.3169 325.06,435.0669 347.55,450.3469 C360.83,459.3769 371.3022,464.8713 384.9222,470.8913" fill="none" id="Frontend-to-Media" style="stroke:#181818;stroke-width:1;"/><polygon fill="#181818" points="390.41,473.3169,383.7953,466.0199,385.8368,471.2955,380.5612,473.337,390.41,473.3169" style="stroke:#181818;stroke-width:1;"/></g><!--link Frontend to User--><g class="link" data-entity-1="Frontend" data-entity-2="User" data-source-line="48" data-uid="lnk26" id="link_Frontend_User"><path d="M276.71,360.7569 C286.68,330.9969 309.89,272.3369 347.55,236.3469 C360.99,223.5069 374.3884,216.6768 389.6784,211.0568" fill="none" id="Frontend-to-User" style="stroke:#181818;stroke-width:1;"/><polygon fill="#181818" points="395.31,208.9869,385.4826,208.3374,390.617,210.7118,388.2425,215.8462,395.31,208.9869" style="stroke:#181818;stroke-width:1;"/></g><!--link Frontend to Recipe--><g class="link" data-entity-1="Frontend" data-entity-2="Recipe" data-source-line="49" data-uid="lnk27" id="link_Frontend_Recipe"><path d="M276.74,397.8069 C286.77,427.3669 310.04,485.6069 347.55,521.3469 C358.87,532.1269 368.5698,537.8675 382.2298,543.4775" fill="none" id="Frontend-to-Recipe" style="stroke:#181818;stroke-width:1;"/><polygon fill="#181818" points="387.78,545.7569,380.9743,538.6377,383.1549,543.8574,377.9352,546.0379,387.78,545.7569" style="stroke:#181818;stroke-width:1;"/></g><!--link Frontend to Notification--><g class="link" data-entity-1="Frontend" data-entity-2="Notification" data-source-line="50" data-uid="lnk28" id="link_Frontend_Notification"><path d="M287.6,360.8069 C302.27,345.1669 324.82,322.9169 347.55,307.3469 C356.38,301.2969 361.0381,298.4092 370.7781,293.6092" fill="none" id="Frontend-to-Notification" style="stroke:#181818;stroke-width:1;"/><polygon fill="#181818" points="376.16,290.9569,366.3189,291.3474,371.675,293.1671,369.8553,298.5233,376.16,290.9569" style="stroke:#181818;stroke-width:1;"/></g><!--link Fridge to OpenFoodFacts--><g class="link" data-entity-1="Fridge" data-entity-2="OpenFoodFacts" data-source-line="53" data-uid="lnk29" id="link_Fridge_OpenFoodFacts"><path d="M644.76,379.3469 C672.81,379.3469 709.29,379.3469 746.93,379.3469" fill="none" id="Fridge-to-OpenFoodFacts" style="stroke:#181818;stroke-width:1;"/><polygon fill="#181818" points="752.93,379.3469,743.93,375.3469,747.93,379.3469,743.93,383.3469,752.93,379.3469" style="stroke:#181818;stroke-width:1;"/></g><!--link Fridge to DB--><g class="link" data-entity-1="Fridge" data-entity-2="DB" data-source-line="54" data-uid="lnk30" id="link_Fridge_DB"><path d="M644.76,369.3269 C691,354.4569 770.7084,328.8248 809.0884,316.4748" fill="none" id="Fridge-to-DB" style="stroke:#181818;stroke-width:1;"/><polygon fill="#181818" points="814.8,314.6369,805.0074,313.586,810.0403,316.1684,807.4579,321.2014,814.8,314.6369" style="stroke:#181818;stroke-width:1;"/></g><!--link FoodItem to Fridge--><g class="link" data-entity-1="FoodItem" data-entity-2="Fridge" data-source-line="55" data-uid="lnk31" id="link_FoodItem_Fridge"><path d="M467,406.1469 C501.79,399.6969 543.4604,391.9802 574.3804,386.2502" fill="none" id="FoodItem-to-Fridge" style="stroke:#181818;stroke-width:1;"/><polygon fill="#181818" points="580.28,385.1569,570.7018,382.8638,575.3637,386.0679,572.1595,390.7298,580.28,385.1569" style="stroke:#181818;stroke-width:1;"/></g><!--link FoodType to Fridge--><g class="link" data-entity-1="FoodType" data-entity-2="Fridge" data-source-line="56" data-uid="lnk32" id="link_FoodType_Fridge"><path d="M468.44,352.0669 C503.05,358.6569 543.786,366.4241 574.286,372.2341" fill="none" id="FoodType-to-Fridge" style="stroke:#181818;stroke-width:1;"/><polygon fill="#181818" points="580.18,373.3569,572.0875,367.7434,575.2683,372.4212,570.5905,375.6021,580.18,373.3569" style="stroke:#181818;stroke-width:1;"/></g><!--link aiVision to Gemini--><g class="link" data-entity-1="aiVision" data-entity-2="Gemini" data-source-line="57" data-uid="lnk33" id="link_aiVision_Gemini"><path d="M653.07,491.6069 C694.99,498.2469 754.644,507.7072 794.374,514.0072" fill="none" id="aiVision-to-Gemini" style="stroke:#181818;stroke-width:1;"/><polygon fill="#181818" points="800.3,514.9469,792.0375,509.5867,795.3617,514.1638,790.7846,517.488,800.3,514.9469" style="stroke:#181818;stroke-width:1;"/></g><!--link Media to aiVision--><g class="link" data-entity-1="Media" data-entity-2="aiVision" data-source-line="58" data-uid="lnk34" id="link_Media_aiVision"><path d="M453.06,485.3469 C485.39,485.3469 530.69,485.3469 566.14,485.3469" fill="none" id="Media-to-aiVision" style="stroke:#181818;stroke-width:1;"/><polygon fill="#181818" points="572.14,485.3469,563.14,481.3469,567.14,485.3469,563.14,489.3469,572.14,485.3469" style="stroke:#181818;stroke-width:1;"/></g><!--link User to DB--><g class="link" data-entity-1="User" data-entity-2="DB" data-source-line="59" data-uid="lnk35" id="link_User_DB"><path d="M432.39,182.7469 C448.53,154.0069 483.96,99.8869 531.88,78.3469 C597.32,48.9269 630.71,43.2969 693.32,78.3469 C776.9,125.1369 815.3465,238.1651 828.0765,284.0651" fill="none" id="User-to-DB" style="stroke:#181818;stroke-width:1;"/><polygon fill="#181818" points="829.68,289.8469,831.1292,280.1052,828.3437,285.0287,823.4202,282.2433,829.68,289.8469" style="stroke:#181818;stroke-width:1;"/></g><!--link Recipe to DB--><g class="link" data-entity-1="Recipe" data-entity-2="DB" data-source-line="60" data-uid="lnk36" id="link_Recipe_DB"><path d="M454.92,537.8669 C461.2,533.1269 467.26,527.5769 471.88,521.3469 C521.65,454.3169 466.99,395.8669 531.88,343.3469 C616.94,274.5069 756.3166,292.981 808.8166,303.011" fill="none" id="Recipe-to-DB" style="stroke:#181818;stroke-width:1;"/><polygon fill="#181818" points="814.71,304.1369,806.6205,298.5191,809.7988,303.1986,805.1193,306.3769,814.71,304.1369" style="stroke:#181818;stroke-width:1;"/></g><!--link Recipe to TheMealDB--><g class="link" data-entity-1="Recipe" data-entity-2="TheMealDB" data-source-line="61" data-uid="lnk37" id="link_Recipe_TheMealDB"><path d="M455.62,568.7169 C485,579.7569 522.8439,593.9852 556.4339,606.6152" fill="none" id="Recipe-to-TheMealDB" style="stroke:#181818;stroke-width:1;"/><polygon fill="#181818" points="562.05,608.7269,555.0336,601.8153,557.3699,606.9671,552.218,609.3034,562.05,608.7269" style="stroke:#181818;stroke-width:1;"/></g><!--link Recipe to Gemini--><g class="link" data-entity-1="Recipe" data-entity-2="Gemini" data-source-line="62" data-uid="lnk38" id="link_Recipe_Gemini"><path d="M455.71,553.4669 C532.4,546.7569 716.1128,530.6897 794.0828,523.8697" fill="none" id="Recipe-to-Gemini" style="stroke:#181818;stroke-width:1;"/><polygon fill="#181818" points="800.06,523.3469,790.7457,520.1463,795.079,523.7826,791.4428,528.1159,800.06,523.3469" style="stroke:#181818;stroke-width:1;"/></g><!--link Notification to GoogleNotifications_Back--><g class="link" data-entity-1="Notification" data-entity-2="GoogleNotifications_Back" data-source-line="63" data-uid="lnk39" id="link_Notification_GoogleNotifications_Back"><path d="M451.19,253.8569 C458.22,248.8169 465.54,243.1469 471.88,237.3469 C502.13,209.7069 501.2,194.5069 531.88,167.3469 C546.44,154.4569 559.2562,145.4575 574.4062,136.0275" fill="none" id="Notification-to-GoogleNotifications_Back" style="stroke:#181818;stroke-width:1;"/><polygon fill="#181818" points="579.5,132.8569,569.7455,134.2169,575.2551,135.4991,573.973,141.0087,579.5,132.8569" style="stroke:#181818;stroke-width:1;"/></g><!--SRC=[dLJ1Rjim33tNNq7qqkqGeBiF1P9w6GAqsz1rkmwQpTf2RIcG5RJ5i7yVIKcEvAQNdImzFL9yrAEzzWF2J-tyGGsmTRhj46hSesdHD2zGQzKvDLO3FdZm5fpkUW-jTjXuRKrLJO_Qx1LHW25bEahtfmBOgEQnS_PWscixM0TFlVR8k7Kjke3z7eX4s5sWEOCEFbnMVwlg0bQh5NnwzkWCrJNQzZ3W1DQ0xn6a629KnolFDyerjaNutYX3USv1JH2n2ENipzRozulr-a4tYgLC4X8E2lpNrbdZJqIl3xxFWdYRAfSGwk6ooeHBMDga86uPnpnftuCsKNjZnxqrQFpqMhBmezGGowq7A6xa9uttyR8wEykFhMrXvt4C3Dhn1awGxb_sE9DuKtBMEtBHHFqIZj9XKt9kiTLApcMrBFN75D-D5yl3_4c4b0DByXqsEbORbYSyjVwsepgfPVKc-IgOUz7bhpGBeXcsgg57e3X9p3Z3WkO1zKREwyr_6uuVCm- -x_4MrK25fijdfBW3Hsrqo2hBfFdQalzbNYTuTyF3CsaQ5HhdPC7tehgS5_YO6RbwSp0eycf9ur4emvTpGNSdo_BD5_d4N2MdbbZqvcjKpBZ8C1kmG8Fj2aYyLY3HCGLMc6qnhlEaifdmUHxROyzPOVorShBIETa1FUSyWNaReiOSI_e4Ywyjwahrh2wb3hfEx8vcoi2OCnSUy3Vy-Wy0]--></g></svg>