<svg xmlns="http://www.w3.org/2000/svg" xmlns:xlink="http://www.w3.org/1999/xlink" contentStyleType="text/css" data-diagram-type="DESCRIPTION" height="706px" preserveAspectRatio="none" style="width:831px;height:706px;background:#FFFFFF;" version="1.1" viewBox="0 0 831 706" width="831px" zoomAndPan="magnify"><title>Virtual Fridge Dependency Diagram</title><defs/><g><g class="title" data-source-line="1"><text fill="#000000" font-family="sans-serif" font-size="14" font-weight="bold" lengthAdjust="spacing" textLength="283.2061" x="267.2529" y="22.9951">Virtual Fridge Dependency Diagram</text></g><!--cluster Backend--><g class="cluster" data-entity="Backend" data-source-line="19" data-uid="ent0006" id="cluster_Backend"><rect fill="#FFFFFF" height="371" rx="5" ry="5" style="stroke:#000000;stroke-width:1;" width="320.8" x="355.55" y="152.0269"/><text fill="#000000" font-family="sans-serif" font-size="14" font-weight="bold" lengthAdjust="spacing" textLength="67.2109" x="482.3445" y="167.022">Backend</text></g><!--entity Fridge--><g class="entity" data-entity="Fridge" data-source-line="20" data-uid="ent0007" id="entity_Fridge"><rect fill="#FFFFFF" height="36.2969" rx="5" ry="5" style="stroke:#000000;stroke-width:0.5;" width="64.085" x="389.67" y="257.8869"/><text fill="#000000" font-family="sans-serif" font-size="14" lengthAdjust="spacing" textLength="44.085" x="399.67" y="280.882">Fridge</text></g><!--entity FoodItem--><g class="entity" data-entity="FoodItem" data-source-line="21" data-uid="ent0008" id="entity_FoodItem"><rect fill="#FFFFFF" height="36.2969" rx="5" ry="5" style="stroke:#000000;stroke-width:0.5;" width="90.3896" x="568.72" y="257.8869"/><text fill="#000000" font-family="sans-serif" font-size="14" lengthAdjust="spacing" textLength="70.3896" x="578.72" y="280.882">Food Item</text></g><!--entity FoodType--><g class="entity" data-entity="FoodType" data-source-line="22" data-uid="ent0009" id="entity_FoodType"><rect fill="#FFFFFF" height="36.2969" rx="5" ry="5" style="stroke:#000000;stroke-width:0.5;" width="92.8574" x="567.49" y="328.8869"/><text fill="#000000" font-family="sans-serif" font-size="14" lengthAdjust="spacing" textLength="72.8574" x="577.49" y="351.882">Food Type</text></g><!--entity aiVision--><g class="entity" data-entity="aiVision" data-source-line="23" data-uid="ent0010" id="entity_aiVision"><rect fill="#FFFFFF" height="36.2969" rx="5" ry="5" style="stroke:#000000;stroke-width:0.5;" width="80.2451" x="573.8" y="433.8869"/><text fill="#000000" font-family="sans-serif" font-size="14" lengthAdjust="spacing" textLength="60.2451" x="583.8" y="456.882">AI Vision</text></g><!--entity Media--><g class="entity" data-entity="Media" data-source-line="24" data-uid="ent0011" id="entity_Media"><rect fill="#FFFFFF" height="36.2969" rx="5" ry="5" style="stroke:#000000;stroke-width:0.5;" width="62.0479" x="390.69" y="328.8869"/><text fill="#000000" font-family="sans-serif" font-size="14" lengthAdjust="spacing" textLength="42.0479" x="400.69" y="351.882">Media</text></g><!--entity User--><g class="entity" data-entity="User" data-source-line="25" data-uid="ent0012" id="entity_User"><rect fill="#FFFFFF" height="36.2969" rx="5" ry="5" style="stroke:#000000;stroke-width:0.5;" width="51.9102" x="395.76" y="186.8869"/><text fill="#000000" font-family="sans-serif" font-size="14" lengthAdjust="spacing" textLength="31.9102" x="405.76" y="209.882">User</text></g><!--entity Notification--><g class="entity" data-entity="Notification" data-source-line="26" data-uid="ent0013" id="entity_Notification"><rect fill="#FFFFFF" height="36.2969" rx="5" ry="5" style="stroke:#000000;stroke-width:0.5;" width="100.3291" x="371.55" y="399.8869"/><text fill="#000000" font-family="sans-serif" font-size="14" lengthAdjust="spacing" textLength="80.3291" x="381.55" y="422.882">Notification</text></g><!--entity Recipe--><g class="entity" data-entity="Recipe" data-source-line="27" data-uid="ent0014" id="entity_Recipe"><rect fill="#FFFFFF" height="36.2969" rx="5" ry="5" style="stroke:#000000;stroke-width:0.5;" width="67.4277" x="388" y="470.8869"/><text fill="#000000" font-family="sans-serif" font-size="14" lengthAdjust="spacing" textLength="47.4277" x="398" y="493.882">Recipe</text></g><!--entity BarcodeScanner--><g class="entity" data-entity="BarcodeScanner" data-source-line="11" data-uid="ent0002" id="entity_BarcodeScanner"><rect fill="#FFFFFF" height="36.2969" rx="5" ry="5" style="stroke:#000000;stroke-width:0.5;" width="139.4307" x="18.01" y="257.8869"/><text fill="#000000" font-family="sans-serif" font-size="14" lengthAdjust="spacing" textLength="119.4307" x="28.01" y="280.882">Barcode Scanner</text></g><!--entity GoogleNotifications_Front--><g class="entity" data-entity="GoogleNotifications_Front" data-source-line="12" data-uid="ent0003" id="entity_GoogleNotifications_Front"><rect fill="#FFFFFF" height="36.2969" rx="5" ry="5" style="stroke:#000000;stroke-width:0.5;" width="161.4424" x="7" y="328.8869"/><text fill="#000000" font-family="sans-serif" font-size="14" lengthAdjust="spacing" textLength="141.4424" x="17" y="351.882">Google Notifications</text></g><!--entity GoogleAuth--><g class="entity" data-entity="GoogleAuth" data-source-line="13" data-uid="ent0004" id="entity_GoogleAuth"><rect fill="#FFFFFF" height="36.2969" rx="5" ry="5" style="stroke:#000000;stroke-width:0.5;" width="106.6318" x="34.41" y="399.8869"/><text fill="#000000" font-family="sans-serif" font-size="14" lengthAdjust="spacing" textLength="86.6318" x="44.41" y="422.882">Google Auth</text></g><!--entity Frontend--><g class="entity" data-entity="Frontend" data-source-line="16" data-uid="ent0005" id="entity_Frontend"><rect fill="#FFFFFF" height="36.2969" rx="5" ry="5" style="stroke:#000000;stroke-width:0.5;" width="83.1094" x="228.44" y="328.8869"/><text fill="#000000" font-family="sans-serif" font-size="14" lengthAdjust="spacing" textLength="63.1094" x="238.44" y="351.882">Frontend</text></g><!--entity OpenFoodFacts--><g class="entity" data-entity="OpenFoodFacts" data-source-line="31" data-uid="ent0015" id="entity_OpenFoodFacts"><rect fill="#FFFFFF" height="36.2969" rx="5" ry="5" style="stroke:#000000;stroke-width:0.5;" width="164.0742" x="531.88" y="99.8869"/><text fill="#000000" font-family="sans-serif" font-size="14" lengthAdjust="spacing" textLength="144.0742" x="541.88" y="122.882">Open Food Facts API</text></g><!--entity DB--><g class="entity" data-entity="DB" data-source-line="32" data-uid="ent0016" id="entity_DB"><rect fill="#FFFFFF" height="36.2969" rx="5" ry="5" style="stroke:#000000;stroke-width:0.5;" width="40.3848" x="770.64" y="257.8869"/><text fill="#000000" font-family="sans-serif" font-size="14" lengthAdjust="spacing" textLength="20.3848" x="780.64" y="280.882">DB</text></g><!--entity GoogleNotifications_Back--><g class="entity" data-entity="GoogleNotifications_Back" data-source-line="33" data-uid="ent0017" id="entity_GoogleNotifications_Back"><rect fill="#FFFFFF" height="36.2969" rx="5" ry="5" style="stroke:#000000;stroke-width:0.5;" width="161.4424" x="533.2" y="538.8869"/><text fill="#000000" font-family="sans-serif" font-size="14" lengthAdjust="spacing" textLength="141.4424" x="543.2" y="561.882">Google Notifications</text></g><!--entity TheMealDB--><g class="entity" data-entity="TheMealDB" data-source-line="34" data-uid="ent0018" id="entity_TheMealDB"><rect fill="#FFFFFF" height="36.2969" rx="5" ry="5" style="stroke:#000000;stroke-width:0.5;" width="126.1826" x="550.83" y="609.8869"/><text fill="#000000" font-family="sans-serif" font-size="14" lengthAdjust="spacing" textLength="106.1826" x="560.83" y="632.882">TheMealDB API</text></g><!--entity Gemini--><g class="entity" data-entity="Gemini" data-source-line="35" data-uid="ent0019" id="entity_Gemini"><rect fill="#FFFFFF" height="36.2969" rx="5" ry="5" style="stroke:#000000;stroke-width:0.5;" width="69.752" x="755.96" y="556.8869"/><text fill="#000000" font-family="sans-serif" font-size="14" lengthAdjust="spacing" textLength="49.752" x="765.96" y="579.882">Gemini</text></g><!--reverse link BarcodeScanner to Frontend--><g class="link" data-entity-1="BarcodeScanner" data-entity-2="Frontend" data-source-line="38" data-uid="lnk20" id="link_BarcodeScanner_Frontend"><path d="M141.2026,296.6957 C169.8926,307.9957 200.65,320.1169 228.16,330.9469" fill="none" id="BarcodeScanner-backto-Frontend" style="stroke:#181818;stroke-width:1;"/><polygon fill="#181818" points="135.62,294.4969,142.528,301.5168,140.2722,296.3292,145.4597,294.0733,135.62,294.4969" style="stroke:#181818;stroke-width:1;"/></g><!--link GoogleNotifications_Front to Frontend--><g class="link" data-entity-1="GoogleNotifications_Front" data-entity-2="Frontend" data-source-line="39" data-uid="lnk21" id="link_GoogleNotifications_Front_Frontend"><path d="M168.84,347.0269 C189.34,347.0269 204.54,347.0269 222.13,347.0269" fill="none" id="GoogleNotifications_Front-to-Frontend" style="stroke:#181818;stroke-width:1;"/><polygon fill="#181818" points="228.13,347.0269,219.13,343.0269,223.13,347.0269,219.13,351.0269,228.13,347.0269" style="stroke:#181818;stroke-width:1;"/></g><!--reverse link GoogleAuth to Frontend--><g class="link" data-entity-1="GoogleAuth" data-entity-2="Frontend" data-source-line="40" data-uid="lnk22" id="link_GoogleAuth_Frontend"><path d="M141.2026,397.3681 C169.8926,386.0681 200.65,373.9469 228.16,363.1169" fill="none" id="GoogleAuth-backto-Frontend" style="stroke:#181818;stroke-width:1;"/><polygon fill="#181818" points="135.62,399.5669,145.4597,399.9904,140.2722,397.7346,142.528,392.547,135.62,399.5669" style="stroke:#181818;stroke-width:1;"/></g><!--link Frontend to Fridge--><g class="link" data-entity-1="Frontend" data-entity-2="Fridge" data-source-line="43" data-uid="lnk23" id="link_Frontend_Fridge"><path d="M309.94,328.5669 C334.72,316.8069 360.9579,304.3661 384.0879,293.4061" fill="none" id="Frontend-to-Fridge" style="stroke:#181818;stroke-width:1;"/><polygon fill="#181818" points="389.51,290.8369,379.664,291.076,384.9916,292.9779,383.0897,298.3054,389.51,290.8369" style="stroke:#181818;stroke-width:1;"/></g><!--link Frontend to Media--><g class="link" data-entity-1="Frontend" data-entity-2="Media" data-source-line="44" data-uid="lnk24" id="link_Frontend_Media"><path d="M311.91,347.0269 C336.67,347.0269 361.72,347.0269 384.31,347.0269" fill="none" id="Frontend-to-Media" style="stroke:#181818;stroke-width:1;"/><polygon fill="#181818" points="390.31,347.0269,381.31,343.0269,385.31,347.0269,381.31,351.0269,390.31,347.0269" style="stroke:#181818;stroke-width:1;"/></g><!--link Frontend to User--><g class="link" data-entity-1="Frontend" data-entity-2="User" data-source-line="45" data-uid="lnk25" id="link_Frontend_User"><path d="M280.37,328.5869 C292.96,305.3669 317.28,265.4269 347.55,240.0269 C361.68,228.1769 374.9191,221.4644 389.9391,215.6144" fill="none" id="Frontend-to-User" style="stroke:#181818;stroke-width:1;"/><polygon fill="#181818" points="395.53,213.4369,385.6919,212.9759,390.8709,215.2515,388.5953,220.4305,395.53,213.4369" style="stroke:#181818;stroke-width:1;"/></g><!--link Frontend to Recipe--><g class="link" data-entity-1="Frontend" data-entity-2="Recipe" data-source-line="46" data-uid="lnk26" id="link_Frontend_Recipe"><path d="M280.37,365.4769 C292.96,388.6969 317.28,428.6369 347.55,454.0269 C359.31,463.8969 368.8028,469.3488 382.1628,475.0588" fill="none" id="Frontend-to-Recipe" style="stroke:#181818;stroke-width:1;"/><polygon fill="#181818" points="387.68,477.4169,380.9762,470.2017,383.0823,475.4518,377.8322,477.558,387.68,477.4169" style="stroke:#181818;stroke-width:1;"/></g><!--link Frontend to Notification--><g class="link" data-entity-1="Frontend" data-entity-2="Notification" data-source-line="47" data-uid="lnk27" id="link_Frontend_Notification"><path d="M309.94,365.4969 C331.95,375.9369 353.9581,386.3772 376.0281,396.8372" fill="none" id="Frontend-to-Notification" style="stroke:#181818;stroke-width:1;"/><polygon fill="#181818" points="381.45,399.4069,375.0303,391.9378,376.9318,397.2655,371.6041,399.1669,381.45,399.4069" style="stroke:#181818;stroke-width:1;"/></g><!--link Fridge to OpenFoodFacts--><g class="link" data-entity-1="Fridge" data-entity-2="OpenFoodFacts" data-source-line="50" data-uid="lnk28" id="link_Fridge_OpenFoodFacts"><path d="M451.19,257.5369 C458.22,252.4969 465.54,246.8269 471.88,241.0269 C502.13,213.3869 501.09,198.0669 531.88,171.0269 C546.66,158.0569 559.7401,148.9953 575.1401,139.5853" fill="none" id="Fridge-to-OpenFoodFacts" style="stroke:#181818;stroke-width:1;"/><polygon fill="#181818" points="580.26,136.4569,570.4946,137.7363,575.9935,139.0639,574.6658,144.5628,580.26,136.4569" style="stroke:#181818;stroke-width:1;"/></g><!--link Fridge to FoodType--><g class="link" data-entity-1="Fridge" data-entity-2="FoodType" data-source-line="51" data-uid="lnk29" id="link_Fridge_FoodType"><path d="M454.12,287.7569 C484.93,299.2569 526.6292,314.8177 561.5992,327.8777" fill="none" id="Fridge-to-FoodType" style="stroke:#181818;stroke-width:1;"/><polygon fill="#181818" points="567.22,329.9769,560.1882,323.0809,562.536,328.2276,557.3893,330.5753,567.22,329.9769" style="stroke:#181818;stroke-width:1;"/></g><!--link Fridge to FoodItem--><g class="link" data-entity-1="Fridge" data-entity-2="FoodItem" data-source-line="52" data-uid="lnk30" id="link_Fridge_FoodItem"><path d="M454.12,276.0269 C485.25,276.0269 527.22,276.0269 562.3,276.0269" fill="none" id="Fridge-to-FoodItem" style="stroke:#181818;stroke-width:1;"/><polygon fill="#181818" points="568.3,276.0269,559.3,272.0269,563.3,276.0269,559.3,280.0269,568.3,276.0269" style="stroke:#181818;stroke-width:1;"/></g><!--link FoodItem to DB--><g class="link" data-entity-1="FoodItem" data-entity-2="DB" data-source-line="53" data-uid="lnk31" id="link_FoodItem_DB"><path d="M659.51,276.0269 C695.34,276.0269 737.92,276.0269 764.5,276.0269" fill="none" id="FoodItem-to-DB" style="stroke:#181818;stroke-width:1;"/><polygon fill="#181818" points="770.5,276.0269,761.5,272.0269,765.5,276.0269,761.5,280.0269,770.5,276.0269" style="stroke:#181818;stroke-width:1;"/></g><!--link FoodType to DB--><g class="link" data-entity-1="FoodType" data-entity-2="DB" data-source-line="54" data-uid="lnk32" id="link_FoodType_DB"><path d="M660.42,328.5669 C696.05,314.0969 738.2908,296.9542 764.6908,286.2342" fill="none" id="FoodType-to-DB" style="stroke:#181818;stroke-width:1;"/><polygon fill="#181818" points="770.25,283.9769,760.4063,283.6568,765.6174,285.858,763.4162,291.069,770.25,283.9769" style="stroke:#181818;stroke-width:1;"/></g><!--link aiVision to Gemini--><g class="link" data-entity-1="aiVision" data-entity-2="Gemini" data-source-line="55" data-uid="lnk33" id="link_aiVision_Gemini"><path d="M641.1,470.4469 C674.08,493.6369 725.5015,529.7963 758.5615,553.0363" fill="none" id="aiVision-to-Gemini" style="stroke:#181818;stroke-width:1;"/><polygon fill="#181818" points="763.47,556.4869,758.4075,548.0387,759.3795,553.6114,753.8068,554.5834,763.47,556.4869" style="stroke:#181818;stroke-width:1;"/></g><!--link Media to aiVision--><g class="link" data-entity-1="Media" data-entity-2="aiVision" data-source-line="56" data-uid="lnk34" id="link_Media_aiVision"><path d="M452.85,363.6669 C487.32,382.6969 538.327,410.8576 574.147,430.6276" fill="none" id="Media-to-aiVision" style="stroke:#181818;stroke-width:1;"/><polygon fill="#181818" points="579.4,433.5269,573.4533,425.6759,575.0225,431.1108,569.5876,432.68,579.4,433.5269" style="stroke:#181818;stroke-width:1;"/></g><!--link Media to FoodType--><g class="link" data-entity-1="Media" data-entity-2="FoodType" data-source-line="57" data-uid="lnk35" id="link_Media_FoodType"><path d="M452.85,347.0269 C483.65,347.0269 525.86,347.0269 561.32,347.0269" fill="none" id="Media-to-FoodType" style="stroke:#181818;stroke-width:1;"/><polygon fill="#181818" points="567.32,347.0269,558.32,343.0269,562.32,347.0269,558.32,351.0269,567.32,347.0269" style="stroke:#181818;stroke-width:1;"/></g><!--link Media to FoodItem--><g class="link" data-entity-1="Media" data-entity-2="FoodItem" data-source-line="58" data-uid="lnk36" id="link_Media_FoodItem"><path d="M452.85,335.7769 C483.96,324.1669 527.219,308.0255 562.789,294.7455" fill="none" id="Media-to-FoodItem" style="stroke:#181818;stroke-width:1;"/><polygon fill="#181818" points="568.41,292.6469,558.5794,292.0474,563.7258,294.3957,561.3775,299.5421,568.41,292.6469" style="stroke:#181818;stroke-width:1;"/></g><!--link User to DB--><g class="link" data-entity-1="User" data-entity-2="DB" data-source-line="59" data-uid="lnk37" id="link_User_DB"><path d="M432.39,186.4269 C448.53,157.6869 483.96,103.5669 531.88,82.0269 C598.39,52.1369 634.17,43.2969 695.96,82.0269 C759.2,121.6869 779.9258,211.4332 786.4158,251.7232" fill="none" id="User-to-DB" style="stroke:#181818;stroke-width:1;"/><polygon fill="#181818" points="787.37,257.6469,789.8878,248.1253,786.5748,252.7105,781.9896,249.3975,787.37,257.6469" style="stroke:#181818;stroke-width:1;"/></g><!--link Recipe to FoodType--><g class="link" data-entity-1="Recipe" data-entity-2="FoodType" data-source-line="60" data-uid="lnk38" id="link_Recipe_FoodType"><path d="M449.1,470.4669 C456.51,465.1969 464.54,459.4269 471.88,454.0269 C513.36,423.5469 556.1874,390.8092 584.1274,369.2792" fill="none" id="Recipe-to-FoodType" style="stroke:#181818;stroke-width:1;"/><polygon fill="#181818" points="588.88,365.6169,579.3095,367.9419,584.9195,368.6688,584.1926,374.2787,588.88,365.6169" style="stroke:#181818;stroke-width:1;"/></g><!--link Recipe to TheMealDB--><g class="link" data-entity-1="Recipe" data-entity-2="TheMealDB" data-source-line="61" data-uid="lnk39" id="link_Recipe_TheMealDB"><path d="M438.48,507.6469 C458.38,530.2269 494.55,568.3369 531.88,593.0269 C541.21,599.2069 546.3442,602.232 556.7242,606.932" fill="none" id="Recipe-to-TheMealDB" style="stroke:#181818;stroke-width:1;"/><polygon fill="#181818" points="562.19,609.4069,555.6412,602.0507,557.6352,607.3445,552.3414,609.3384,562.19,609.4069" style="stroke:#181818;stroke-width:1;"/></g><!--link Recipe to Gemini--><g class="link" data-entity-1="Recipe" data-entity-2="Gemini" data-source-line="62" data-uid="lnk40" id="link_Recipe_Gemini"><path d="M427.7,507.4669 C438.96,545.0569 470.35,629.8969 531.88,664.0269 C595.65,699.4069 628.22,691.0369 695.96,664.0269 C731.42,649.8969 757.6165,620.114 773.6065,598.454" fill="none" id="Recipe-to-Gemini" style="stroke:#181818;stroke-width:1;"/><polygon fill="#181818" points="777.17,593.6269,768.6066,598.4919,774.2004,597.6495,775.0428,603.2433,777.17,593.6269" style="stroke:#181818;stroke-width:1;"/></g><!--link Notification to GoogleNotifications_Back--><g class="link" data-entity-1="Notification" data-entity-2="GoogleNotifications_Back" data-source-line="63" data-uid="lnk41" id="link_Notification_GoogleNotifications_Back"><path d="M451.19,436.5269 C458.22,441.5569 465.54,447.2369 471.88,453.0269 C502.13,480.6769 498.76,498.8969 531.88,523.0269 C540.02,528.9569 543.9089,531.5682 553.2689,535.9182" fill="none" id="Notification-to-GoogleNotifications_Back" style="stroke:#181818;stroke-width:1;"/><polygon fill="#181818" points="558.71,538.4469,552.2342,531.0264,554.1757,536.3396,548.8625,538.2812,558.71,538.4469" style="stroke:#181818;stroke-width:1;"/></g><!--SRC=[dLHDRzGm43tNlsBK2t1O2UweqgPXqKeKK2bSaKccYTN4NZbUjHNYlpCpZhDss5uuRVpynlFrtWOJ1eGVneUZ7c3dJTiXr7X0sw9jdg4sklDwL0FU1mWElEdw0Atns0JZh5BJWx47JHHWIDkEdlkj02hTF7JU7MrxxGRduR4t0HbtlaKViLy3aGYxZJHlqSExj-gFKgzWizd0XwU0tb9TeskF0qxWB8GUGOeXWZgblAoqRroByAtHbjwv13t1ZCrGplxe7Fz-Ti7ScqPpAvE4n8i2_xdppeOpqTjZwBCWFgRA9OHckAuouHAM3Yc8HyOnZoRqOEpSU-F6WxDem_HloyAVMusnF7g08YElTCx7d-hY8hzsheLzm34owCG7E4EwUpxWGk93oTdkIKKJpKiusiH3oRd1rcYvbwzrgT-dUM_yiRxCLoAa75YJRx4nSxNnyuocjb_tL2UDhAwIhgAuLrF-GbwGdc6d6re2nSd3Z3CiQ1vGLt9VL_yjE5vc7dpNumtgWGfDoHUao86ZiIQ-Af-fvsj7-XU_Jl3w4vjdCcGLidEIu1lfklGBlC-4h5uq1aLUhMbiXJ9yxGlAdIJBcJE_N2MT5bWKJ069IWfatdM15J9P6Mtn6Ci0dnR3dQOLQvC_HNwit7bsiNXYXR6PrE8gHcbbYPpEoInodZSd_GgmMEa4BTbAI9BnLDB3SHvbI8QTH9I1S_vyR15_GQT_0G00]--></g></svg>