<svg xmlns="http://www.w3.org/2000/svg" xmlns:xlink="http://www.w3.org/1999/xlink" contentStyleType="text/css" data-diagram-type="DESCRIPTION" height="405px" preserveAspectRatio="none" style="width:701px;height:405px;background:#FFFFFF;" version="1.1" viewBox="0 0 701 405" width="701px" zoomAndPan="magnify"><title>Virtual Fridge Dependency Diagram</title><defs/><g><g class="title" data-source-line="1"><text fill="#000000" font-family="sans-serif" font-size="14" font-weight="bold" lengthAdjust="spacing" textLength="283.2061" x="202.3741" y="22.9951">Virtual Fridge Dependency Diagram</text></g><!--cluster Backend--><g class="cluster" data-entity="Backend" data-source-line="19" data-uid="ent0006" id="cluster_Backend"><rect fill="#FFFFFF" height="300" rx="5" ry="5" style="stroke:#000000;stroke-width:1;" width="132.33" x="355.55" y="44.2969"/><text fill="#000000" font-family="sans-serif" font-size="14" font-weight="bold" lengthAdjust="spacing" textLength="67.2109" x="388.1095" y="59.292">Backend</text></g><!--entity Fridge--><g class="entity" data-entity="Fridge" data-source-line="20" data-uid="ent0007" id="entity_Fridge"><rect fill="#FFFFFF" height="36.2969" rx="5" ry="5" style="stroke:#000000;stroke-width:0.5;" width="64.085" x="389.67" y="79.1469"/><text fill="#000000" font-family="sans-serif" font-size="14" lengthAdjust="spacing" textLength="44.085" x="399.67" y="102.142">Fridge</text></g><!--entity User--><g class="entity" data-entity="User" data-source-line="21" data-uid="ent0008" id="entity_User"><rect fill="#FFFFFF" height="36.2969" rx="5" ry="5" style="stroke:#000000;stroke-width:0.5;" width="51.9102" x="395.76" y="150.1469"/><text fill="#000000" font-family="sans-serif" font-size="14" lengthAdjust="spacing" textLength="31.9102" x="405.76" y="173.142">User</text></g><!--entity Notification--><g class="entity" data-entity="Notification" data-source-line="22" data-uid="ent0009" id="entity_Notification"><rect fill="#FFFFFF" height="36.2969" rx="5" ry="5" style="stroke:#000000;stroke-width:0.5;" width="100.3291" x="371.55" y="221.1469"/><text fill="#000000" font-family="sans-serif" font-size="14" lengthAdjust="spacing" textLength="80.3291" x="381.55" y="244.142">Notification</text></g><!--entity Recipe--><g class="entity" data-entity="Recipe" data-source-line="23" data-uid="ent0010" id="entity_Recipe"><rect fill="#FFFFFF" height="36.2969" rx="5" ry="5" style="stroke:#000000;stroke-width:0.5;" width="67.4277" x="388" y="292.1469"/><text fill="#000000" font-family="sans-serif" font-size="14" lengthAdjust="spacing" textLength="47.4277" x="398" y="315.142">Recipe</text></g><!--entity BarcodeScanner--><g class="entity" data-entity="BarcodeScanner" data-source-line="11" data-uid="ent0002" id="entity_BarcodeScanner"><rect fill="#FFFFFF" height="36.2969" rx="5" ry="5" style="stroke:#000000;stroke-width:0.5;" width="139.4307" x="18.01" y="115.1469"/><text fill="#000000" font-family="sans-serif" font-size="14" lengthAdjust="spacing" textLength="119.4307" x="28.01" y="138.142">Barcode Scanner</text></g><!--entity GoogleNotifications_Front--><g class="entity" data-entity="GoogleNotifications_Front" data-source-line="12" data-uid="ent0003" id="entity_GoogleNotifications_Front"><rect fill="#FFFFFF" height="36.2969" rx="5" ry="5" style="stroke:#000000;stroke-width:0.5;" width="161.4424" x="7" y="186.1469"/><text fill="#000000" font-family="sans-serif" font-size="14" lengthAdjust="spacing" textLength="141.4424" x="17" y="209.142">Google Notifications</text></g><!--entity GoogleAuth--><g class="entity" data-entity="GoogleAuth" data-source-line="13" data-uid="ent0004" id="entity_GoogleAuth"><rect fill="#FFFFFF" height="36.2969" rx="5" ry="5" style="stroke:#000000;stroke-width:0.5;" width="106.6318" x="34.41" y="257.1469"/><text fill="#000000" font-family="sans-serif" font-size="14" lengthAdjust="spacing" textLength="86.6318" x="44.41" y="280.142">Google Auth</text></g><!--entity Frontend--><g class="entity" data-entity="Frontend" data-source-line="16" data-uid="ent0005" id="entity_Frontend"><rect fill="#FFFFFF" height="36.2969" rx="5" ry="5" style="stroke:#000000;stroke-width:0.5;" width="83.1094" x="228.44" y="186.1469"/><text fill="#000000" font-family="sans-serif" font-size="14" lengthAdjust="spacing" textLength="63.1094" x="238.44" y="209.142">Frontend</text></g><!--entity OpenFoodFacts--><g class="entity" data-entity="OpenFoodFacts" data-source-line="27" data-uid="ent0011" id="entity_OpenFoodFacts"><rect fill="#FFFFFF" height="36.2969" rx="5" ry="5" style="stroke:#000000;stroke-width:0.5;" width="164.0742" x="531.88" y="79.1469"/><text fill="#000000" font-family="sans-serif" font-size="14" lengthAdjust="spacing" textLength="144.0742" x="541.88" y="102.142">Open Food Facts API</text></g><!--entity DB--><g class="entity" data-entity="DB" data-source-line="28" data-uid="ent0012" id="entity_DB"><rect fill="#FFFFFF" height="36.2969" rx="5" ry="5" style="stroke:#000000;stroke-width:0.5;" width="40.3848" x="593.73" y="150.1469"/><text fill="#000000" font-family="sans-serif" font-size="14" lengthAdjust="spacing" textLength="20.3848" x="603.73" y="173.142">DB</text></g><!--entity GoogleNotifications_Back--><g class="entity" data-entity="GoogleNotifications_Back" data-source-line="29" data-uid="ent0013" id="entity_GoogleNotifications_Back"><rect fill="#FFFFFF" height="36.2969" rx="5" ry="5" style="stroke:#000000;stroke-width:0.5;" width="161.4424" x="533.2" y="221.1469"/><text fill="#000000" font-family="sans-serif" font-size="14" lengthAdjust="spacing" textLength="141.4424" x="543.2" y="244.142">Google Notifications</text></g><!--entity TheMealDB--><g class="entity" data-entity="TheMealDB" data-source-line="30" data-uid="ent0014" id="entity_TheMealDB"><rect fill="#FFFFFF" height="36.2969" rx="5" ry="5" style="stroke:#000000;stroke-width:0.5;" width="126.1826" x="550.83" y="292.1469"/><text fill="#000000" font-family="sans-serif" font-size="14" lengthAdjust="spacing" textLength="106.1826" x="560.83" y="315.142">TheMealDB API</text></g><!--entity Gemini--><g class="entity" data-entity="Gemini" data-source-line="31" data-uid="ent0015" id="entity_Gemini"><rect fill="#FFFFFF" height="36.2969" rx="5" ry="5" style="stroke:#000000;stroke-width:0.5;" width="69.752" x="579.04" y="363.1469"/><text fill="#000000" font-family="sans-serif" font-size="14" lengthAdjust="spacing" textLength="49.752" x="589.04" y="386.142">Gemini</text></g><!--reverse link BarcodeScanner to Frontend--><g class="link" data-entity-1="BarcodeScanner" data-entity-2="Frontend" data-source-line="34" data-uid="lnk16" id="link_BarcodeScanner_Frontend"><path d="M141.2026,153.9657 C169.8926,165.2657 200.65,177.3869 228.16,188.2169" fill="none" id="BarcodeScanner-backto-Frontend" style="stroke:#181818;stroke-width:1;"/><polygon fill="#181818" points="135.62,151.7669,142.528,158.7868,140.2722,153.5992,145.4597,151.3433,135.62,151.7669" style="stroke:#181818;stroke-width:1;"/></g><!--link GoogleNotifications_Front to Frontend--><g class="link" data-entity-1="GoogleNotifications_Front" data-entity-2="Frontend" data-source-line="35" data-uid="lnk17" id="link_GoogleNotifications_Front_Frontend"><path d="M168.84,204.2969 C189.34,204.2969 204.54,204.2969 222.13,204.2969" fill="none" id="GoogleNotifications_Front-to-Frontend" style="stroke:#181818;stroke-width:1;"/><polygon fill="#181818" points="228.13,204.2969,219.13,200.2969,223.13,204.2969,219.13,208.2969,228.13,204.2969" style="stroke:#181818;stroke-width:1;"/></g><!--reverse link GoogleAuth to Frontend--><g class="link" data-entity-1="GoogleAuth" data-entity-2="Frontend" data-source-line="36" data-uid="lnk18" id="link_GoogleAuth_Frontend"><path d="M141.2026,254.6281 C169.8926,243.3281 200.65,231.2169 228.16,220.3869" fill="none" id="GoogleAuth-backto-Frontend" style="stroke:#181818;stroke-width:1;"/><polygon fill="#181818" points="135.62,256.8269,145.4597,257.2504,140.2722,254.9946,142.528,249.807,135.62,256.8269" style="stroke:#181818;stroke-width:1;"/></g><!--link Frontend to Fridge--><g class="link" data-entity-1="Frontend" data-entity-2="Fridge" data-source-line="39" data-uid="lnk19" id="link_Frontend_Fridge"><path d="M287.6,185.7569 C302.27,170.1169 324.82,147.8669 347.55,132.2969 C360.45,123.4669 370.4376,118.1548 383.8176,112.2048" fill="none" id="Frontend-to-Fridge" style="stroke:#181818;stroke-width:1;"/><polygon fill="#181818" points="389.3,109.7669,379.4511,109.7689,384.7314,111.7985,382.7018,117.0787,389.3,109.7669" style="stroke:#181818;stroke-width:1;"/></g><!--link Frontend to User--><g class="link" data-entity-1="Frontend" data-entity-2="User" data-source-line="40" data-uid="lnk20" id="link_Frontend_User"><path d="M311.91,194.4569 C338.58,188.0469 366.6963,181.2897 389.5263,175.7997" fill="none" id="Frontend-to-User" style="stroke:#181818;stroke-width:1;"/><polygon fill="#181818" points="395.36,174.3969,385.6742,172.612,390.4986,175.5659,387.5447,180.3903,395.36,174.3969" style="stroke:#181818;stroke-width:1;"/></g><!--link Frontend to Recipe--><g class="link" data-entity-1="Frontend" data-entity-2="Recipe" data-source-line="41" data-uid="lnk21" id="link_Frontend_Recipe"><path d="M287.94,222.8769 C302.65,238.2669 325.06,260.0169 347.55,275.2969 C359.9,283.6869 369.092,288.6568 382.042,294.5068" fill="none" id="Frontend-to-Recipe" style="stroke:#181818;stroke-width:1;"/><polygon fill="#181818" points="387.51,296.9769,380.9548,289.6264,382.9534,294.9185,377.6613,296.9171,387.51,296.9769" style="stroke:#181818;stroke-width:1;"/></g><!--link Frontend to Notification--><g class="link" data-entity-1="Frontend" data-entity-2="Notification" data-source-line="42" data-uid="lnk22" id="link_Frontend_Notification"><path d="M311.91,213.8669 C330.18,218.1369 346.0271,221.8428 365.2171,226.3228" fill="none" id="Frontend-to-Notification" style="stroke:#181818;stroke-width:1;"/><polygon fill="#181818" points="371.06,227.6869,363.205,221.7455,366.1909,226.5502,361.3863,229.5361,371.06,227.6869" style="stroke:#181818;stroke-width:1;"/></g><!--link Fridge to OpenFoodFacts--><g class="link" data-entity-1="Fridge" data-entity-2="OpenFoodFacts" data-source-line="45" data-uid="lnk23" id="link_Fridge_OpenFoodFacts"><path d="M454.12,97.2969 C475.23,97.2969 498.07,97.2969 525.39,97.2969" fill="none" id="Fridge-to-OpenFoodFacts" style="stroke:#181818;stroke-width:1;"/><polygon fill="#181818" points="531.39,97.2969,522.39,93.2969,526.39,97.2969,522.39,101.2969,531.39,97.2969" style="stroke:#181818;stroke-width:1;"/></g><!--link Fridge to DB--><g class="link" data-entity-1="Fridge" data-entity-2="DB" data-source-line="46" data-uid="lnk24" id="link_Fridge_DB"><path d="M454.12,109.0269 C493.69,123.7969 554.8586,146.6293 587.7686,158.9093" fill="none" id="Fridge-to-DB" style="stroke:#181818;stroke-width:1;"/><polygon fill="#181818" points="593.39,161.0069,586.3563,154.1129,588.7055,159.2589,583.5595,161.6081,593.39,161.0069" style="stroke:#181818;stroke-width:1;"/></g><!--link User to DB--><g class="link" data-entity-1="User" data-entity-2="DB" data-source-line="47" data-uid="lnk25" id="link_User_DB"><path d="M447.97,168.2969 C486.37,168.2969 552.63,168.2969 587.34,168.2969" fill="none" id="User-to-DB" style="stroke:#181818;stroke-width:1;"/><polygon fill="#181818" points="593.34,168.2969,584.34,164.2969,588.34,168.2969,584.34,172.2969,593.34,168.2969" style="stroke:#181818;stroke-width:1;"/></g><!--link Recipe to DB--><g class="link" data-entity-1="Recipe" data-entity-2="DB" data-source-line="48" data-uid="lnk26" id="link_Recipe_DB"><path d="M455.81,299.8769 C469.5,294.2869 484.73,286.2569 495.88,275.2969 C521.4,250.2269 505.88,227.8769 531.88,203.2969 C549.25,186.8769 569.7482,179.0338 587.6382,174.1938" fill="none" id="Recipe-to-DB" style="stroke:#181818;stroke-width:1;"/><polygon fill="#181818" points="593.43,172.6269,583.6977,171.1161,588.6035,173.9326,585.7869,178.8384,593.43,172.6269" style="stroke:#181818;stroke-width:1;"/></g><!--link Recipe to TheMealDB--><g class="link" data-entity-1="Recipe" data-entity-2="TheMealDB" data-source-line="49" data-uid="lnk27" id="link_Recipe_TheMealDB"><path d="M455.85,310.2969 C481.92,310.2969 513.01,310.2969 544.6,310.2969" fill="none" id="Recipe-to-TheMealDB" style="stroke:#181818;stroke-width:1;"/><polygon fill="#181818" points="550.6,310.2969,541.6,306.2969,545.6,310.2969,541.6,314.2969,550.6,310.2969" style="stroke:#181818;stroke-width:1;"/></g><!--link Recipe to Gemini--><g class="link" data-entity-1="Recipe" data-entity-2="Gemini" data-source-line="50" data-uid="lnk28" id="link_Recipe_Gemini"><path d="M455.85,322.6669 C490.22,335.4969 538.119,353.3783 572.939,366.3783" fill="none" id="Recipe-to-Gemini" style="stroke:#181818;stroke-width:1;"/><polygon fill="#181818" points="578.56,368.4769,571.5275,361.5816,573.8758,366.728,568.7294,369.0763,578.56,368.4769" style="stroke:#181818;stroke-width:1;"/></g><!--link Notification to GoogleNotifications_Back--><g class="link" data-entity-1="Notification" data-entity-2="GoogleNotifications_Back" data-source-line="51" data-uid="lnk29" id="link_Notification_GoogleNotifications_Back"><path d="M472.19,239.2969 C490.68,239.2969 506.19,239.2969 526.75,239.2969" fill="none" id="Notification-to-GoogleNotifications_Back" style="stroke:#181818;stroke-width:1;"/><polygon fill="#181818" points="532.75,239.2969,523.75,235.2969,527.75,239.2969,523.75,243.2969,532.75,239.2969" style="stroke:#181818;stroke-width:1;"/></g><!--SRC=[dLJBRjim4BppAnQvj3qOQEv5W2YgYm1z8NrS2vRQI4Haha7II8gY_zvTKhH9rRdqP7AuiwyPETeu8totFXxq35jlXn6Xnpsw0Ptv1RtLezSxDUDzX4ZWxJX56An74oqvfSA3TNlD8I2GTYEd-wq0EcqUHay7DzpGJ1uU9njHSF83-epzd3c8iRiSvXrwk7oj_YZr0ZQR3RnzYkWTzxMZuJ1Z078G9uJK30UeKycBJdj30y8NentdkG0TOC4Mg8v-HoI_7odQUskqZ18I9Jyq-8-j9nVFiAyFSQf8SYsT9mhlSDrbmHEjN0f9LYQSHnidi6wPtT1kJmvT3F-EdEANKJDNLW_GL1H9btfoN0Ty2yksvB1-h1UHWcfW7No7nkvpgNmye-Jrvzi0cXljkw9cjjHgja_iGDWI3R3LXaTdNaeikC09hGbzbzxxxhzbbXNMvAyJVa0zSwEb-15fQk3EEfkpfcEP-OROTUah2V3olLWsM3OeVqH5-5TfwjQbyAQoZthMZioyMeU90LlwserSknX5AbSklIhkQB1aYGPPX6smnXChBnzjB9hZqz7JfzNaHjB_ZYHh1QuUUElIJZddHixSJY9LuA9CtMd6d_71Nm00]--></g></svg>