<svg xmlns="http://www.w3.org/2000/svg" xmlns:xlink="http://www.w3.org/1999/xlink" contentStyleType="text/css" data-diagram-type="DESCRIPTION" height="864px" preserveAspectRatio="none" style="width:923px;height:864px;background:#FFFFFF;" version="1.1" viewBox="0 0 923 864" width="923px" zoomAndPan="magnify"><title>Virtual Fridge Dependency Diagram</title><defs/><g><g class="title" data-source-line="1"><text fill="#000000" font-family="sans-serif" font-size="14" font-weight="bold" lengthAdjust="spacing" textLength="283.2061" x="313.0941" y="22.9951">Virtual Fridge Dependency Diagram</text></g><!--cluster Backend--><g class="cluster" data-entity="Backend" data-source-line="19" data-uid="ent0006" id="cluster_Backend"><rect fill="#FFFFFF" height="513" rx="5" ry="5" style="stroke:#000000;stroke-width:1;" width="305.09" x="355.55" y="80.0569"/><text fill="#000000" font-family="sans-serif" font-size="14" font-weight="bold" lengthAdjust="spacing" textLength="67.2109" x="474.4895" y="95.052">Backend</text></g><!--entity Fridge--><g class="entity" data-entity="Fridge" data-source-line="20" data-uid="ent0007" id="entity_Fridge"><rect fill="#FFFFFF" height="36.2969" rx="5" ry="5" style="stroke:#000000;stroke-width:0.5;" width="64.085" x="580.56" y="150.9069"/><text fill="#000000" font-family="sans-serif" font-size="14" lengthAdjust="spacing" textLength="44.085" x="590.56" y="173.902">Fridge</text></g><!--entity FoodItem--><g class="entity" data-entity="FoodItem" data-source-line="21" data-uid="ent0008" id="entity_FoodItem"><rect fill="#FFFFFF" height="36.2969" rx="5" ry="5" style="stroke:#000000;stroke-width:0.5;" width="90.3896" x="376.52" y="114.9069"/><text fill="#000000" font-family="sans-serif" font-size="14" lengthAdjust="spacing" textLength="70.3896" x="386.52" y="137.902">Food Item</text></g><!--entity FoodType--><g class="entity" data-entity="FoodType" data-source-line="22" data-uid="ent0009" id="entity_FoodType"><rect fill="#FFFFFF" height="36.2969" rx="5" ry="5" style="stroke:#000000;stroke-width:0.5;" width="92.8574" x="375.29" y="185.9069"/><text fill="#000000" font-family="sans-serif" font-size="14" lengthAdjust="spacing" textLength="72.8574" x="385.29" y="208.902">Food Type</text></g><!--entity aiVision--><g class="entity" data-entity="aiVision" data-source-line="23" data-uid="ent0010" id="entity_aiVision"><rect fill="#FFFFFF" height="36.2969" rx="5" ry="5" style="stroke:#000000;stroke-width:0.5;" width="80.2451" x="381.59" y="327.9069"/><text fill="#000000" font-family="sans-serif" font-size="14" lengthAdjust="spacing" textLength="60.2451" x="391.59" y="350.902">AI Vision</text></g><!--entity Media--><g class="entity" data-entity="Media" data-source-line="24" data-uid="ent0011" id="entity_Media"><rect fill="#FFFFFF" height="36.2969" rx="5" ry="5" style="stroke:#000000;stroke-width:0.5;" width="62.0479" x="390.69" y="398.9069"/><text fill="#000000" font-family="sans-serif" font-size="14" lengthAdjust="spacing" textLength="42.0479" x="400.69" y="421.902">Media</text></g><!--entity User--><g class="entity" data-entity="User" data-source-line="25" data-uid="ent0012" id="entity_User"><rect fill="#FFFFFF" height="36.2969" rx="5" ry="5" style="stroke:#000000;stroke-width:0.5;" width="51.9102" x="395.76" y="469.9069"/><text fill="#000000" font-family="sans-serif" font-size="14" lengthAdjust="spacing" textLength="31.9102" x="405.76" y="492.902">User</text></g><!--entity Notification--><g class="entity" data-entity="Notification" data-source-line="26" data-uid="ent0013" id="entity_Notification"><rect fill="#FFFFFF" height="36.2969" rx="5" ry="5" style="stroke:#000000;stroke-width:0.5;" width="100.3291" x="371.55" y="540.9069"/><text fill="#000000" font-family="sans-serif" font-size="14" lengthAdjust="spacing" textLength="80.3291" x="381.55" y="563.902">Notification</text></g><!--entity Recipe--><g class="entity" data-entity="Recipe" data-source-line="27" data-uid="ent0014" id="entity_Recipe"><rect fill="#FFFFFF" height="36.2969" rx="5" ry="5" style="stroke:#000000;stroke-width:0.5;" width="67.4277" x="388" y="256.9069"/><text fill="#000000" font-family="sans-serif" font-size="14" lengthAdjust="spacing" textLength="47.4277" x="398" y="279.902">Recipe</text></g><!--entity BarcodeScanner--><g class="entity" data-entity="BarcodeScanner" data-source-line="11" data-uid="ent0002" id="entity_BarcodeScanner"><rect fill="#FFFFFF" height="36.2969" rx="5" ry="5" style="stroke:#000000;stroke-width:0.5;" width="139.4307" x="18.01" y="221.9069"/><text fill="#000000" font-family="sans-serif" font-size="14" lengthAdjust="spacing" textLength="119.4307" x="28.01" y="244.902">Barcode Scanner</text></g><!--entity GoogleNotifications_Front--><g class="entity" data-entity="GoogleNotifications_Front" data-source-line="12" data-uid="ent0003" id="entity_GoogleNotifications_Front"><rect fill="#FFFFFF" height="36.2969" rx="5" ry="5" style="stroke:#000000;stroke-width:0.5;" width="161.4424" x="7" y="292.9069"/><text fill="#000000" font-family="sans-serif" font-size="14" lengthAdjust="spacing" textLength="141.4424" x="17" y="315.902">Google Notifications</text></g><!--entity GoogleAuth--><g class="entity" data-entity="GoogleAuth" data-source-line="13" data-uid="ent0004" id="entity_GoogleAuth"><rect fill="#FFFFFF" height="36.2969" rx="5" ry="5" style="stroke:#000000;stroke-width:0.5;" width="106.6318" x="34.41" y="363.9069"/><text fill="#000000" font-family="sans-serif" font-size="14" lengthAdjust="spacing" textLength="86.6318" x="44.41" y="386.902">Google Auth</text></g><!--entity Frontend--><g class="entity" data-entity="Frontend" data-source-line="16" data-uid="ent0005" id="entity_Frontend"><rect fill="#FFFFFF" height="36.2969" rx="5" ry="5" style="stroke:#000000;stroke-width:0.5;" width="83.1094" x="228.44" y="292.9069"/><text fill="#000000" font-family="sans-serif" font-size="14" lengthAdjust="spacing" textLength="63.1094" x="238.44" y="315.902">Frontend</text></g><!--entity OpenFoodFacts--><g class="entity" data-entity="OpenFoodFacts" data-source-line="31" data-uid="ent0015" id="entity_OpenFoodFacts"><rect fill="#FFFFFF" height="36.2969" rx="5" ry="5" style="stroke:#000000;stroke-width:0.5;" width="164.0742" x="753.32" y="150.9069"/><text fill="#000000" font-family="sans-serif" font-size="14" lengthAdjust="spacing" textLength="144.0742" x="763.32" y="173.902">Open Food Facts API</text></g><!--entity DB--><g class="entity" data-entity="DB" data-source-line="32" data-uid="ent0016" id="entity_DB"><rect fill="#FFFFFF" height="36.2969" rx="5" ry="5" style="stroke:#000000;stroke-width:0.5;" width="40.3848" x="815.17" y="256.9069"/><text fill="#000000" font-family="sans-serif" font-size="14" lengthAdjust="spacing" textLength="20.3848" x="825.17" y="279.902">DB</text></g><!--entity GoogleNotifications_Back--><g class="entity" data-entity="GoogleNotifications_Back" data-source-line="33" data-uid="ent0017" id="entity_GoogleNotifications_Back"><rect fill="#FFFFFF" height="36.2969" rx="5" ry="5" style="stroke:#000000;stroke-width:0.5;" width="161.4424" x="531.88" y="821.9069"/><text fill="#000000" font-family="sans-serif" font-size="14" lengthAdjust="spacing" textLength="141.4424" x="541.88" y="844.902">Google Notifications</text></g><!--entity TheMealDB--><g class="entity" data-entity="TheMealDB" data-source-line="34" data-uid="ent0018" id="entity_TheMealDB"><rect fill="#FFFFFF" height="36.2969" rx="5" ry="5" style="stroke:#000000;stroke-width:0.5;" width="126.1826" x="549.51" y="608.9069"/><text fill="#000000" font-family="sans-serif" font-size="14" lengthAdjust="spacing" textLength="106.1826" x="559.51" y="631.902">TheMealDB API</text></g><!--entity Gemini--><g class="entity" data-entity="Gemini" data-source-line="35" data-uid="ent0019" id="entity_Gemini"><rect fill="#FFFFFF" height="36.2969" rx="5" ry="5" style="stroke:#000000;stroke-width:0.5;" width="69.752" x="577.73" y="679.9069"/><text fill="#000000" font-family="sans-serif" font-size="14" lengthAdjust="spacing" textLength="49.752" x="587.73" y="702.902">Gemini</text></g><!--reverse link BarcodeScanner to Frontend--><g class="link" data-entity-1="BarcodeScanner" data-entity-2="Frontend" data-source-line="38" data-uid="lnk20" id="link_BarcodeScanner_Frontend"><path d="M141.2026,260.7257 C169.8926,272.0257 200.65,284.1469 228.16,294.9769" fill="none" id="BarcodeScanner-backto-Frontend" style="stroke:#181818;stroke-width:1;"/><polygon fill="#181818" points="135.62,258.5269,142.528,265.5468,140.2722,260.3592,145.4597,258.1033,135.62,258.5269" style="stroke:#181818;stroke-width:1;"/></g><!--link GoogleNotifications_Front to Frontend--><g class="link" data-entity-1="GoogleNotifications_Front" data-entity-2="Frontend" data-source-line="39" data-uid="lnk21" id="link_GoogleNotifications_Front_Frontend"><path d="M168.84,311.0569 C189.34,311.0569 204.54,311.0569 222.13,311.0569" fill="none" id="GoogleNotifications_Front-to-Frontend" style="stroke:#181818;stroke-width:1;"/><polygon fill="#181818" points="228.13,311.0569,219.13,307.0569,223.13,311.0569,219.13,315.0569,228.13,311.0569" style="stroke:#181818;stroke-width:1;"/></g><!--reverse link GoogleAuth to Frontend--><g class="link" data-entity-1="GoogleAuth" data-entity-2="Frontend" data-source-line="40" data-uid="lnk22" id="link_GoogleAuth_Frontend"><path d="M141.2026,361.3881 C169.8926,350.0881 200.65,337.9769 228.16,327.1469" fill="none" id="GoogleAuth-backto-Frontend" style="stroke:#181818;stroke-width:1;"/><polygon fill="#181818" points="135.62,363.5869,145.4597,364.0104,140.2722,361.7546,142.528,356.567,135.62,363.5869" style="stroke:#181818;stroke-width:1;"/></g><!--link Frontend to Fridge--><g class="link" data-entity-1="Frontend" data-entity-2="Fridge" data-source-line="43" data-uid="lnk23" id="link_Frontend_Fridge"><path d="M271.08,292.6369 C272.4,249.6669 282.39,142.9569 347.55,97.0569 C423.89,43.2969 533.7678,110.9438 582.9678,146.9438" fill="none" id="Frontend-to-Fridge" style="stroke:#181818;stroke-width:1;"/><polygon fill="#181818" points="587.81,150.4869,582.9088,141.9442,583.7748,147.5343,578.1847,148.4004,587.81,150.4869" style="stroke:#181818;stroke-width:1;"/></g><!--link Frontend to FoodItem--><g class="link" data-entity-1="Frontend" data-entity-2="FoodItem" data-source-line="44" data-uid="lnk24" id="link_Frontend_FoodItem"><path d="M276.71,292.4669 C286.68,262.7069 309.89,204.0469 347.55,168.0569 C355.7,160.2769 360.5108,156.5948 370.6908,151.5648" fill="none" id="Frontend-to-FoodItem" style="stroke:#181818;stroke-width:1;"/><polygon fill="#181818" points="376.07,148.9069,366.2293,149.3076,371.5873,151.1218,369.7731,156.4798,376.07,148.9069" style="stroke:#181818;stroke-width:1;"/></g><!--link Frontend to FoodType--><g class="link" data-entity-1="Frontend" data-entity-2="FoodType" data-source-line="45" data-uid="lnk25" id="link_Frontend_FoodType"><path d="M287.6,292.5169 C302.27,276.8769 324.82,254.6269 347.55,239.0569 C356.38,233.0069 361.0381,230.1192 370.7781,225.3192" fill="none" id="Frontend-to-FoodType" style="stroke:#181818;stroke-width:1;"/><polygon fill="#181818" points="376.16,222.6669,366.3189,223.0574,371.675,224.8771,369.8553,230.2333,376.16,222.6669" style="stroke:#181818;stroke-width:1;"/></g><!--link Frontend to aiVision--><g class="link" data-entity-1="Frontend" data-entity-2="aiVision" data-source-line="46" data-uid="lnk26" id="link_Frontend_aiVision"><path d="M311.91,320.6269 C333.47,325.6669 353.9473,330.4519 375.3073,335.4419" fill="none" id="Frontend-to-aiVision" style="stroke:#181818;stroke-width:1;"/><polygon fill="#181818" points="381.15,336.8069,373.2959,330.8644,376.2811,335.6694,371.476,338.6546,381.15,336.8069" style="stroke:#181818;stroke-width:1;"/></g><!--link Frontend to Media--><g class="link" data-entity-1="Frontend" data-entity-2="Media" data-source-line="47" data-uid="lnk27" id="link_Frontend_Media"><path d="M287.94,329.6369 C302.65,345.0269 325.06,366.7769 347.55,382.0569 C360.83,391.0869 371.3022,396.5813 384.9222,402.6013" fill="none" id="Frontend-to-Media" style="stroke:#181818;stroke-width:1;"/><polygon fill="#181818" points="390.41,405.0269,383.7953,397.7299,385.8368,403.0055,380.5612,405.047,390.41,405.0269" style="stroke:#181818;stroke-width:1;"/></g><!--link Frontend to User--><g class="link" data-entity-1="Frontend" data-entity-2="User" data-source-line="48" data-uid="lnk28" id="link_Frontend_User"><path d="M276.74,329.5169 C286.77,359.0769 310.04,417.3169 347.55,453.0569 C361.01,465.8769 374.4088,472.7157 389.6888,478.3357" fill="none" id="Frontend-to-User" style="stroke:#181818;stroke-width:1;"/><polygon fill="#181818" points="395.32,480.4069,388.254,473.546,390.6273,478.6809,385.4924,481.0543,395.32,480.4069" style="stroke:#181818;stroke-width:1;"/></g><!--link Frontend to Recipe--><g class="link" data-entity-1="Frontend" data-entity-2="Recipe" data-source-line="49" data-uid="lnk29" id="link_Frontend_Recipe"><path d="M311.91,301.2169 C335.8,295.4769 359.726,289.7186 382.076,284.3486" fill="none" id="Frontend-to-Recipe" style="stroke:#181818;stroke-width:1;"/><polygon fill="#181818" points="387.91,282.9469,378.2246,281.1601,383.0484,284.115,380.0935,288.9388,387.91,282.9469" style="stroke:#181818;stroke-width:1;"/></g><!--link Frontend to Notification--><g class="link" data-entity-1="Frontend" data-entity-2="Notification" data-source-line="50" data-uid="lnk30" id="link_Frontend_Notification"><path d="M272.9,329.4069 C277.95,369.5169 295.12,466.0369 347.55,524.0569 C354.07,531.2669 357.1089,534.2706 365.7889,538.9906" fill="none" id="Frontend-to-Notification" style="stroke:#181818;stroke-width:1;"/><polygon fill="#181818" points="371.06,541.8569,365.0642,534.0434,366.6674,539.4683,361.2425,541.0715,371.06,541.8569" style="stroke:#181818;stroke-width:1;"/></g><!--link Fridge to OpenFoodFacts--><g class="link" data-entity-1="Fridge" data-entity-2="OpenFoodFacts" data-source-line="53" data-uid="lnk31" id="link_Fridge_OpenFoodFacts"><path d="M644.76,169.0569 C672.81,169.0569 709.29,169.0569 746.93,169.0569" fill="none" id="Fridge-to-OpenFoodFacts" style="stroke:#181818;stroke-width:1;"/><polygon fill="#181818" points="752.93,169.0569,743.93,165.0569,747.93,169.0569,743.93,173.0569,752.93,169.0569" style="stroke:#181818;stroke-width:1;"/></g><!--link Fridge to DB--><g class="link" data-entity-1="Fridge" data-entity-2="DB" data-source-line="54" data-uid="lnk32" id="link_Fridge_DB"><path d="M644.76,184.0169 C691,206.2169 771.0113,244.6396 809.3913,263.0696" fill="none" id="Fridge-to-DB" style="stroke:#181818;stroke-width:1;"/><polygon fill="#181818" points="814.8,265.6669,808.4184,258.1652,810.2927,263.5025,804.9554,265.3768,814.8,265.6669" style="stroke:#181818;stroke-width:1;"/></g><!--link FoodItem to Fridge--><g class="link" data-entity-1="FoodItem" data-entity-2="Fridge" data-source-line="55" data-uid="lnk33" id="link_FoodItem_Fridge"><path d="M467,141.4969 C501.79,148.1269 543.466,156.0741 574.386,161.9641" fill="none" id="FoodItem-to-Fridge" style="stroke:#181818;stroke-width:1;"/><polygon fill="#181818" points="580.28,163.0869,572.1875,157.4734,575.3683,162.1512,570.6905,165.3321,580.28,163.0869" style="stroke:#181818;stroke-width:1;"/></g><!--link FoodType to Fridge--><g class="link" data-entity-1="FoodType" data-entity-2="Fridge" data-source-line="56" data-uid="lnk34" id="link_FoodType_Fridge"><path d="M468.44,195.5869 C503.05,189.1769 543.7807,181.6316 574.2807,175.9716" fill="none" id="FoodType-to-Fridge" style="stroke:#181818;stroke-width:1;"/><polygon fill="#181818" points="580.18,174.8769,570.6012,172.5861,575.2639,175.7892,572.0609,180.4519,580.18,174.8769" style="stroke:#181818;stroke-width:1;"/></g><!--link aiVision to Gemini--><g class="link" data-entity-1="aiVision" data-entity-2="Gemini" data-source-line="57" data-uid="lnk35" id="link_aiVision_Gemini"><path d="M455.99,364.5369 C462.04,369.2269 467.74,374.7569 471.88,381.0569 C542.2,488.1769 450.97,563.6969 531.88,663.0569 C543.24,677.0069 555.5472,683.7127 571.5872,688.8627" fill="none" id="aiVision-to-Gemini" style="stroke:#181818;stroke-width:1;"/><polygon fill="#181818" points="577.3,690.6969,569.9537,684.1371,572.5394,689.1684,567.508,691.7541,577.3,690.6969" style="stroke:#181818;stroke-width:1;"/></g><!--link User to DB--><g class="link" data-entity-1="User" data-entity-2="DB" data-source-line="58" data-uid="lnk36" id="link_User_DB"><path d="M448,501.3369 C456.66,506.9969 465.72,514.3269 471.88,523.0569 C528.1,602.7169 454.08,675.2969 531.88,734.0569 C589.14,777.3069 635.61,776.6969 693.32,734.0569 C768,678.8869 818.5871,378.147 830.7071,299.417" fill="none" id="User-to-DB" style="stroke:#181818;stroke-width:1;"/><polygon fill="#181818" points="831.62,293.4869,826.2972,301.7735,830.8592,298.4287,834.2041,302.9907,831.62,293.4869" style="stroke:#181818;stroke-width:1;"/></g><!--link Recipe to DB--><g class="link" data-entity-1="Recipe" data-entity-2="DB" data-source-line="59" data-uid="lnk37" id="link_Recipe_DB"><path d="M455.71,275.0569 C537.94,275.0569 744.05,275.0569 809.1,275.0569" fill="none" id="Recipe-to-DB" style="stroke:#181818;stroke-width:1;"/><polygon fill="#181818" points="815.1,275.0569,806.1,271.0569,810.1,275.0569,806.1,279.0569,815.1,275.0569" style="stroke:#181818;stroke-width:1;"/></g><!--link Recipe to TheMealDB--><g class="link" data-entity-1="Recipe" data-entity-2="TheMealDB" data-source-line="60" data-uid="lnk38" id="link_Recipe_TheMealDB"><path d="M455.74,293.3369 C461.89,298.0669 467.69,303.6669 471.88,310.0569 C542.4,417.5669 450.21,493.7569 531.88,593.0569 C536.95,599.2169 538.1837,601.2021 545.1237,605.3621" fill="none" id="Recipe-to-TheMealDB" style="stroke:#181818;stroke-width:1;"/><polygon fill="#181818" points="550.27,608.4469,544.6071,600.3888,545.9814,605.8762,540.4941,607.2505,550.27,608.4469" style="stroke:#181818;stroke-width:1;"/></g><!--link Recipe to Gemini--><g class="link" data-entity-1="Recipe" data-entity-2="Gemini" data-source-line="61" data-uid="lnk39" id="link_Recipe_Gemini"><path d="M455.68,293.0169 C461.91,297.7969 467.76,303.4869 471.88,310.0569 C556.45,444.8669 433.97,537.6069 531.88,663.0569 C543.04,677.3569 555.5359,684.1384 571.7359,689.2284" fill="none" id="Recipe-to-Gemini" style="stroke:#181818;stroke-width:1;"/><polygon fill="#181818" points="577.46,691.0269,570.0728,684.5131,572.6899,689.5281,567.6748,692.1452,577.46,691.0269" style="stroke:#181818;stroke-width:1;"/></g><!--link Notification to GoogleNotifications_Back--><g class="link" data-entity-1="Notification" data-entity-2="GoogleNotifications_Back" data-source-line="62" data-uid="lnk40" id="link_Notification_GoogleNotifications_Back"><path d="M427.07,577.4969 C437.99,620.3769 470.2,728.1969 531.88,795.0569 C541.79,805.8069 549.6106,811.7675 562.3006,818.6775" fill="none" id="Notification-to-GoogleNotifications_Back" style="stroke:#181818;stroke-width:1;"/><polygon fill="#181818" points="567.57,821.5469,561.5787,813.7299,563.1788,819.1558,557.753,820.7558,567.57,821.5469" style="stroke:#181818;stroke-width:1;"/></g><!--SRC=[dLHDRzGm43qtlsBK2t1OgTnHfTs6hLQYW4hXYjnacbXDx9NZLLiX_ZipOpjhfziBfzZFRxxVn6i_8FpIpX_K05kdsmwXnZsQ5atp0hLMdLDZDU231s_1wQxtq6g7ZTVMLDNqgCrU4GKOKgOZTtygW8rg7Zjd3wQzieDryDHhZunRrw8BsFr09C9k0yqPTF3nelfRLUzWjLh1vsUFpb1UesqF0qvW3VWUGP8XGdKCURvHhh4jmez66V9p3cg2Y4KePrzRoz-lrki7tIWkPHAJy53WlxVE6d_2UdtmVMR4rvIvc50FbracNCpI9HbnozZcIViUj8crDtRSMuF6JwzB5duiDTXowm6AY3pI68-FrTbP_cnj2pkFOs3GZIzmWdJtiiUPn9UIizwHYYRgbt2K3fUISuEjLl8kfsMgFwSuDpui7_EH22a7bkHRR7JCDXnFQ6hzVKTvKilgJT9L4FUYozze5wHcsAg6Xa1sufXnXWND3UgDlDUR_nOS3pCtlkln1jL0YQRWCrB4m54R7RpACTLyPKd_igyJlF_2opDfMXLQvoJ13r9rkI_mAHDozUPYaENbaiQhK9elzu9Y9ybov6nVBfDEIomgypKgKYpGMNm56YHNGAAp0ebgAR12Q8jLdRUKXOJFyyeU-nsgazygEojLaptGAEVjoviGAyonL9zWST9SIl8JYZXnEwec0wE3lCg0lo7CVm00]--></g></svg>