<svg xmlns="http://www.w3.org/2000/svg" xmlns:xlink="http://www.w3.org/1999/xlink" contentStyleType="text/css" data-diagram-type="DESCRIPTION" height="405px" preserveAspectRatio="none" style="width:687px;height:405px;background:#FFFFFF;" version="1.1" viewBox="0 0 687 405" width="687px" zoomAndPan="magnify"><title>Virtual Fridge Dependency Diagram</title><defs/><g><g class="title" data-source-line="1"><text fill="#000000" font-family="sans-serif" font-size="14" font-weight="bold" lengthAdjust="spacing" textLength="283.2061" x="195.1791" y="22.9951">Virtual Fridge Dependency Diagram</text></g><!--cluster Backend--><g class="cluster" data-entity="Backend" data-source-line="20" data-uid="ent0007" id="cluster_Backend"><rect fill="#FFFFFF" height="300" rx="5" ry="5" style="stroke:#000000;stroke-width:1;" width="117.94" x="355.55" y="44.2969"/><text fill="#000000" font-family="sans-serif" font-size="14" font-weight="bold" lengthAdjust="spacing" textLength="67.2109" x="380.9145" y="59.292">Backend</text></g><!--entity FoodItem--><g class="entity" data-entity="FoodItem" data-source-line="21" data-uid="ent0008" id="entity_FoodItem"><rect fill="#FFFFFF" height="36.2969" rx="5" ry="5" style="stroke:#000000;stroke-width:0.5;" width="85.9395" x="371.55" y="79.1469"/><text fill="#000000" font-family="sans-serif" font-size="14" lengthAdjust="spacing" textLength="65.9395" x="381.55" y="102.142">FoodItem</text></g><!--entity User--><g class="entity" data-entity="User" data-source-line="22" data-uid="ent0009" id="entity_User"><rect fill="#FFFFFF" height="36.2969" rx="5" ry="5" style="stroke:#000000;stroke-width:0.5;" width="51.9102" x="388.57" y="150.1469"/><text fill="#000000" font-family="sans-serif" font-size="14" lengthAdjust="spacing" textLength="31.9102" x="398.57" y="173.142">User</text></g><!--entity Cron--><g class="entity" data-entity="Cron" data-source-line="23" data-uid="ent0010" id="entity_Cron"><rect fill="#FFFFFF" height="36.2969" rx="5" ry="5" style="stroke:#000000;stroke-width:0.5;" width="52.9697" x="388.04" y="221.1469"/><text fill="#000000" font-family="sans-serif" font-size="14" lengthAdjust="spacing" textLength="32.9697" x="398.04" y="244.142">Cron</text></g><!--entity Recipe--><g class="entity" data-entity="Recipe" data-source-line="24" data-uid="ent0011" id="entity_Recipe"><rect fill="#FFFFFF" height="36.2969" rx="5" ry="5" style="stroke:#000000;stroke-width:0.5;" width="67.4277" x="380.81" y="292.1469"/><text fill="#000000" font-family="sans-serif" font-size="14" lengthAdjust="spacing" textLength="47.4277" x="390.81" y="315.142">Recipe</text></g><!--entity Camera--><g class="entity" data-entity="Camera" data-source-line="11" data-uid="ent0002" id="entity_Camera"><rect fill="#FFFFFF" height="36.2969" rx="5" ry="5" style="stroke:#000000;stroke-width:0.5;" width="74.9404" x="50.25" y="79.1469"/><text fill="#000000" font-family="sans-serif" font-size="14" lengthAdjust="spacing" textLength="54.9404" x="60.25" y="102.142">Camera</text></g><!--entity BarcodeScanner--><g class="entity" data-entity="BarcodeScanner" data-source-line="12" data-uid="ent0003" id="entity_BarcodeScanner"><rect fill="#FFFFFF" height="36.2969" rx="5" ry="5" style="stroke:#000000;stroke-width:0.5;" width="139.4307" x="18.01" y="150.1469"/><text fill="#000000" font-family="sans-serif" font-size="14" lengthAdjust="spacing" textLength="119.4307" x="28.01" y="173.142">Barcode Scanner</text></g><!--entity GoogleNotifications_Front--><g class="entity" data-entity="GoogleNotifications_Front" data-source-line="13" data-uid="ent0004" id="entity_GoogleNotifications_Front"><rect fill="#FFFFFF" height="36.2969" rx="5" ry="5" style="stroke:#000000;stroke-width:0.5;" width="161.4424" x="7" y="221.1469"/><text fill="#000000" font-family="sans-serif" font-size="14" lengthAdjust="spacing" textLength="141.4424" x="17" y="244.142">Google Notifications</text></g><!--entity GoogleAuth--><g class="entity" data-entity="GoogleAuth" data-source-line="14" data-uid="ent0005" id="entity_GoogleAuth"><rect fill="#FFFFFF" height="36.2969" rx="5" ry="5" style="stroke:#000000;stroke-width:0.5;" width="106.6318" x="34.41" y="292.1469"/><text fill="#000000" font-family="sans-serif" font-size="14" lengthAdjust="spacing" textLength="86.6318" x="44.41" y="315.142">Google Auth</text></g><!--entity Frontend--><g class="entity" data-entity="Frontend" data-source-line="17" data-uid="ent0006" id="entity_Frontend"><rect fill="#FFFFFF" height="36.2969" rx="5" ry="5" style="stroke:#000000;stroke-width:0.5;" width="83.1094" x="228.44" y="186.1469"/><text fill="#000000" font-family="sans-serif" font-size="14" lengthAdjust="spacing" textLength="63.1094" x="238.44" y="209.142">Frontend</text></g><!--entity OpenFoodFacts--><g class="entity" data-entity="OpenFoodFacts" data-source-line="28" data-uid="ent0012" id="entity_OpenFoodFacts"><rect fill="#FFFFFF" height="36.2969" rx="5" ry="5" style="stroke:#000000;stroke-width:0.5;" width="164.0742" x="517.49" y="79.1469"/><text fill="#000000" font-family="sans-serif" font-size="14" lengthAdjust="spacing" textLength="144.0742" x="527.49" y="102.142">Open Food Facts API</text></g><!--entity DB--><g class="entity" data-entity="DB" data-source-line="29" data-uid="ent0013" id="entity_DB"><rect fill="#FFFFFF" height="36.2969" rx="5" ry="5" style="stroke:#000000;stroke-width:0.5;" width="40.3848" x="579.34" y="150.1469"/><text fill="#000000" font-family="sans-serif" font-size="14" lengthAdjust="spacing" textLength="20.3848" x="589.34" y="173.142">DB</text></g><!--entity GoogleNotifications_Back--><g class="entity" data-entity="GoogleNotifications_Back" data-source-line="30" data-uid="ent0014" id="entity_GoogleNotifications_Back"><rect fill="#FFFFFF" height="36.2969" rx="5" ry="5" style="stroke:#000000;stroke-width:0.5;" width="161.4424" x="518.81" y="221.1469"/><text fill="#000000" font-family="sans-serif" font-size="14" lengthAdjust="spacing" textLength="141.4424" x="528.81" y="244.142">Google Notifications</text></g><!--entity TheMealDB--><g class="entity" data-entity="TheMealDB" data-source-line="31" data-uid="ent0015" id="entity_TheMealDB"><rect fill="#FFFFFF" height="36.2969" rx="5" ry="5" style="stroke:#000000;stroke-width:0.5;" width="126.1826" x="536.44" y="292.1469"/><text fill="#000000" font-family="sans-serif" font-size="14" lengthAdjust="spacing" textLength="106.1826" x="546.44" y="315.142">TheMealDB API</text></g><!--entity Gemini--><g class="entity" data-entity="Gemini" data-source-line="32" data-uid="ent0016" id="entity_Gemini"><rect fill="#FFFFFF" height="36.2969" rx="5" ry="5" style="stroke:#000000;stroke-width:0.5;" width="69.752" x="564.65" y="363.1469"/><text fill="#000000" font-family="sans-serif" font-size="14" lengthAdjust="spacing" textLength="49.752" x="574.65" y="386.142">Gemini</text></g><!--reverse link Camera to Frontend--><g class="link" data-entity-1="Camera" data-entity-2="Frontend" data-source-line="35" data-uid="lnk17" id="link_Camera_Frontend"><path d="M131.1354,113.9456 C144.8854,119.7656 154.91,124.5969 168.44,132.2969 C196.43,148.2369 226.14,170.2169 245.95,185.6869" fill="none" id="Camera-backto-Frontend" style="stroke:#181818;stroke-width:1;"/><polygon fill="#181818" points="125.61,111.6069,132.339,118.7986,130.2145,113.5558,135.4573,111.4314,125.61,111.6069" style="stroke:#181818;stroke-width:1;"/></g><!--reverse link BarcodeScanner to Frontend--><g class="link" data-entity-1="BarcodeScanner" data-entity-2="Frontend" data-source-line="36" data-uid="lnk18" id="link_BarcodeScanner_Frontend"><path d="M163.7839,183.2917 C187.5239,188.0317 207.42,191.9969 228.17,196.1469" fill="none" id="BarcodeScanner-backto-Frontend" style="stroke:#181818;stroke-width:1;"/><polygon fill="#181818" points="157.9,182.1169,165.9426,187.8016,162.8032,183.0959,167.509,179.9565,157.9,182.1169" style="stroke:#181818;stroke-width:1;"/></g><!--link GoogleNotifications_Front to Frontend--><g class="link" data-entity-1="GoogleNotifications_Front" data-entity-2="Frontend" data-source-line="37" data-uid="lnk19" id="link_GoogleNotifications_Front_Frontend"><path d="M168.84,223.7469 C189.34,219.7669 204.6497,216.7888 222.2397,213.3788" fill="none" id="GoogleNotifications_Front-to-Frontend" style="stroke:#181818;stroke-width:1;"/><polygon fill="#181818" points="228.13,212.2369,218.5332,210.0228,223.2214,213.1885,220.0558,217.8766,228.13,212.2369" style="stroke:#181818;stroke-width:1;"/></g><!--reverse link GoogleAuth to Frontend--><g class="link" data-entity-1="GoogleAuth" data-entity-2="Frontend" data-source-line="38" data-uid="lnk20" id="link_GoogleAuth_Frontend"><path d="M140.9214,289.2268 C151.9514,284.3168 158.05,281.1769 168.44,275.2969 C196.17,259.6369 225.68,238.1569 245.51,222.9369" fill="none" id="GoogleAuth-backto-Frontend" style="stroke:#181818;stroke-width:1;"/><polygon fill="#181818" points="135.44,291.6669,145.2889,291.6611,140.0079,289.6335,142.0354,284.3525,135.44,291.6669" style="stroke:#181818;stroke-width:1;"/></g><!--link Frontend to FoodItem--><g class="link" data-entity-1="Frontend" data-entity-2="FoodItem" data-source-line="41" data-uid="lnk21" id="link_Frontend_FoodItem"><path d="M288.06,185.6769 C302.84,170.2069 325.3,148.2269 347.55,132.2969 C355.88,126.3369 360.067,123.5611 369.187,118.6511" fill="none" id="Frontend-to-FoodItem" style="stroke:#181818;stroke-width:1;"/><polygon fill="#181818" points="374.47,115.8069,364.6493,116.5512,370.0675,118.1771,368.4417,123.5953,374.47,115.8069" style="stroke:#181818;stroke-width:1;"/></g><!--link Frontend to User--><g class="link" data-entity-1="Frontend" data-entity-2="User" data-source-line="42" data-uid="lnk22" id="link_Frontend_User"><path d="M311.84,193.9869 C336.52,187.7469 361.3629,181.477 382.5329,176.127" fill="none" id="Frontend-to-User" style="stroke:#181818;stroke-width:1;"/><polygon fill="#181818" points="388.35,174.6569,378.6443,172.9839,383.5024,175.8819,380.6044,180.7401,388.35,174.6569" style="stroke:#181818;stroke-width:1;"/></g><!--link Frontend to Recipe--><g class="link" data-entity-1="Frontend" data-entity-2="Recipe" data-source-line="43" data-uid="lnk23" id="link_Frontend_Recipe"><path d="M288.4,222.9369 C303.21,238.1669 325.53,259.6569 347.55,275.2969 C357.7,282.5069 364.1794,286.4828 374.9794,292.0628" fill="none" id="Frontend-to-Recipe" style="stroke:#181818;stroke-width:1;"/><polygon fill="#181818" points="380.31,294.8169,374.1502,287.132,375.8679,292.5218,370.4781,294.2394,380.31,294.8169" style="stroke:#181818;stroke-width:1;"/></g><!--link Frontend to Cron--><g class="link" data-entity-1="Frontend" data-entity-2="Cron" data-source-line="44" data-uid="lnk24" id="link_Frontend_Cron"><path d="M311.84,214.3269 C336.35,220.3469 360.9535,226.3844 382.1035,231.5844" fill="none" id="Frontend-to-Cron" style="stroke:#181818;stroke-width:1;"/><polygon fill="#181818" points="387.93,233.0169,380.1453,226.9838,383.0746,231.8231,378.2353,234.7524,387.93,233.0169" style="stroke:#181818;stroke-width:1;"/></g><!--link FoodItem to OpenFoodFacts--><g class="link" data-entity-1="FoodItem" data-entity-2="OpenFoodFacts" data-source-line="47" data-uid="lnk25" id="link_FoodItem_OpenFoodFacts"><path d="M457.97,97.2969 C475.6,97.2969 490.68,97.2969 511.09,97.2969" fill="none" id="FoodItem-to-OpenFoodFacts" style="stroke:#181818;stroke-width:1;"/><polygon fill="#181818" points="517.09,97.2969,508.09,93.2969,512.09,97.2969,508.09,101.2969,517.09,97.2969" style="stroke:#181818;stroke-width:1;"/></g><!--link FoodItem to DB--><g class="link" data-entity-1="FoodItem" data-entity-2="DB" data-source-line="48" data-uid="lnk26" id="link_FoodItem_DB"><path d="M457.97,113.7669 C496.19,128.5969 545.036,147.5473 573.656,158.6473" fill="none" id="FoodItem-to-DB" style="stroke:#181818;stroke-width:1;"/><polygon fill="#181818" points="579.25,160.8169,572.3054,153.8332,574.5883,159.0089,569.4126,161.2918,579.25,160.8169" style="stroke:#181818;stroke-width:1;"/></g><!--link User to DB--><g class="link" data-entity-1="User" data-entity-2="DB" data-source-line="49" data-uid="lnk27" id="link_User_DB"><path d="M440.97,168.2969 C477.9,168.2969 539.56,168.2969 572.9,168.2969" fill="none" id="User-to-DB" style="stroke:#181818;stroke-width:1;"/><polygon fill="#181818" points="578.9,168.2969,569.9,164.2969,573.9,168.2969,569.9,172.2969,578.9,168.2969" style="stroke:#181818;stroke-width:1;"/></g><!--link Recipe to DB--><g class="link" data-entity-1="Recipe" data-entity-2="DB" data-source-line="50" data-uid="lnk28" id="link_Recipe_DB"><path d="M448.73,297.6469 C460.15,292.0969 472.34,284.6669 481.49,275.2969 C506.48,249.6969 491.5,227.8769 517.49,203.2969 C534.86,186.8769 555.3582,179.0338 573.2482,174.1938" fill="none" id="Recipe-to-DB" style="stroke:#181818;stroke-width:1;"/><polygon fill="#181818" points="579.04,172.6269,569.3077,171.1161,574.2135,173.9326,571.3969,178.8384,579.04,172.6269" style="stroke:#181818;stroke-width:1;"/></g><!--link Recipe to TheMealDB--><g class="link" data-entity-1="Recipe" data-entity-2="TheMealDB" data-source-line="51" data-uid="lnk29" id="link_Recipe_TheMealDB"><path d="M448.66,310.2969 C472.97,310.2969 500.71,310.2969 530.02,310.2969" fill="none" id="Recipe-to-TheMealDB" style="stroke:#181818;stroke-width:1;"/><polygon fill="#181818" points="536.02,310.2969,527.02,306.2969,531.02,310.2969,527.02,314.2969,536.02,310.2969" style="stroke:#181818;stroke-width:1;"/></g><!--link Recipe to Gemini--><g class="link" data-entity-1="Recipe" data-entity-2="Gemini" data-source-line="52" data-uid="lnk30" id="link_Recipe_Gemini"><path d="M448.66,323.1569 C481.42,335.8669 525.7064,353.0464 558.7964,365.8864" fill="none" id="Recipe-to-Gemini" style="stroke:#181818;stroke-width:1;"/><polygon fill="#181818" points="564.39,368.0569,557.4465,361.072,559.7286,366.2481,554.5525,368.5302,564.39,368.0569" style="stroke:#181818;stroke-width:1;"/></g><!--link Cron to GoogleNotifications_Back--><g class="link" data-entity-1="Cron" data-entity-2="GoogleNotifications_Back" data-source-line="53" data-uid="lnk31" id="link_Cron_GoogleNotifications_Back"><path d="M441.35,239.2969 C461.55,239.2969 484.77,239.2969 512.55,239.2969" fill="none" id="Cron-to-GoogleNotifications_Back" style="stroke:#181818;stroke-width:1;"/><polygon fill="#181818" points="518.55,239.2969,509.55,235.2969,513.55,239.2969,509.55,243.2969,518.55,239.2969" style="stroke:#181818;stroke-width:1;"/></g><!--SRC=[dLF9Rjmm3BtxAuXScXu6QEz5W7ZSAGAqIP0krqAL6Lk8BGua3PAYwB-NscOaONBfoTJZzaW-E-KMX1_Ak8DOO6VKE24Ck4SzefQ_OL1YCcBj5dnqu0YCccO7ep8edIBTTVP9wRtW4F2Gq1EN-zC1z48-JOOEUjpIGWQUP-NGusH6D17xjN0GOmynp6WqyFvTzxVhti1ciu6FBmwDPbuhZOS5BP06DoC4CXpGdLfURCMAHbo0i13DqjaB8sb4-2g5vYOXAc49AgC_4VdlBJdrgAJmSzgG4XqL_dDdIBipsTS7DnT9_fd72Ycyu7Q4Z8Uq_CX9Vfy-vrcv6PHEYv6qxacZThOjbkBJg37NtmMWx4WqtZXSOyVqQ8E-sxGnRxJEBTECIsUZTJwWL7iCxcYUEUtr_Oq5mUI6FfytQgoPvuub6IZ2JaWUb_D2OOzxEA1bmj07_z3_zsdzsihaRpD-GR4mqTpyY5GzS5LQnQh1p3DlYPKMVXiBbv-zXgrYKV9VbO_zDamTzGiV2gbqjLfhtwkov6fNRPWNOftUgfBvPC5uDeLQhquQgT0WZ0f9vwwme916pKSXUmNWor7LfqK52gbhA5CVl7Bn7JoLR4SIPrwdinLWkfLd6T-lAE8V]--></g></svg>