<svg xmlns="http://www.w3.org/2000/svg" xmlns:xlink="http://www.w3.org/1999/xlink" contentStyleType="text/css" data-diagram-type="DESCRIPTION" height="65px" preserveAspectRatio="none" style="width:446px;height:65px;background:#FFFFFF;" version="1.1" viewBox="0 0 446 65" width="446px" zoomAndPan="magnify"><defs/><g><!--entity Frontend--><g class="entity" data-entity="Frontend" data-source-line="3" data-uid="ent0002" id="entity_Frontend"><rect fill="#FFFFFF" height="47.0146" rx="2.5" ry="2.5" style="stroke:#000000;stroke-width:1;" width="102.8154" x="12" y="12"/><rect fill="#FFFFFF" height="10" style="stroke:#000000;stroke-width:1;" width="15" x="94.8154" y="17"/><rect fill="#FFFFFF" height="2" style="stroke:#000000;stroke-width:1;" width="4" x="92.8154" y="19"/><rect fill="#FFFFFF" height="2" style="stroke:#000000;stroke-width:1;" width="4" x="92.8154" y="23"/><text fill="#000000" font-family="Verdana" font-size="14" lengthAdjust="spacing" textLength="62.8154" x="27" y="46.0752">Frontend</text></g><!--entity Backend--><g class="entity" data-entity="Backend" data-source-line="4" data-uid="ent0003" id="entity_Backend"><rect fill="#FFFFFF" height="47.0146" rx="2.5" ry="2.5" style="stroke:#000000;stroke-width:1;" width="99.5068" x="174.82" y="12"/><rect fill="#FFFFFF" height="10" style="stroke:#000000;stroke-width:1;" width="15" x="254.3268" y="17"/><rect fill="#FFFFFF" height="2" style="stroke:#000000;stroke-width:1;" width="4" x="252.3268" y="19"/><rect fill="#FFFFFF" height="2" style="stroke:#000000;stroke-width:1;" width="4" x="252.3268" y="23"/><text fill="#000000" font-family="Verdana" font-size="14" lengthAdjust="spacing" textLength="59.5068" x="189.82" y="46.0752">Backend</text></g><!--entity DB--><g class="entity" data-entity="DB" data-source-line="5" data-uid="ent0004" id="entity_DB"><rect fill="#FFFFFF" height="47.0146" rx="2.5" ry="2.5" style="stroke:#000000;stroke-width:1;" width="105.8848" x="334.32" y="12"/><rect fill="#FFFFFF" height="10" style="stroke:#000000;stroke-width:1;" width="15" x="420.2048" y="17"/><rect fill="#FFFFFF" height="2" style="stroke:#000000;stroke-width:1;" width="4" x="418.2048" y="19"/><rect fill="#FFFFFF" height="2" style="stroke:#000000;stroke-width:1;" width="4" x="418.2048" y="23"/><text fill="#000000" font-family="Verdana" font-size="14" lengthAdjust="spacing" textLength="65.8848" x="349.32" y="46.0752">Database</text></g><!--link Frontend to Backend--><g class="link" data-entity-1="Frontend" data-entity-2="Backend" data-source-line="6" data-uid="lnk5" id="link_Frontend_Backend"><path d="M115.2,35.5 C134.13,35.5 149.56,35.5 168.34,35.5" fill="none" id="Frontend-to-Backend" style="stroke:#000000;stroke-width:1;"/><polygon fill="#000000" points="174.34,35.5,165.34,31.5,169.34,35.5,165.34,39.5,174.34,35.5" style="stroke:#000000;stroke-width:1;"/></g><!--link Backend to DB--><g class="link" data-entity-1="Backend" data-entity-2="DB" data-source-line="7" data-uid="lnk6" id="link_Backend_DB"><path d="M274.66,35.5 C293.39,35.5 308.82,35.5 327.85,35.5" fill="none" id="Backend-to-DB" style="stroke:#000000;stroke-width:1;"/><polygon fill="#000000" points="333.85,35.5,324.85,31.5,328.85,35.5,324.85,39.5,333.85,35.5" style="stroke:#000000;stroke-width:1;"/></g><!--SRC=[JOnB3e0W34JtdAAwvmek2F4U5QiIeINO-yU4W74rdpUPII_A12LXP9FeK5216izBOO-LWaPX4oGNOMA5UQt2IhpFW0-Cy1yu3FVWtV-nHyKD7shSEpCkmDhbstTjdNSl]--></g></svg>