<svg xmlns="http://www.w3.org/2000/svg" xmlns:xlink="http://www.w3.org/1999/xlink" contentStyleType="text/css" data-diagram-type="SEQUENCE" height="1417px" preserveAspectRatio="none" style="width:1220px;height:1417px;background:#FFFFFF;" version="1.1" viewBox="0 0 1220 1417" width="1220px" zoomAndPan="magnify"><title>Use Case 4: Generate Recipe Suggestions</title><defs/><g><text fill="#000000" font-family="sans-serif" font-size="14" font-weight="bold" lengthAdjust="spacing" textLength="329.6631" x="441.2278" y="27.9951">Use Case 4: Generate Recipe Suggestions</text><rect fill="none" height="75.3984" style="stroke:#000000;stroke-width:1.5;" width="430.6499" x="530.0474" y="368.6563"/><rect fill="none" height="282.3984" style="stroke:#000000;stroke-width:1.5;" width="619.9458" x="10" y="515.3203"/><g><title>User</title><rect fill="#000000" fill-opacity="0.00000" height="1218.1797" width="8" x="34.9551" y="118.5938"/><line style="stroke:#181818;stroke-width:0.5;stroke-dasharray:5,5;" x1="38" x2="38" y1="118.5938" y2="1336.7734"/></g><g><title>Frontend</title><rect fill="#000000" fill-opacity="0.00000" height="1218.1797" width="8" x="236.353" y="118.5938"/><line style="stroke:#181818;stroke-width:0.5;stroke-dasharray:5,5;" x1="239.6738" x2="239.6738" y1="118.5938" y2="1336.7734"/></g><g><title>Backend</title><rect fill="#000000" fill-opacity="0.00000" height="1218.1797" width="8" x="575.9966" y="118.5938"/><line style="stroke:#181818;stroke-width:0.5;stroke-dasharray:5,5;" x1="579.0474" x2="579.0474" y1="118.5938" y2="1336.7734"/></g><g><title>TheMealDB API</title><rect fill="#000000" fill-opacity="0.00000" height="1218.1797" width="8" x="886.606" y="118.5938"/><line style="stroke:#181818;stroke-width:0.5;stroke-dasharray:5,5;" x1="890.5146" x2="890.5146" y1="118.5938" y2="1336.7734"/></g><g><title>Gemini API</title><rect fill="#000000" fill-opacity="0.00000" height="1218.1797" width="8" x="1001.8726" y="118.5938"/><line style="stroke:#181818;stroke-width:0.5;stroke-dasharray:5,5;" x1="1005.6973" x2="1005.6973" y1="118.5938" y2="1336.7734"/></g><g><title>MongoDB</title><rect fill="#000000" fill-opacity="0.00000" height="1218.1797" width="8" x="1093.7251" y="118.5938"/><line style="stroke:#181818;stroke-width:0.5;stroke-dasharray:5,5;" x1="1097.0479" x2="1097.0479" y1="118.5938" y2="1336.7734"/></g><g class="participant participant-head" data-participant="User"><text fill="#000000" font-family="sans-serif" font-size="14" lengthAdjust="spacing" textLength="31.9102" x="20" y="115.292">User</text><ellipse cx="38.9551" cy="50.7969" fill="#E2E2F0" rx="8" ry="8" style="stroke:#181818;stroke-width:0.5;"/><path d="M38.9551,58.7969 L38.9551,85.7969 M25.9551,66.7969 L51.9551,66.7969 M38.9551,85.7969 L25.9551,100.7969 M38.9551,85.7969 L51.9551,100.7969" fill="none" style="stroke:#181818;stroke-width:0.5;"/></g><g class="participant participant-tail" data-participant="User"><text fill="#000000" font-family="sans-serif" font-size="14" lengthAdjust="spacing" textLength="31.9102" x="20" y="1348.7686">User</text><ellipse cx="38.9551" cy="1360.5703" fill="#E2E2F0" rx="8" ry="8" style="stroke:#181818;stroke-width:0.5;"/><path d="M38.9551,1368.5703 L38.9551,1395.5703 M25.9551,1376.5703 L51.9551,1376.5703 M38.9551,1395.5703 L25.9551,1410.5703 M38.9551,1395.5703 L51.9551,1410.5703" fill="none" style="stroke:#181818;stroke-width:0.5;"/></g><g class="participant participant-head" data-participant="Frontend"><rect fill="#E2E2F0" height="46.5938" rx="2.5" ry="2.5" style="stroke:#181818;stroke-width:0.5;" width="79.3584" x="200.6738" y="71"/><text fill="#000000" font-family="sans-serif" font-size="14" lengthAdjust="spacing" textLength="63.1094" x="208.7983" y="90.9951">Frontend</text><text fill="#000000" font-family="sans-serif" font-size="14" lengthAdjust="spacing" textLength="65.3584" x="207.6738" y="107.292">(Android)</text></g><g class="participant participant-tail" data-participant="Frontend"><rect fill="#E2E2F0" height="46.5938" rx="2.5" ry="2.5" style="stroke:#181818;stroke-width:0.5;" width="79.3584" x="200.6738" y="1335.7734"/><text fill="#000000" font-family="sans-serif" font-size="14" lengthAdjust="spacing" textLength="63.1094" x="208.7983" y="1355.7686">Frontend</text><text fill="#000000" font-family="sans-serif" font-size="14" lengthAdjust="spacing" textLength="65.3584" x="207.6738" y="1372.0654">(Android)</text></g><g class="participant participant-head" data-participant="Backend"><rect fill="#E2E2F0" height="46.5938" rx="2.5" ry="2.5" style="stroke:#181818;stroke-width:0.5;" width="79.8984" x="540.0474" y="71"/><text fill="#000000" font-family="sans-serif" font-size="14" lengthAdjust="spacing" textLength="60.3613" x="549.8159" y="90.9951">Backend</text><text fill="#000000" font-family="sans-serif" font-size="14" lengthAdjust="spacing" textLength="65.8984" x="547.0474" y="107.292">(Express)</text></g><g class="participant participant-tail" data-participant="Backend"><rect fill="#E2E2F0" height="46.5938" rx="2.5" ry="2.5" style="stroke:#181818;stroke-width:0.5;" width="79.8984" x="540.0474" y="1335.7734"/><text fill="#000000" font-family="sans-serif" font-size="14" lengthAdjust="spacing" textLength="60.3613" x="549.8159" y="1355.7686">Backend</text><text fill="#000000" font-family="sans-serif" font-size="14" lengthAdjust="spacing" textLength="65.8984" x="547.0474" y="1372.0654">(Express)</text></g><g class="participant participant-head" data-participant="MealDB"><rect fill="#E2E2F0" height="30.2969" rx="2.5" ry="2.5" style="stroke:#181818;stroke-width:0.5;" width="120.1826" x="830.5146" y="87.2969"/><text fill="#000000" font-family="sans-serif" font-size="14" lengthAdjust="spacing" textLength="106.1826" x="837.5146" y="107.292">TheMealDB API</text></g><g class="participant participant-tail" data-participant="MealDB"><rect fill="#E2E2F0" height="30.2969" rx="2.5" ry="2.5" style="stroke:#181818;stroke-width:0.5;" width="120.1826" x="830.5146" y="1335.7734"/><text fill="#000000" font-family="sans-serif" font-size="14" lengthAdjust="spacing" textLength="106.1826" x="837.5146" y="1355.7686">TheMealDB API</text></g><g class="participant participant-head" data-participant="Gemini"><rect fill="#E2E2F0" height="30.2969" rx="2.5" ry="2.5" style="stroke:#181818;stroke-width:0.5;" width="90.3506" x="960.6973" y="87.2969"/><text fill="#000000" font-family="sans-serif" font-size="14" lengthAdjust="spacing" textLength="76.3506" x="967.6973" y="107.292">Gemini API</text></g><g class="participant participant-tail" data-participant="Gemini"><rect fill="#E2E2F0" height="30.2969" rx="2.5" ry="2.5" style="stroke:#181818;stroke-width:0.5;" width="90.3506" x="960.6973" y="1335.7734"/><text fill="#000000" font-family="sans-serif" font-size="14" lengthAdjust="spacing" textLength="76.3506" x="967.6973" y="1355.7686">Gemini API</text></g><g class="participant participant-head" data-participant="DB"><text fill="#000000" font-family="sans-serif" font-size="14" lengthAdjust="spacing" textLength="67.3545" x="1061.0479" y="115.292">MongoDB</text><path d="M1079.7251,66.2969 C1079.7251,56.2969 1097.7251,56.2969 1097.7251,56.2969 C1097.7251,56.2969 1115.7251,56.2969 1115.7251,66.2969 L1115.7251,92.2969 C1115.7251,102.2969 1097.7251,102.2969 1097.7251,102.2969 C1097.7251,102.2969 1079.7251,102.2969 1079.7251,92.2969 L1079.7251,66.2969" fill="#E2E2F0" style="stroke:#181818;stroke-width:0.5;"/><path d="M1079.7251,66.2969 C1079.7251,76.2969 1097.7251,76.2969 1097.7251,76.2969 C1097.7251,76.2969 1115.7251,76.2969 1115.7251,66.2969" fill="none" style="stroke:#181818;stroke-width:0.5;"/></g><g class="participant participant-tail" data-participant="DB"><text fill="#000000" font-family="sans-serif" font-size="14" lengthAdjust="spacing" textLength="67.3545" x="1061.0479" y="1348.7686">MongoDB</text><path d="M1079.7251,1362.0703 C1079.7251,1352.0703 1097.7251,1352.0703 1097.7251,1352.0703 C1097.7251,1352.0703 1115.7251,1352.0703 1115.7251,1362.0703 L1115.7251,1388.0703 C1115.7251,1398.0703 1097.7251,1398.0703 1097.7251,1398.0703 C1097.7251,1398.0703 1079.7251,1398.0703 1079.7251,1388.0703 L1079.7251,1362.0703" fill="#E2E2F0" style="stroke:#181818;stroke-width:0.5;"/><path d="M1079.7251,1362.0703 C1079.7251,1372.0703 1097.7251,1372.0703 1097.7251,1372.0703 C1097.7251,1372.0703 1115.7251,1372.0703 1115.7251,1362.0703" fill="none" style="stroke:#181818;stroke-width:0.5;"/></g><g class="message" data-participant-1="User" data-participant-2="Frontend"><polygon fill="#181818" points="228.353,145.7266,238.353,149.7266,228.353,153.7266,232.353,149.7266" style="stroke:#181818;stroke-width:1;"/><line style="stroke:#181818;stroke-width:1;" x1="38.9551" x2="234.353" y1="149.7266" y2="149.7266"/><text fill="#000000" font-family="sans-serif" font-size="13" lengthAdjust="spacing" textLength="163.9917" x="45.9551" y="144.6606">Selects items from fridge</text></g><g class="message" data-participant-1="Frontend" data-participant-2="User"><polygon fill="#181818" points="49.9551,174.8594,39.9551,178.8594,49.9551,182.8594,45.9551,178.8594" style="stroke:#181818;stroke-width:1;"/><line style="stroke:#181818;stroke-width:1;stroke-dasharray:2,2;" x1="43.9551" x2="239.353" y1="178.8594" y2="178.8594"/><text fill="#000000" font-family="sans-serif" font-size="13" lengthAdjust="spacing" textLength="134.3608" x="55.9551" y="173.7935">Show selected items</text></g><g class="message" data-participant-1="User" data-participant-2="Frontend"><polygon fill="#181818" points="228.353,219.125,238.353,223.125,228.353,227.125,232.353,223.125" style="stroke:#181818;stroke-width:1;"/><line style="stroke:#181818;stroke-width:1;" x1="38.9551" x2="234.353" y1="223.125" y2="223.125"/><text fill="#000000" font-family="sans-serif" font-size="13" lengthAdjust="spacing" textLength="136.3667" x="45.9551" y="202.9263">Clicks "Find Recipes"</text><text fill="#000000" font-family="sans-serif" font-size="13" lengthAdjust="spacing" textLength="109.1606" x="45.9551" y="218.0591">in bottom corner</text></g><rect fill="#EEEEEE" height="3" style="stroke:#EEEEEE;stroke-width:1;" width="1213.1187" x="0" y="251.6914"/><line style="stroke:#000000;stroke-width:1;" x1="0" x2="1213.1187" y1="251.6914" y2="251.6914"/><line style="stroke:#000000;stroke-width:1;" x1="0" x2="1213.1187" y1="254.6914" y2="254.6914"/><rect fill="#EEEEEE" height="23.1328" style="stroke:#000000;stroke-width:2;" width="194.7749" x="509.1719" y="241.125"/><text fill="#000000" font-family="sans-serif" font-size="13" font-weight="bold" lengthAdjust="spacing" textLength="176.249" x="515.1719" y="257.1919">Recipe Via API (Default)</text><g class="message" data-participant-1="Frontend" data-participant-2="Backend"><polygon fill="#181818" points="567.9966,291.3906,577.9966,295.3906,567.9966,299.3906,571.9966,295.3906" style="stroke:#181818;stroke-width:1;"/><line style="stroke:#181818;stroke-width:1;" x1="240.353" x2="573.9966" y1="295.3906" y2="295.3906"/><text fill="#000000" font-family="sans-serif" font-size="13" lengthAdjust="spacing" textLength="315.6436" x="247.353" y="290.3247">GET /api/recipes?ingredients=apple,chicken,rice</text></g><g class="message" data-participant-1="Backend" data-participant-2="DB"><polygon fill="#181818" points="1085.7251,320.5234,1095.7251,324.5234,1085.7251,328.5234,1089.7251,324.5234" style="stroke:#181818;stroke-width:1;"/><line style="stroke:#181818;stroke-width:1;" x1="579.9966" x2="1091.7251" y1="324.5234" y2="324.5234"/><text fill="#000000" font-family="sans-serif" font-size="13" lengthAdjust="spacing" textLength="215.0713" x="586.9966" y="319.4575">FoodItem.findAllByUserId(userId)</text></g><g class="message" data-participant-1="DB" data-participant-2="Backend"><polygon fill="#181818" points="590.9966,349.6563,580.9966,353.6563,590.9966,357.6563,586.9966,353.6563" style="stroke:#181818;stroke-width:1;"/><line style="stroke:#181818;stroke-width:1;stroke-dasharray:2,2;" x1="584.9966" x2="1096.7251" y1="353.6563" y2="353.6563"/><text fill="#000000" font-family="sans-serif" font-size="13" lengthAdjust="spacing" textLength="122.4209" x="596.9966" y="348.5903">User's fridge items</text></g><path d="M530.0474,368.6563 L606.6714,368.6563 L606.6714,375.7891 L596.6714,385.7891 L530.0474,385.7891 L530.0474,368.6563" fill="#EEEEEE" style="stroke:#000000;stroke-width:1.5;"/><rect fill="none" height="75.3984" style="stroke:#000000;stroke-width:1.5;" width="430.6499" x="530.0474" y="368.6563"/><text fill="#000000" font-family="sans-serif" font-size="13" font-weight="bold" lengthAdjust="spacing" textLength="31.624" x="545.0474" y="381.7231">loop</text><text fill="#000000" font-family="sans-serif" font-size="11" font-weight="bold" lengthAdjust="spacing" textLength="132" x="621.6714" y="380.8667">[For each ingredient]</text><g class="message" data-participant-1="Backend" data-participant-2="MealDB"><polygon fill="#181818" points="878.606,402.9219,888.606,406.9219,878.606,410.9219,882.606,406.9219" style="stroke:#181818;stroke-width:1;"/><line style="stroke:#181818;stroke-width:1;" x1="579.9966" x2="884.606" y1="406.9219" y2="406.9219"/><text fill="#000000" font-family="sans-serif" font-size="13" lengthAdjust="spacing" textLength="286.6094" x="586.9966" y="401.856">GET /api/json/v1/1/filter.php?i={ingredient}</text></g><g class="message" data-participant-1="MealDB" data-participant-2="Backend"><polygon fill="#181818" points="590.9966,432.0547,580.9966,436.0547,590.9966,440.0547,586.9966,436.0547" style="stroke:#181818;stroke-width:1;"/><line style="stroke:#181818;stroke-width:1;stroke-dasharray:2,2;" x1="584.9966" x2="889.606" y1="436.0547" y2="436.0547"/><text fill="#000000" font-family="sans-serif" font-size="13" lengthAdjust="spacing" textLength="197.5391" x="596.9966" y="430.9888">Array of meals with ingredient</text></g><g class="message" data-participant-1="Backend" data-participant-2="Backend"><line style="stroke:#181818;stroke-width:1;" x1="579.9966" x2="621.9966" y1="487.3203" y2="487.3203"/><line style="stroke:#181818;stroke-width:1;" x1="621.9966" x2="621.9966" y1="487.3203" y2="500.3203"/><line style="stroke:#181818;stroke-width:1;" x1="580.9966" x2="621.9966" y1="500.3203" y2="500.3203"/><polygon fill="#181818" points="590.9966,496.3203,580.9966,500.3203,590.9966,504.3203,586.9966,500.3203" style="stroke:#181818;stroke-width:1;"/><text fill="#000000" font-family="sans-serif" font-size="13" lengthAdjust="spacing" textLength="182.2729" x="586.9966" y="467.1216">Aggregate and filter recipes</text><text fill="#000000" font-family="sans-serif" font-size="13" lengthAdjust="spacing" textLength="158.8438" x="586.9966" y="482.2544">by matching ingredients</text></g><path d="M10,515.3203 L74.4429,515.3203 L74.4429,522.4531 L64.4429,532.4531 L10,532.4531 L10,515.3203" fill="#EEEEEE" style="stroke:#000000;stroke-width:1.5;"/><rect fill="none" height="282.3984" style="stroke:#000000;stroke-width:1.5;" width="619.9458" x="10" y="515.3203"/><text fill="#000000" font-family="sans-serif" font-size="13" font-weight="bold" lengthAdjust="spacing" textLength="19.4429" x="25" y="528.3872">alt</text><text fill="#000000" font-family="sans-serif" font-size="11" font-weight="bold" lengthAdjust="spacing" textLength="97.8667" x="89.4429" y="527.5308">[Recipes found]</text><g class="message" data-participant-1="Backend" data-participant-2="Frontend"><polygon fill="#181818" points="251.353,579.8516,241.353,583.8516,251.353,587.8516,247.353,583.8516" style="stroke:#181818;stroke-width:1;"/><line style="stroke:#181818;stroke-width:1;stroke-dasharray:2,2;" x1="245.353" x2="578.9966" y1="583.8516" y2="583.8516"/><text fill="#000000" font-family="sans-serif" font-size="13" lengthAdjust="spacing" textLength="47.7026" x="257.353" y="548.52">200 OK</text><text fill="#000000" font-family="sans-serif" font-size="13" lengthAdjust="spacing" textLength="84.792" x="257.353" y="563.6528">RecipeResult</text><text fill="#000000" font-family="sans-serif" font-size="13" lengthAdjust="spacing" textLength="244.5625" x="257.353" y="578.7856">(list of 3 recipe summaries with links)</text></g><g class="message" data-participant-1="Frontend" data-participant-2="User"><polygon fill="#181818" points="49.9551,608.9844,39.9551,612.9844,49.9551,616.9844,45.9551,612.9844" style="stroke:#181818;stroke-width:1;"/><line style="stroke:#181818;stroke-width:1;stroke-dasharray:2,2;" x1="43.9551" x2="239.353" y1="612.9844" y2="612.9844"/><text fill="#000000" font-family="sans-serif" font-size="13" lengthAdjust="spacing" textLength="161.4146" x="55.9551" y="607.9185">Display recipe dropdown</text></g><g class="message" data-participant-1="User" data-participant-2="Frontend"><polygon fill="#181818" points="228.353,638.1172,238.353,642.1172,228.353,646.1172,232.353,642.1172" style="stroke:#181818;stroke-width:1;"/><line style="stroke:#181818;stroke-width:1;" x1="38.9551" x2="234.353" y1="642.1172" y2="642.1172"/><text fill="#000000" font-family="sans-serif" font-size="13" lengthAdjust="spacing" textLength="102.5591" x="45.9551" y="637.0513">Clicks on recipe</text></g><g class="message" data-participant-1="Frontend" data-participant-2="User"><polygon fill="#181818" points="49.9551,682.3828,39.9551,686.3828,49.9551,690.3828,45.9551,686.3828" style="stroke:#181818;stroke-width:1;"/><line style="stroke:#181818;stroke-width:1;stroke-dasharray:2,2;" x1="43.9551" x2="239.353" y1="686.3828" y2="686.3828"/><text fill="#000000" font-family="sans-serif" font-size="13" lengthAdjust="spacing" textLength="119.9263" x="55.9551" y="666.1841">Open external link</text><text fill="#000000" font-family="sans-serif" font-size="13" lengthAdjust="spacing" textLength="104.9775" x="55.9551" y="681.3169">to recipe details</text></g><line style="stroke:#000000;stroke-width:1;stroke-dasharray:2,2;" x1="10" x2="629.9458" y1="695.3828" y2="695.3828"/><text fill="#000000" font-family="sans-serif" font-size="11" font-weight="bold" lengthAdjust="spacing" textLength="115.4141" x="15" y="705.5933">[No recipes found]</text><g class="message" data-participant-1="Backend" data-participant-2="Frontend"><polygon fill="#181818" points="251.353,741.4531,241.353,745.4531,251.353,749.4531,247.353,745.4531" style="stroke:#181818;stroke-width:1;"/><line style="stroke:#181818;stroke-width:1;stroke-dasharray:2,2;" x1="245.353" x2="578.9966" y1="745.4531" y2="745.4531"/><text fill="#000000" font-family="sans-serif" font-size="13" lengthAdjust="spacing" textLength="96.0146" x="257.353" y="725.2544">404 Not Found</text><text fill="#000000" font-family="sans-serif" font-size="13" lengthAdjust="spacing" textLength="146.2437" x="257.353" y="740.3872">"No matching recipes"</text></g><g class="message" data-participant-1="Frontend" data-participant-2="User"><polygon fill="#181818" points="49.9551,785.7188,39.9551,789.7188,49.9551,793.7188,45.9551,789.7188" style="stroke:#181818;stroke-width:1;"/><line style="stroke:#181818;stroke-width:1;stroke-dasharray:2,2;" x1="43.9551" x2="239.353" y1="789.7188" y2="789.7188"/><text fill="#000000" font-family="sans-serif" font-size="13" lengthAdjust="spacing" textLength="120.4404" x="55.9551" y="769.52">"No recipes found,</text><text fill="#000000" font-family="sans-serif" font-size="13" lengthAdjust="spacing" textLength="161.4907" x="55.9551" y="784.6528">try different ingredients"</text></g><rect fill="#EEEEEE" height="3" style="stroke:#EEEEEE;stroke-width:1;" width="1213.1187" x="0" y="825.2852"/><line style="stroke:#000000;stroke-width:1;" x1="0" x2="1213.1187" y1="825.2852" y2="825.2852"/><line style="stroke:#000000;stroke-width:1;" x1="0" x2="1213.1187" y1="828.2852" y2="828.2852"/><rect fill="#EEEEEE" height="23.1328" style="stroke:#000000;stroke-width:2;" width="243.5249" x="484.7969" y="814.7188"/><text fill="#000000" font-family="sans-serif" font-size="13" font-weight="bold" lengthAdjust="spacing" textLength="224.999" x="490.7969" y="830.7856">Recipe Via AI (User toggles AI)</text><g class="message" data-participant-1="User" data-participant-2="Frontend"><polygon fill="#181818" points="228.353,864.9844,238.353,868.9844,228.353,872.9844,232.353,868.9844" style="stroke:#181818;stroke-width:1;"/><line style="stroke:#181818;stroke-width:1;" x1="38.9551" x2="234.353" y1="868.9844" y2="868.9844"/><text fill="#000000" font-family="sans-serif" font-size="13" lengthAdjust="spacing" textLength="148.9287" x="45.9551" y="863.9185">Toggles "AI" option ON</text></g><g class="message" data-participant-1="User" data-participant-2="Frontend"><polygon fill="#181818" points="228.353,894.1172,238.353,898.1172,228.353,902.1172,232.353,898.1172" style="stroke:#181818;stroke-width:1;"/><line style="stroke:#181818;stroke-width:1;" x1="38.9551" x2="234.353" y1="898.1172" y2="898.1172"/><text fill="#000000" font-family="sans-serif" font-size="13" lengthAdjust="spacing" textLength="136.3667" x="45.9551" y="893.0513">Clicks "Find Recipes"</text></g><g class="message" data-participant-1="Frontend" data-participant-2="Backend"><polygon fill="#181818" points="567.9966,938.3828,577.9966,942.3828,567.9966,946.3828,571.9966,942.3828" style="stroke:#181818;stroke-width:1;"/><line style="stroke:#181818;stroke-width:1;" x1="240.353" x2="573.9966" y1="942.3828" y2="942.3828"/><text fill="#000000" font-family="sans-serif" font-size="13" lengthAdjust="spacing" textLength="130.0698" x="247.353" y="922.1841">POST /api/recipes/ai</text><text fill="#000000" font-family="sans-serif" font-size="13" lengthAdjust="spacing" textLength="271.1147" x="247.353" y="937.3169">{ingredients: ["apple", "chicken", "rice"]}</text></g><g class="message" data-participant-1="Backend" data-participant-2="Gemini"><polygon fill="#181818" points="993.8726,982.6484,1003.8726,986.6484,993.8726,990.6484,997.8726,986.6484" style="stroke:#181818;stroke-width:1;"/><line style="stroke:#181818;stroke-width:1;" x1="579.9966" x2="999.8726" y1="986.6484" y2="986.6484"/><text fill="#000000" font-family="sans-serif" font-size="13" lengthAdjust="spacing" textLength="364.6411" x="586.9966" y="966.4497">POST /v1beta/models/gemini-2.5-flash:generateContent</text><text fill="#000000" font-family="sans-serif" font-size="13" lengthAdjust="spacing" textLength="332.9917" x="586.9966" y="981.5825">(prompt: "Create recipe with: apple, chicken, rice")</text></g><g class="message" data-participant-1="Gemini" data-participant-2="Backend"><polygon fill="#181818" points="590.9966,1042.0469,580.9966,1046.0469,590.9966,1050.0469,586.9966,1046.0469" style="stroke:#181818;stroke-width:1;"/><line style="stroke:#181818;stroke-width:1;stroke-dasharray:2,2;" x1="584.9966" x2="1004.8726" y1="1046.0469" y2="1046.0469"/><text fill="#000000" font-family="sans-serif" font-size="13" lengthAdjust="spacing" textLength="129.0479" x="596.9966" y="1010.7153">AI-generated recipe</text><text fill="#000000" font-family="sans-serif" font-size="13" lengthAdjust="spacing" textLength="153.0991" x="596.9966" y="1025.8481">(markdown format with</text><text fill="#000000" font-family="sans-serif" font-size="13" lengthAdjust="spacing" textLength="187.3384" x="596.9966" y="1040.981">instructions and ingredients)</text></g><g class="message" data-participant-1="Backend" data-participant-2="Frontend"><polygon fill="#181818" points="251.353,1101.4453,241.353,1105.4453,251.353,1109.4453,247.353,1105.4453" style="stroke:#181818;stroke-width:1;"/><line style="stroke:#181818;stroke-width:1;stroke-dasharray:2,2;" x1="245.353" x2="578.9966" y1="1105.4453" y2="1105.4453"/><text fill="#000000" font-family="sans-serif" font-size="13" lengthAdjust="spacing" textLength="47.7026" x="257.353" y="1070.1138">200 OK</text><text fill="#000000" font-family="sans-serif" font-size="13" lengthAdjust="spacing" textLength="87.585" x="257.353" y="1085.2466">AiRecipeData</text><text fill="#000000" font-family="sans-serif" font-size="13" lengthAdjust="spacing" textLength="192.2896" x="257.353" y="1100.3794">(formatted markdown recipe)</text></g><g class="message" data-participant-1="Frontend" data-participant-2="User"><polygon fill="#181818" points="49.9551,1130.5781,39.9551,1134.5781,49.9551,1138.5781,45.9551,1134.5781" style="stroke:#181818;stroke-width:1;"/><line style="stroke:#181818;stroke-width:1;stroke-dasharray:2,2;" x1="43.9551" x2="239.353" y1="1134.5781" y2="1134.5781"/><text fill="#000000" font-family="sans-serif" font-size="13" lengthAdjust="spacing" textLength="177.3979" x="55.9551" y="1129.5122">Display recipe in dropdown</text></g><g class="message" data-participant-1="User" data-participant-2="Frontend"><polygon fill="#181818" points="228.353,1159.7109,238.353,1163.7109,228.353,1167.7109,232.353,1163.7109" style="stroke:#181818;stroke-width:1;"/><line style="stroke:#181818;stroke-width:1;" x1="38.9551" x2="234.353" y1="1163.7109" y2="1163.7109"/><text fill="#000000" font-family="sans-serif" font-size="13" lengthAdjust="spacing" textLength="119.4185" x="45.9551" y="1158.645">Clicks on AI recipe</text></g><g class="message" data-participant-1="Frontend" data-participant-2="User"><polygon fill="#181818" points="49.9551,1203.9766,39.9551,1207.9766,49.9551,1211.9766,45.9551,1207.9766" style="stroke:#181818;stroke-width:1;"/><line style="stroke:#181818;stroke-width:1;stroke-dasharray:2,2;" x1="43.9551" x2="239.353" y1="1207.9766" y2="1207.9766"/><text fill="#000000" font-family="sans-serif" font-size="13" lengthAdjust="spacing" textLength="163.4521" x="55.9551" y="1187.7778">Show markdown preview</text><text fill="#000000" font-family="sans-serif" font-size="13" lengthAdjust="spacing" textLength="96.2368" x="55.9551" y="1202.9106">with full recipe</text></g><path d="M1010,1220.9766 L1010,1320.9766 L1208,1320.9766 L1208,1230.9766 L1198,1220.9766 L1010,1220.9766" fill="#FEFFDD" style="stroke:#181818;stroke-width:0.5;"/><path d="M1198,1220.9766 L1198,1230.9766 L1208,1230.9766 L1198,1220.9766" fill="#FEFFDD" style="stroke:#181818;stroke-width:0.5;"/><text fill="#000000" font-family="sans-serif" font-size="13" lengthAdjust="spacing" textLength="177.1187" x="1016" y="1238.0435">Gemini generates creative,</text><text fill="#000000" font-family="sans-serif" font-size="13" lengthAdjust="spacing" textLength="170.1743" x="1016" y="1253.1763">personalized recipes with:</text><text fill="#000000" font-family="sans-serif" font-size="13" lengthAdjust="spacing" textLength="98.9155" x="1016" y="1268.3091">- Ingredient list</text><text fill="#000000" font-family="sans-serif" font-size="13" lengthAdjust="spacing" textLength="172.1294" x="1016" y="1283.4419">- Step-by-step instructions</text><text fill="#000000" font-family="sans-serif" font-size="13" lengthAdjust="spacing" textLength="94.9419" x="1016" y="1298.5747">- Cooking time</text><text fill="#000000" font-family="sans-serif" font-size="13" lengthAdjust="spacing" textLength="140.3086" x="1016" y="1313.7075">- Serving suggestions</text><!--SRC=[ZLLBRziu4BxhLmnqsHYmugIRNWouWHzjOIpQ54tQIxq7MXh9h2bI86cdRj7_tk53YfHDjlN1biblNj_CDxBS2eHF1c79wEjg2czHecOMuIFcl46uFLGL6ikLD4d2SgkqW-kaOTfoGZ1f8NsZbRGeYuqycyj2ArwCKc06slCXUi7oVG2__jPeD2Q0u_4GUxV3TyZ4QW7p3siF2t-7gBTOSyaxIFYR5CoohIihVQTafLOBVqcsYQi0ibTTVbEuHO6vDS0jrWPAhMhwuaM5IOk1Z0oS8O5twXwCjy0Yc3pXSYbulZT43YVZmAP9Dv9Bs2fhAK2kD76T9BDPI_PdpbmHSBR2aXs47S5iralWLSiHjUdr7KnOmoSwEBxcij9OS9JMp5ZJ21pdE-x0OyrpJ99ewPoi5bDuerInfiJFIyfkBiJYv0fO5sS7_pDAYF6i7z1T_sKYAR7cH2ZLa2iDoF8TFAIG07rw4KFFUbb_DKfEZfUJoqd9XKLztkoQQpxxyU3Yf_SHUp_8PAurEu4geQPB0_VS3aAx4UfN-s1N4QPoeyte9iI5IDz6RazGCqkSoQhdpSsyi6tte5G7yZueRj3o5nSNSFFFHWRyHpJKGnfpmOrr2VyTmu4vr3NJ76FsWikz6Nc_JqpRYfj6KCNHbkJL5EfUUlYpKwTan3_dzQP12VYDE91C-0msqgek25h6XKbGa7pUjyU_9-3guehWbcRYu0IUacd7QlIHFfTH-ZZEc3BI9oXuMQAcPlJxaeO-Fv8EASSpObLL2N8pNti5_PUbkmX8vxGnLEFM6zoy_rCHFot93pUtGqrE6D_8taYRANn9lJRJCQHHdkxHAJJzz-TWRCCEQxqUBxVKaKcj2kh8fF9tsOlpbrafcDbDgxYqbpujDt8DRR364gbBZMxaOr_Tk4qXx0Te5mJu-ACaRj6XsDPPwxo8JiWx3U_UpI3rILD_lLktsOpLXzo_Axp6UgMFUiKzAPav3-okQ6bJXE3O1UrYXUYZvFSIeHNRgUJ_54Bp4aNot9BlWjDxwiZnVYEzOCk34Arf8fNZbrSxh_7uxe7u02rx1dBN2Nx4CLqsg6a3Ci6_TxI6NJ2bompM7N7WTeS_kxNOPDjJPkWN-bJxswLIUoSoosiCSDH7Ts1wxszNeCls5m00]--></g></svg>