<?xml version="1.0" encoding="us-ascii" standalone="no"?><svg xmlns="http://www.w3.org/2000/svg" xmlns:xlink="http://www.w3.org/1999/xlink" contentStyleType="text/css" height="521px" preserveAspectRatio="none" style="width:688px;height:521px;background:#FFFFFF;" version="1.1" viewBox="0 0 688 521" width="688px" zoomAndPan="magnify"><defs/><g><rect fill="none" height="149.5078" style="stroke:#000000;stroke-width:1.5;" width="412" x="10" y="274.3516"/><line style="stroke:#181818;stroke-width:0.5;stroke-dasharray:5.0,5.0;" x1="38" x2="38" y1="81.4883" y2="440.8594"/><line style="stroke:#181818;stroke-width:0.5;stroke-dasharray:5.0,5.0;" x1="231" x2="231" y1="81.4883" y2="440.8594"/><line style="stroke:#181818;stroke-width:0.5;stroke-dasharray:5.0,5.0;" x1="376" x2="376" y1="81.4883" y2="440.8594"/><line style="stroke:#181818;stroke-width:0.5;stroke-dasharray:5.0,5.0;" x1="521" x2="521" y1="81.4883" y2="440.8594"/><line style="stroke:#181818;stroke-width:0.5;stroke-dasharray:5.0,5.0;" x1="639" x2="639" y1="81.4883" y2="440.8594"/><text fill="#000000" font-family="sans-serif" font-size="14" lengthAdjust="spacing" textLength="31" x="20" y="78.5352">User</text><ellipse cx="38.5" cy="13.5" fill="#E2E2F0" rx="8" ry="8" style="stroke:#181818;stroke-width:0.5;"/><path d="M38.5,21.5 L38.5,48.5 M25.5,29.5 L51.5,29.5 M38.5,48.5 L25.5,63.5 M38.5,48.5 L51.5,63.5 " fill="none" style="stroke:#181818;stroke-width:0.5;"/><text fill="#000000" font-family="sans-serif" font-size="14" lengthAdjust="spacing" textLength="31" x="20" y="453.3945">User</text><ellipse cx="38.5" cy="464.8477" fill="#E2E2F0" rx="8" ry="8" style="stroke:#181818;stroke-width:0.5;"/><path d="M38.5,472.8477 L38.5,499.8477 M25.5,480.8477 L51.5,480.8477 M38.5,499.8477 L25.5,514.8477 M38.5,499.8477 L51.5,514.8477 " fill="none" style="stroke:#181818;stroke-width:0.5;"/><rect fill="#E2E2F0" height="30.4883" rx="2.5" ry="2.5" style="stroke:#181818;stroke-width:0.5;" width="77" x="193" y="50"/><text fill="#000000" font-family="sans-serif" font-size="14" lengthAdjust="spacing" textLength="63" x="200" y="70.5352">Frontend</text><rect fill="#E2E2F0" height="30.4883" rx="2.5" ry="2.5" style="stroke:#181818;stroke-width:0.5;" width="77" x="193" y="439.8594"/><text fill="#000000" font-family="sans-serif" font-size="14" lengthAdjust="spacing" textLength="63" x="200" y="460.3945">Frontend</text><rect fill="#E2E2F0" height="30.4883" rx="2.5" ry="2.5" style="stroke:#181818;stroke-width:0.5;" width="71" x="341" y="50"/><text fill="#000000" font-family="sans-serif" font-size="14" lengthAdjust="spacing" textLength="57" x="348" y="70.5352">Backend</text><rect fill="#E2E2F0" height="30.4883" rx="2.5" ry="2.5" style="stroke:#181818;stroke-width:0.5;" width="71" x="341" y="439.8594"/><text fill="#000000" font-family="sans-serif" font-size="14" lengthAdjust="spacing" textLength="57" x="348" y="460.3945">Backend</text><text fill="#000000" font-family="sans-serif" font-size="14" lengthAdjust="spacing" textLength="63" x="487" y="78.5352">Database</text><path d="M503.5,29 C503.5,19 521.5,19 521.5,19 C521.5,19 539.5,19 539.5,29 L539.5,55 C539.5,65 521.5,65 521.5,65 C521.5,65 503.5,65 503.5,55 L503.5,29 " fill="#E2E2F0" style="stroke:#181818;stroke-width:1.5;"/><path d="M503.5,29 C503.5,39 521.5,39 521.5,39 C521.5,39 539.5,39 539.5,29 " fill="none" style="stroke:#181818;stroke-width:1.5;"/><text fill="#000000" font-family="sans-serif" font-size="14" lengthAdjust="spacing" textLength="63" x="487" y="453.3945">Database</text><path d="M503.5,466.3477 C503.5,456.3477 521.5,456.3477 521.5,456.3477 C521.5,456.3477 539.5,456.3477 539.5,466.3477 L539.5,492.3477 C539.5,502.3477 521.5,502.3477 521.5,502.3477 C521.5,502.3477 503.5,502.3477 503.5,492.3477 L503.5,466.3477 " fill="#E2E2F0" style="stroke:#181818;stroke-width:1.5;"/><path d="M503.5,466.3477 C503.5,476.3477 521.5,476.3477 521.5,476.3477 C521.5,476.3477 539.5,476.3477 539.5,466.3477 " fill="none" style="stroke:#181818;stroke-width:1.5;"/><rect fill="#E2E2F0" height="30.4883" rx="2.5" ry="2.5" style="stroke:#181818;stroke-width:0.5;" width="85" x="597" y="50"/><text fill="#000000" font-family="sans-serif" font-size="14" lengthAdjust="spacing" textLength="71" x="604" y="70.5352">Recipe API</text><rect fill="#E2E2F0" height="30.4883" rx="2.5" ry="2.5" style="stroke:#181818;stroke-width:0.5;" width="85" x="597" y="439.8594"/><text fill="#000000" font-family="sans-serif" font-size="14" lengthAdjust="spacing" textLength="71" x="604" y="460.3945">Recipe API</text><polygon fill="#181818" points="219.5,108.7988,229.5,112.7988,219.5,116.7988,223.5,112.7988" style="stroke:#181818;stroke-width:1.0;"/><line style="stroke:#181818;stroke-width:1.0;" x1="38.5" x2="225.5" y1="112.7988" y2="112.7988"/><text fill="#000000" font-family="sans-serif" font-size="13" lengthAdjust="spacing" textLength="132" x="45.5" y="108.0566">Clicks "Find Recipes"</text><polygon fill="#181818" points="364.5,138.1094,374.5,142.1094,364.5,146.1094,368.5,142.1094" style="stroke:#181818;stroke-width:1.0;"/><line style="stroke:#181818;stroke-width:1.0;" x1="231.5" x2="370.5" y1="142.1094" y2="142.1094"/><text fill="#000000" font-family="sans-serif" font-size="13" lengthAdjust="spacing" textLength="121" x="238.5" y="137.3672">Get recipes request</text><polygon fill="#181818" points="509.5,167.4199,519.5,171.4199,509.5,175.4199,513.5,171.4199" style="stroke:#181818;stroke-width:1.0;"/><line style="stroke:#181818;stroke-width:1.0;" x1="376.5" x2="515.5" y1="171.4199" y2="171.4199"/><text fill="#000000" font-family="sans-serif" font-size="13" lengthAdjust="spacing" textLength="121" x="383.5" y="166.6777">Get fridge contents</text><polygon fill="#181818" points="387.5,196.7305,377.5,200.7305,387.5,204.7305,383.5,200.7305" style="stroke:#181818;stroke-width:1.0;"/><line style="stroke:#181818;stroke-width:1.0;stroke-dasharray:2.0,2.0;" x1="381.5" x2="520.5" y1="200.7305" y2="200.7305"/><text fill="#000000" font-family="sans-serif" font-size="13" lengthAdjust="spacing" textLength="98" x="393.5" y="195.9883">Fridge contents</text><polygon fill="#181818" points="627.5,226.041,637.5,230.041,627.5,234.041,631.5,230.041" style="stroke:#181818;stroke-width:1.0;"/><line style="stroke:#181818;stroke-width:1.0;" x1="376.5" x2="633.5" y1="230.041" y2="230.041"/><text fill="#000000" font-family="sans-serif" font-size="13" lengthAdjust="spacing" textLength="239" x="383.5" y="225.2988">Get recipes with matching ingredients</text><polygon fill="#181818" points="387.5,255.3516,377.5,259.3516,387.5,263.3516,383.5,259.3516" style="stroke:#181818;stroke-width:1.0;"/><line style="stroke:#181818;stroke-width:1.0;stroke-dasharray:2.0,2.0;" x1="381.5" x2="638.5" y1="259.3516" y2="259.3516"/><text fill="#000000" font-family="sans-serif" font-size="13" lengthAdjust="spacing" textLength="81" x="393.5" y="254.6094">API response</text><path d="M10,274.3516 L72,274.3516 L72,281.6621 L62,291.6621 L10,291.6621 L10,274.3516 " fill="#EEEEEE" style="stroke:#000000;stroke-width:1.5;"/><rect fill="none" height="149.5078" style="stroke:#000000;stroke-width:1.5;" width="412" x="10" y="274.3516"/><text fill="#000000" font-family="sans-serif" font-size="13" font-weight="bold" lengthAdjust="spacing" textLength="17" x="25" y="287.9199">alt</text><text fill="#000000" font-family="sans-serif" font-size="11" font-weight="bold" lengthAdjust="spacing" textLength="94" x="87" y="286.9863">[Found recipe(s)]</text><polygon fill="#181818" points="242.5,308.9727,232.5,312.9727,242.5,316.9727,238.5,312.9727" style="stroke:#181818;stroke-width:1.0;"/><line style="stroke:#181818;stroke-width:1.0;stroke-dasharray:2.0,2.0;" x1="236.5" x2="375.5" y1="312.9727" y2="312.9727"/><text fill="#000000" font-family="sans-serif" font-size="13" lengthAdjust="spacing" textLength="106" x="248.5" y="308.2305">Sorted recipe list</text><polygon fill="#181818" points="49.5,338.2832,39.5,342.2832,49.5,346.2832,45.5,342.2832" style="stroke:#181818;stroke-width:1.0;"/><line style="stroke:#181818;stroke-width:1.0;stroke-dasharray:2.0,2.0;" x1="43.5" x2="230.5" y1="342.2832" y2="342.2832"/><text fill="#000000" font-family="sans-serif" font-size="13" lengthAdjust="spacing" textLength="96" x="55.5" y="337.541">Display recipes</text><line style="stroke:#000000;stroke-width:1.0;stroke-dasharray:2.0,2.0;" x1="10" x2="422" y1="351.2832" y2="351.2832"/><text fill="#000000" font-family="sans-serif" font-size="11" font-weight="bold" lengthAdjust="spacing" textLength="121" x="15" y="361.918">[Did not find recipes]</text><polygon fill="#181818" points="242.5,382.5488,232.5,386.5488,242.5,390.5488,238.5,386.5488" style="stroke:#181818;stroke-width:1.0;"/><line style="stroke:#181818;stroke-width:1.0;stroke-dasharray:2.0,2.0;" x1="236.5" x2="375.5" y1="386.5488" y2="386.5488"/><text fill="#000000" font-family="sans-serif" font-size="13" lengthAdjust="spacing" textLength="89" x="248.5" y="381.8066">Error message</text><polygon fill="#181818" points="49.5,411.8594,39.5,415.8594,49.5,419.8594,45.5,415.8594" style="stroke:#181818;stroke-width:1.0;"/><line style="stroke:#181818;stroke-width:1.0;stroke-dasharray:2.0,2.0;" x1="43.5" x2="230.5" y1="415.8594" y2="415.8594"/><text fill="#000000" font-family="sans-serif" font-size="13" lengthAdjust="spacing" textLength="169" x="55.5" y="411.1172">Display "No recipes found"</text><!--SRC=[VP5DJiCm48NtFiN8ArZa0X520aegDWY1E82nf-cegHqyKo5kpxZvQR8eYoZH-7llZL-SbvJXap6RtcKXJxsB0arEKJ26rV3H-KEP1IVkop72PlmmHG_L_IohuQaZVs2m3SK0xwWEoDPCvuKTtMhOea0U27r_dv35Z8U5cq86S9Sfj0Z-x2CyWtTLjI2RAvJQsM4PU7XxiUli7v8z79tuFSKMzCaOw2nVQg1QxguJrNEVehPWNAVDfPC63PutV7k9NjNpaRBWX457UkLBDqgMGclO4FUT-vqsD0QxqZe5Y4che3c8hyGyvwn_zuZChiN_4knhcdlObHjO3OlX3m00]--></g></svg>