<svg xmlns="http://www.w3.org/2000/svg" xmlns:xlink="http://www.w3.org/1999/xlink" contentStyleType="text/css" data-diagram-type="SEQUENCE" height="521px" preserveAspectRatio="none" style="width:688px;height:521px;background:#FFFFFF;" version="1.1" viewBox="0 0 688 521" width="688px" zoomAndPan="magnify"><defs/><g><rect fill="none" height="149.5078" style="stroke:#000000;stroke-width:1.5;" width="411.4893" x="10" y="274.3516"/><g><title>User</title><rect fill="#000000" fill-opacity="0.00000" height="359.3711" width="8" x="34.1826" y="81.4883"/><line style="stroke:#181818;stroke-width:0.5;stroke-dasharray:5,5;" x1="38" x2="38" y1="81.4883" y2="440.8594"/></g><g><title>Frontend</title><rect fill="#000000" fill-opacity="0.00000" height="359.3711" width="8" x="225.9702" y="81.4883"/><line style="stroke:#181818;stroke-width:0.5;stroke-dasharray:5,5;" x1="229.4409" x2="229.4409" y1="81.4883" y2="440.8594"/></g><g><title>Backend</title><rect fill="#000000" fill-opacity="0.00000" height="359.3711" width="8" x="372.2705" y="81.4883"/><line style="stroke:#181818;stroke-width:0.5;stroke-dasharray:5,5;" x1="376.0518" x2="376.0518" y1="81.4883" y2="440.8594"/></g><g><title>Database</title><rect fill="#000000" fill-opacity="0.00000" height="359.3711" width="8" x="517.7583" y="81.4883"/><line style="stroke:#181818;stroke-width:0.5;stroke-dasharray:5,5;" x1="521.4258" x2="521.4258" y1="81.4883" y2="440.8594"/></g><g><title>Recipe API</title><rect fill="#000000" fill-opacity="0.00000" height="359.3711" width="8" x="636.0278" y="81.4883"/><line style="stroke:#181818;stroke-width:0.5;stroke-dasharray:5,5;" x1="639.8569" x2="639.8569" y1="81.4883" y2="440.8594"/></g><g class="participant participant-head" data-participant="User"><text fill="#000000" font-family="sans-serif" font-size="14" lengthAdjust="spacing" textLength="30.3652" x="20" y="78.5352">User</text><ellipse cx="38.1826" cy="13.5" fill="#E2E2F0" rx="8" ry="8" style="stroke:#181818;stroke-width:0.5;"/><path d="M38.1826,21.5 L38.1826,48.5 M25.1826,29.5 L51.1826,29.5 M38.1826,48.5 L25.1826,63.5 M38.1826,48.5 L51.1826,63.5" fill="none" style="stroke:#181818;stroke-width:0.5;"/></g><g class="participant participant-tail" data-participant="User"><text fill="#000000" font-family="sans-serif" font-size="14" lengthAdjust="spacing" textLength="30.3652" x="20" y="453.3945">User</text><ellipse cx="38.1826" cy="464.8477" fill="#E2E2F0" rx="8" ry="8" style="stroke:#181818;stroke-width:0.5;"/><path d="M38.1826,472.8477 L38.1826,499.8477 M25.1826,480.8477 L51.1826,480.8477 M38.1826,499.8477 L25.1826,514.8477 M38.1826,499.8477 L51.1826,514.8477" fill="none" style="stroke:#181818;stroke-width:0.5;"/></g><g class="participant participant-head" data-participant="Frontend"><rect fill="#E2E2F0" height="30.4883" rx="2.5" ry="2.5" style="stroke:#181818;stroke-width:0.5;" width="75.0586" x="192.4409" y="50"/><text fill="#000000" font-family="sans-serif" font-size="14" lengthAdjust="spacing" textLength="61.0586" x="199.4409" y="70.5352">Frontend</text></g><g class="participant participant-tail" data-participant="Frontend"><rect fill="#E2E2F0" height="30.4883" rx="2.5" ry="2.5" style="stroke:#181818;stroke-width:0.5;" width="75.0586" x="192.4409" y="439.8594"/><text fill="#000000" font-family="sans-serif" font-size="14" lengthAdjust="spacing" textLength="61.0586" x="199.4409" y="460.3945">Frontend</text></g><g class="participant participant-head" data-participant="Backend"><rect fill="#E2E2F0" height="30.4883" rx="2.5" ry="2.5" style="stroke:#181818;stroke-width:0.5;" width="70.4375" x="341.0518" y="50"/><text fill="#000000" font-family="sans-serif" font-size="14" lengthAdjust="spacing" textLength="56.4375" x="348.0518" y="70.5352">Backend</text></g><g class="participant participant-tail" data-participant="Backend"><rect fill="#E2E2F0" height="30.4883" rx="2.5" ry="2.5" style="stroke:#181818;stroke-width:0.5;" width="70.4375" x="341.0518" y="439.8594"/><text fill="#000000" font-family="sans-serif" font-size="14" lengthAdjust="spacing" textLength="56.4375" x="348.0518" y="460.3945">Backend</text></g><g class="participant participant-head" data-participant="Database"><text fill="#000000" font-family="sans-serif" font-size="14" lengthAdjust="spacing" textLength="62.665" x="487.4258" y="78.5352">Database</text><path d="M503.7583,29 C503.7583,19 521.7583,19 521.7583,19 C521.7583,19 539.7583,19 539.7583,29 L539.7583,55 C539.7583,65 521.7583,65 521.7583,65 C521.7583,65 503.7583,65 503.7583,55 L503.7583,29" fill="#E2E2F0" style="stroke:#181818;stroke-width:0.5;"/><path d="M503.7583,29 C503.7583,39 521.7583,39 521.7583,39 C521.7583,39 539.7583,39 539.7583,29" fill="none" style="stroke:#181818;stroke-width:0.5;"/></g><g class="participant participant-tail" data-participant="Database"><text fill="#000000" font-family="sans-serif" font-size="14" lengthAdjust="spacing" textLength="62.665" x="487.4258" y="453.3945">Database</text><path d="M503.7583,466.3477 C503.7583,456.3477 521.7583,456.3477 521.7583,456.3477 C521.7583,456.3477 539.7583,456.3477 539.7583,466.3477 L539.7583,492.3477 C539.7583,502.3477 521.7583,502.3477 521.7583,502.3477 C521.7583,502.3477 503.7583,502.3477 503.7583,492.3477 L503.7583,466.3477" fill="#E2E2F0" style="stroke:#181818;stroke-width:0.5;"/><path d="M503.7583,466.3477 C503.7583,476.3477 521.7583,476.3477 521.7583,476.3477 C521.7583,476.3477 539.7583,476.3477 539.7583,466.3477" fill="none" style="stroke:#181818;stroke-width:0.5;"/></g><g class="participant participant-head" data-participant="Recipe API"><rect fill="#E2E2F0" height="30.4883" rx="2.5" ry="2.5" style="stroke:#181818;stroke-width:0.5;" width="84.3418" x="597.8569" y="50"/><text fill="#000000" font-family="sans-serif" font-size="14" lengthAdjust="spacing" textLength="70.3418" x="604.8569" y="70.5352">Recipe API</text></g><g class="participant participant-tail" data-participant="Recipe API"><rect fill="#E2E2F0" height="30.4883" rx="2.5" ry="2.5" style="stroke:#181818;stroke-width:0.5;" width="84.3418" x="597.8569" y="439.8594"/><text fill="#000000" font-family="sans-serif" font-size="14" lengthAdjust="spacing" textLength="70.3418" x="604.8569" y="460.3945">Recipe API</text></g><g class="message" data-participant-1="User" data-participant-2="Frontend"><polygon fill="#181818" points="217.9702,108.7988,227.9702,112.7988,217.9702,116.7988,221.9702,112.7988" style="stroke:#181818;stroke-width:1;"/><line style="stroke:#181818;stroke-width:1;" x1="38.1826" x2="223.9702" y1="112.7988" y2="112.7988"/><text fill="#000000" font-family="sans-serif" font-size="13" lengthAdjust="spacing" textLength="130.2412" x="45.1826" y="108.0566">Clicks "Find Recipes"</text></g><g class="message" data-participant-1="Frontend" data-participant-2="Backend"><polygon fill="#181818" points="364.2705,138.1094,374.2705,142.1094,364.2705,146.1094,368.2705,142.1094" style="stroke:#181818;stroke-width:1;"/><line style="stroke:#181818;stroke-width:1;" x1="229.9702" x2="370.2705" y1="142.1094" y2="142.1094"/><text fill="#000000" font-family="sans-serif" font-size="13" lengthAdjust="spacing" textLength="122.3003" x="236.9702" y="137.3672">Get recipes request</text></g><g class="message" data-participant-1="Backend" data-participant-2="Database"><polygon fill="#181818" points="509.7583,167.4199,519.7583,171.4199,509.7583,175.4199,513.7583,171.4199" style="stroke:#181818;stroke-width:1;"/><line style="stroke:#181818;stroke-width:1;" x1="376.2705" x2="515.7583" y1="171.4199" y2="171.4199"/><text fill="#000000" font-family="sans-serif" font-size="13" lengthAdjust="spacing" textLength="121.4878" x="383.2705" y="166.6777">Get fridge contents</text></g><g class="message" data-participant-1="Database" data-participant-2="Backend"><polygon fill="#181818" points="387.2705,196.7305,377.2705,200.7305,387.2705,204.7305,383.2705,200.7305" style="stroke:#181818;stroke-width:1;"/><line style="stroke:#181818;stroke-width:1;stroke-dasharray:2,2;" x1="381.2705" x2="520.7583" y1="200.7305" y2="200.7305"/><text fill="#000000" font-family="sans-serif" font-size="13" lengthAdjust="spacing" textLength="98.0649" x="393.2705" y="195.9883">Fridge contents</text></g><g class="message" data-participant-1="Backend" data-participant-2="Recipe API"><polygon fill="#181818" points="628.0278,226.041,638.0278,230.041,628.0278,234.041,632.0278,230.041" style="stroke:#181818;stroke-width:1;"/><line style="stroke:#181818;stroke-width:1;" x1="376.2705" x2="634.0278" y1="230.041" y2="230.041"/><text fill="#000000" font-family="sans-serif" font-size="13" lengthAdjust="spacing" textLength="239.7573" x="383.2705" y="225.2988">Get recipes with matching ingredients</text></g><g class="message" data-participant-1="Recipe API" data-participant-2="Backend"><polygon fill="#181818" points="387.2705,255.3516,377.2705,259.3516,387.2705,263.3516,383.2705,259.3516" style="stroke:#181818;stroke-width:1;"/><line style="stroke:#181818;stroke-width:1;stroke-dasharray:2,2;" x1="381.2705" x2="639.0278" y1="259.3516" y2="259.3516"/><text fill="#000000" font-family="sans-serif" font-size="13" lengthAdjust="spacing" textLength="81.3071" x="393.2705" y="254.6094">API response</text></g><path d="M10,274.3516 L72.1387,274.3516 L72.1387,281.6621 L62.1387,291.6621 L10,291.6621 L10,274.3516" fill="#EEEEEE" style="stroke:#000000;stroke-width:1.5;"/><rect fill="none" height="149.5078" style="stroke:#000000;stroke-width:1.5;" width="411.4893" x="10" y="274.3516"/><text fill="#000000" font-family="sans-serif" font-size="13" font-weight="bold" lengthAdjust="spacing" textLength="17.1387" x="25" y="287.9199">alt</text><text fill="#000000" font-family="sans-serif" font-size="11" font-weight="bold" lengthAdjust="spacing" textLength="95.8418" x="87.1387" y="286.9863">[Found recipe(s)]</text><g class="message" data-participant-1="Backend" data-participant-2="Frontend"><polygon fill="#181818" points="240.9702,308.9727,230.9702,312.9727,240.9702,316.9727,236.9702,312.9727" style="stroke:#181818;stroke-width:1;"/><line style="stroke:#181818;stroke-width:1;stroke-dasharray:2,2;" x1="234.9702" x2="375.2705" y1="312.9727" y2="312.9727"/><text fill="#000000" font-family="sans-serif" font-size="13" lengthAdjust="spacing" textLength="106.228" x="246.9702" y="308.2305">Sorted recipe list</text></g><g class="message" data-participant-1="Frontend" data-participant-2="User"><polygon fill="#181818" points="49.1826,338.2832,39.1826,342.2832,49.1826,346.2832,45.1826,342.2832" style="stroke:#181818;stroke-width:1;"/><line style="stroke:#181818;stroke-width:1;stroke-dasharray:2,2;" x1="43.1826" x2="228.9702" y1="342.2832" y2="342.2832"/><text fill="#000000" font-family="sans-serif" font-size="13" lengthAdjust="spacing" textLength="95.1768" x="55.1826" y="337.541">Display recipes</text></g><line style="stroke:#000000;stroke-width:1;stroke-dasharray:2,2;" x1="10" x2="421.4893" y1="351.2832" y2="351.2832"/><text fill="#000000" font-family="sans-serif" font-size="11" font-weight="bold" lengthAdjust="spacing" textLength="120.8066" x="15" y="361.918">[Did not find recipes]</text><g class="message" data-participant-1="Backend" data-participant-2="Frontend"><polygon fill="#181818" points="240.9702,382.5488,230.9702,386.5488,240.9702,390.5488,236.9702,386.5488" style="stroke:#181818;stroke-width:1;"/><line style="stroke:#181818;stroke-width:1;stroke-dasharray:2,2;" x1="234.9702" x2="375.2705" y1="386.5488" y2="386.5488"/><text fill="#000000" font-family="sans-serif" font-size="13" lengthAdjust="spacing" textLength="90.2637" x="246.9702" y="381.8066">Error message</text></g><g class="message" data-participant-1="Frontend" data-participant-2="User"><polygon fill="#181818" points="49.1826,411.8594,39.1826,415.8594,49.1826,419.8594,45.1826,415.8594" style="stroke:#181818;stroke-width:1;"/><line style="stroke:#181818;stroke-width:1;stroke-dasharray:2,2;" x1="43.1826" x2="228.9702" y1="415.8594" y2="415.8594"/><text fill="#000000" font-family="sans-serif" font-size="13" lengthAdjust="spacing" textLength="167.7876" x="55.1826" y="411.1172">Display "No recipes found"</text></g><!--SRC=[VP5DJiCm48NtFiN8ArZa0X520aegDWY1E82nf-cegHqyKo5kpxZvQR8eYoZH-7llZL-SbvJXap6RtcKXJxsB0arEKJ26rV3H-KEP1IVkop72PlmmHG_L_IohuQaZVs2m3SK0xwWEoDPCvuKTtMhOea0U27r_dv35Z8U5cq86S9Sfj0Z-x2CyWtTLjI2RAvJQsM4PU7XxiUli7v8z79tuFSKMzCaOw2nVQg1QxguJrNEVehPWNAVDfPC63PutV7k9NjNpaRBWX457UkLBDqgMGclO4FUT-vqsD0QxqZe5Y4che3c8hyGyvwn_zuZChiN_4knhcdlObHjO3OlX3m00]--></g></svg>