<svg xmlns="http://www.w3.org/2000/svg" xmlns:xlink="http://www.w3.org/1999/xlink" contentStyleType="text/css" data-diagram-type="SEQUENCE" height="996px" preserveAspectRatio="none" style="width:1132px;height:996px;background:#FFFFFF;" version="1.1" viewBox="0 0 1132 996" width="1132px" zoomAndPan="magnify"><title>Use Case 1: Log Food via Image</title><defs/><g><text fill="#000000" font-family="sans-serif" font-size="14" font-weight="bold" lengthAdjust="spacing" textLength="250.8447" x="441.884" y="27.9951">Use Case 1: Log Food via Image</text><rect fill="none" height="514.4609" style="stroke:#000000;stroke-width:1.5;" width="1115.6128" x="10" y="383.9219"/><g><title>User</title><rect fill="#000000" fill-opacity="0.00000" height="796.7891" width="8" x="34.9551" y="118.5938"/><line style="stroke:#181818;stroke-width:0.5;stroke-dasharray:5,5;" x1="38" x2="38" y1="118.5938" y2="915.3828"/></g><g><title>Frontend</title><rect fill="#000000" fill-opacity="0.00000" height="796.7891" width="8" x="241.0439" y="118.5938"/><line style="stroke:#181818;stroke-width:0.5;stroke-dasharray:5,5;" x1="244.3647" x2="244.3647" y1="118.5938" y2="915.3828"/></g><g><title>Backend</title><rect fill="#000000" fill-opacity="0.00000" height="796.7891" width="8" x="452.9663" y="118.5938"/><line style="stroke:#181818;stroke-width:0.5;stroke-dasharray:5,5;" x1="456.0171" x2="456.0171" y1="118.5938" y2="915.3828"/></g><g><title>Gemini API</title><rect fill="#000000" fill-opacity="0.00000" height="796.7891" width="8" x="841.6074" y="118.5938"/><line style="stroke:#181818;stroke-width:0.5;stroke-dasharray:5,5;" x1="845.4321" x2="845.4321" y1="118.5938" y2="915.3828"/></g><g><title>Open Food Facts</title><rect fill="#000000" fill-opacity="0.00000" height="796.7891" width="8" x="962.5205" y="118.5938"/><line style="stroke:#181818;stroke-width:0.5;stroke-dasharray:5,5;" x1="965.7827" x2="965.7827" y1="118.5938" y2="915.3828"/></g><g><title>MongoDB</title><rect fill="#000000" fill-opacity="0.00000" height="796.7891" width="8" x="1074.9355" y="118.5938"/><line style="stroke:#181818;stroke-width:0.5;stroke-dasharray:5,5;" x1="1078.2583" x2="1078.2583" y1="118.5938" y2="915.3828"/></g><g class="participant participant-head" data-participant="User"><text fill="#000000" font-family="sans-serif" font-size="14" lengthAdjust="spacing" textLength="31.9102" x="20" y="115.292">User</text><ellipse cx="38.9551" cy="50.7969" fill="#E2E2F0" rx="8" ry="8" style="stroke:#181818;stroke-width:0.5;"/><path d="M38.9551,58.7969 L38.9551,85.7969 M25.9551,66.7969 L51.9551,66.7969 M38.9551,85.7969 L25.9551,100.7969 M38.9551,85.7969 L51.9551,100.7969" fill="none" style="stroke:#181818;stroke-width:0.5;"/></g><g class="participant participant-tail" data-participant="User"><text fill="#000000" font-family="sans-serif" font-size="14" lengthAdjust="spacing" textLength="31.9102" x="20" y="927.3779">User</text><ellipse cx="38.9551" cy="939.1797" fill="#E2E2F0" rx="8" ry="8" style="stroke:#181818;stroke-width:0.5;"/><path d="M38.9551,947.1797 L38.9551,974.1797 M25.9551,955.1797 L51.9551,955.1797 M38.9551,974.1797 L25.9551,989.1797 M38.9551,974.1797 L51.9551,989.1797" fill="none" style="stroke:#181818;stroke-width:0.5;"/></g><g class="participant participant-head" data-participant="Frontend"><rect fill="#E2E2F0" height="46.5938" rx="2.5" ry="2.5" style="stroke:#181818;stroke-width:0.5;" width="79.3584" x="205.3647" y="71"/><text fill="#000000" font-family="sans-serif" font-size="14" lengthAdjust="spacing" textLength="63.1094" x="213.4893" y="90.9951">Frontend</text><text fill="#000000" font-family="sans-serif" font-size="14" lengthAdjust="spacing" textLength="65.3584" x="212.3647" y="107.292">(Android)</text></g><g class="participant participant-tail" data-participant="Frontend"><rect fill="#E2E2F0" height="46.5938" rx="2.5" ry="2.5" style="stroke:#181818;stroke-width:0.5;" width="79.3584" x="205.3647" y="914.3828"/><text fill="#000000" font-family="sans-serif" font-size="14" lengthAdjust="spacing" textLength="63.1094" x="213.4893" y="934.3779">Frontend</text><text fill="#000000" font-family="sans-serif" font-size="14" lengthAdjust="spacing" textLength="65.3584" x="212.3647" y="950.6748">(Android)</text></g><g class="participant participant-head" data-participant="Backend"><rect fill="#E2E2F0" height="46.5938" rx="2.5" ry="2.5" style="stroke:#181818;stroke-width:0.5;" width="79.8984" x="417.0171" y="71"/><text fill="#000000" font-family="sans-serif" font-size="14" lengthAdjust="spacing" textLength="60.3613" x="426.7856" y="90.9951">Backend</text><text fill="#000000" font-family="sans-serif" font-size="14" lengthAdjust="spacing" textLength="65.8984" x="424.0171" y="107.292">(Express)</text></g><g class="participant participant-tail" data-participant="Backend"><rect fill="#E2E2F0" height="46.5938" rx="2.5" ry="2.5" style="stroke:#181818;stroke-width:0.5;" width="79.8984" x="417.0171" y="914.3828"/><text fill="#000000" font-family="sans-serif" font-size="14" lengthAdjust="spacing" textLength="60.3613" x="426.7856" y="934.3779">Backend</text><text fill="#000000" font-family="sans-serif" font-size="14" lengthAdjust="spacing" textLength="65.8984" x="424.0171" y="950.6748">(Express)</text></g><g class="participant participant-head" data-participant="Gemini"><rect fill="#E2E2F0" height="30.2969" rx="2.5" ry="2.5" style="stroke:#181818;stroke-width:0.5;" width="90.3506" x="800.4321" y="87.2969"/><text fill="#000000" font-family="sans-serif" font-size="14" lengthAdjust="spacing" textLength="76.3506" x="807.4321" y="107.292">Gemini API</text></g><g class="participant participant-tail" data-participant="Gemini"><rect fill="#E2E2F0" height="30.2969" rx="2.5" ry="2.5" style="stroke:#181818;stroke-width:0.5;" width="90.3506" x="800.4321" y="914.3828"/><text fill="#000000" font-family="sans-serif" font-size="14" lengthAdjust="spacing" textLength="76.3506" x="807.4321" y="934.3779">Gemini API</text></g><g class="participant participant-head" data-participant="OpenFood"><rect fill="#E2E2F0" height="46.5938" rx="2.5" ry="2.5" style="stroke:#181818;stroke-width:0.5;" width="131.4756" x="900.7827" y="71"/><text fill="#000000" font-family="sans-serif" font-size="14" lengthAdjust="spacing" textLength="117.4756" x="907.7827" y="90.9951">Open Food Facts</text><text fill="#000000" font-family="sans-serif" font-size="14" lengthAdjust="spacing" textLength="22.1484" x="955.4463" y="107.292">API</text></g><g class="participant participant-tail" data-participant="OpenFood"><rect fill="#E2E2F0" height="46.5938" rx="2.5" ry="2.5" style="stroke:#181818;stroke-width:0.5;" width="131.4756" x="900.7827" y="914.3828"/><text fill="#000000" font-family="sans-serif" font-size="14" lengthAdjust="spacing" textLength="117.4756" x="907.7827" y="934.3779">Open Food Facts</text><text fill="#000000" font-family="sans-serif" font-size="14" lengthAdjust="spacing" textLength="22.1484" x="955.4463" y="950.6748">API</text></g><g class="participant participant-head" data-participant="DB"><text fill="#000000" font-family="sans-serif" font-size="14" lengthAdjust="spacing" textLength="67.3545" x="1042.2583" y="115.292">MongoDB</text><path d="M1060.9355,66.2969 C1060.9355,56.2969 1078.9355,56.2969 1078.9355,56.2969 C1078.9355,56.2969 1096.9355,56.2969 1096.9355,66.2969 L1096.9355,92.2969 C1096.9355,102.2969 1078.9355,102.2969 1078.9355,102.2969 C1078.9355,102.2969 1060.9355,102.2969 1060.9355,92.2969 L1060.9355,66.2969" fill="#E2E2F0" style="stroke:#181818;stroke-width:0.5;"/><path d="M1060.9355,66.2969 C1060.9355,76.2969 1078.9355,76.2969 1078.9355,76.2969 C1078.9355,76.2969 1096.9355,76.2969 1096.9355,66.2969" fill="none" style="stroke:#181818;stroke-width:0.5;"/></g><g class="participant participant-tail" data-participant="DB"><text fill="#000000" font-family="sans-serif" font-size="14" lengthAdjust="spacing" textLength="67.3545" x="1042.2583" y="927.3779">MongoDB</text><path d="M1060.9355,940.6797 C1060.9355,930.6797 1078.9355,930.6797 1078.9355,930.6797 C1078.9355,930.6797 1096.9355,930.6797 1096.9355,940.6797 L1096.9355,966.6797 C1096.9355,976.6797 1078.9355,976.6797 1078.9355,976.6797 C1078.9355,976.6797 1060.9355,976.6797 1060.9355,966.6797 L1060.9355,940.6797" fill="#E2E2F0" style="stroke:#181818;stroke-width:0.5;"/><path d="M1060.9355,940.6797 C1060.9355,950.6797 1078.9355,950.6797 1078.9355,950.6797 C1078.9355,950.6797 1096.9355,950.6797 1096.9355,940.6797" fill="none" style="stroke:#181818;stroke-width:0.5;"/></g><g class="message" data-participant-1="User" data-participant-2="Frontend"><polygon fill="#181818" points="233.0439,160.8594,243.0439,164.8594,233.0439,168.8594,237.0439,164.8594" style="stroke:#181818;stroke-width:1;"/><line style="stroke:#181818;stroke-width:1;" x1="38.9551" x2="239.0439" y1="164.8594" y2="164.8594"/><text fill="#000000" font-family="sans-serif" font-size="13" lengthAdjust="spacing" textLength="124.1348" x="45.9551" y="144.6606">Selects "Add Food"</text><text fill="#000000" font-family="sans-serif" font-size="13" lengthAdjust="spacing" textLength="171.2915" x="45.9551" y="159.7935">and chooses image option</text></g><g class="message" data-participant-1="Frontend" data-participant-2="Frontend"><line style="stroke:#181818;stroke-width:1;" x1="245.0439" x2="287.0439" y1="193.9922" y2="193.9922"/><line style="stroke:#181818;stroke-width:1;" x1="287.0439" x2="287.0439" y1="193.9922" y2="206.9922"/><line style="stroke:#181818;stroke-width:1;" x1="246.0439" x2="287.0439" y1="206.9922" y2="206.9922"/><polygon fill="#181818" points="256.0439,202.9922,246.0439,206.9922,256.0439,210.9922,252.0439,206.9922" style="stroke:#181818;stroke-width:1;"/><text fill="#000000" font-family="sans-serif" font-size="13" lengthAdjust="spacing" textLength="94.7134" x="252.0439" y="188.9263">Opens camera</text></g><g class="message" data-participant-1="User" data-participant-2="Frontend"><polygon fill="#181818" points="233.0439,232.125,243.0439,236.125,233.0439,240.125,237.0439,236.125" style="stroke:#181818;stroke-width:1;"/><line style="stroke:#181818;stroke-width:1;" x1="38.9551" x2="239.0439" y1="236.125" y2="236.125"/><text fill="#000000" font-family="sans-serif" font-size="13" lengthAdjust="spacing" textLength="162.8682" x="45.9551" y="231.0591">Takes photo of food item</text></g><g class="message" data-participant-1="Frontend" data-participant-2="Backend"><polygon fill="#181818" points="444.9663,276.3906,454.9663,280.3906,444.9663,284.3906,448.9663,280.3906" style="stroke:#181818;stroke-width:1;"/><line style="stroke:#181818;stroke-width:1;" x1="245.0439" x2="450.9663" y1="280.3906" y2="280.3906"/><text fill="#000000" font-family="sans-serif" font-size="13" lengthAdjust="spacing" textLength="149.8936" x="252.0439" y="260.1919">POST /api/fridge/image</text><text fill="#000000" font-family="sans-serif" font-size="13" lengthAdjust="spacing" textLength="187.9224" x="252.0439" y="275.3247">(multipart/form-data: image)</text></g><g class="message" data-participant-1="Backend" data-participant-2="Gemini"><polygon fill="#181818" points="833.6074,320.6563,843.6074,324.6563,833.6074,328.6563,837.6074,324.6563" style="stroke:#181818;stroke-width:1;"/><line style="stroke:#181818;stroke-width:1;" x1="456.9663" x2="839.6074" y1="324.6563" y2="324.6563"/><text fill="#000000" font-family="sans-serif" font-size="13" lengthAdjust="spacing" textLength="364.6411" x="463.9663" y="304.4575">POST /v1beta/models/gemini-2.5-flash:generateContent</text><text fill="#000000" font-family="sans-serif" font-size="13" lengthAdjust="spacing" textLength="135.7129" x="463.9663" y="319.5903">(base64 image data)</text></g><g class="message" data-participant-1="Gemini" data-participant-2="Backend"><polygon fill="#181818" points="467.9663,364.9219,457.9663,368.9219,467.9663,372.9219,463.9663,368.9219" style="stroke:#181818;stroke-width:1;"/><line style="stroke:#181818;stroke-width:1;stroke-dasharray:2,2;" x1="461.9663" x2="844.6074" y1="368.9219" y2="368.9219"/><text fill="#000000" font-family="sans-serif" font-size="13" lengthAdjust="spacing" textLength="116.873" x="473.9663" y="348.7231">FoodIdentification</text><text fill="#000000" font-family="sans-serif" font-size="13" lengthAdjust="spacing" textLength="198.6563" x="473.9663" y="363.856">(food name, confidence score)</text></g><path d="M10,383.9219 L74.4429,383.9219 L74.4429,391.0547 L64.4429,401.0547 L10,401.0547 L10,383.9219" fill="#EEEEEE" style="stroke:#000000;stroke-width:1.5;"/><rect fill="none" height="514.4609" style="stroke:#000000;stroke-width:1.5;" width="1115.6128" x="10" y="383.9219"/><text fill="#000000" font-family="sans-serif" font-size="13" font-weight="bold" lengthAdjust="spacing" textLength="19.4429" x="25" y="396.9888">alt</text><text fill="#000000" font-family="sans-serif" font-size="11" font-weight="bold" lengthAdjust="spacing" textLength="196.8882" x="89.4429" y="396.1323">[High confidence identification]</text><g class="message" data-participant-1="Backend" data-participant-2="OpenFood"><polygon fill="#181818" points="954.5205,418.1875,964.5205,422.1875,954.5205,426.1875,958.5205,422.1875" style="stroke:#181818;stroke-width:1;"/><line style="stroke:#181818;stroke-width:1;" x1="456.9663" x2="960.5205" y1="422.1875" y2="422.1875"/><text fill="#000000" font-family="sans-serif" font-size="13" lengthAdjust="spacing" textLength="248.3013" x="463.9663" y="417.1216">GET /api/v0/product/{foodName}.json</text></g><g class="message" data-participant-1="OpenFood" data-participant-2="Backend"><polygon fill="#181818" points="467.9663,462.4531,457.9663,466.4531,467.9663,470.4531,463.9663,466.4531" style="stroke:#181818;stroke-width:1;"/><line style="stroke:#181818;stroke-width:1;stroke-dasharray:2,2;" x1="461.9663" x2="965.5205" y1="466.4531" y2="466.4531"/><text fill="#000000" font-family="sans-serif" font-size="13" lengthAdjust="spacing" textLength="101.9116" x="473.9663" y="446.2544">Nutritional data</text><text fill="#000000" font-family="sans-serif" font-size="13" lengthAdjust="spacing" textLength="132.1772" x="473.9663" y="461.3872">(nutrients, shelf life)</text></g><g class="message" data-participant-1="Backend" data-participant-2="DB"><polygon fill="#181818" points="1066.9355,506.7188,1076.9355,510.7188,1066.9355,514.7188,1070.9355,510.7188" style="stroke:#181818;stroke-width:1;"/><line style="stroke:#181818;stroke-width:1;" x1="456.9663" x2="1072.9355" y1="510.7188" y2="510.7188"/><text fill="#000000" font-family="sans-serif" font-size="13" lengthAdjust="spacing" textLength="157.4409" x="463.9663" y="490.52">FoodType.findByName()</text><text fill="#000000" font-family="sans-serif" font-size="13" lengthAdjust="spacing" textLength="157.6377" x="463.9663" y="505.6528">or create new FoodType</text></g><g class="message" data-participant-1="DB" data-participant-2="Backend"><polygon fill="#181818" points="467.9663,535.8516,457.9663,539.8516,467.9663,543.8516,463.9663,539.8516" style="stroke:#181818;stroke-width:1;"/><line style="stroke:#181818;stroke-width:1;stroke-dasharray:2,2;" x1="461.9663" x2="1077.9355" y1="539.8516" y2="539.8516"/><text fill="#000000" font-family="sans-serif" font-size="13" lengthAdjust="spacing" textLength="133.2437" x="473.9663" y="534.7856">FoodType document</text></g><g class="message" data-participant-1="Backend" data-participant-2="DB"><polygon fill="#181818" points="1066.9355,580.1172,1076.9355,584.1172,1066.9355,588.1172,1070.9355,584.1172" style="stroke:#181818;stroke-width:1;"/><line style="stroke:#181818;stroke-width:1;" x1="456.9663" x2="1072.9355" y1="584.1172" y2="584.1172"/><text fill="#000000" font-family="sans-serif" font-size="13" lengthAdjust="spacing" textLength="117.0571" x="463.9663" y="563.9185">FoodItem.create()</text><text fill="#000000" font-family="sans-serif" font-size="13" lengthAdjust="spacing" textLength="324.0415" x="463.9663" y="579.0513">(userId, typeId, expirationDate, percentLeft=100)</text></g><g class="message" data-participant-1="DB" data-participant-2="Backend"><polygon fill="#181818" points="467.9663,609.25,457.9663,613.25,467.9663,617.25,463.9663,613.25" style="stroke:#181818;stroke-width:1;"/><line style="stroke:#181818;stroke-width:1;stroke-dasharray:2,2;" x1="461.9663" x2="1077.9355" y1="613.25" y2="613.25"/><text fill="#000000" font-family="sans-serif" font-size="13" lengthAdjust="spacing" textLength="117.0952" x="473.9663" y="608.1841">Created FoodItem</text></g><g class="message" data-participant-1="Backend" data-participant-2="Frontend"><polygon fill="#181818" points="256.0439,653.5156,246.0439,657.5156,256.0439,661.5156,252.0439,657.5156" style="stroke:#181818;stroke-width:1;"/><line style="stroke:#181818;stroke-width:1;stroke-dasharray:2,2;" x1="250.0439" x2="455.9663" y1="657.5156" y2="657.5156"/><text fill="#000000" font-family="sans-serif" font-size="13" lengthAdjust="spacing" textLength="47.7026" x="262.0439" y="637.3169">200 OK</text><text fill="#000000" font-family="sans-serif" font-size="13" lengthAdjust="spacing" textLength="149.6841" x="262.0439" y="652.4497">FridgeItem with details</text></g><g class="message" data-participant-1="Frontend" data-participant-2="User"><polygon fill="#181818" points="49.9551,682.6484,39.9551,686.6484,49.9551,690.6484,45.9551,686.6484" style="stroke:#181818;stroke-width:1;"/><line style="stroke:#181818;stroke-width:1;stroke-dasharray:2,2;" x1="43.9551" x2="244.0439" y1="686.6484" y2="686.6484"/><text fill="#000000" font-family="sans-serif" font-size="13" lengthAdjust="spacing" textLength="182.0889" x="55.9551" y="681.5825">Display confirmation screen</text></g><g class="message" data-participant-1="User" data-participant-2="Frontend"><polygon fill="#181818" points="233.0439,711.7813,243.0439,715.7813,233.0439,719.7813,237.0439,715.7813" style="stroke:#181818;stroke-width:1;"/><line style="stroke:#181818;stroke-width:1;" x1="38.9551" x2="239.0439" y1="715.7813" y2="715.7813"/><text fill="#000000" font-family="sans-serif" font-size="13" lengthAdjust="spacing" textLength="105.3076" x="45.9551" y="710.7153">Clicks "Confirm"</text></g><g class="message" data-participant-1="Frontend" data-participant-2="Frontend"><line style="stroke:#181818;stroke-width:1;" x1="245.0439" x2="287.0439" y1="744.9141" y2="744.9141"/><line style="stroke:#181818;stroke-width:1;" x1="287.0439" x2="287.0439" y1="744.9141" y2="757.9141"/><line style="stroke:#181818;stroke-width:1;" x1="246.0439" x2="287.0439" y1="757.9141" y2="757.9141"/><polygon fill="#181818" points="256.0439,753.9141,246.0439,757.9141,256.0439,761.9141,252.0439,757.9141" style="stroke:#181818;stroke-width:1;"/><text fill="#000000" font-family="sans-serif" font-size="13" lengthAdjust="spacing" textLength="159.7388" x="252.0439" y="739.8481">Navigate to main screen</text></g><g class="message" data-participant-1="Frontend" data-participant-2="User"><polygon fill="#181818" points="49.9551,783.0469,39.9551,787.0469,49.9551,791.0469,45.9551,787.0469" style="stroke:#181818;stroke-width:1;"/><line style="stroke:#181818;stroke-width:1;stroke-dasharray:2,2;" x1="43.9551" x2="244.0439" y1="787.0469" y2="787.0469"/><text fill="#000000" font-family="sans-serif" font-size="13" lengthAdjust="spacing" textLength="158.6597" x="55.9551" y="781.981">Show updated fridge list</text></g><line style="stroke:#000000;stroke-width:1;stroke-dasharray:2,2;" x1="10" x2="1125.6128" y1="796.0469" y2="796.0469"/><text fill="#000000" font-family="sans-serif" font-size="11" font-weight="bold" lengthAdjust="spacing" textLength="179.1152" x="15" y="806.2573">[Low confidence or not food]</text><g class="message" data-participant-1="Backend" data-participant-2="Frontend"><polygon fill="#181818" points="256.0439,842.1172,246.0439,846.1172,256.0439,850.1172,252.0439,846.1172" style="stroke:#181818;stroke-width:1;"/><line style="stroke:#181818;stroke-width:1;stroke-dasharray:2,2;" x1="250.0439" x2="455.9663" y1="846.1172" y2="846.1172"/><text fill="#000000" font-family="sans-serif" font-size="13" lengthAdjust="spacing" textLength="61.147" x="262.0439" y="825.9185">400 Error</text><text fill="#000000" font-family="sans-serif" font-size="13" lengthAdjust="spacing" textLength="178.1152" x="262.0439" y="841.0513">"Cannot identify food item"</text></g><g class="message" data-participant-1="Frontend" data-participant-2="User"><polygon fill="#181818" points="49.9551,886.3828,39.9551,890.3828,49.9551,894.3828,45.9551,890.3828" style="stroke:#181818;stroke-width:1;"/><line style="stroke:#181818;stroke-width:1;stroke-dasharray:2,2;" x1="43.9551" x2="244.0439" y1="890.3828" y2="890.3828"/><text fill="#000000" font-family="sans-serif" font-size="13" lengthAdjust="spacing" textLength="88.1689" x="55.9551" y="870.1841">Display error,</text><text fill="#000000" font-family="sans-serif" font-size="13" lengthAdjust="spacing" textLength="166.3149" x="55.9551" y="885.3169">offer alternative methods</text></g><!--SRC=[XLJ1Rjim3BtxAmYV6Y29qwBR8S06D4dJ1UlQ0krkkQWIRMkr9KDIaWN3_dsaxBHnssqvDAX8llVuI2ReK25yzmXpGNzEft1j2rXQgs2h1QngKM2I21ciuooNDC85BNKZJ81qwQm9QDJQd5mOvQnMWnI4XyDxFticv5ERVFcpSUXzczmzztEliDP6myNTAkQq__PJRXiqhT8bwVDhSqZc0BydIWJno6sbtwmfx68MmujPad0hCFhyB7GAzrWXeK1weLH4JTT660MojDQZ1yrEW6s2jYOvbFKXcDU353KwyGx3WtWYdAQqmOBD8MVbEc3TG-lCcCBTxVq3PABHMUwqAZ2B0iYxUbC5pKPakNNrY7kSjke6ITALCr9hsG5eU_g8GMIrLLZvh8YnqTdumoYlX2-d1HeI7N0UbGIYOTy-ddTjCyaWwMOoEfR9JgqKbUXSIy7cK6ripP0FGv3Mv9hY4i5BwrYZg09yqKLv7DCzY0JeSzJAOQ1JkBhiJDbEiiPPjP4X-yLqDyJsU_p3TyM7YhxOcqrmcWb45LiYgOQVYDiFmPTOvL3fd4M-Kh2OjQq-x1iSvzgesPuPJmPhGuSX7P9tO73td1G15hEtPd4Gb9MRcbZ_ohEYlHYtiCnnig5jMgaX1AhcR_pPQ1UzMb3A41fqal2kCG-VJYUJmRlqyuYddWbUiVUMzMmoWTklQxECoyVPiDEX14LRf2iVAr_sbafvtwUmqBwfnBuThQkZGXgyGspdylOgvfMMJtHsyxOYVOLyd7eZjhfWe-c0Qg5xmEzekI_j3ZQDYZstHqJJzMGwdG3IxzpkU0DfZCQ6U9N_iEMSRBbqphgrIUV2S4MtklkNWqx_vmuomf1M9y_93he7T8QisYBK64ghV49rVm00]--></g></svg>