<svg xmlns="http://www.w3.org/2000/svg" xmlns:xlink="http://www.w3.org/1999/xlink" contentStyleType="text/css" data-diagram-type="DESCRIPTION" height="1064px" preserveAspectRatio="none" style="width:642px;height:1064px;background:#FFFFFF;" version="1.1" viewBox="0 0 642 1064" width="642px" zoomAndPan="magnify"><defs/><g><!--cluster Virtual Fridge App--><g class="cluster" data-entity="Virtual Fridge App" data-source-line="6" data-uid="ent0003" id="cluster_Virtual Fridge App"><rect fill="#FFFFFF" height="1046" rx="2.5" ry="2.5" style="stroke:#000000;stroke-width:1;" width="260.71" x="151.91" y="12"/><text fill="#000000" font-family="Verdana" font-size="14" font-style="italic" lengthAdjust="spacing" textLength="69.3369" x="247.5965" y="26.9951">&#171;System&#187;</text><text fill="#000000" font-family="Verdana" font-size="14" font-weight="bold" lengthAdjust="spacing" textLength="144.874" x="209.828" y="43.292">Virtual Fridge App</text></g><!--entity signUp--><g class="entity" data-entity="signUp" data-source-line="8" data-uid="ent0004" id="entity_signUp"><ellipse cx="282.259" cy="742.9998" fill="#FFFFFF" rx="84.899" ry="19.3798" style="stroke:#000000;stroke-width:1;"/><text fill="#000000" font-family="Verdana" font-size="14" lengthAdjust="spacing" textLength="142.0918" x="211.2131" y="747.6482">Sign Up with Google</text></g><!--entity signIn--><g class="entity" data-entity="signIn" data-source-line="9" data-uid="ent0005" id="entity_signIn"><ellipse cx="282.264" cy="816.0008" fill="#FFFFFF" rx="82.254" ry="18.8508" style="stroke:#000000;stroke-width:1;"/><text fill="#000000" font-family="Verdana" font-size="14" lengthAdjust="spacing" textLength="135.96" x="214.2841" y="820.6492">Sign In with Google</text></g><!--entity signOut--><g class="entity" data-entity="signOut" data-source-line="10" data-uid="ent0006" id="entity_signOut"><ellipse cx="282.2567" cy="884.0036" fill="#FFFFFF" rx="45.6867" ry="14.5236" style="stroke:#000000;stroke-width:1;"/><text fill="#000000" font-family="Verdana" font-size="14" lengthAdjust="spacing" textLength="60.3682" x="252.0727" y="888.6521">Sign Out</text></g><!--entity deleteAccount--><g class="entity" data-entity="deleteAccount" data-source-line="11" data-uid="ent0007" id="entity_deleteAccount"><ellipse cx="282.2553" cy="949.9971" fill="#FFFFFF" rx="70.3353" ry="16.4671" style="stroke:#000000;stroke-width:1;"/><text fill="#000000" font-family="Verdana" font-size="14" lengthAdjust="spacing" textLength="107.2217" x="228.6445" y="954.6455">Delete Account</text></g><!--entity logFood--><g class="entity" data-entity="logFood" data-source-line="14" data-uid="ent0008" id="entity_logFood"><ellipse cx="282.2639" cy="167.0036" fill="#FFFFFF" rx="48.0939" ry="14.5236" style="stroke:#000000;stroke-width:1;"/><text fill="#000000" font-family="Verdana" font-size="14" lengthAdjust="spacing" textLength="63.7725" x="250.3777" y="171.6521">Log Food</text></g><!--entity logBarcode--><g class="entity" data-entity="logBarcode" data-source-line="15" data-uid="ent0009" id="entity_logBarcode"><ellipse cx="282.2582" cy="493.9996" fill="#FFFFFF" rx="88.8482" ry="20.1696" style="stroke:#000000;stroke-width:1;"/><text fill="#000000" font-family="Verdana" font-size="14" lengthAdjust="spacing" textLength="151.1289" x="206.6937" y="498.6481">Log Food via Barcode</text></g><!--entity logImage--><g class="entity" data-entity="logImage" data-source-line="16" data-uid="ent0010" id="entity_logImage"><ellipse cx="282.2577" cy="82.0035" fill="#FFFFFF" rx="82.8177" ry="18.9635" style="stroke:#000000;stroke-width:1;"/><text fill="#000000" font-family="Verdana" font-size="14" lengthAdjust="spacing" textLength="137.2725" x="213.6214" y="86.652">Log Food via Image</text></g><!--entity viewInventory--><g class="entity" data-entity="viewInventory" data-source-line="20" data-uid="ent0011" id="entity_viewInventory"><ellipse cx="282.2641" cy="326.0008" fill="#FFFFFF" rx="85.4541" ry="19.4908" style="stroke:#000000;stroke-width:1;"/><text fill="#000000" font-family="Verdana" font-size="14" lengthAdjust="spacing" textLength="143.3701" x="210.579" y="330.6493">View Food Inventory</text></g><!--entity sortExp--><g class="entity" data-entity="sortExp" data-source-line="21" data-uid="ent0012" id="entity_sortExp"><ellipse cx="282.2579" cy="417.9996" fill="#FFFFFF" rx="94.4479" ry="21.2896" style="stroke:#000000;stroke-width:1;"/><text fill="#000000" font-family="Verdana" font-size="14" lengthAdjust="spacing" textLength="163.7412" x="200.3873" y="422.648">Sort by Expiration Date</text></g><!--entity sortAdded--><g class="entity" data-entity="sortAdded" data-source-line="22" data-uid="ent0013" id="entity_sortAdded"><ellipse cx="282.2594" cy="235.9959" fill="#FFFFFF" rx="82.9294" ry="18.9859" style="stroke:#000000;stroke-width:1;"/><text fill="#000000" font-family="Verdana" font-size="14" lengthAdjust="spacing" textLength="137.5322" x="213.4933" y="240.6443">Sort by Added Date</text></g><!--entity genRecipes--><g class="entity" data-entity="genRecipes" data-source-line="25" data-uid="ent0014" id="entity_genRecipes"><ellipse cx="282.2639" cy="574.0008" fill="#FFFFFF" rx="114.3539" ry="25.2708" style="stroke:#000000;stroke-width:1;"/><text fill="#000000" font-family="Verdana" font-size="14" lengthAdjust="spacing" textLength="207.2656" x="178.6311" y="578.6492">Generate Recipe Suggestions</text></g><!--entity viewRecipe--><g class="entity" data-entity="viewRecipe" data-source-line="26" data-uid="ent0015" id="entity_viewRecipe"><ellipse cx="282.2602" cy="670" fill="#FFFFFF" rx="83.3002" ry="19.06" style="stroke:#000000;stroke-width:1;"/><text fill="#000000" font-family="Verdana" font-size="14" lengthAdjust="spacing" textLength="138.3936" x="213.0634" y="674.6485">View Recipe Details</text></g><!--entity viewNutrition--><g class="entity" data-entity="viewNutrition" data-source-line="27" data-uid="ent0016" id="entity_viewNutrition"><ellipse cx="282.2595" cy="1022.0019" fill="#FFFFFF" rx="89.8095" ry="20.3619" style="stroke:#000000;stroke-width:1;"/><text fill="#000000" font-family="Verdana" font-size="14" lengthAdjust="spacing" textLength="153.3096" x="205.6047" y="1026.6503">View Nutritional Facts</text></g><!--entity User--><g class="entity" data-entity="User" data-source-line="4" data-uid="ent0002" id="entity_User"><ellipse cx="26.9551" cy="713.35" fill="#FFFFFF" rx="8" ry="8" style="stroke:#000000;stroke-width:1;"/><path d="M26.9551,721.35 L26.9551,748.35 M13.9551,729.35 L39.9551,729.35 M26.9551,748.35 L13.9551,763.35 M26.9551,748.35 L39.9551,763.35" fill="none" style="stroke:#000000;stroke-width:1;"/><text fill="#000000" font-family="Verdana" font-size="14" lengthAdjust="spacing" textLength="31.9102" x="11" y="778.3451">User</text></g><!--entity googleAuth--><g class="entity" data-entity="googleAuth" data-source-line="39" data-uid="ent0024" id="entity_googleAuth"><rect fill="#FFFFFF" height="36.2969" rx="2.5" ry="2.5" style="stroke:#000000;stroke-width:1;" width="176.5908" x="459.62" y="768.85"/><text fill="#000000" font-family="Verdana" font-size="14" lengthAdjust="spacing" textLength="156.5908" x="469.62" y="791.8451">Google Authentication</text></g><!--entity barcodeApi--><g class="entity" data-entity="barcodeApi" data-source-line="40" data-uid="ent0025" id="entity_barcodeApi"><rect fill="#FFFFFF" height="36.2969" rx="2.5" ry="2.5" style="stroke:#000000;stroke-width:1;" width="104.3008" x="495.76" y="475.85"/><text fill="#000000" font-family="Verdana" font-size="14" lengthAdjust="spacing" textLength="84.3008" x="505.76" y="498.8451">Barcode API</text></g><!--entity recipeApi--><g class="entity" data-entity="recipeApi" data-source-line="41" data-uid="ent0026" id="entity_recipeApi"><rect fill="#FFFFFF" height="36.2969" rx="2.5" ry="2.5" style="stroke:#000000;stroke-width:1;" width="94.0264" x="500.9" y="616.85"/><text fill="#000000" font-family="Verdana" font-size="14" lengthAdjust="spacing" textLength="74.0264" x="510.9" y="639.8451">Recipe API</text></g><!--entity nutritionApi--><g class="entity" data-entity="nutritionApi" data-source-line="42" data-uid="ent0027" id="entity_nutritionApi"><rect fill="#FFFFFF" height="36.2969" rx="2.5" ry="2.5" style="stroke:#000000;stroke-width:1;" width="107.8965" x="493.97" y="1003.85"/><text fill="#000000" font-family="Verdana" font-size="14" lengthAdjust="spacing" textLength="87.8965" x="503.97" y="1026.8451">Nutrition API</text></g><!--reverse link logBarcode to logFood--><g class="link" data-entity-1="logBarcode" data-entity-2="logFood" data-source-line="30" data-uid="lnk18" id="link_logBarcode_logFood"><path d="M187.4222,492.0819 C153.5722,486.7819 123.96,475.15 102.55,447.5 C96.8,440.06 71.66,276.46 143.91,200 C166.81,175.77 204.03,167.92 234.1,165.91" fill="none" id="logBarcode-backto-logFood" style="stroke:#000000;stroke-width:1;"/><polygon fill="#000000" points="193.35,493.01,185.0771,487.666,188.4102,492.2366,183.8396,495.5697,193.35,493.01" style="stroke:#000000;stroke-width:1;"/><text fill="#000000" font-family="Verdana" font-size="13" lengthAdjust="spacing" textLength="61.1851" x="73.91" y="443.5669">&#171;extend&#187;</text></g><!--link logFood to logImage--><g class="link" data-entity-1="logFood" data-entity-2="logImage" data-source-line="31" data-uid="lnk19" id="link_logFood_logImage"><path d="M282.26,152.19 C282.26,138.12 282.26,122.85 282.26,107.42" fill="none" id="logFood-to-logImage" style="stroke:#000000;stroke-width:1;"/><polygon fill="#000000" points="282.26,101.42,278.26,110.42,282.26,106.42,286.26,110.42,282.26,101.42" style="stroke:#000000;stroke-width:1;"/><text fill="#000000" font-family="Verdana" font-size="13" lengthAdjust="spacing" textLength="61.1851" x="240.26" y="131.2869">&#171;extend&#187;</text></g><!--reverse link sortExp to viewInventory--><g class="link" data-entity-1="sortExp" data-entity-2="viewInventory" data-source-line="33" data-uid="lnk21" id="link_sortExp_viewInventory"><path d="M282.26,390.66 C282.26,375.37 282.26,360.93 282.26,345.96" fill="none" id="sortExp-backto-viewInventory" style="stroke:#000000;stroke-width:1;"/><polygon fill="#000000" points="282.26,396.66,286.26,387.66,282.26,391.66,278.26,387.66,282.26,396.66" style="stroke:#000000;stroke-width:1;"/><text fill="#000000" font-family="Verdana" font-size="13" lengthAdjust="spacing" textLength="61.1851" x="240.26" y="375.6669">&#171;extend&#187;</text></g><!--link viewInventory to sortAdded--><g class="link" data-entity-1="viewInventory" data-entity-2="sortAdded" data-source-line="34" data-uid="lnk22" id="link_viewInventory_sortAdded"><path d="M282.26,306.03 C282.26,290.9 282.26,276.25 282.26,261.3" fill="none" id="viewInventory-to-sortAdded" style="stroke:#000000;stroke-width:1;"/><polygon fill="#000000" points="282.26,255.3,278.26,264.3,282.26,260.3,286.26,264.3,282.26,255.3" style="stroke:#000000;stroke-width:1;"/><text fill="#000000" font-family="Verdana" font-size="13" lengthAdjust="spacing" textLength="61.1851" x="240.26" y="285.3169">&#171;extend&#187;</text></g><!--link genRecipes to viewRecipe--><g class="link" data-entity-1="genRecipes" data-entity-2="viewRecipe" data-source-line="35" data-uid="lnk23" id="link_genRecipes_viewRecipe"><path d="M282.26,599.59 C282.26,615.6 282.26,629.89 282.26,644.57" fill="none" id="genRecipes-to-viewRecipe" style="stroke:#000000;stroke-width:1;"/><polygon fill="#000000" points="282.26,650.57,286.26,641.57,282.26,645.57,278.26,641.57,282.26,650.57" style="stroke:#000000;stroke-width:1;"/><text fill="#000000" font-family="Verdana" font-size="13" lengthAdjust="spacing" textLength="61.1851" x="240.26" y="629.6769">&#171;extend&#187;</text></g><!--link User to signUp--><g class="link" data-entity-1="User" data-entity-2="signUp" data-source-line="45" data-uid="lnk28" id="link_User_signUp"><path d="M43.04,743 C72.81,743 141.07,743 196.92,743" fill="none" id="User-signUp" style="stroke:#000000;stroke-width:1;"/></g><!--link User to signIn--><g class="link" data-entity-1="User" data-entity-2="signIn" data-source-line="46" data-uid="lnk29" id="link_User_signIn"><path d="M43.26,748.17 C65.37,755.57 107.59,769.45 143.91,780 C170.54,787.73 200.29,795.62 225.28,802.04" fill="none" id="User-signIn" style="stroke:#000000;stroke-width:1;"/></g><!--link User to signOut--><g class="link" data-entity-1="User" data-entity-2="signOut" data-source-line="47" data-uid="lnk30" id="link_User_signOut"><path d="M43.31,762.86 C63.59,787.67 101.71,829.55 143.91,852 C173.2,867.58 209.96,875.63 238.08,879.76" fill="none" id="User-signOut" style="stroke:#000000;stroke-width:1;"/></g><!--link User to deleteAccount--><g class="link" data-entity-1="User" data-entity-2="deleteAccount" data-source-line="48" data-uid="lnk31" id="link_User_deleteAccount"><path d="M38.77,781.98 C46.14,804.36 57.41,832.24 72.91,854 C97.21,888.12 106.76,896.65 143.91,916 C167.77,928.43 196.34,936.44 221.24,941.55" fill="none" id="User-deleteAccount" style="stroke:#000000;stroke-width:1;"/></g><!--link User to logFood--><g class="link" data-entity-1="User" data-entity-2="logFood" data-source-line="49" data-uid="lnk32" id="link_User_logFood"><path d="M29.13,703.95 C31.98,635.31 41.52,489.05 72.91,370 C93.78,290.83 81.57,253.09 143.91,200 C168.74,178.85 204.85,170.77 233.81,167.89" fill="none" id="User-logFood" style="stroke:#000000;stroke-width:1;"/></g><!--link User to viewInventory--><g class="link" data-entity-1="User" data-entity-2="viewInventory" data-source-line="50" data-uid="lnk33" id="link_User_viewInventory"><path d="M29.29,703.95 C32.52,628.84 42.83,467.64 72.91,422 C104.2,374.53 165.38,350.15 213.38,337.87" fill="none" id="User-viewInventory" style="stroke:#000000;stroke-width:1;"/></g><!--link User to genRecipes--><g class="link" data-entity-1="User" data-entity-2="genRecipes" data-source-line="51" data-uid="lnk34" id="link_User_genRecipes"><path d="M43.34,718.35 C51.34,706.61 61.76,692.81 72.91,682 C114.3,641.87 173.59,613.11 218.35,595.41" fill="none" id="User-genRecipes" style="stroke:#000000;stroke-width:1;"/></g><!--link User to viewRecipe--><g class="link" data-entity-1="User" data-entity-2="viewRecipe" data-source-line="52" data-uid="lnk35" id="link_User_viewRecipe"><path d="M43.18,732.64 C51.63,727.3 62.5,721.08 72.91,717 C117.45,699.56 170.01,687.77 211.2,680.35" fill="none" id="User-viewRecipe" style="stroke:#000000;stroke-width:1;"/></g><!--link User to viewNutrition--><g class="link" data-entity-1="User" data-entity-2="viewNutrition" data-source-line="53" data-uid="lnk36" id="link_User_viewNutrition"><path d="M31.3,782.1 C35.97,819.74 47.03,877.11 72.91,920 C94.86,956.37 106.66,963.57 143.91,984 C164.52,995.3 188.75,1003.45 211.07,1009.23" fill="none" id="User-viewNutrition" style="stroke:#000000;stroke-width:1;"/></g><!--link signUp to googleAuth--><g class="link" data-entity-1="signUp" data-entity-2="googleAuth" data-source-line="56" data-uid="lnk37" id="link_signUp_googleAuth"><path d="M351.85,754.45 C384.65,759.92 424.3,766.54 459.26,772.37" fill="none" id="signUp-googleAuth" style="stroke:#000000;stroke-width:1;"/></g><!--link signIn to googleAuth--><g class="link" data-entity-1="signIn" data-entity-2="googleAuth" data-source-line="57" data-uid="lnk38" id="link_signIn_googleAuth"><path d="M357.06,807.88 C388.89,804.38 426.38,800.26 459.59,796.61" fill="none" id="signIn-googleAuth" style="stroke:#000000;stroke-width:1;"/></g><!--link logBarcode to barcodeApi--><g class="link" data-entity-1="logBarcode" data-entity-2="barcodeApi" data-source-line="58" data-uid="lnk39" id="link_logBarcode_barcodeApi"><path d="M371.42,494 C412.59,494 460.16,494 495.38,494" fill="none" id="logBarcode-barcodeApi" style="stroke:#000000;stroke-width:1;"/></g><!--link genRecipes to recipeApi--><g class="link" data-entity-1="genRecipes" data-entity-2="recipeApi" data-source-line="59" data-uid="lnk40" id="link_genRecipes_recipeApi"><path d="M362.73,592.38 C407.76,602.8 462.52,615.47 500.58,624.28" fill="none" id="genRecipes-recipeApi" style="stroke:#000000;stroke-width:1;"/></g><!--link viewRecipe to recipeApi--><g class="link" data-entity-1="viewRecipe" data-entity-2="recipeApi" data-source-line="60" data-uid="lnk41" id="link_viewRecipe_recipeApi"><path d="M355.31,660.44 C401.66,654.28 460.51,646.47 500.69,641.14" fill="none" id="viewRecipe-recipeApi" style="stroke:#000000;stroke-width:1;"/></g><!--link viewNutrition to nutritionApi--><g class="link" data-entity-1="viewNutrition" data-entity-2="nutritionApi" data-source-line="61" data-uid="lnk42" id="link_viewNutrition_nutritionApi"><path d="M372.52,1022 C412.71,1022 458.81,1022 493.51,1022" fill="none" id="viewNutrition-nutritionApi" style="stroke:#000000;stroke-width:1;"/></g><!--SRC=[VPJDRjmW4CVlFCNKXwOz-0MgT2LNcwGhfMsKLN8dzfH5ye85U9Eewhjtm1Y3DwbFy9-V1-Q3-U0EU4GOUYuLw_6t0wV1I75mq4c3hPDQCSPRfmqyM3ICUP4hqIDKZzAuaVTmRMGd49fXgE3o4lQlrk4HDXlumm0ku2jzq8nqadAovTvbqCWuMcovHR1Ig8S1k8LgJqkWzRDq1xZHcawgLkHEBIIj_qF-6js2qYQtTzYZmwPjzQWcQXiKY5B5bjlVQY6a4d2jTRU-Uwz5aBq7uW9JbVPltBIwmmA1a-GG3IjyT-JY3JZ85Rk00hwLrfspTmRh7voEzEOyaaU9p-z5SYBRJfseJDgy1f-Udj2a5odMnbsznBhH6fvUWVRIJ4NUSeThlEawx8eV9cLYbtlUOoi7jF0HVexEoBUQHg2QAU_l1XNImHX_XVqe15h_ewrMGKOYHHZtMtHSzcVqSe7qGv9yzzFhiENL-n2_FSZ1mgUZFb5ywLbPsU7dEPIvTsh_zEfDtYjVw2dXYqFLRJOv6RnCwDGd1KXaMSNPyrogbTiLF3jVAhNYivmdECjeGVzbB6RaYYJZSzNSxIWZzz_tCGFBC17X_VefCHKpR5TJeyhufobDpI03FsUD3iWf4wurG_6IAqRDjPonfTw1d8FmumzQhTGq5UqKGL3hEawmOhjJnPR6JzeNioUfiSPfNnGdgKi92d3I2Ya5acAWWCv3YCFNkqv5O77EbcBMdcHOIi3ojgYNhBEiDSxq9Sraoelm3m00]--></g></svg>