<svg xmlns="http://www.w3.org/2000/svg" xmlns:xlink="http://www.w3.org/1999/xlink" contentStyleType="text/css" data-diagram-type="DESCRIPTION" height="1063px" preserveAspectRatio="none" style="width:642px;height:1063px;background:#FFFFFF;" version="1.1" viewBox="0 0 642 1063" width="642px" zoomAndPan="magnify"><defs/><g><!--cluster Virtual Fridge App--><g class="cluster" data-entity="Virtual Fridge App" data-source-line="6" data-uid="ent0003" id="cluster_Virtual Fridge App"><rect fill="#FFFFFF" height="1045" rx="2.5" ry="2.5" style="stroke:#000000;stroke-width:1;" width="260.71" x="151.91" y="12"/><text fill="#000000" font-family="Verdana" font-size="14" font-style="italic" lengthAdjust="spacing" textLength="69.3369" x="247.5965" y="26.9951">&#171;System&#187;</text><text fill="#000000" font-family="Verdana" font-size="14" font-weight="bold" lengthAdjust="spacing" textLength="144.874" x="209.828" y="43.292">Virtual Fridge App</text></g><!--entity signUp--><g class="entity" data-entity="signUp" data-source-line="8" data-uid="ent0004" id="entity_signUp"><ellipse cx="282.259" cy="817.9998" fill="#FFFFFF" rx="84.899" ry="19.3798" style="stroke:#000000;stroke-width:1;"/><text fill="#000000" font-family="Verdana" font-size="14" lengthAdjust="spacing" textLength="142.0918" x="211.2131" y="822.6482">Sign Up with Google</text></g><!--entity signIn--><g class="entity" data-entity="signIn" data-source-line="9" data-uid="ent0005" id="entity_signIn"><ellipse cx="282.264" cy="891.0008" fill="#FFFFFF" rx="82.254" ry="18.8508" style="stroke:#000000;stroke-width:1;"/><text fill="#000000" font-family="Verdana" font-size="14" lengthAdjust="spacing" textLength="135.96" x="214.2841" y="895.6492">Sign In with Google</text></g><!--entity signOut--><g class="entity" data-entity="signOut" data-source-line="10" data-uid="ent0006" id="entity_signOut"><ellipse cx="282.2567" cy="959.0036" fill="#FFFFFF" rx="45.6867" ry="14.5236" style="stroke:#000000;stroke-width:1;"/><text fill="#000000" font-family="Verdana" font-size="14" lengthAdjust="spacing" textLength="60.3682" x="252.0727" y="963.6521">Sign Out</text></g><!--entity deleteAccount--><g class="entity" data-entity="deleteAccount" data-source-line="11" data-uid="ent0007" id="entity_deleteAccount"><ellipse cx="282.2553" cy="1024.9971" fill="#FFFFFF" rx="70.3353" ry="16.4671" style="stroke:#000000;stroke-width:1;"/><text fill="#000000" font-family="Verdana" font-size="14" lengthAdjust="spacing" textLength="107.2217" x="228.6445" y="1029.6455">Delete Account</text></g><!--entity logFood--><g class="entity" data-entity="logFood" data-source-line="14" data-uid="ent0008" id="entity_logFood"><ellipse cx="282.2639" cy="426.0036" fill="#FFFFFF" rx="48.0939" ry="14.5236" style="stroke:#000000;stroke-width:1;"/><text fill="#000000" font-family="Verdana" font-size="14" lengthAdjust="spacing" textLength="63.7725" x="250.3777" y="430.6521">Log Food</text></g><!--entity logBarcode--><g class="entity" data-entity="logBarcode" data-source-line="15" data-uid="ent0009" id="entity_logBarcode"><ellipse cx="282.2582" cy="339.9996" fill="#FFFFFF" rx="88.8482" ry="20.1696" style="stroke:#000000;stroke-width:1;"/><text fill="#000000" font-family="Verdana" font-size="14" lengthAdjust="spacing" textLength="151.1289" x="206.6937" y="344.6481">Log Food via Barcode</text></g><!--entity logImage--><g class="entity" data-entity="logImage" data-source-line="16" data-uid="ent0010" id="entity_logImage"><ellipse cx="282.2577" cy="570.0035" fill="#FFFFFF" rx="82.8177" ry="18.9635" style="stroke:#000000;stroke-width:1;"/><text fill="#000000" font-family="Verdana" font-size="14" lengthAdjust="spacing" textLength="137.2725" x="213.6214" y="574.652">Log Food via Image</text></g><!--entity viewInventory--><g class="entity" data-entity="viewInventory" data-source-line="20" data-uid="ent0011" id="entity_viewInventory"><ellipse cx="282.2641" cy="172.0008" fill="#FFFFFF" rx="85.4541" ry="19.4908" style="stroke:#000000;stroke-width:1;"/><text fill="#000000" font-family="Verdana" font-size="14" lengthAdjust="spacing" textLength="143.3701" x="210.579" y="176.6493">View Food Inventory</text></g><!--entity sortExp--><g class="entity" data-entity="sortExp" data-source-line="21" data-uid="ent0012" id="entity_sortExp"><ellipse cx="282.2579" cy="263.9996" fill="#FFFFFF" rx="94.4479" ry="21.2896" style="stroke:#000000;stroke-width:1;"/><text fill="#000000" font-family="Verdana" font-size="14" lengthAdjust="spacing" textLength="163.7412" x="200.3873" y="268.648">Sort by Expiration Date</text></g><!--entity sortAdded--><g class="entity" data-entity="sortAdded" data-source-line="22" data-uid="ent0013" id="entity_sortAdded"><ellipse cx="282.2594" cy="81.9959" fill="#FFFFFF" rx="82.9294" ry="18.9859" style="stroke:#000000;stroke-width:1;"/><text fill="#000000" font-family="Verdana" font-size="14" lengthAdjust="spacing" textLength="137.5322" x="213.4933" y="86.6443">Sort by Added Date</text></g><!--entity genRecipes--><g class="entity" data-entity="genRecipes" data-source-line="25" data-uid="ent0014" id="entity_genRecipes"><ellipse cx="282.2639" cy="649.0008" fill="#FFFFFF" rx="114.3539" ry="25.2708" style="stroke:#000000;stroke-width:1;"/><text fill="#000000" font-family="Verdana" font-size="14" lengthAdjust="spacing" textLength="207.2656" x="178.6311" y="653.6492">Generate Recipe Suggestions</text></g><!--entity viewRecipe--><g class="entity" data-entity="viewRecipe" data-source-line="26" data-uid="ent0015" id="entity_viewRecipe"><ellipse cx="282.2602" cy="745" fill="#FFFFFF" rx="83.3002" ry="19.06" style="stroke:#000000;stroke-width:1;"/><text fill="#000000" font-family="Verdana" font-size="14" lengthAdjust="spacing" textLength="138.3936" x="213.0634" y="749.6485">View Recipe Details</text></g><!--entity viewNutrition--><g class="entity" data-entity="viewNutrition" data-source-line="27" data-uid="ent0016" id="entity_viewNutrition"><ellipse cx="282.2595" cy="496.0019" fill="#FFFFFF" rx="89.8095" ry="20.3619" style="stroke:#000000;stroke-width:1;"/><text fill="#000000" font-family="Verdana" font-size="14" lengthAdjust="spacing" textLength="153.3096" x="205.6047" y="500.6503">View Nutritional Facts</text></g><!--entity User--><g class="entity" data-entity="User" data-source-line="4" data-uid="ent0002" id="entity_User"><ellipse cx="26.9551" cy="715.35" fill="#FFFFFF" rx="8" ry="8" style="stroke:#000000;stroke-width:1;"/><path d="M26.9551,723.35 L26.9551,750.35 M13.9551,731.35 L39.9551,731.35 M26.9551,750.35 L13.9551,765.35 M26.9551,750.35 L39.9551,765.35" fill="none" style="stroke:#000000;stroke-width:1;"/><text fill="#000000" font-family="Verdana" font-size="14" lengthAdjust="spacing" textLength="31.9102" x="11" y="780.3451">User</text></g><!--entity googleAuth--><g class="entity" data-entity="googleAuth" data-source-line="39" data-uid="ent0024" id="entity_googleAuth"><rect fill="#FFFFFF" height="36.2969" rx="2.5" ry="2.5" style="stroke:#000000;stroke-width:1;" width="176.5908" x="459.62" y="839.85"/><text fill="#000000" font-family="Verdana" font-size="14" lengthAdjust="spacing" textLength="156.5908" x="469.62" y="862.8451">Google Authentication</text></g><!--entity barcodeApi--><g class="entity" data-entity="barcodeApi" data-source-line="40" data-uid="ent0025" id="entity_barcodeApi"><rect fill="#FFFFFF" height="36.2969" rx="2.5" ry="2.5" style="stroke:#000000;stroke-width:1;" width="104.3008" x="495.76" y="321.85"/><text fill="#000000" font-family="Verdana" font-size="14" lengthAdjust="spacing" textLength="84.3008" x="505.76" y="344.8451">Barcode API</text></g><!--entity recipeApi--><g class="entity" data-entity="recipeApi" data-source-line="41" data-uid="ent0026" id="entity_recipeApi"><rect fill="#FFFFFF" height="36.2969" rx="2.5" ry="2.5" style="stroke:#000000;stroke-width:1;" width="126.1826" x="484.82" y="697.85"/><text fill="#000000" font-family="Verdana" font-size="14" lengthAdjust="spacing" textLength="106.1826" x="494.82" y="720.8451">TheMealDB API</text></g><!--entity nutritionApi--><g class="entity" data-entity="nutritionApi" data-source-line="42" data-uid="ent0027" id="entity_nutritionApi"><rect fill="#FFFFFF" height="36.2969" rx="2.5" ry="2.5" style="stroke:#000000;stroke-width:1;" width="155.1738" x="470.33" y="446.85"/><text fill="#000000" font-family="Verdana" font-size="14" lengthAdjust="spacing" textLength="135.1738" x="480.33" y="469.8451">OpenFoodFacts API</text></g><!--entity GeminiApi--><g class="entity" data-entity="GeminiApi" data-source-line="43" data-uid="ent0028" id="entity_GeminiApi"><rect fill="#FFFFFF" height="36.2969" rx="2.5" ry="2.5" style="stroke:#000000;stroke-width:1;" width="96.3506" x="499.74" y="599.85"/><text fill="#000000" font-family="Verdana" font-size="14" lengthAdjust="spacing" textLength="76.3506" x="509.74" y="622.8451">Gemini API</text></g><!--link logFood to logBarcode--><g class="link" data-entity-1="logFood" data-entity-2="logBarcode" data-source-line="30" data-uid="lnk17" id="link_logFood_logBarcode"><path d="M282.26,411.02 C282.26,397.06 282.26,382.13 282.26,366.61" fill="none" id="logFood-to-logBarcode" style="stroke:#000000;stroke-width:1;"/><polygon fill="#000000" points="282.26,360.61,278.26,369.61,282.26,365.61,286.26,369.61,282.26,360.61" style="stroke:#000000;stroke-width:1;"/><text fill="#000000" font-family="Verdana" font-size="13" lengthAdjust="spacing" textLength="61.1851" x="240.26" y="390.3869">&#171;extend&#187;</text></g><!--reverse link logImage to logFood--><g class="link" data-entity-1="logImage" data-entity-2="logFood" data-source-line="31" data-uid="lnk19" id="link_logImage_logFood"><path d="M208.6301,581.6079 C169.8901,583.8579 129.71,578.26 102.55,547.5 C77.16,518.73 78.14,506.95 143.91,458 C169.82,438.72 205.44,430.79 234.05,427.65" fill="none" id="logImage-backto-logFood" style="stroke:#000000;stroke-width:1;"/><polygon fill="#000000" points="214.62,581.26,205.4032,577.7886,209.6284,581.5499,205.8671,585.7751,214.62,581.26" style="stroke:#000000;stroke-width:1;"/><text fill="#000000" font-family="Verdana" font-size="13" lengthAdjust="spacing" textLength="61.1851" x="73.91" y="543.5669">&#171;extend&#187;</text></g><!--reverse link sortExp to viewInventory--><g class="link" data-entity-1="sortExp" data-entity-2="viewInventory" data-source-line="33" data-uid="lnk21" id="link_sortExp_viewInventory"><path d="M282.26,236.66 C282.26,221.37 282.26,206.93 282.26,191.96" fill="none" id="sortExp-backto-viewInventory" style="stroke:#000000;stroke-width:1;"/><polygon fill="#000000" points="282.26,242.66,286.26,233.66,282.26,237.66,278.26,233.66,282.26,242.66" style="stroke:#000000;stroke-width:1;"/><text fill="#000000" font-family="Verdana" font-size="13" lengthAdjust="spacing" textLength="61.1851" x="240.26" y="221.6669">&#171;extend&#187;</text></g><!--link viewInventory to sortAdded--><g class="link" data-entity-1="viewInventory" data-entity-2="sortAdded" data-source-line="34" data-uid="lnk22" id="link_viewInventory_sortAdded"><path d="M282.26,152.03 C282.26,136.9 282.26,122.25 282.26,107.3" fill="none" id="viewInventory-to-sortAdded" style="stroke:#000000;stroke-width:1;"/><polygon fill="#000000" points="282.26,101.3,278.26,110.3,282.26,106.3,286.26,110.3,282.26,101.3" style="stroke:#000000;stroke-width:1;"/><text fill="#000000" font-family="Verdana" font-size="13" lengthAdjust="spacing" textLength="61.1851" x="240.26" y="131.3169">&#171;extend&#187;</text></g><!--link genRecipes to viewRecipe--><g class="link" data-entity-1="genRecipes" data-entity-2="viewRecipe" data-source-line="35" data-uid="lnk23" id="link_genRecipes_viewRecipe"><path d="M282.26,674.59 C282.26,690.6 282.26,704.89 282.26,719.57" fill="none" id="genRecipes-to-viewRecipe" style="stroke:#000000;stroke-width:1;"/><polygon fill="#000000" points="282.26,725.57,286.26,716.57,282.26,720.57,278.26,716.57,282.26,725.57" style="stroke:#000000;stroke-width:1;"/><text fill="#000000" font-family="Verdana" font-size="13" lengthAdjust="spacing" textLength="61.1851" x="240.26" y="704.6769">&#171;extend&#187;</text></g><!--link User to signUp--><g class="link" data-entity-1="User" data-entity-2="signUp" data-source-line="47" data-uid="lnk29" id="link_User_signUp"><path d="M43.26,750.17 C65.37,757.57 107.59,771.45 143.91,782 C169.95,789.56 198.97,797.27 223.61,803.61" fill="none" id="User-signUp" style="stroke:#000000;stroke-width:1;"/></g><!--link User to signIn--><g class="link" data-entity-1="User" data-entity-2="signIn" data-source-line="48" data-uid="lnk30" id="link_User_signIn"><path d="M43.39,764.83 C63.75,789.63 101.96,831.66 143.91,855 C165.13,866.8 190.35,874.86 213.36,880.29" fill="none" id="User-signIn" style="stroke:#000000;stroke-width:1;"/></g><!--link User to signOut--><g class="link" data-entity-1="User" data-entity-2="signOut" data-source-line="49" data-uid="lnk31" id="link_User_signOut"><path d="M39.5,784.12 C47.06,806.28 58.27,833.9 72.91,856 C97.56,893.2 104.9,905.33 143.91,927 C172.91,943.11 209.69,951.13 237.89,955.12" fill="none" id="User-signOut" style="stroke:#000000;stroke-width:1;"/></g><!--link User to deleteAccount--><g class="link" data-entity-1="User" data-entity-2="deleteAccount" data-source-line="50" data-uid="lnk32" id="link_User_deleteAccount"><path d="M30.61,783.89 C34.78,823.03 45.49,883.9 72.91,929 C94.67,964.8 106.76,971.65 143.91,991 C167.77,1003.43 196.34,1011.44 221.24,1016.55" fill="none" id="User-deleteAccount" style="stroke:#000000;stroke-width:1;"/></g><!--link User to logFood--><g class="link" data-entity-1="User" data-entity-2="logFood" data-source-line="51" data-uid="lnk33" id="link_User_logFood"><path d="M29.81,705.94 C33.67,641.09 44.66,515.06 72.91,482 C112.45,435.72 185.74,425.63 234.01,424.44" fill="none" id="User-logFood" style="stroke:#000000;stroke-width:1;"/></g><!--link User to viewInventory--><g class="link" data-entity-1="User" data-entity-2="viewInventory" data-source-line="52" data-uid="lnk34" id="link_User_viewInventory"><path d="M31.49,705.91 C42.08,597.23 77.07,294.82 143.91,225 C163.09,204.97 190.68,192.39 216.11,184.56" fill="none" id="User-viewInventory" style="stroke:#000000;stroke-width:1;"/></g><!--link User to genRecipes--><g class="link" data-entity-1="User" data-entity-2="genRecipes" data-source-line="53" data-uid="lnk35" id="link_User_genRecipes"><path d="M43.36,735.06 C51.86,729.85 62.72,723.6 72.91,719 C117.42,698.89 169.51,681.39 210.47,668.92" fill="none" id="User-genRecipes" style="stroke:#000000;stroke-width:1;"/></g><!--link User to viewRecipe--><g class="link" data-entity-1="User" data-entity-2="viewRecipe" data-source-line="54" data-uid="lnk36" id="link_User_viewRecipe"><path d="M43.04,745 C73.13,745 142.54,745 198.72,745" fill="none" id="User-viewRecipe" style="stroke:#000000;stroke-width:1;"/></g><!--link User to viewNutrition--><g class="link" data-entity-1="User" data-entity-2="viewNutrition" data-source-line="55" data-uid="lnk37" id="link_User_viewNutrition"><path d="M30.49,706.19 C35.05,649.31 46.73,547.39 72.91,523 C107.41,490.87 160.18,484.3 203.98,485.67" fill="none" id="User-viewNutrition" style="stroke:#000000;stroke-width:1;"/></g><!--link signUp to googleAuth--><g class="link" data-entity-1="signUp" data-entity-2="googleAuth" data-source-line="58" data-uid="lnk38" id="link_signUp_googleAuth"><path d="M353.92,828.72 C386.41,833.65 425.27,839.54 459.57,844.75" fill="none" id="signUp-googleAuth" style="stroke:#000000;stroke-width:1;"/></g><!--link signIn to googleAuth--><g class="link" data-entity-1="signIn" data-entity-2="googleAuth" data-source-line="59" data-uid="lnk39" id="link_signIn_googleAuth"><path d="M355.31,881.98 C387.48,877.96 425.67,873.18 459.47,868.95" fill="none" id="signIn-googleAuth" style="stroke:#000000;stroke-width:1;"/></g><!--link logBarcode to barcodeApi--><g class="link" data-entity-1="logBarcode" data-entity-2="barcodeApi" data-source-line="60" data-uid="lnk40" id="link_logBarcode_barcodeApi"><path d="M371.42,340 C412.59,340 460.16,340 495.38,340" fill="none" id="logBarcode-barcodeApi" style="stroke:#000000;stroke-width:1;"/></g><!--link logBarcode to nutritionApi--><g class="link" data-entity-1="logBarcode" data-entity-2="nutritionApi" data-source-line="61" data-uid="lnk41" id="link_logBarcode_nutritionApi"><path d="M331.63,357.16 C358.26,367.06 391.69,380.26 420.62,394 C454.36,410.02 491.45,431.35 516.66,446.43" fill="none" id="logBarcode-nutritionApi" style="stroke:#000000;stroke-width:1;"/></g><!--link logFood to nutritionApi--><g class="link" data-entity-1="logFood" data-entity-2="nutritionApi" data-source-line="62" data-uid="lnk42" id="link_logFood_nutritionApi"><path d="M326.21,432.35 C365.02,438.09 423.08,446.68 469.9,453.61" fill="none" id="logFood-nutritionApi" style="stroke:#000000;stroke-width:1;"/></g><!--link logImage to nutritionApi--><g class="link" data-entity-1="logImage" data-entity-2="nutritionApi" data-source-line="63" data-uid="lnk43" id="link_logImage_nutritionApi"><path d="M344.8,557.26 C368.87,551.4 396.45,543.6 420.62,534 C455.45,520.16 492.82,498.85 517.8,483.58" fill="none" id="logImage-nutritionApi" style="stroke:#000000;stroke-width:1;"/></g><!--link genRecipes to recipeApi--><g class="link" data-entity-1="genRecipes" data-entity-2="recipeApi" data-source-line="64" data-uid="lnk44" id="link_genRecipes_recipeApi"><path d="M358.82,668.2 C398.68,678.33 447,690.61 484.69,700.19" fill="none" id="genRecipes-recipeApi" style="stroke:#000000;stroke-width:1;"/></g><!--link genRecipes to GeminiApi--><g class="link" data-entity-1="genRecipes" data-entity-2="GeminiApi" data-source-line="65" data-uid="lnk45" id="link_genRecipes_GeminiApi"><path d="M384.07,637.15 C423.75,632.48 467.42,627.35 499.53,623.57" fill="none" id="genRecipes-GeminiApi" style="stroke:#000000;stroke-width:1;"/></g><!--link viewRecipe to recipeApi--><g class="link" data-entity-1="viewRecipe" data-entity-2="recipeApi" data-source-line="66" data-uid="lnk46" id="link_viewRecipe_recipeApi"><path d="M358.11,736.77 C398,732.38 446.5,727.04 484.36,722.88" fill="none" id="viewRecipe-recipeApi" style="stroke:#000000;stroke-width:1;"/></g><!--link viewNutrition to nutritionApi--><g class="link" data-entity-1="viewNutrition" data-entity-2="nutritionApi" data-source-line="67" data-uid="lnk47" id="link_viewNutrition_nutritionApi"><path d="M362.73,486.66 C396.69,482.66 436.19,478.02 469.88,474.06" fill="none" id="viewNutrition-nutritionApi" style="stroke:#000000;stroke-width:1;"/></g><!--link logImage to GeminiApi--><g class="link" data-entity-1="logImage" data-entity-2="GeminiApi" data-source-line="68" data-uid="lnk48" id="link_logImage_GeminiApi"><path d="M348.1,581.8 C394.91,590.33 457.06,601.64 499.33,609.34" fill="none" id="logImage-GeminiApi" style="stroke:#000000;stroke-width:1;"/></g><!--SRC=[VPJVRziW4CVV-IjkVbYtX_m3KnSfLTeiKhjMpTftQjy8aWCMuBJHjFzz1zZOaAv-uhxtCN0_k4zkZmU4hkLIiHP_Et0QZ1Hx1uqqM3kf5MEyTjh0aqN3c1Uv4Yr2zIoDwtaBDqOs0c7LTHLSNiBkP1qUOBc4FmpW0hxJ1wkUJb9Erjnl6JHozXPhRX6i5Egf0swXsj4IQFqgtHusMjD9LK5krKJI-WFoldSJIiRSts2B3bTrhNiLgNLGO90gDjt-LWiXbO0RhPloxgqMGVOx41UOAlTVSLFh1ZC4ZfB3u2ZmxO6BT-0WL-m2ClXMMdVEFXXSt74wqhldaJnBVFrV94VoRTMHogJDAUpfwOWcFKknDkxwRQWRhU7b16HB4ukyvWvBVDKqs6G_H2MoqpqViPOTMlWCFtjdv7jD8r2DbDzlWmhfO1n-XLql15h_ewsA80SYHJZOQtHSjcVqT87qGv9yzzFhiFdLsn2_tSlEmfU3Fb9ywLbPsU3NCPInTnR1jrZEc-KRlILySwYQvNAE-bSQoTWd6KTWNiKH7qjLx5h0upMcIXNyBES9dcKqe_yoDcJacYJZSxLws5967d_iXWnCmqI4z-kdH2ncC8kfKStubvYbLIS3FoQD3fXJ9bnhX7xjyGvvkxugCJMMSoJlErG-sw6s9Rt1WrHoHACLcHIm7vLGQwNY1BKnsg0k5iEqoyojoamQLSdEvbHIXtP8TbR8f4xboi2ePLBgw1G3HNGUmZ2e_TQfO6oOoRauwsHoJEKg7FFKizJZvthizT8nRyV5LEr2JmLZirRD-FoPVtHyskiV]--></g></svg>