<svg xmlns="http://www.w3.org/2000/svg" xmlns:xlink="http://www.w3.org/1999/xlink" contentStyleType="text/css" data-diagram-type="DESCRIPTION" height="1216px" preserveAspectRatio="none" style="width:691px;height:1216px;background:#FFFFFF;" version="1.1" viewBox="0 0 691 1216" width="691px" zoomAndPan="magnify"><defs/><g><!--cluster Virtual Fridge App--><g class="cluster" data-entity="Virtual Fridge App" data-source-line="6" data-uid="ent0003" id="cluster_Virtual Fridge App"><rect fill="#FFFFFF" height="1198" rx="2.5" ry="2.5" style="stroke:#000000;stroke-width:1;" width="310.06" x="151.91" y="12"/><text fill="#000000" font-family="Verdana" font-size="14" font-style="italic" lengthAdjust="spacing" textLength="69.3369" x="272.2715" y="26.9951">&#171;System&#187;</text><text fill="#000000" font-family="Verdana" font-size="14" font-weight="bold" lengthAdjust="spacing" textLength="144.874" x="234.503" y="43.292">Virtual Fridge App</text></g><!--entity signUp--><g class="entity" data-entity="signUp" data-source-line="9" data-uid="ent0004" id="entity_signUp"><ellipse cx="306.939" cy="1037.9998" fill="#FFFFFF" rx="84.899" ry="19.3798" style="stroke:#000000;stroke-width:1;"/><text fill="#000000" font-family="Verdana" font-size="14" lengthAdjust="spacing" textLength="142.0918" x="235.8931" y="1042.6482">Sign Up with Google</text></g><!--entity signIn--><g class="entity" data-entity="signIn" data-source-line="10" data-uid="ent0005" id="entity_signIn"><ellipse cx="306.944" cy="1111.0008" fill="#FFFFFF" rx="82.254" ry="18.8508" style="stroke:#000000;stroke-width:1;"/><text fill="#000000" font-family="Verdana" font-size="14" lengthAdjust="spacing" textLength="135.96" x="238.9641" y="1115.6492">Sign In with Google</text></g><!--entity signOut--><g class="entity" data-entity="signOut" data-source-line="11" data-uid="ent0006" id="entity_signOut"><ellipse cx="306.9367" cy="1179.0036" fill="#FFFFFF" rx="45.6867" ry="14.5236" style="stroke:#000000;stroke-width:1;"/><text fill="#000000" font-family="Verdana" font-size="14" lengthAdjust="spacing" textLength="60.3682" x="276.7527" y="1183.6521">Sign Out</text></g><!--entity deleteAccount--><g class="entity" data-entity="deleteAccount" data-source-line="12" data-uid="ent0007" id="entity_deleteAccount"><ellipse cx="306.9353" cy="567.9971" fill="#FFFFFF" rx="70.3353" ry="16.4671" style="stroke:#000000;stroke-width:1;"/><text fill="#000000" font-family="Verdana" font-size="14" lengthAdjust="spacing" textLength="107.2217" x="253.3245" y="572.6455">Delete Account</text></g><!--entity logFood--><g class="entity" data-entity="logFood" data-source-line="15" data-uid="ent0008" id="entity_logFood"><ellipse cx="306.9439" cy="710.0036" fill="#FFFFFF" rx="48.0939" ry="14.5236" style="stroke:#000000;stroke-width:1;"/><text fill="#000000" font-family="Verdana" font-size="14" lengthAdjust="spacing" textLength="63.7725" x="275.0577" y="714.6521">Log Food</text></g><!--entity logImage--><g class="entity" data-entity="logImage" data-source-line="16" data-uid="ent0009" id="entity_logImage"><ellipse cx="306.9377" cy="394.0035" fill="#FFFFFF" rx="82.8177" ry="18.9635" style="stroke:#000000;stroke-width:1;"/><text fill="#000000" font-family="Verdana" font-size="14" lengthAdjust="spacing" textLength="137.2725" x="238.3014" y="398.652">Log Food via Image</text></g><!--entity logBarcode--><g class="entity" data-entity="logBarcode" data-source-line="17" data-uid="ent0010" id="entity_logBarcode"><ellipse cx="306.9382" cy="795.9996" fill="#FFFFFF" rx="88.8482" ry="20.1696" style="stroke:#000000;stroke-width:1;"/><text fill="#000000" font-family="Verdana" font-size="14" lengthAdjust="spacing" textLength="151.1289" x="231.3737" y="800.6481">Log Food via Barcode</text></g><!--entity viewInventory--><g class="entity" data-entity="viewInventory" data-source-line="25" data-uid="ent0015" id="entity_viewInventory"><ellipse cx="306.944" cy="171.0048" fill="#FFFFFF" rx="60.824" ry="14.5648" style="stroke:#000000;stroke-width:1;"/><text fill="#000000" font-family="Verdana" font-size="14" lengthAdjust="spacing" textLength="82.0654" x="265.9112" y="175.6532">View Fridge</text></g><!--entity sortExp--><g class="entity" data-entity="sortExp" data-source-line="26" data-uid="ent0016" id="entity_sortExp"><ellipse cx="306.9379" cy="83.9996" fill="#FFFFFF" rx="94.4479" ry="21.2896" style="stroke:#000000;stroke-width:1;"/><text fill="#000000" font-family="Verdana" font-size="14" lengthAdjust="spacing" textLength="163.7412" x="225.0673" y="88.648">Sort by Expiration Date</text></g><!--entity sortAdded--><g class="entity" data-entity="sortAdded" data-source-line="27" data-uid="ent0017" id="entity_sortAdded"><ellipse cx="306.9394" cy="255.9959" fill="#FFFFFF" rx="82.9294" ry="18.9859" style="stroke:#000000;stroke-width:1;"/><text fill="#000000" font-family="Verdana" font-size="14" lengthAdjust="spacing" textLength="137.5322" x="238.1733" y="260.6443">Sort by Added Date</text></g><!--entity getRecipes--><g class="entity" data-entity="getRecipes" data-source-line="34" data-uid="ent0021" id="entity_getRecipes"><ellipse cx="306.9385" cy="325.0017" fill="#FFFFFF" rx="61.5585" ry="14.7117" style="stroke:#000000;stroke-width:1;"/><text fill="#000000" font-family="Verdana" font-size="14" lengthAdjust="spacing" textLength="84.123" x="264.877" y="329.6501">Get Recipes</text></g><!--entity genRecipes--><g class="entity" data-entity="genRecipes" data-source-line="35" data-uid="ent0022" id="entity_genRecipes"><ellipse cx="306.9417" cy="880.9963" fill="#FFFFFF" rx="139.0317" ry="30.2063" style="stroke:#000000;stroke-width:1;"/><text fill="#000000" font-family="Verdana" font-size="14" lengthAdjust="spacing" textLength="259.5742" x="177.1546" y="885.6448">Generate Recipe Suggestions with AI</text></g><!--entity findRecipes--><g class="entity" data-entity="findRecipes" data-source-line="36" data-uid="ent0023" id="entity_findRecipes"><ellipse cx="306.9438" cy="495.0048" fill="#FFFFFF" rx="97.9738" ry="21.9948" style="stroke:#000000;stroke-width:1;"/><text fill="#000000" font-family="Verdana" font-size="14" lengthAdjust="spacing" textLength="171.582" x="221.1528" y="499.6532">Find Recipe Suggestions</text></g><!--entity viewRecipe--><g class="entity" data-entity="viewRecipe" data-source-line="37" data-uid="ent0024" id="entity_viewRecipe"><ellipse cx="306.9402" cy="965" fill="#FFFFFF" rx="83.3002" ry="19.06" style="stroke:#000000;stroke-width:1;"/><text fill="#000000" font-family="Verdana" font-size="14" lengthAdjust="spacing" textLength="138.3936" x="237.7434" y="969.6485">View Recipe Details</text></g><!--entity viewNutrition--><g class="entity" data-entity="viewNutrition" data-source-line="38" data-uid="ent0025" id="entity_viewNutrition"><ellipse cx="306.9395" cy="640.0019" fill="#FFFFFF" rx="89.8095" ry="20.3619" style="stroke:#000000;stroke-width:1;"/><text fill="#000000" font-family="Verdana" font-size="14" lengthAdjust="spacing" textLength="153.3096" x="230.2847" y="644.6503">View Nutritional Facts</text></g><!--entity User--><g class="entity" data-entity="User" data-source-line="4" data-uid="ent0002" id="entity_User"><ellipse cx="26.9551" cy="680.35" fill="#FFFFFF" rx="8" ry="8" style="stroke:#000000;stroke-width:1;"/><path d="M26.9551,688.35 L26.9551,715.35 M13.9551,696.35 L39.9551,696.35 M26.9551,715.35 L13.9551,730.35 M26.9551,715.35 L39.9551,730.35" fill="none" style="stroke:#000000;stroke-width:1;"/><text fill="#000000" font-family="Verdana" font-size="14" lengthAdjust="spacing" textLength="31.9102" x="11" y="745.3451">User</text></g><!--entity googleAuth--><g class="entity" data-entity="googleAuth" data-source-line="47" data-uid="ent0030" id="entity_googleAuth"><rect fill="#FFFFFF" height="36.2969" rx="2.5" ry="2.5" style="stroke:#000000;stroke-width:1;" width="176.5908" x="508.97" y="1055.85"/><text fill="#000000" font-family="Verdana" font-size="14" lengthAdjust="spacing" textLength="156.5908" x="518.97" y="1078.8451">Google Authentication</text></g><!--entity barcodeApi--><g class="entity" data-entity="barcodeApi" data-source-line="48" data-uid="ent0031" id="entity_barcodeApi"><rect fill="#FFFFFF" height="36.2969" rx="2.5" ry="2.5" style="stroke:#000000;stroke-width:1;" width="104.3008" x="545.12" y="826.85"/><text fill="#000000" font-family="Verdana" font-size="14" lengthAdjust="spacing" textLength="84.3008" x="555.12" y="849.8451">Barcode API</text></g><!--entity recipeApi--><g class="entity" data-entity="recipeApi" data-source-line="49" data-uid="ent0032" id="entity_recipeApi"><rect fill="#FFFFFF" height="36.2969" rx="2.5" ry="2.5" style="stroke:#000000;stroke-width:1;" width="126.1826" x="534.18" y="917.85"/><text fill="#000000" font-family="Verdana" font-size="14" lengthAdjust="spacing" textLength="106.1826" x="544.18" y="940.8451">TheMealDB API</text></g><!--entity nutritionApi--><g class="entity" data-entity="nutritionApi" data-source-line="50" data-uid="ent0033" id="entity_nutritionApi"><rect fill="#FFFFFF" height="36.2969" rx="2.5" ry="2.5" style="stroke:#000000;stroke-width:1;" width="155.1738" x="519.68" y="642.85"/><text fill="#000000" font-family="Verdana" font-size="14" lengthAdjust="spacing" textLength="135.1738" x="529.68" y="665.8451">OpenFoodFacts API</text></g><!--entity GeminiApi--><g class="entity" data-entity="GeminiApi" data-source-line="51" data-uid="ent0034" id="entity_GeminiApi"><rect fill="#FFFFFF" height="36.2969" rx="2.5" ry="2.5" style="stroke:#000000;stroke-width:1;" width="96.3506" x="549.09" y="749.85"/><text fill="#000000" font-family="Verdana" font-size="14" lengthAdjust="spacing" textLength="76.3506" x="559.09" y="772.8451">Gemini API</text></g><!--reverse link logFood to logImage--><g class="link" data-entity-1="logFood" data-entity-2="logImage" data-source-line="21" data-uid="lnk12" id="link_logFood_logImage"><path d="M254.5007,714.2844 C217.6307,714.8644 173.51,708.96 143.91,678 C102.74,634.93 66.52,456.52 106.67,412.5 C141.13,374.7 201.74,374.11 247.28,380.51" fill="none" id="logFood-backto-logImage" style="stroke:#000000;stroke-width:1;"/><polygon fill="#000000" points="260.5,714.19,251.4382,710.3321,255.5006,714.2686,251.564,718.3311,260.5,714.19" style="stroke:#000000;stroke-width:1;"/><text fill="#000000" font-family="Verdana" font-size="13" lengthAdjust="spacing" textLength="61.1851" x="73.91" y="425.5669">&#171;extend&#187;</text></g><!--reverse link logFood to logBarcode--><g class="link" data-entity-1="logFood" data-entity-2="logBarcode" data-source-line="22" data-uid="lnk14" id="link_logFood_logBarcode"><path d="M306.94,730.85 C306.94,744.88 306.94,760.02 306.94,775.62" fill="none" id="logFood-backto-logBarcode" style="stroke:#000000;stroke-width:1;"/><polygon fill="#000000" points="306.94,724.85,302.94,733.85,306.94,729.85,310.94,733.85,306.94,724.85" style="stroke:#000000;stroke-width:1;"/><text fill="#000000" font-family="Verdana" font-size="13" lengthAdjust="spacing" textLength="61.1851" x="264.94" y="754.7469">&#171;extend&#187;</text></g><!--reverse link viewInventory to sortExp--><g class="link" data-entity-1="viewInventory" data-entity-2="sortExp" data-source-line="30" data-uid="lnk19" id="link_viewInventory_sortExp"><path d="M306.94,150.24 C306.94,136.38 306.94,121.46 306.94,105.7" fill="none" id="viewInventory-backto-sortExp" style="stroke:#000000;stroke-width:1;"/><polygon fill="#000000" points="306.94,156.24,310.94,147.24,306.94,151.24,302.94,147.24,306.94,156.24" style="stroke:#000000;stroke-width:1;"/><text fill="#000000" font-family="Verdana" font-size="13" lengthAdjust="spacing" textLength="61.1851" x="264.94" y="135.4269">&#171;extend&#187;</text></g><!--link sortAdded to viewInventory--><g class="link" data-entity-1="sortAdded" data-entity-2="viewInventory" data-source-line="31" data-uid="lnk20" id="link_sortAdded_viewInventory"><path d="M306.94,236.71 C306.94,221.33 306.94,206.1 306.94,191.98" fill="none" id="sortAdded-to-viewInventory" style="stroke:#000000;stroke-width:1;"/><polygon fill="#000000" points="306.94,185.98,302.94,194.98,306.94,190.98,310.94,194.98,306.94,185.98" style="stroke:#000000;stroke-width:1;"/><text fill="#000000" font-family="Verdana" font-size="13" lengthAdjust="spacing" textLength="61.1851" x="264.94" y="215.8569">&#171;extend&#187;</text></g><!--reverse link getRecipes to genRecipes--><g class="link" data-entity-1="getRecipes" data-entity-2="genRecipes" data-source-line="41" data-uid="lnk27" id="link_getRecipes_genRecipes"><path d="M239.0015,325.2274 C206.0115,328.0274 172.46,335.9 143.91,358 C114.01,381.15 115.16,397.65 106.67,434.5 C86.64,521.38 86.91,765.44 143.91,834 C155.59,848.04 171.17,858.04 188.08,865.13" fill="none" id="getRecipes-backto-genRecipes" style="stroke:#000000;stroke-width:1;"/><polygon fill="#000000" points="244.98,324.72,235.674,321.4955,239.9979,325.1429,236.3505,329.4668,244.98,324.72" style="stroke:#000000;stroke-width:1;"/><text fill="#000000" font-family="Verdana" font-size="13" lengthAdjust="spacing" textLength="61.1851" x="73.91" y="447.5669">&#171;extend&#187;</text></g><!--link findRecipes to getRecipes--><g class="link" data-entity-1="findRecipes" data-entity-2="getRecipes" data-source-line="42" data-uid="lnk28" id="link_findRecipes_getRecipes"><path d="M230.73,509.12 C187.83,512.29 136.93,507.19 106.67,473.5 C92.83,458.1 84.39,408.59 143.91,358 C171.74,334.34 205.8951,326.4354 239.3751,324.0554" fill="none" id="findRecipes-to-getRecipes" style="stroke:#000000;stroke-width:1;"/><polygon fill="#000000" points="245.36,323.63,236.099,320.2782,240.3726,323.9845,236.6663,328.2581,245.36,323.63" style="stroke:#000000;stroke-width:1;"/><text fill="#000000" font-family="Verdana" font-size="13" lengthAdjust="spacing" textLength="61.1851" x="73.91" y="469.5669">&#171;extend&#187;</text></g><!--link viewRecipe to getRecipes--><g class="link" data-entity-1="viewRecipe" data-entity-2="getRecipes" data-source-line="43" data-uid="lnk29" id="link_viewRecipe_getRecipes"><path d="M223.61,966.13 C194.22,962.03 163.61,951.81 143.91,929 C65.5,838.22 57.03,499.7 106.67,390.5 C129.6,340.05 189.5391,326.7006 239.5491,323.9406" fill="none" id="viewRecipe-to-getRecipes" style="stroke:#000000;stroke-width:1;"/><polygon fill="#000000" points="245.54,323.61,236.3333,320.112,240.5476,323.8855,236.7741,328.0999,245.54,323.61" style="stroke:#000000;stroke-width:1;"/><text fill="#000000" font-family="Verdana" font-size="13" lengthAdjust="spacing" textLength="61.1851" x="73.91" y="403.5669">&#171;extend&#187;</text></g><!--link User to signUp--><g class="link" data-entity-1="User" data-entity-2="signUp" data-source-line="54" data-uid="lnk35" id="link_User_signUp"><path d="M29.5,748.79 C32.72,794.16 42.61,870.37 72.91,928 C94.12,968.34 104.18,979.66 143.91,1002 C169.53,1016.41 200.46,1025.05 228.39,1030.23" fill="none" id="User-signUp" style="stroke:#000000;stroke-width:1;"/></g><!--link User to signIn--><g class="link" data-entity-1="User" data-entity-2="signIn" data-source-line="55" data-uid="lnk36" id="link_User_signIn"><path d="M30.89,749 C36.61,818.37 50.67,960.06 72.91,1004 C93.06,1043.82 104.79,1053.53 143.91,1075 C170.43,1089.56 202.46,1098.23 231.01,1103.4" fill="none" id="User-signIn" style="stroke:#000000;stroke-width:1;"/></g><!--link User to signOut--><g class="link" data-entity-1="User" data-entity-2="signOut" data-source-line="56" data-uid="lnk37" id="link_User_signOut"><path d="M29.46,749.01 C33.15,831.52 44.55,1020.85 72.91,1078 C92.47,1117.42 104.94,1126.56 143.91,1147 C180.6,1166.25 227.5,1173.96 261.39,1177.03" fill="none" id="User-signOut" style="stroke:#000000;stroke-width:1;"/></g><!--link User to deleteAccount--><g class="link" data-entity-1="User" data-entity-2="deleteAccount" data-source-line="57" data-uid="lnk38" id="link_User_deleteAccount"><path d="M30.04,671.18 C35.12,583.59 49.52,376.61 72.91,356 C93.92,337.49 115.67,336.65 135.91,356 C150.22,369.68 131.09,518.91 143.91,534 C166.62,560.72 204.48,569.69 237.9,571.77" fill="none" id="User-deleteAccount" style="stroke:#000000;stroke-width:1;"/></g><!--link User to logFood--><g class="link" data-entity-1="User" data-entity-2="logFood" data-source-line="58" data-uid="lnk39" id="link_User_logFood"><path d="M43.3,710 C83.7,710 194.34,710 258.4,710" fill="none" id="User-logFood" style="stroke:#000000;stroke-width:1;"/></g><!--link User to viewInventory--><g class="link" data-entity-1="User" data-entity-2="viewInventory" data-source-line="59" data-uid="lnk40" id="link_User_viewInventory"><path d="M28.54,671.09 C30.47,579.16 38.69,351.18 72.91,284 C106.99,217.09 195.78,189.39 253.39,178.22" fill="none" id="User-viewInventory" style="stroke:#000000;stroke-width:1;"/></g><!--link User to getRecipes--><g class="link" data-entity-1="User" data-entity-2="getRecipes" data-source-line="60" data-uid="lnk41" id="link_User_getRecipes"><path d="M29.59,671.08 C33.93,577.5 47.18,345.91 72.91,323 C128.05,273.89 223,295.82 272.98,312.46" fill="none" id="User-getRecipes" style="stroke:#000000;stroke-width:1;"/></g><!--link User to viewRecipe--><g class="link" data-entity-1="User" data-entity-2="viewRecipe" data-source-line="61" data-uid="lnk42" id="link_User_viewRecipe"><path d="M37.7,749.05 C52.2,798.76 84.37,883.62 143.91,929 C167.06,946.64 197.16,955.97 225.13,960.79" fill="none" id="User-viewRecipe" style="stroke:#000000;stroke-width:1;"/></g><!--link User to viewNutrition--><g class="link" data-entity-1="User" data-entity-2="viewNutrition" data-source-line="62" data-uid="lnk43" id="link_User_viewNutrition"><path d="M27.35,671.03 C27.06,593.7 31.35,425.14 72.91,389 C94.04,370.63 115.74,369.58 135.91,389 C152.97,405.43 128.85,583.72 143.91,602 C161.73,623.63 189.31,634.33 216.69,639.27" fill="none" id="User-viewNutrition" style="stroke:#000000;stroke-width:1;"/></g><!--link signUp to googleAuth--><g class="link" data-entity-1="signUp" data-entity-2="googleAuth" data-source-line="65" data-uid="lnk44" id="link_signUp_googleAuth"><path d="M382.19,1047.27 C420.82,1052.09 468.28,1058.02 508.69,1063.07" fill="none" id="signUp-googleAuth" style="stroke:#000000;stroke-width:1;"/></g><!--link signIn to googleAuth--><g class="link" data-entity-1="signIn" data-entity-2="googleAuth" data-source-line="66" data-uid="lnk45" id="link_signIn_googleAuth"><path d="M379.58,1101.81 C418.61,1096.8 467.23,1090.56 508.51,1085.26" fill="none" id="signIn-googleAuth" style="stroke:#000000;stroke-width:1;"/></g><!--link logBarcode to barcodeApi--><g class="link" data-entity-1="logBarcode" data-entity-2="barcodeApi" data-source-line="68" data-uid="lnk46" id="link_logBarcode_barcodeApi"><path d="M379.21,808.11 C430.58,816.84 498.69,828.42 544.82,836.26" fill="none" id="logBarcode-barcodeApi" style="stroke:#000000;stroke-width:1;"/></g><!--link logBarcode to nutritionApi--><g class="link" data-entity-1="logBarcode" data-entity-2="nutritionApi" data-source-line="69" data-uid="lnk47" id="link_logBarcode_nutritionApi"><path d="M365.92,780.5 C397.43,771.13 436.67,757.92 469.97,742 C507.34,724.14 547.01,697.22 571.71,679.38" fill="none" id="logBarcode-nutritionApi" style="stroke:#000000;stroke-width:1;"/></g><!--link logFood to nutritionApi--><g class="link" data-entity-1="logFood" data-entity-2="nutritionApi" data-source-line="70" data-uid="lnk48" id="link_logFood_nutritionApi"><path d="M349.56,702.93 C393.85,695.4 464.91,683.32 519.42,674.06" fill="none" id="logFood-nutritionApi" style="stroke:#000000;stroke-width:1;"/></g><!--link logImage to nutritionApi--><g class="link" data-entity-1="logImage" data-entity-2="nutritionApi" data-source-line="71" data-uid="lnk49" id="link_logImage_nutritionApi"><path d="M368.25,406.99 C401.05,416.39 440.75,431.78 469.97,456 C533.86,508.95 574.61,603.04 589.69,642.63" fill="none" id="logImage-nutritionApi" style="stroke:#000000;stroke-width:1;"/></g><!--link logImage to GeminiApi--><g class="link" data-entity-1="logImage" data-entity-2="GeminiApi" data-source-line="72" data-uid="lnk50" id="link_logImage_GeminiApi"><path d="M377.64,404.27 C410.45,412.71 447.26,428.08 469.97,456 C487.09,477.04 495.4,673.52 508.97,697 C521.78,719.15 544.34,737.23 563.32,749.59" fill="none" id="logImage-GeminiApi" style="stroke:#000000;stroke-width:1;"/></g><!--link genRecipes to recipeApi--><g class="link" data-entity-1="genRecipes" data-entity-2="recipeApi" data-source-line="74" data-uid="lnk51" id="link_genRecipes_recipeApi"><path d="M412.44,900.93 C453.22,908.71 498.58,917.37 534.04,924.13" fill="none" id="genRecipes-recipeApi" style="stroke:#000000;stroke-width:1;"/></g><!--link genRecipes to GeminiApi--><g class="link" data-entity-1="genRecipes" data-entity-2="GeminiApi" data-source-line="75" data-uid="lnk52" id="link_genRecipes_GeminiApi"><path d="M402.14,858.64 C424.81,851.91 448.64,843.69 469.97,834 C488.72,825.49 490.95,818.95 508.97,809 C523.34,801.07 539.5,793.2 553.97,786.51" fill="none" id="genRecipes-GeminiApi" style="stroke:#000000;stroke-width:1;"/></g><!--link viewRecipe to recipeApi--><g class="link" data-entity-1="viewRecipe" data-entity-2="recipeApi" data-source-line="76" data-uid="lnk53" id="link_viewRecipe_recipeApi"><path d="M383.7,957.38 C430.58,952.66 490.03,946.69 534.13,942.25" fill="none" id="viewRecipe-recipeApi" style="stroke:#000000;stroke-width:1;"/></g><!--link viewNutrition to nutritionApi--><g class="link" data-entity-1="viewNutrition" data-entity-2="nutritionApi" data-source-line="77" data-uid="lnk54" id="link_viewNutrition_nutritionApi"><path d="M392.89,646.19 C432.92,649.1 480.33,652.56 519.3,655.39" fill="none" id="viewNutrition-nutritionApi" style="stroke:#000000;stroke-width:1;"/></g><!--SRC=[ZPNFKjim4CRlUegj3wKS_08TcXap0PePA0mft1LxSJJZI1vP1ZATldjNiYnBJWZDARlwwS-tdxJ-OhQuGsWRBYHhyCM0KQ15lJLG2Osb4KeonakZD3nrg1cpIIxh1Y5x5jhql85hBQeQeMZR32ukOBtl3EvWiO0_Z06SmG_wGT7JLjA8ajirNOu6-mvBtY5qefPFBV0EiZNz1Vh_9imMRfIYhR8PkP8JIVzFaFUzcL0Aul4A6pHObANgvK0jNGPyAejEVwlgMiWQhfMgvcTlLEtITWNY79EbuwiTfmB50BmA3YuzGo-vBbLr1FO36JjB-5lHcKFuGMD-nsaPE-o5NBqRb1qLluDlP7Y9bNUQlnZKGFO83HjQzfpmSEZStefy4LH-9ulHhbGj5WCtdlWaEPNoMU3RHwLyfR6LVALxelJUgRAqls29jqgRgtT_OUW_RFQahnLwk5rBRWxmeggmIYOCcO7zdmgDjHat7mMdfvuLQDewTskTvgSoFM8fMkpWA_pgZHR77asDPgIih1iquwmieMHAIQGgeKTXtTSrTiQ9TW-fMCMpNuIiukdN51-PcirCz4HmqCTBD5mq1_IaC4m8ATjVgFzq7riaTZki14bgzh31Hhs1neR2AXWMbM3qBAhTpB1OSR3iOpnI-odzbp7lhfMXhRRYOKLA7d-kpmTtf_PQkuPcs-RWcmjdRJIB-Ctm38jME7vybRH1J6bthX7wlSKxvCtoSex9iVmZUT-Yj2_MUJ6dRt0df1ZH8HgOKQ_zTa2ff1m-ATqWrcNpt7V_95p99AJM7UAaRuUixpeXJXvPo4xE9E2GIrBX0WOD9EXGWlzmsQM3Nyn_ez8aYrjb7jar6uXBpyPUUYJls_E9WM0BO_4BoATBCCjF4-9R7VFfQvrj_Wy0]--></g></svg>