<svg xmlns="http://www.w3.org/2000/svg" xmlns:xlink="http://www.w3.org/1999/xlink" contentStyleType="text/css" data-diagram-type="SEQUENCE" height="1781px" preserveAspectRatio="none" style="width:1972px;height:1781px;background:#FFFFFF;" version="1.1" viewBox="0 0 1972 1781" width="1972px" zoomAndPan="magnify"><title>Use Case 3: View Fridge</title><defs/><g><text fill="#000000" font-family="sans-serif" font-size="14" font-weight="bold" lengthAdjust="spacing" textLength="190.4492" x="886.9058" y="27.9951">Use Case 3: View Fridge</text><g><title>Frontend</title><rect fill="#FFFFFF" height="1199.1094" style="stroke:#181818;stroke-width:1;" width="10" x="295.7104" y="149.7266"/></g><g><title>Frontend</title><rect fill="#FFFFFF" height="261.1953" style="stroke:#181818;stroke-width:1;" width="10" x="295.7104" y="1421.1016"/></g><g><title>AuthMiddleware</title><rect fill="#FFFFFF" height="86.3984" style="stroke:#181818;stroke-width:1;" width="10" x="618.7002" y="223.125"/></g><g><title>Fridge</title><rect fill="#FFFFFF" height="512.5234" style="stroke:#181818;stroke-width:1;" width="10" x="875.2808" y="193.9922"/></g><g><title>Fridge</title><rect fill="#FFFFFF" height="206.1953" style="stroke:#181818;stroke-width:1;" width="10" x="875.2808" y="1098.375"/></g><g><title>Fridge</title><rect fill="#FFFFFF" height="160.7969" style="stroke:#181818;stroke-width:1;" width="10" x="875.2808" y="1450.2344"/></g><g><title>FoodItem</title><rect fill="#FFFFFF" height="87.3984" style="stroke:#181818;stroke-width:1;" width="10" x="1283.9004" y="338.6563"/></g><g><title>FoodItem</title><rect fill="#FFFFFF" height="145.6641" style="stroke:#181818;stroke-width:1;" width="10" x="1283.9004" y="479.3203"/></g><g><title>FoodItem</title><rect fill="#FFFFFF" height="132.7969" style="stroke:#181818;stroke-width:1;" width="10" x="1283.9004" y="1127.5078"/></g><g><title>FoodItem</title><rect fill="#FFFFFF" height="87.3984" style="stroke:#181818;stroke-width:1;" width="10" x="1283.9004" y="1479.3672"/></g><g><title>FoodType</title><rect fill="#FFFFFF" height="87.3984" style="stroke:#181818;stroke-width:1;" width="10" x="1639.4282" y="508.4531"/></g><g><title>MongoDB</title><rect fill="#FFFFFF" height="29.1328" style="stroke:#181818;stroke-width:1;" width="10" x="1903.5835" y="367.7891"/></g><g><title>MongoDB</title><rect fill="#FFFFFF" height="29.1328" style="stroke:#181818;stroke-width:1;" width="10" x="1903.5835" y="537.5859"/></g><g><title>MongoDB</title><rect fill="#FFFFFF" height="29.1328" style="stroke:#181818;stroke-width:1;" width="10" x="1903.5835" y="1202.0391"/></g><g><title>MongoDB</title><rect fill="#FFFFFF" height="29.1328" style="stroke:#181818;stroke-width:1;" width="10" x="1903.5835" y="1508.5"/></g><rect fill="none" height="191.9297" style="stroke:#000000;stroke-width:1.5;" width="1114.0225" x="841.2383" y="441.0547"/><g><title>User</title><rect fill="#000000" fill-opacity="0.00000" height="1581.7031" width="8" x="19.9551" y="118.5938"/><line style="stroke:#181818;stroke-width:0.5;stroke-dasharray:5,5;" x1="23" x2="23" y1="118.5938" y2="1700.2969"/></g><g><title>Frontend</title><rect fill="#000000" fill-opacity="0.00000" height="1581.7031" width="8" x="296.7104" y="118.5938"/><line style="stroke:#181818;stroke-width:0.5;stroke-dasharray:5,5;" x1="300.1558" x2="300.1558" y1="118.5938" y2="1700.2969"/></g><g><title>AuthMiddleware</title><rect fill="#000000" fill-opacity="0.00000" height="1581.7031" width="8" x="619.7002" y="118.5938"/><line style="stroke:#181818;stroke-width:0.5;stroke-dasharray:5,5;" x1="622.9722" x2="622.9722" y1="118.5938" y2="1700.2969"/></g><g><title>Fridge</title><rect fill="#000000" fill-opacity="0.00000" height="1581.7031" width="8" x="876.2808" y="118.5938"/><line style="stroke:#181818;stroke-width:0.5;stroke-dasharray:5,5;" x1="880.2383" x2="880.2383" y1="118.5938" y2="1700.2969"/></g><g><title>FoodItem</title><rect fill="#000000" fill-opacity="0.00000" height="1581.7031" width="8" x="1284.9004" y="118.5938"/><line style="stroke:#181818;stroke-width:0.5;stroke-dasharray:5,5;" x1="1287.9307" x2="1287.9307" y1="118.5938" y2="1700.2969"/></g><g><title>FoodType</title><rect fill="#000000" fill-opacity="0.00000" height="1581.7031" width="8" x="1640.4282" y="118.5938"/><line style="stroke:#181818;stroke-width:0.5;stroke-dasharray:5,5;" x1="1644.2246" x2="1644.2246" y1="118.5938" y2="1700.2969"/></g><g><title>MongoDB</title><rect fill="#000000" fill-opacity="0.00000" height="1581.7031" width="8" x="1904.5835" y="118.5938"/><line style="stroke:#181818;stroke-width:0.5;stroke-dasharray:5,5;" x1="1907.9063" x2="1907.9063" y1="118.5938" y2="1700.2969"/></g><g class="participant participant-head" data-participant="User"><text fill="#000000" font-family="sans-serif" font-size="14" lengthAdjust="spacing" textLength="31.9102" x="5" y="115.292">User</text><ellipse cx="23.9551" cy="50.7969" fill="#E2E2F0" rx="8" ry="8" style="stroke:#181818;stroke-width:0.5;"/><path d="M23.9551,58.7969 L23.9551,85.7969 M10.9551,66.7969 L36.9551,66.7969 M23.9551,85.7969 L10.9551,100.7969 M23.9551,85.7969 L36.9551,100.7969" fill="none" style="stroke:#181818;stroke-width:0.5;"/></g><g class="participant participant-tail" data-participant="User"><text fill="#000000" font-family="sans-serif" font-size="14" lengthAdjust="spacing" textLength="31.9102" x="5" y="1712.292">User</text><ellipse cx="23.9551" cy="1724.0938" fill="#E2E2F0" rx="8" ry="8" style="stroke:#181818;stroke-width:0.5;"/><path d="M23.9551,1732.0938 L23.9551,1759.0938 M10.9551,1740.0938 L36.9551,1740.0938 M23.9551,1759.0938 L10.9551,1774.0938 M23.9551,1759.0938 L36.9551,1774.0938" fill="none" style="stroke:#181818;stroke-width:0.5;"/></g><g class="participant participant-head" data-participant="Frontend"><rect fill="#E2E2F0" height="30.2969" rx="2.5" ry="2.5" style="stroke:#181818;stroke-width:0.5;" width="77.1094" x="262.1558" y="87.2969"/><text fill="#000000" font-family="sans-serif" font-size="14" lengthAdjust="spacing" textLength="63.1094" x="269.1558" y="107.292">Frontend</text></g><g class="participant participant-tail" data-participant="Frontend"><rect fill="#E2E2F0" height="30.2969" rx="2.5" ry="2.5" style="stroke:#181818;stroke-width:0.5;" width="77.1094" x="262.1558" y="1699.2969"/><text fill="#000000" font-family="sans-serif" font-size="14" lengthAdjust="spacing" textLength="63.1094" x="269.1558" y="1719.292">Frontend</text></g><g class="participant participant-head" data-participant="Auth"><rect fill="#E2E2F0" height="30.2969" rx="2.5" ry="2.5" style="stroke:#181818;stroke-width:0.5;" width="127.4561" x="559.9722" y="87.2969"/><text fill="#000000" font-family="sans-serif" font-size="14" lengthAdjust="spacing" textLength="113.4561" x="566.9722" y="107.292">AuthMiddleware</text></g><g class="participant participant-tail" data-participant="Auth"><rect fill="#E2E2F0" height="30.2969" rx="2.5" ry="2.5" style="stroke:#181818;stroke-width:0.5;" width="127.4561" x="559.9722" y="1699.2969"/><text fill="#000000" font-family="sans-serif" font-size="14" lengthAdjust="spacing" textLength="113.4561" x="566.9722" y="1719.292">AuthMiddleware</text></g><g class="participant participant-head" data-participant="Controller"><rect fill="#E2E2F0" height="30.2969" rx="2.5" ry="2.5" style="stroke:#181818;stroke-width:0.5;" width="58.085" x="851.2383" y="87.2969"/><text fill="#000000" font-family="sans-serif" font-size="14" lengthAdjust="spacing" textLength="44.085" x="858.2383" y="107.292">Fridge</text></g><g class="participant participant-tail" data-participant="Controller"><rect fill="#E2E2F0" height="30.2969" rx="2.5" ry="2.5" style="stroke:#181818;stroke-width:0.5;" width="58.085" x="851.2383" y="1699.2969"/><text fill="#000000" font-family="sans-serif" font-size="14" lengthAdjust="spacing" textLength="44.085" x="858.2383" y="1719.292">Fridge</text></g><g class="participant participant-head" data-participant="FoodItemModel"><rect fill="#E2E2F0" height="30.2969" rx="2.5" ry="2.5" style="stroke:#181818;stroke-width:0.5;" width="79.9395" x="1248.9307" y="87.2969"/><text fill="#000000" font-family="sans-serif" font-size="14" lengthAdjust="spacing" textLength="65.9395" x="1255.9307" y="107.292">FoodItem</text></g><g class="participant participant-tail" data-participant="FoodItemModel"><rect fill="#E2E2F0" height="30.2969" rx="2.5" ry="2.5" style="stroke:#181818;stroke-width:0.5;" width="79.9395" x="1248.9307" y="1699.2969"/><text fill="#000000" font-family="sans-serif" font-size="14" lengthAdjust="spacing" textLength="65.9395" x="1255.9307" y="1719.292">FoodItem</text></g><g class="participant participant-head" data-participant="FoodTypeModel"><rect fill="#E2E2F0" height="30.2969" rx="2.5" ry="2.5" style="stroke:#181818;stroke-width:0.5;" width="82.4072" x="1603.2246" y="87.2969"/><text fill="#000000" font-family="sans-serif" font-size="14" lengthAdjust="spacing" textLength="68.4072" x="1610.2246" y="107.292">FoodType</text></g><g class="participant participant-tail" data-participant="FoodTypeModel"><rect fill="#E2E2F0" height="30.2969" rx="2.5" ry="2.5" style="stroke:#181818;stroke-width:0.5;" width="82.4072" x="1603.2246" y="1699.2969"/><text fill="#000000" font-family="sans-serif" font-size="14" lengthAdjust="spacing" textLength="68.4072" x="1610.2246" y="1719.292">FoodType</text></g><g class="participant participant-head" data-participant="DB"><text fill="#000000" font-family="sans-serif" font-size="14" lengthAdjust="spacing" textLength="67.3545" x="1871.9063" y="115.292">MongoDB</text><path d="M1890.5835,66.2969 C1890.5835,56.2969 1908.5835,56.2969 1908.5835,56.2969 C1908.5835,56.2969 1926.5835,56.2969 1926.5835,66.2969 L1926.5835,92.2969 C1926.5835,102.2969 1908.5835,102.2969 1908.5835,102.2969 C1908.5835,102.2969 1890.5835,102.2969 1890.5835,92.2969 L1890.5835,66.2969" fill="#E2E2F0" style="stroke:#181818;stroke-width:0.5;"/><path d="M1890.5835,66.2969 C1890.5835,76.2969 1908.5835,76.2969 1908.5835,76.2969 C1908.5835,76.2969 1926.5835,76.2969 1926.5835,66.2969" fill="none" style="stroke:#181818;stroke-width:0.5;"/></g><g class="participant participant-tail" data-participant="DB"><text fill="#000000" font-family="sans-serif" font-size="14" lengthAdjust="spacing" textLength="67.3545" x="1871.9063" y="1712.292">MongoDB</text><path d="M1890.5835,1725.5938 C1890.5835,1715.5938 1908.5835,1715.5938 1908.5835,1715.5938 C1908.5835,1715.5938 1926.5835,1715.5938 1926.5835,1725.5938 L1926.5835,1751.5938 C1926.5835,1761.5938 1908.5835,1761.5938 1908.5835,1761.5938 C1908.5835,1761.5938 1890.5835,1761.5938 1890.5835,1751.5938 L1890.5835,1725.5938" fill="#E2E2F0" style="stroke:#181818;stroke-width:0.5;"/><path d="M1890.5835,1725.5938 C1890.5835,1735.5938 1908.5835,1735.5938 1908.5835,1735.5938 C1908.5835,1735.5938 1926.5835,1735.5938 1926.5835,1725.5938" fill="none" style="stroke:#181818;stroke-width:0.5;"/></g><g><title>Frontend</title><rect fill="#FFFFFF" height="1199.1094" style="stroke:#181818;stroke-width:1;" width="10" x="295.7104" y="149.7266"/></g><g><title>Frontend</title><rect fill="#FFFFFF" height="261.1953" style="stroke:#181818;stroke-width:1;" width="10" x="295.7104" y="1421.1016"/></g><g><title>AuthMiddleware</title><rect fill="#FFFFFF" height="86.3984" style="stroke:#181818;stroke-width:1;" width="10" x="618.7002" y="223.125"/></g><g><title>Fridge</title><rect fill="#FFFFFF" height="512.5234" style="stroke:#181818;stroke-width:1;" width="10" x="875.2808" y="193.9922"/></g><g><title>Fridge</title><rect fill="#FFFFFF" height="206.1953" style="stroke:#181818;stroke-width:1;" width="10" x="875.2808" y="1098.375"/></g><g><title>Fridge</title><rect fill="#FFFFFF" height="160.7969" style="stroke:#181818;stroke-width:1;" width="10" x="875.2808" y="1450.2344"/></g><g><title>FoodItem</title><rect fill="#FFFFFF" height="87.3984" style="stroke:#181818;stroke-width:1;" width="10" x="1283.9004" y="338.6563"/></g><g><title>FoodItem</title><rect fill="#FFFFFF" height="145.6641" style="stroke:#181818;stroke-width:1;" width="10" x="1283.9004" y="479.3203"/></g><g><title>FoodItem</title><rect fill="#FFFFFF" height="132.7969" style="stroke:#181818;stroke-width:1;" width="10" x="1283.9004" y="1127.5078"/></g><g><title>FoodItem</title><rect fill="#FFFFFF" height="87.3984" style="stroke:#181818;stroke-width:1;" width="10" x="1283.9004" y="1479.3672"/></g><g><title>FoodType</title><rect fill="#FFFFFF" height="87.3984" style="stroke:#181818;stroke-width:1;" width="10" x="1639.4282" y="508.4531"/></g><g><title>MongoDB</title><rect fill="#FFFFFF" height="29.1328" style="stroke:#181818;stroke-width:1;" width="10" x="1903.5835" y="367.7891"/></g><g><title>MongoDB</title><rect fill="#FFFFFF" height="29.1328" style="stroke:#181818;stroke-width:1;" width="10" x="1903.5835" y="537.5859"/></g><g><title>MongoDB</title><rect fill="#FFFFFF" height="29.1328" style="stroke:#181818;stroke-width:1;" width="10" x="1903.5835" y="1202.0391"/></g><g><title>MongoDB</title><rect fill="#FFFFFF" height="29.1328" style="stroke:#181818;stroke-width:1;" width="10" x="1903.5835" y="1508.5"/></g><g class="message" data-participant-1="User" data-participant-2="Frontend"><polygon fill="#181818" points="283.7104,145.7266,293.7104,149.7266,283.7104,153.7266,287.7104,149.7266" style="stroke:#181818;stroke-width:1;"/><line style="stroke:#181818;stroke-width:1;" x1="23.9551" x2="289.7104" y1="149.7266" y2="149.7266"/><text fill="#000000" font-family="sans-serif" font-size="13" lengthAdjust="spacing" textLength="159.853" x="30.9551" y="144.6606">Navigates to home page</text></g><g class="message" data-participant-1="Frontend" data-participant-2="Controller"><polygon fill="#181818" points="863.2808,189.9922,873.2808,193.9922,863.2808,197.9922,867.2808,193.9922" style="stroke:#181818;stroke-width:1;"/><line style="stroke:#181818;stroke-width:1;" x1="305.7104" x2="869.2808" y1="193.9922" y2="193.9922"/><text fill="#000000" font-family="sans-serif" font-size="13" lengthAdjust="spacing" textLength="96.9858" x="312.7104" y="173.7935">GET /api/fridge</text><text fill="#000000" font-family="sans-serif" font-size="13" lengthAdjust="spacing" textLength="199.8433" x="312.7104" y="188.9263">(Authorization: Bearer &lt;JWT&gt;)</text></g><g class="message" data-participant-1="Controller" data-participant-2="Auth"><polygon fill="#181818" points="639.7002,219.125,629.7002,223.125,639.7002,227.125,635.7002,223.125" style="stroke:#181818;stroke-width:1;"/><line style="stroke:#181818;stroke-width:1;" x1="633.7002" x2="874.2808" y1="223.125" y2="223.125"/><text fill="#000000" font-family="sans-serif" font-size="13" lengthAdjust="spacing" textLength="219.7686" x="645.7002" y="218.0591">authenticateToken(req, res, next)</text></g><g class="message" data-participant-1="Auth" data-participant-2="Auth"><line style="stroke:#181818;stroke-width:1;" x1="628.7002" x2="670.7002" y1="267.3906" y2="267.3906"/><line style="stroke:#181818;stroke-width:1;" x1="670.7002" x2="670.7002" y1="267.3906" y2="280.3906"/><line style="stroke:#181818;stroke-width:1;" x1="629.7002" x2="670.7002" y1="280.3906" y2="280.3906"/><polygon fill="#181818" points="639.7002,276.3906,629.7002,280.3906,639.7002,284.3906,635.7002,280.3906" style="stroke:#181818;stroke-width:1;"/><text fill="#000000" font-family="sans-serif" font-size="13" lengthAdjust="spacing" textLength="132.5327" x="635.7002" y="247.1919">Verify JWT signature</text><text fill="#000000" font-family="sans-serif" font-size="13" lengthAdjust="spacing" textLength="222.5806" x="635.7002" y="262.3247">Extract userId from token payload</text></g><g class="message" data-participant-1="Auth" data-participant-2="Controller"><polygon fill="#181818" points="863.2808,305.5234,873.2808,309.5234,863.2808,313.5234,867.2808,309.5234" style="stroke:#181818;stroke-width:1;"/><line style="stroke:#181818;stroke-width:1;stroke-dasharray:2,2;" x1="623.7002" x2="869.2808" y1="309.5234" y2="309.5234"/><text fill="#000000" font-family="sans-serif" font-size="13" lengthAdjust="spacing" textLength="163.0903" x="630.7002" y="304.4575">req.user = {userId: "..."}</text></g><g class="message" data-participant-1="Controller" data-participant-2="FoodItemModel"><polygon fill="#181818" points="1271.9004,334.6563,1281.9004,338.6563,1271.9004,342.6563,1275.9004,338.6563" style="stroke:#181818;stroke-width:1;"/><line style="stroke:#181818;stroke-width:1;" x1="885.2808" x2="1277.9004" y1="338.6563" y2="338.6563"/><text fill="#000000" font-family="sans-serif" font-size="13" lengthAdjust="spacing" textLength="149.7095" x="892.2808" y="333.5903">findAllByUserId(userId)</text></g><g class="message" data-participant-1="FoodItemModel" data-participant-2="DB"><polygon fill="#181818" points="1891.5835,363.7891,1901.5835,367.7891,1891.5835,371.7891,1895.5835,367.7891" style="stroke:#181818;stroke-width:1;"/><line style="stroke:#181818;stroke-width:1;" x1="1293.9004" x2="1897.5835" y1="367.7891" y2="367.7891"/><text fill="#000000" font-family="sans-serif" font-size="13" lengthAdjust="spacing" textLength="230.4072" x="1300.9004" y="362.7231">db.fooditems.find({userId: userId})</text></g><g class="message" data-participant-1="DB" data-participant-2="FoodItemModel"><polygon fill="#181818" points="1304.9004,392.9219,1294.9004,396.9219,1304.9004,400.9219,1300.9004,396.9219" style="stroke:#181818;stroke-width:1;"/><line style="stroke:#181818;stroke-width:1;stroke-dasharray:2,2;" x1="1298.9004" x2="1907.5835" y1="396.9219" y2="396.9219"/><text fill="#000000" font-family="sans-serif" font-size="13" lengthAdjust="spacing" textLength="193.7622" x="1310.9004" y="391.856">Array of FoodItem documents</text></g><g class="message" data-participant-1="FoodItemModel" data-participant-2="Controller"><polygon fill="#181818" points="896.2808,422.0547,886.2808,426.0547,896.2808,430.0547,892.2808,426.0547" style="stroke:#181818;stroke-width:1;"/><line style="stroke:#181818;stroke-width:1;stroke-dasharray:2,2;" x1="890.2808" x2="1287.9004" y1="426.0547" y2="426.0547"/><text fill="#000000" font-family="sans-serif" font-size="13" lengthAdjust="spacing" textLength="359.709" x="902.2808" y="420.9888">FoodItem[](userId, typeId, expirationDate, percentLeft)</text></g><path d="M841.2383,441.0547 L917.8623,441.0547 L917.8623,448.1875 L907.8623,458.1875 L841.2383,458.1875 L841.2383,441.0547" fill="#EEEEEE" style="stroke:#000000;stroke-width:1.5;"/><rect fill="none" height="191.9297" style="stroke:#000000;stroke-width:1.5;" width="1114.0225" x="841.2383" y="441.0547"/><text fill="#000000" font-family="sans-serif" font-size="13" font-weight="bold" lengthAdjust="spacing" textLength="31.624" x="856.2383" y="454.1216">loop</text><text fill="#000000" font-family="sans-serif" font-size="11" font-weight="bold" lengthAdjust="spacing" textLength="178.3472" x="932.8623" y="453.2651">[For each FoodItem in array]</text><g class="message" data-participant-1="Controller" data-participant-2="FoodItemModel"><polygon fill="#181818" points="1271.9004,475.3203,1281.9004,479.3203,1271.9004,483.3203,1275.9004,479.3203" style="stroke:#181818;stroke-width:1;"/><line style="stroke:#181818;stroke-width:1;" x1="885.2808" x2="1277.9004" y1="479.3203" y2="479.3203"/><text fill="#000000" font-family="sans-serif" font-size="13" lengthAdjust="spacing" textLength="223.8057" x="892.2808" y="474.2544">getAssociatedFoodType(foodItem)</text></g><g class="message" data-participant-1="FoodItemModel" data-participant-2="FoodTypeModel"><polygon fill="#181818" points="1627.4282,504.4531,1637.4282,508.4531,1627.4282,512.4531,1631.4282,508.4531" style="stroke:#181818;stroke-width:1;"/><line style="stroke:#181818;stroke-width:1;" x1="1293.9004" x2="1633.4282" y1="508.4531" y2="508.4531"/><text fill="#000000" font-family="sans-serif" font-size="13" lengthAdjust="spacing" textLength="167.1084" x="1300.9004" y="503.3872">findById(foodItem.typeId)</text></g><g class="message" data-participant-1="FoodTypeModel" data-participant-2="DB"><polygon fill="#181818" points="1891.5835,533.5859,1901.5835,537.5859,1891.5835,541.5859,1895.5835,537.5859" style="stroke:#181818;stroke-width:1;"/><line style="stroke:#181818;stroke-width:1;" x1="1649.4282" x2="1897.5835" y1="537.5859" y2="537.5859"/><text fill="#000000" font-family="sans-serif" font-size="13" lengthAdjust="spacing" textLength="235.1553" x="1656.4282" y="532.52">db.foodtypes.findOne({_id: typeId})</text></g><g class="message" data-participant-1="DB" data-participant-2="FoodTypeModel"><polygon fill="#181818" points="1660.4282,562.7188,1650.4282,566.7188,1660.4282,570.7188,1656.4282,566.7188" style="stroke:#181818;stroke-width:1;"/><line style="stroke:#181818;stroke-width:1;stroke-dasharray:2,2;" x1="1654.4282" x2="1907.5835" y1="566.7188" y2="566.7188"/><text fill="#000000" font-family="sans-serif" font-size="13" lengthAdjust="spacing" textLength="133.2437" x="1666.4282" y="561.6528">FoodType document</text></g><g class="message" data-participant-1="FoodTypeModel" data-participant-2="FoodItemModel"><polygon fill="#181818" points="1304.9004,591.8516,1294.9004,595.8516,1304.9004,599.8516,1300.9004,595.8516" style="stroke:#181818;stroke-width:1;"/><line style="stroke:#181818;stroke-width:1;stroke-dasharray:2,2;" x1="1298.9004" x2="1643.4282" y1="595.8516" y2="595.8516"/><text fill="#000000" font-family="sans-serif" font-size="13" lengthAdjust="spacing" textLength="321.5278" x="1310.9004" y="590.7856">FoodType(name, nutrients, shelfLifeDays, image)</text></g><g class="message" data-participant-1="FoodItemModel" data-participant-2="Controller"><polygon fill="#181818" points="896.2808,620.9844,886.2808,624.9844,896.2808,628.9844,892.2808,624.9844" style="stroke:#181818;stroke-width:1;"/><line style="stroke:#181818;stroke-width:1;stroke-dasharray:2,2;" x1="890.2808" x2="1287.9004" y1="624.9844" y2="624.9844"/><text fill="#000000" font-family="sans-serif" font-size="13" lengthAdjust="spacing" textLength="96.9351" x="902.2808" y="619.9185">FoodType data</text></g><g class="message" data-participant-1="Controller" data-participant-2="Frontend"><polygon fill="#181818" points="316.7104,702.5156,306.7104,706.5156,316.7104,710.5156,312.7104,706.5156" style="stroke:#181818;stroke-width:1;"/><line style="stroke:#181818;stroke-width:1;stroke-dasharray:2,2;" x1="310.7104" x2="879.2808" y1="706.5156" y2="706.5156"/><text fill="#000000" font-family="sans-serif" font-size="13" lengthAdjust="spacing" textLength="47.7026" x="322.7104" y="656.0513">200 OK</text><text fill="#000000" font-family="sans-serif" font-size="13" lengthAdjust="spacing" textLength="115.0386" x="322.7104" y="671.1841">List&lt;FridgeItem&gt;</text><text fill="#000000" font-family="sans-serif" font-size="13" lengthAdjust="spacing" textLength="204.4072" x="322.7104" y="686.3169">(each with foodType metadata:</text><text fill="#000000" font-family="sans-serif" font-size="13" lengthAdjust="spacing" textLength="262.7041" x="322.7104" y="701.4497">name, nutrients, image, expirationDate)</text></g><g class="message" data-participant-1="Frontend" data-participant-2="Frontend"><line style="stroke:#181818;stroke-width:1;" x1="305.7104" x2="347.7104" y1="735.6484" y2="735.6484"/><line style="stroke:#181818;stroke-width:1;" x1="347.7104" x2="347.7104" y1="735.6484" y2="748.6484"/><line style="stroke:#181818;stroke-width:1;" x1="306.7104" x2="347.7104" y1="748.6484" y2="748.6484"/><polygon fill="#181818" points="316.7104,744.6484,306.7104,748.6484,316.7104,752.6484,312.7104,748.6484" style="stroke:#181818;stroke-width:1;"/><text fill="#000000" font-family="sans-serif" font-size="13" lengthAdjust="spacing" textLength="288.9897" x="312.7104" y="730.5825">sortFridgeItems(items, "EXPIRATION_DATE")</text></g><g class="message" data-participant-1="Frontend" data-participant-2="User"><polygon fill="#181818" points="34.9551,788.9141,24.9551,792.9141,34.9551,796.9141,30.9551,792.9141" style="stroke:#181818;stroke-width:1;"/><line style="stroke:#181818;stroke-width:1;stroke-dasharray:2,2;" x1="28.9551" x2="294.7104" y1="792.9141" y2="792.9141"/><text fill="#000000" font-family="sans-serif" font-size="13" lengthAdjust="spacing" textLength="159.4722" x="40.9551" y="772.7153">Display sorted inventory</text><text fill="#000000" font-family="sans-serif" font-size="13" lengthAdjust="spacing" textLength="135.1924" x="40.9551" y="787.8481">(soonest expiry first)</text></g><g class="message" data-participant-1="User" data-participant-2="Frontend"><polygon fill="#181818" points="283.7104,818.0469,293.7104,822.0469,283.7104,826.0469,287.7104,822.0469" style="stroke:#181818;stroke-width:1;"/><line style="stroke:#181818;stroke-width:1;" x1="23.9551" x2="289.7104" y1="822.0469" y2="822.0469"/><text fill="#000000" font-family="sans-serif" font-size="13" lengthAdjust="spacing" textLength="215.0142" x="30.9551" y="816.981">Selects "Sort by Expiration Date"</text></g><g class="message" data-participant-1="Frontend" data-participant-2="Frontend"><line style="stroke:#181818;stroke-width:1;" x1="305.7104" x2="347.7104" y1="866.3125" y2="866.3125"/><line style="stroke:#181818;stroke-width:1;" x1="347.7104" x2="347.7104" y1="866.3125" y2="879.3125"/><line style="stroke:#181818;stroke-width:1;" x1="306.7104" x2="347.7104" y1="879.3125" y2="879.3125"/><polygon fill="#181818" points="316.7104,875.3125,306.7104,879.3125,316.7104,883.3125,312.7104,879.3125" style="stroke:#181818;stroke-width:1;"/><text fill="#000000" font-family="sans-serif" font-size="13" lengthAdjust="spacing" textLength="208.2158" x="312.7104" y="846.1138">Re-sort items by expirationDate</text><text fill="#000000" font-family="sans-serif" font-size="13" lengthAdjust="spacing" textLength="115.6479" x="312.7104" y="861.2466">(ascending order)</text></g><g class="message" data-participant-1="Frontend" data-participant-2="User"><polygon fill="#181818" points="34.9551,919.5781,24.9551,923.5781,34.9551,927.5781,30.9551,923.5781" style="stroke:#181818;stroke-width:1;"/><line style="stroke:#181818;stroke-width:1;stroke-dasharray:2,2;" x1="28.9551" x2="294.7104" y1="923.5781" y2="923.5781"/><text fill="#000000" font-family="sans-serif" font-size="13" lengthAdjust="spacing" textLength="97.373" x="40.9551" y="903.3794">Update display</text><text fill="#000000" font-family="sans-serif" font-size="13" lengthAdjust="spacing" textLength="148.2876" x="40.9551" y="918.5122">(soonest expiry at top)</text></g><rect fill="#EEEEEE" height="3" style="stroke:#EEEEEE;stroke-width:1;" width="1965.2607" x="0" y="952.1445"/><line style="stroke:#000000;stroke-width:1;" x1="0" x2="1965.2607" y1="952.1445" y2="952.1445"/><line style="stroke:#000000;stroke-width:1;" x1="0" x2="1965.2607" y1="955.1445" y2="955.1445"/><rect fill="#EEEEEE" height="23.1328" style="stroke:#000000;stroke-width:2;" width="177.6553" x="893.8027" y="941.5781"/><text fill="#000000" font-family="sans-serif" font-size="13" font-weight="bold" lengthAdjust="spacing" textLength="159.1294" x="899.8027" y="957.645">Update Item Quantity</text><g class="message" data-participant-1="User" data-participant-2="Frontend"><polygon fill="#181818" points="283.7104,991.8438,293.7104,995.8438,283.7104,999.8438,287.7104,995.8438" style="stroke:#181818;stroke-width:1;"/><line style="stroke:#181818;stroke-width:1;" x1="23.9551" x2="289.7104" y1="995.8438" y2="995.8438"/><text fill="#000000" font-family="sans-serif" font-size="13" lengthAdjust="spacing" textLength="150.4585" x="30.9551" y="990.7778">Drags left on food item</text></g><g class="message" data-participant-1="Frontend" data-participant-2="User"><polygon fill="#181818" points="34.9551,1020.9766,24.9551,1024.9766,34.9551,1028.9766,30.9551,1024.9766" style="stroke:#181818;stroke-width:1;"/><line style="stroke:#181818;stroke-width:1;stroke-dasharray:2,2;" x1="28.9551" x2="294.7104" y1="1024.9766" y2="1024.9766"/><text fill="#000000" font-family="sans-serif" font-size="13" lengthAdjust="spacing" textLength="153.2261" x="40.9551" y="1019.9106">Show percentage slider</text></g><g class="message" data-participant-1="User" data-participant-2="Frontend"><polygon fill="#181818" points="283.7104,1050.1094,293.7104,1054.1094,283.7104,1058.1094,287.7104,1054.1094" style="stroke:#181818;stroke-width:1;"/><line style="stroke:#181818;stroke-width:1;" x1="23.9551" x2="289.7104" y1="1054.1094" y2="1054.1094"/><text fill="#000000" font-family="sans-serif" font-size="13" lengthAdjust="spacing" textLength="171.3931" x="30.9551" y="1049.0435">Adjusts to desired percent</text></g><g class="message" data-participant-1="Frontend" data-participant-2="Controller"><polygon fill="#181818" points="863.2808,1094.375,873.2808,1098.375,863.2808,1102.375,867.2808,1098.375" style="stroke:#181818;stroke-width:1;"/><line style="stroke:#181818;stroke-width:1;" x1="305.7104" x2="869.2808" y1="1098.375" y2="1098.375"/><text fill="#000000" font-family="sans-serif" font-size="13" lengthAdjust="spacing" textLength="255.8804" x="312.7104" y="1078.1763">PATCH /api/food-item/{itemId}/percent</text><text fill="#000000" font-family="sans-serif" font-size="13" lengthAdjust="spacing" textLength="161.2876" x="312.7104" y="1093.3091">{percentRemaining: 50}</text></g><g class="message" data-participant-1="Controller" data-participant-2="FoodItemModel"><polygon fill="#181818" points="1271.9004,1123.5078,1281.9004,1127.5078,1271.9004,1131.5078,1275.9004,1127.5078" style="stroke:#181818;stroke-width:1;"/><line style="stroke:#181818;stroke-width:1;" x1="885.2808" x2="1277.9004" y1="1127.5078" y2="1127.5078"/><text fill="#000000" font-family="sans-serif" font-size="13" lengthAdjust="spacing" textLength="222.2568" x="892.2808" y="1122.4419">update(itemId, {percentLeft: 50})</text></g><g class="message" data-participant-1="FoodItemModel" data-participant-2="DB"><polygon fill="#181818" points="1891.5835,1198.0391,1901.5835,1202.0391,1891.5835,1206.0391,1895.5835,1202.0391" style="stroke:#181818;stroke-width:1;"/><line style="stroke:#181818;stroke-width:1;" x1="1293.9004" x2="1897.5835" y1="1202.0391" y2="1202.0391"/><text fill="#000000" font-family="sans-serif" font-size="13" lengthAdjust="spacing" textLength="218.334" x="1300.9004" y="1151.5747">db.fooditems.findOneAndUpdate(</text><text fill="#000000" font-family="sans-serif" font-size="13" lengthAdjust="spacing" textLength="89.0068" x="1300.9004" y="1166.7075">{_id: itemId},</text><text fill="#000000" font-family="sans-serif" font-size="13" lengthAdjust="spacing" textLength="173.9131" x="1300.9004" y="1181.8403">{$set: {percentLeft: 50}},</text><text fill="#000000" font-family="sans-serif" font-size="13" lengthAdjust="spacing" textLength="83.6748" x="1300.9004" y="1196.9731">{new: true})</text></g><g class="message" data-participant-1="DB" data-participant-2="FoodItemModel"><polygon fill="#181818" points="1304.9004,1227.1719,1294.9004,1231.1719,1304.9004,1235.1719,1300.9004,1231.1719" style="stroke:#181818;stroke-width:1;"/><line style="stroke:#181818;stroke-width:1;stroke-dasharray:2,2;" x1="1298.9004" x2="1907.5835" y1="1231.1719" y2="1231.1719"/><text fill="#000000" font-family="sans-serif" font-size="13" lengthAdjust="spacing" textLength="190.417" x="1310.9004" y="1226.106">Updated FoodItem document</text></g><g class="message" data-participant-1="FoodItemModel" data-participant-2="Controller"><polygon fill="#181818" points="896.2808,1256.3047,886.2808,1260.3047,896.2808,1264.3047,892.2808,1260.3047" style="stroke:#181818;stroke-width:1;"/><line style="stroke:#181818;stroke-width:1;stroke-dasharray:2,2;" x1="890.2808" x2="1287.9004" y1="1260.3047" y2="1260.3047"/><text fill="#000000" font-family="sans-serif" font-size="13" lengthAdjust="spacing" textLength="374.6196" x="902.2808" y="1255.2388">FoodItem(userId, typeId, expirationDate, percentLeft: 50)</text></g><g class="message" data-participant-1="Controller" data-participant-2="Frontend"><polygon fill="#181818" points="316.7104,1300.5703,306.7104,1304.5703,316.7104,1308.5703,312.7104,1304.5703" style="stroke:#181818;stroke-width:1;"/><line style="stroke:#181818;stroke-width:1;stroke-dasharray:2,2;" x1="310.7104" x2="879.2808" y1="1304.5703" y2="1304.5703"/><text fill="#000000" font-family="sans-serif" font-size="13" lengthAdjust="spacing" textLength="47.7026" x="322.7104" y="1284.3716">200 OK</text><text fill="#000000" font-family="sans-serif" font-size="13" lengthAdjust="spacing" textLength="120.6943" x="322.7104" y="1299.5044">Updated FoodItem</text></g><g class="message" data-participant-1="Frontend" data-participant-2="User"><polygon fill="#181818" points="34.9551,1344.8359,24.9551,1348.8359,34.9551,1352.8359,30.9551,1348.8359" style="stroke:#181818;stroke-width:1;"/><line style="stroke:#181818;stroke-width:1;stroke-dasharray:2,2;" x1="28.9551" x2="299.7104" y1="1348.8359" y2="1348.8359"/><text fill="#000000" font-family="sans-serif" font-size="13" lengthAdjust="spacing" textLength="205.7021" x="40.9551" y="1328.6372">Update UI with new percentage</text><text fill="#000000" font-family="sans-serif" font-size="13" lengthAdjust="spacing" textLength="153.6006" x="40.9551" y="1343.77">(shows 50% remaining)</text></g><rect fill="#EEEEEE" height="3" style="stroke:#EEEEEE;stroke-width:1;" width="1965.2607" x="0" y="1377.4023"/><line style="stroke:#000000;stroke-width:1;" x1="0" x2="1965.2607" y1="1377.4023" y2="1377.4023"/><line style="stroke:#000000;stroke-width:1;" x1="0" x2="1965.2607" y1="1380.4023" y2="1380.4023"/><rect fill="#EEEEEE" height="23.1328" style="stroke:#000000;stroke-width:2;" width="115.061" x="925.0999" y="1366.8359"/><text fill="#000000" font-family="sans-serif" font-size="13" font-weight="bold" lengthAdjust="spacing" textLength="96.5352" x="931.0999" y="1382.9028">Remove Item</text><g class="message" data-participant-1="User" data-participant-2="Frontend"><polygon fill="#181818" points="283.7104,1417.1016,293.7104,1421.1016,283.7104,1425.1016,287.7104,1421.1016" style="stroke:#181818;stroke-width:1;"/><line style="stroke:#181818;stroke-width:1;" x1="23.9551" x2="289.7104" y1="1421.1016" y2="1421.1016"/><text fill="#000000" font-family="sans-serif" font-size="13" lengthAdjust="spacing" textLength="113.7881" x="30.9551" y="1416.0356">Drags item to 0%</text></g><g class="message" data-participant-1="Frontend" data-participant-2="Controller"><polygon fill="#181818" points="863.2808,1446.2344,873.2808,1450.2344,863.2808,1454.2344,867.2808,1450.2344" style="stroke:#181818;stroke-width:1;"/><line style="stroke:#181818;stroke-width:1;" x1="305.7104" x2="869.2808" y1="1450.2344" y2="1450.2344"/><text fill="#000000" font-family="sans-serif" font-size="13" lengthAdjust="spacing" textLength="207.7334" x="312.7104" y="1445.1685">DELETE /api/food-item/{itemId}</text></g><g class="message" data-participant-1="Controller" data-participant-2="FoodItemModel"><polygon fill="#181818" points="1271.9004,1475.3672,1281.9004,1479.3672,1271.9004,1483.3672,1275.9004,1479.3672" style="stroke:#181818;stroke-width:1;"/><line style="stroke:#181818;stroke-width:1;" x1="885.2808" x2="1277.9004" y1="1479.3672" y2="1479.3672"/><text fill="#000000" font-family="sans-serif" font-size="13" lengthAdjust="spacing" textLength="92.5552" x="892.2808" y="1474.3013">delete(itemId)</text></g><g class="message" data-participant-1="FoodItemModel" data-participant-2="DB"><polygon fill="#181818" points="1891.5835,1504.5,1901.5835,1508.5,1891.5835,1512.5,1895.5835,1508.5" style="stroke:#181818;stroke-width:1;"/><line style="stroke:#181818;stroke-width:1;" x1="1293.9004" x2="1897.5835" y1="1508.5" y2="1508.5"/><text fill="#000000" font-family="sans-serif" font-size="13" lengthAdjust="spacing" textLength="303.9131" x="1300.9004" y="1503.4341">db.fooditems.findOneAndDelete({_id: itemId})</text></g><g class="message" data-participant-1="DB" data-participant-2="FoodItemModel"><polygon fill="#181818" points="1304.9004,1533.6328,1294.9004,1537.6328,1304.9004,1541.6328,1300.9004,1537.6328" style="stroke:#181818;stroke-width:1;"/><line style="stroke:#181818;stroke-width:1;stroke-dasharray:2,2;" x1="1298.9004" x2="1907.5835" y1="1537.6328" y2="1537.6328"/><text fill="#000000" font-family="sans-serif" font-size="13" lengthAdjust="spacing" textLength="186.0498" x="1310.9004" y="1532.5669">Deleted FoodItem document</text></g><g class="message" data-participant-1="FoodItemModel" data-participant-2="Controller"><polygon fill="#181818" points="896.2808,1562.7656,886.2808,1566.7656,896.2808,1570.7656,892.2808,1566.7656" style="stroke:#181818;stroke-width:1;"/><line style="stroke:#181818;stroke-width:1;stroke-dasharray:2,2;" x1="890.2808" x2="1287.9004" y1="1566.7656" y2="1566.7656"/><text fill="#000000" font-family="sans-serif" font-size="13" lengthAdjust="spacing" textLength="116.3271" x="902.2808" y="1561.6997">Deleted FoodItem</text></g><g class="message" data-participant-1="Controller" data-participant-2="Frontend"><polygon fill="#181818" points="316.7104,1607.0313,306.7104,1611.0313,316.7104,1615.0313,312.7104,1611.0313" style="stroke:#181818;stroke-width:1;"/><line style="stroke:#181818;stroke-width:1;stroke-dasharray:2,2;" x1="310.7104" x2="879.2808" y1="1611.0313" y2="1611.0313"/><text fill="#000000" font-family="sans-serif" font-size="13" lengthAdjust="spacing" textLength="47.7026" x="322.7104" y="1590.8325">200 OK</text><text fill="#000000" font-family="sans-serif" font-size="13" lengthAdjust="spacing" textLength="213.916" x="322.7104" y="1605.9653">{message: "Food item deleted"}</text></g><g class="message" data-participant-1="Frontend" data-participant-2="Frontend"><line style="stroke:#181818;stroke-width:1;" x1="305.7104" x2="347.7104" y1="1640.1641" y2="1640.1641"/><line style="stroke:#181818;stroke-width:1;" x1="347.7104" x2="347.7104" y1="1640.1641" y2="1653.1641"/><line style="stroke:#181818;stroke-width:1;" x1="306.7104" x2="347.7104" y1="1653.1641" y2="1653.1641"/><polygon fill="#181818" points="316.7104,1649.1641,306.7104,1653.1641,316.7104,1657.1641,312.7104,1653.1641" style="stroke:#181818;stroke-width:1;"/><text fill="#000000" font-family="sans-serif" font-size="13" lengthAdjust="spacing" textLength="231.4482" x="312.7104" y="1635.0981">Remove item from local state array</text></g><g class="message" data-participant-1="Frontend" data-participant-2="User"><polygon fill="#181818" points="34.9551,1678.2969,24.9551,1682.2969,34.9551,1686.2969,30.9551,1682.2969" style="stroke:#181818;stroke-width:1;"/><line style="stroke:#181818;stroke-width:1;stroke-dasharray:2,2;" x1="28.9551" x2="299.7104" y1="1682.2969" y2="1682.2969"/><text fill="#000000" font-family="sans-serif" font-size="13" lengthAdjust="spacing" textLength="247.7554" x="40.9551" y="1677.231">Item disappears from fridge inventory</text></g><!--SRC=[hLPTJoCt57tFhxYAkbAGGa2j-Z9Qa18cszB2iWjXMwbKAnFV2MudzjHsW6d4VzzhUoRpaGbbb_8mn3E-vvvplsmhR8fmRH1E63r-YE2Jm0TufmLVOA_7vbPfzrdtCgQjc8kCIGlzTrf9YvBtWHae5yqjuvMzEnUSf_Z0DFgDxbKRn_dn7qy8HAiqtNAb53-rk0okYiMvufXkxvlb6MxskKNOnvbbjqvU_rp9XOedVayywVMSCjW_taY8u3sx5mjcqO1LSAUM21cZI50Wn3szhiIMFvnvnJs2dwOpE62PE4YyjXivSBAL5lyoAvICO88K3mrlV_bjThnN0TVqzwhV3jtPHy3eYPBqqkQP-XlbGEC_Gz1eXY3nqTQWV9pTexB-X5eaEP1FC68XcLrfeZPzj9giO4LXEEMGQBKasOHDelDKCLwWj2IIuv4pWIDO1zC8-gFHgF_KuzXaqPBIo5y4YP1ydAQJ_DgZ309OJKaptusLWuid4V3RKKBl1Rqt8mSus70A_vzgU9JpUEBrj9YCjMOvg6Jp7hYQhvOKS5FNHFOj4gtGb5__-BCGCmHBTUZ-usCcjA-1cA26aA6U4_uP9fIxce-cvbwgL4RlDD2EkugUaC0SvnxGtxD1Ng0T6wFcWi1vsHY3fDYqvm5sE7UVjeBUwAsGmqbEoIiHHq5m1t3LaINmvaqhcmuYPFD2uc3zML0s0-nJ2vSoujQrhDQubSjDCltUPZuxg6p7S1CsoPQKEhcoMhZQ68AvmpGv4md6BAUbMDAqs6kxwHR_V1K5tZIvki2g5BbHr6YonZJx_l0GBdwzaMV2sBTXs3hJOvfAlfmU1BLtKdfRecNEOtGZjtHwOUqYRjHjVO3LXsF5nYXjAn9cu7js2FtfxnzEByUpqultd-FnRDhVgzaJW1iE4SJ2P2drg0D1JlL_JyIKpacAKKgYiO5SJXMf3RLKnt2_mXJdra3_Ya3WDeVfHWuuFVqTn2zntxa5JzZPDSD059YXNkP2Ba1fZhfJmNN6NPnu4BBDcraQlXaHFpegz_fM_xYY0qxO78wEEZJ5cYqCf3H5W5IuN7gQNGIkxjH3ENOecs1IGLmxCCVyhvMn_WZaQ8IcU1TcEu-z3-FPoS_5mKSSzXs7WxLxKiyU5DOtSbtykiGb4vBY5S6FXqylEGLR7Rdo0He41qDOrwQfXtpb8K9ZPonvoCA0QFi9LAWPqlexW-Hdowl_9l61ffLUuOjEdk23RnyyttJkVCsfunW_T_ByvrHfKzyn3NQtmlLfc40KiLfTkiwWIZL4xmtTDOf2QJ8jRs6kLwYMr7tHAy-qYCkUg-Z3DrzncukdPzFPT5TTVqFTqWCtTVk_56aS41ib-fB22tQlBRmsoclgQRr4OwW0ed2R3naB0UFDksLdTJKdjgy9Z-2ljQcQinICTTRXujHHbY4Cmh0ieqkw2PRX7byTE5rr-0K0]--></g></svg>