<svg xmlns="http://www.w3.org/2000/svg" xmlns:xlink="http://www.w3.org/1999/xlink" contentStyleType="text/css" data-diagram-type="SEQUENCE" height="892px" preserveAspectRatio="none" style="width:1035px;height:892px;background:#FFFFFF;" version="1.1" viewBox="0 0 1035 892" width="1035px" zoomAndPan="magnify"><title>Use Case 5: View Nutritional Facts</title><defs/><g><text fill="#000000" font-family="sans-serif" font-size="14" font-weight="bold" lengthAdjust="spacing" textLength="272.2549" x="380.1726" y="27.9951">Use Case 5: View Nutritional Facts</text><rect fill="none" height="254.3984" style="stroke:#000000;stroke-width:1.5;" width="561.6553" x="10" y="383.7891"/><g><title>User</title><rect fill="#000000" fill-opacity="0.00000" height="692.7891" width="8" x="34.9551" y="118.5938"/><line style="stroke:#181818;stroke-width:0.5;stroke-dasharray:5,5;" x1="38" x2="38" y1="118.5938" y2="811.3828"/></g><g><title>Frontend</title><rect fill="#000000" fill-opacity="0.00000" height="692.7891" width="8" x="249.7656" y="118.5938"/><line style="stroke:#181818;stroke-width:0.5;stroke-dasharray:5,5;" x1="253.0864" x2="253.0864" y1="118.5938" y2="811.3828"/></g><g><title>Backend</title><rect fill="#000000" fill-opacity="0.00000" height="692.7891" width="8" x="517.7061" y="118.5938"/><line style="stroke:#181818;stroke-width:0.5;stroke-dasharray:5,5;" x1="520.7568" x2="520.7568" y1="118.5938" y2="811.3828"/></g><g><title>MongoDB</title><rect fill="#000000" fill-opacity="0.00000" height="692.7891" width="8" x="830.8735" y="118.5938"/><line style="stroke:#181818;stroke-width:0.5;stroke-dasharray:5,5;" x1="834.1963" x2="834.1963" y1="118.5938" y2="811.3828"/></g><g class="participant participant-head" data-participant="User"><text fill="#000000" font-family="sans-serif" font-size="14" lengthAdjust="spacing" textLength="31.9102" x="20" y="115.292">User</text><ellipse cx="38.9551" cy="50.7969" fill="#E2E2F0" rx="8" ry="8" style="stroke:#181818;stroke-width:0.5;"/><path d="M38.9551,58.7969 L38.9551,85.7969 M25.9551,66.7969 L51.9551,66.7969 M38.9551,85.7969 L25.9551,100.7969 M38.9551,85.7969 L51.9551,100.7969" fill="none" style="stroke:#181818;stroke-width:0.5;"/></g><g class="participant participant-tail" data-participant="User"><text fill="#000000" font-family="sans-serif" font-size="14" lengthAdjust="spacing" textLength="31.9102" x="20" y="823.3779">User</text><ellipse cx="38.9551" cy="835.1797" fill="#E2E2F0" rx="8" ry="8" style="stroke:#181818;stroke-width:0.5;"/><path d="M38.9551,843.1797 L38.9551,870.1797 M25.9551,851.1797 L51.9551,851.1797 M38.9551,870.1797 L25.9551,885.1797 M38.9551,870.1797 L51.9551,885.1797" fill="none" style="stroke:#181818;stroke-width:0.5;"/></g><g class="participant participant-head" data-participant="Frontend"><rect fill="#E2E2F0" height="46.5938" rx="2.5" ry="2.5" style="stroke:#181818;stroke-width:0.5;" width="79.3584" x="214.0864" y="71"/><text fill="#000000" font-family="sans-serif" font-size="14" lengthAdjust="spacing" textLength="63.1094" x="222.2109" y="90.9951">Frontend</text><text fill="#000000" font-family="sans-serif" font-size="14" lengthAdjust="spacing" textLength="65.3584" x="221.0864" y="107.292">(Android)</text></g><g class="participant participant-tail" data-participant="Frontend"><rect fill="#E2E2F0" height="46.5938" rx="2.5" ry="2.5" style="stroke:#181818;stroke-width:0.5;" width="79.3584" x="214.0864" y="810.3828"/><text fill="#000000" font-family="sans-serif" font-size="14" lengthAdjust="spacing" textLength="63.1094" x="222.2109" y="830.3779">Frontend</text><text fill="#000000" font-family="sans-serif" font-size="14" lengthAdjust="spacing" textLength="65.3584" x="221.0864" y="846.6748">(Android)</text></g><g class="participant participant-head" data-participant="Backend"><rect fill="#E2E2F0" height="46.5938" rx="2.5" ry="2.5" style="stroke:#181818;stroke-width:0.5;" width="79.8984" x="481.7568" y="71"/><text fill="#000000" font-family="sans-serif" font-size="14" lengthAdjust="spacing" textLength="60.3613" x="491.5254" y="90.9951">Backend</text><text fill="#000000" font-family="sans-serif" font-size="14" lengthAdjust="spacing" textLength="65.8984" x="488.7568" y="107.292">(Express)</text></g><g class="participant participant-tail" data-participant="Backend"><rect fill="#E2E2F0" height="46.5938" rx="2.5" ry="2.5" style="stroke:#181818;stroke-width:0.5;" width="79.8984" x="481.7568" y="810.3828"/><text fill="#000000" font-family="sans-serif" font-size="14" lengthAdjust="spacing" textLength="60.3613" x="491.5254" y="830.3779">Backend</text><text fill="#000000" font-family="sans-serif" font-size="14" lengthAdjust="spacing" textLength="65.8984" x="488.7568" y="846.6748">(Express)</text></g><g class="participant participant-head" data-participant="DB"><text fill="#000000" font-family="sans-serif" font-size="14" lengthAdjust="spacing" textLength="67.3545" x="798.1963" y="115.292">MongoDB</text><path d="M816.8735,66.2969 C816.8735,56.2969 834.8735,56.2969 834.8735,56.2969 C834.8735,56.2969 852.8735,56.2969 852.8735,66.2969 L852.8735,92.2969 C852.8735,102.2969 834.8735,102.2969 834.8735,102.2969 C834.8735,102.2969 816.8735,102.2969 816.8735,92.2969 L816.8735,66.2969" fill="#E2E2F0" style="stroke:#181818;stroke-width:0.5;"/><path d="M816.8735,66.2969 C816.8735,76.2969 834.8735,76.2969 834.8735,76.2969 C834.8735,76.2969 852.8735,76.2969 852.8735,66.2969" fill="none" style="stroke:#181818;stroke-width:0.5;"/></g><g class="participant participant-tail" data-participant="DB"><text fill="#000000" font-family="sans-serif" font-size="14" lengthAdjust="spacing" textLength="67.3545" x="798.1963" y="823.3779">MongoDB</text><path d="M816.8735,836.6797 C816.8735,826.6797 834.8735,826.6797 834.8735,826.6797 C834.8735,826.6797 852.8735,826.6797 852.8735,836.6797 L852.8735,862.6797 C852.8735,872.6797 834.8735,872.6797 834.8735,872.6797 C834.8735,872.6797 816.8735,872.6797 816.8735,862.6797 L816.8735,836.6797" fill="#E2E2F0" style="stroke:#181818;stroke-width:0.5;"/><path d="M816.8735,836.6797 C816.8735,846.6797 834.8735,846.6797 834.8735,846.6797 C834.8735,846.6797 852.8735,846.6797 852.8735,836.6797" fill="none" style="stroke:#181818;stroke-width:0.5;"/></g><g class="message" data-participant-1="User" data-participant-2="Frontend"><polygon fill="#181818" points="241.7656,160.8594,251.7656,164.8594,241.7656,168.8594,245.7656,164.8594" style="stroke:#181818;stroke-width:1;"/><line style="stroke:#181818;stroke-width:1;" x1="38.9551" x2="247.7656" y1="164.8594" y2="164.8594"/><text fill="#000000" font-family="sans-serif" font-size="13" lengthAdjust="spacing" textLength="124.4458" x="45.9551" y="144.6606">Clicks on food item</text><text fill="#000000" font-family="sans-serif" font-size="13" lengthAdjust="spacing" textLength="77.2446" x="45.9551" y="159.7935">in fridge list</text></g><g class="message" data-participant-1="Frontend" data-participant-2="User"><polygon fill="#181818" points="49.9551,189.9922,39.9551,193.9922,49.9551,197.9922,45.9551,193.9922" style="stroke:#181818;stroke-width:1;"/><line style="stroke:#181818;stroke-width:1;stroke-dasharray:2,2;" x1="43.9551" x2="252.7656" y1="193.9922" y2="193.9922"/><text fill="#000000" font-family="sans-serif" font-size="13" lengthAdjust="spacing" textLength="145.958" x="55.9551" y="188.9263">Display item submenu</text></g><g class="message" data-participant-1="User" data-participant-2="Frontend"><polygon fill="#181818" points="241.7656,219.125,251.7656,223.125,241.7656,227.125,245.7656,223.125" style="stroke:#181818;stroke-width:1;"/><line style="stroke:#181818;stroke-width:1;" x1="38.9551" x2="247.7656" y1="223.125" y2="223.125"/><text fill="#000000" font-family="sans-serif" font-size="13" lengthAdjust="spacing" textLength="139.4961" x="45.9551" y="218.0591">Clicks "Nutrition Info"</text></g><g class="message" data-participant-1="Frontend" data-participant-2="Backend"><polygon fill="#181818" points="509.7061,248.2578,519.7061,252.2578,509.7061,256.2578,513.7061,252.2578" style="stroke:#181818;stroke-width:1;"/><line style="stroke:#181818;stroke-width:1;" x1="253.7656" x2="515.7061" y1="252.2578" y2="252.2578"/><text fill="#000000" font-family="sans-serif" font-size="13" lengthAdjust="spacing" textLength="243.9404" x="260.7656" y="247.1919">GET /api/food-item/{itemId}/nutrition</text></g><g class="message" data-participant-1="Backend" data-participant-2="DB"><polygon fill="#181818" points="822.8735,277.3906,832.8735,281.3906,822.8735,285.3906,826.8735,281.3906" style="stroke:#181818;stroke-width:1;"/><line style="stroke:#181818;stroke-width:1;" x1="521.7061" x2="828.8735" y1="281.3906" y2="281.3906"/><text fill="#000000" font-family="sans-serif" font-size="13" lengthAdjust="spacing" textLength="170.3394" x="528.7061" y="276.3247">FoodItem.findById(itemId)</text></g><g class="message" data-participant-1="DB" data-participant-2="Backend"><polygon fill="#181818" points="532.7061,306.5234,522.7061,310.5234,532.7061,314.5234,528.7061,310.5234" style="stroke:#181818;stroke-width:1;"/><line style="stroke:#181818;stroke-width:1;stroke-dasharray:2,2;" x1="526.7061" x2="833.8735" y1="310.5234" y2="310.5234"/><text fill="#000000" font-family="sans-serif" font-size="13" lengthAdjust="spacing" textLength="130.9521" x="538.7061" y="305.4575">FoodItem document</text></g><g class="message" data-participant-1="Backend" data-participant-2="DB"><polygon fill="#181818" points="822.8735,335.6563,832.8735,339.6563,822.8735,343.6563,826.8735,339.6563" style="stroke:#181818;stroke-width:1;"/><line style="stroke:#181818;stroke-width:1;" x1="521.7061" x2="828.8735" y1="339.6563" y2="339.6563"/><text fill="#000000" font-family="sans-serif" font-size="13" lengthAdjust="spacing" textLength="289.1675" x="528.7061" y="334.5903">FoodItem.getAssociatedFoodType(foodItem)</text></g><g class="message" data-participant-1="DB" data-participant-2="Backend"><polygon fill="#181818" points="532.7061,364.7891,522.7061,368.7891,532.7061,372.7891,528.7061,368.7891" style="stroke:#181818;stroke-width:1;"/><line style="stroke:#181818;stroke-width:1;stroke-dasharray:2,2;" x1="526.7061" x2="833.8735" y1="368.7891" y2="368.7891"/><text fill="#000000" font-family="sans-serif" font-size="13" lengthAdjust="spacing" textLength="158.0059" x="538.7061" y="363.7231">FoodType with nutrients</text></g><path d="M10,383.7891 L74.4429,383.7891 L74.4429,390.9219 L64.4429,400.9219 L10,400.9219 L10,383.7891" fill="#EEEEEE" style="stroke:#000000;stroke-width:1.5;"/><rect fill="none" height="254.3984" style="stroke:#000000;stroke-width:1.5;" width="561.6553" x="10" y="383.7891"/><text fill="#000000" font-family="sans-serif" font-size="13" font-weight="bold" lengthAdjust="spacing" textLength="19.4429" x="25" y="396.856">alt</text><text fill="#000000" font-family="sans-serif" font-size="11" font-weight="bold" lengthAdjust="spacing" textLength="149.4722" x="89.4429" y="395.9995">[Nutritional data exists]</text><g class="message" data-participant-1="Backend" data-participant-2="Frontend"><polygon fill="#181818" points="264.7656,463.4531,254.7656,467.4531,264.7656,471.4531,260.7656,467.4531" style="stroke:#181818;stroke-width:1;"/><line style="stroke:#181818;stroke-width:1;stroke-dasharray:2,2;" x1="258.7656" x2="520.7061" y1="467.4531" y2="467.4531"/><text fill="#000000" font-family="sans-serif" font-size="13" lengthAdjust="spacing" textLength="47.7026" x="270.7656" y="416.9888">200 OK</text><text fill="#000000" font-family="sans-serif" font-size="13" lengthAdjust="spacing" textLength="81.5229" x="270.7656" y="432.1216">NutritionInfo</text><text fill="#000000" font-family="sans-serif" font-size="13" lengthAdjust="spacing" textLength="184.0249" x="270.7656" y="447.2544">(calories, protein, fat, carbs,</text><text fill="#000000" font-family="sans-serif" font-size="13" lengthAdjust="spacing" textLength="210.647" x="270.7656" y="462.3872">saturatedFat, fiber, sugars, etc.)</text></g><g class="message" data-participant-1="Frontend" data-participant-2="User"><polygon fill="#181818" points="49.9551,507.7188,39.9551,511.7188,49.9551,515.7188,45.9551,511.7188" style="stroke:#181818;stroke-width:1;"/><line style="stroke:#181818;stroke-width:1;stroke-dasharray:2,2;" x1="43.9551" x2="252.7656" y1="511.7188" y2="511.7188"/><text fill="#000000" font-family="sans-serif" font-size="13" lengthAdjust="spacing" textLength="190.8105" x="55.9551" y="491.52">Display nutrition facts screen</text><text fill="#000000" font-family="sans-serif" font-size="13" lengthAdjust="spacing" textLength="160.7988" x="55.9551" y="506.6528">with detailed breakdown</text></g><line style="stroke:#000000;stroke-width:1;stroke-dasharray:2,2;" x1="10" x2="571.6553" y1="520.7188" y2="520.7188"/><text fill="#000000" font-family="sans-serif" font-size="11" font-weight="bold" lengthAdjust="spacing" textLength="188.0957" x="15" y="530.9292">[No nutritional data available]</text><g class="message" data-participant-1="Backend" data-participant-2="Frontend"><polygon fill="#181818" points="264.7656,566.7891,254.7656,570.7891,264.7656,574.7891,260.7656,570.7891" style="stroke:#181818;stroke-width:1;"/><line style="stroke:#181818;stroke-width:1;stroke-dasharray:2,2;" x1="258.7656" x2="520.7061" y1="570.7891" y2="570.7891"/><text fill="#000000" font-family="sans-serif" font-size="13" lengthAdjust="spacing" textLength="96.0146" x="270.7656" y="550.5903">404 Not Found</text><text fill="#000000" font-family="sans-serif" font-size="13" lengthAdjust="spacing" textLength="202.103" x="270.7656" y="565.7231">"Nutritional data not available"</text></g><g class="message" data-participant-1="Frontend" data-participant-2="User"><polygon fill="#181818" points="49.9551,626.1875,39.9551,630.1875,49.9551,634.1875,45.9551,630.1875" style="stroke:#181818;stroke-width:1;"/><line style="stroke:#181818;stroke-width:1;stroke-dasharray:2,2;" x1="43.9551" x2="252.7656" y1="630.1875" y2="630.1875"/><text fill="#000000" font-family="sans-serif" font-size="13" lengthAdjust="spacing" textLength="114.8545" x="55.9551" y="594.856">Display message:</text><text fill="#000000" font-family="sans-serif" font-size="13" lengthAdjust="spacing" textLength="185.4277" x="55.9551" y="609.9888">"No nutrition data available"</text><text fill="#000000" font-family="sans-serif" font-size="13" lengthAdjust="spacing" textLength="169.292" x="55.9551" y="625.1216">Offer manual entry option</text></g><path d="M839,650.1875 L839,796.1875 L1028,796.1875 L1028,660.1875 L1018,650.1875 L839,650.1875" fill="#FEFFDD" style="stroke:#181818;stroke-width:0.5;"/><path d="M1018,650.1875 L1018,660.1875 L1028,660.1875 L1018,650.1875" fill="#FEFFDD" style="stroke:#181818;stroke-width:0.5;"/><text fill="#000000" font-family="sans-serif" font-size="13" lengthAdjust="spacing" textLength="168.6001" x="845" y="667.2544">Nutrients stored per 100g</text><text fill="#000000" font-family="sans-serif" font-size="13" lengthAdjust="spacing" textLength="150.3887" x="845" y="682.3872">in FoodType collection:</text><text fill="#000000" font-family="sans-serif" font-size="13" lengthAdjust="spacing" textLength="125.1567" x="845" y="697.52">- calories, energyKj</text><text fill="#000000" font-family="sans-serif" font-size="13" lengthAdjust="spacing" textLength="124.9727" x="845" y="712.6528">- protein, fat, carbs</text><text fill="#000000" font-family="sans-serif" font-size="13" lengthAdjust="spacing" textLength="154.3242" x="845" y="727.7856">- saturatedFat, transFat</text><text fill="#000000" font-family="sans-serif" font-size="13" lengthAdjust="spacing" textLength="90.2192" x="845" y="742.9185">- fiber, sugars</text><text fill="#000000" font-family="sans-serif" font-size="13" lengthAdjust="spacing" textLength="88.0293" x="845" y="758.0513">- sodium, salt</text><text fill="#000000" font-family="sans-serif" font-size="13" lengthAdjust="spacing" textLength="168.2192" x="845" y="773.1841">- calcium, iron, potassium</text><text fill="#000000" font-family="sans-serif" font-size="13" lengthAdjust="spacing" textLength="80.5518" x="845" y="788.3169">- cholesterol</text><!--SRC=[XLF1Rjim3BthAmYVMY1fig6x-52WQPeXADPUkfroOIJQrQ98XaIl3ORz-oWdTfkkxN8GOlBnwOcFPCkEu7iYk48vlfJmmz8ZtBOSBTlWqS42DIUbv0mn8wDgCBBLja7FK2nYy4pUhFp9fJSnM7DQ02ReuyVe6UhD7dpzr4HAQGy-X9L1ndKMKdmBlWxpMPUTpvJA5yFuOg0juSfPlKaGF5GX6B1CsvMtyXMjgGcSJQnwD8obD5EKCBUfSRZhy93QzPPy-pvxCNG2bhuAXNf1UT7BBk7hzJrCiB6JB6MSgIU_yxaqVoQ-Pr3gWC-byra92m4l1NLMMMzckwKvsTUSglciKppmzqWmGRUYcD_dgealKmhQ8fF9qVjTGoVL8VqsTOR0e-K7wCGAVpRSyT4SP6-0dgIjIO7y1W57VViydSBTpSeFbRbjOhT65uGvZQ29WSdw4LJ88z0OrscqyWcvZPta7Atick98xAanIWcnFZjLtQqVE3eqMfXbP27fIEHNldkO8KRhoC0w4cvCU1GxoCcatORdmlwL-4kmk7RqmKFFf-TIozA_DizpyK-hl2G7ek9_uhUo2rXJcPbUA7gbfrZvkwgIMTsYR-KYSIhk83JTUEK5Kd8hGRJr0qEeykR0tiJiAIHPOMb18mIVfjDQSh8lmm3eu1pfJ5LAPWpFbf6dMEzkVdRXD_phuiSESaIVv5-NEh9p3mx6jbi9oPJrb-akOgL7CYI1CIK9x9CFmL5YYi7bL-RMqby0]--></g></svg>