<svg xmlns="http://www.w3.org/2000/svg" xmlns:xlink="http://www.w3.org/1999/xlink" contentStyleType="text/css" data-diagram-type="SEQUENCE" height="1340px" preserveAspectRatio="none" style="width:919px;height:1340px;background:#FFFFFF;" version="1.1" viewBox="0 0 919 1340" width="919px" zoomAndPan="magnify"><title>Use Case 3: View Fridge</title><defs/><g><text fill="#000000" font-family="sans-serif" font-size="14" font-weight="bold" lengthAdjust="spacing" textLength="190.4492" x="360.6226" y="27.9951">Use Case 3: View Fridge</text><rect fill="none" height="75.3984" style="stroke:#000000;stroke-width:1.5;" width="409.7939" x="492.9004" y="324.5234"/><g><title>User</title><rect fill="#000000" fill-opacity="0.00000" height="1141.3125" width="8" x="19.9551" y="118.5938"/><line style="stroke:#181818;stroke-width:0.5;stroke-dasharray:5,5;" x1="23" x2="23" y1="118.5938" y2="1259.9063"/></g><g><title>Frontend</title><rect fill="#000000" fill-opacity="0.00000" height="1141.3125" width="8" x="258.9692" y="118.5938"/><line style="stroke:#181818;stroke-width:0.5;stroke-dasharray:5,5;" x1="262.29" x2="262.29" y1="118.5938" y2="1259.9063"/></g><g><title>Backend</title><rect fill="#000000" fill-opacity="0.00000" height="1141.3125" width="8" x="538.8496" y="118.5938"/><line style="stroke:#181818;stroke-width:0.5;stroke-dasharray:5,5;" x1="541.9004" x2="541.9004" y1="118.5938" y2="1259.9063"/></g><g><title>MongoDB</title><rect fill="#000000" fill-opacity="0.00000" height="1141.3125" width="8" x="852.0171" y="118.5938"/><line style="stroke:#181818;stroke-width:0.5;stroke-dasharray:5,5;" x1="855.3398" x2="855.3398" y1="118.5938" y2="1259.9063"/></g><g class="participant participant-head" data-participant="User"><text fill="#000000" font-family="sans-serif" font-size="14" lengthAdjust="spacing" textLength="31.9102" x="5" y="115.292">User</text><ellipse cx="23.9551" cy="50.7969" fill="#E2E2F0" rx="8" ry="8" style="stroke:#181818;stroke-width:0.5;"/><path d="M23.9551,58.7969 L23.9551,85.7969 M10.9551,66.7969 L36.9551,66.7969 M23.9551,85.7969 L10.9551,100.7969 M23.9551,85.7969 L36.9551,100.7969" fill="none" style="stroke:#181818;stroke-width:0.5;"/></g><g class="participant participant-tail" data-participant="User"><text fill="#000000" font-family="sans-serif" font-size="14" lengthAdjust="spacing" textLength="31.9102" x="5" y="1271.9014">User</text><ellipse cx="23.9551" cy="1283.7031" fill="#E2E2F0" rx="8" ry="8" style="stroke:#181818;stroke-width:0.5;"/><path d="M23.9551,1291.7031 L23.9551,1318.7031 M10.9551,1299.7031 L36.9551,1299.7031 M23.9551,1318.7031 L10.9551,1333.7031 M23.9551,1318.7031 L36.9551,1333.7031" fill="none" style="stroke:#181818;stroke-width:0.5;"/></g><g class="participant participant-head" data-participant="Frontend"><rect fill="#E2E2F0" height="46.5938" rx="2.5" ry="2.5" style="stroke:#181818;stroke-width:0.5;" width="79.3584" x="223.29" y="71"/><text fill="#000000" font-family="sans-serif" font-size="14" lengthAdjust="spacing" textLength="63.1094" x="231.4146" y="90.9951">Frontend</text><text fill="#000000" font-family="sans-serif" font-size="14" lengthAdjust="spacing" textLength="65.3584" x="230.29" y="107.292">(Android)</text></g><g class="participant participant-tail" data-participant="Frontend"><rect fill="#E2E2F0" height="46.5938" rx="2.5" ry="2.5" style="stroke:#181818;stroke-width:0.5;" width="79.3584" x="223.29" y="1258.9063"/><text fill="#000000" font-family="sans-serif" font-size="14" lengthAdjust="spacing" textLength="63.1094" x="231.4146" y="1278.9014">Frontend</text><text fill="#000000" font-family="sans-serif" font-size="14" lengthAdjust="spacing" textLength="65.3584" x="230.29" y="1295.1982">(Android)</text></g><g class="participant participant-head" data-participant="Backend"><rect fill="#E2E2F0" height="46.5938" rx="2.5" ry="2.5" style="stroke:#181818;stroke-width:0.5;" width="79.8984" x="502.9004" y="71"/><text fill="#000000" font-family="sans-serif" font-size="14" lengthAdjust="spacing" textLength="60.3613" x="512.6689" y="90.9951">Backend</text><text fill="#000000" font-family="sans-serif" font-size="14" lengthAdjust="spacing" textLength="65.8984" x="509.9004" y="107.292">(Express)</text></g><g class="participant participant-tail" data-participant="Backend"><rect fill="#E2E2F0" height="46.5938" rx="2.5" ry="2.5" style="stroke:#181818;stroke-width:0.5;" width="79.8984" x="502.9004" y="1258.9063"/><text fill="#000000" font-family="sans-serif" font-size="14" lengthAdjust="spacing" textLength="60.3613" x="512.6689" y="1278.9014">Backend</text><text fill="#000000" font-family="sans-serif" font-size="14" lengthAdjust="spacing" textLength="65.8984" x="509.9004" y="1295.1982">(Express)</text></g><g class="participant participant-head" data-participant="DB"><text fill="#000000" font-family="sans-serif" font-size="14" lengthAdjust="spacing" textLength="67.3545" x="819.3398" y="115.292">MongoDB</text><path d="M838.0171,66.2969 C838.0171,56.2969 856.0171,56.2969 856.0171,56.2969 C856.0171,56.2969 874.0171,56.2969 874.0171,66.2969 L874.0171,92.2969 C874.0171,102.2969 856.0171,102.2969 856.0171,102.2969 C856.0171,102.2969 838.0171,102.2969 838.0171,92.2969 L838.0171,66.2969" fill="#E2E2F0" style="stroke:#181818;stroke-width:0.5;"/><path d="M838.0171,66.2969 C838.0171,76.2969 856.0171,76.2969 856.0171,76.2969 C856.0171,76.2969 874.0171,76.2969 874.0171,66.2969" fill="none" style="stroke:#181818;stroke-width:0.5;"/></g><g class="participant participant-tail" data-participant="DB"><text fill="#000000" font-family="sans-serif" font-size="14" lengthAdjust="spacing" textLength="67.3545" x="819.3398" y="1271.9014">MongoDB</text><path d="M838.0171,1285.2031 C838.0171,1275.2031 856.0171,1275.2031 856.0171,1275.2031 C856.0171,1275.2031 874.0171,1275.2031 874.0171,1285.2031 L874.0171,1311.2031 C874.0171,1321.2031 856.0171,1321.2031 856.0171,1321.2031 C856.0171,1321.2031 838.0171,1321.2031 838.0171,1311.2031 L838.0171,1285.2031" fill="#E2E2F0" style="stroke:#181818;stroke-width:0.5;"/><path d="M838.0171,1285.2031 C838.0171,1295.2031 856.0171,1295.2031 856.0171,1295.2031 C856.0171,1295.2031 874.0171,1295.2031 874.0171,1285.2031" fill="none" style="stroke:#181818;stroke-width:0.5;"/></g><g class="message" data-participant-1="User" data-participant-2="Frontend"><polygon fill="#181818" points="250.9692,145.7266,260.9692,149.7266,250.9692,153.7266,254.9692,149.7266" style="stroke:#181818;stroke-width:1;"/><line style="stroke:#181818;stroke-width:1;" x1="23.9551" x2="256.9692" y1="149.7266" y2="149.7266"/><text fill="#000000" font-family="sans-serif" font-size="13" lengthAdjust="spacing" textLength="159.853" x="30.9551" y="144.6606">Navigates to home page</text></g><g class="message" data-participant-1="Frontend" data-participant-2="Backend"><polygon fill="#181818" points="530.8496,189.9922,540.8496,193.9922,530.8496,197.9922,534.8496,193.9922" style="stroke:#181818;stroke-width:1;"/><line style="stroke:#181818;stroke-width:1;" x1="262.9692" x2="536.8496" y1="193.9922" y2="193.9922"/><text fill="#000000" font-family="sans-serif" font-size="13" lengthAdjust="spacing" textLength="96.9858" x="269.9692" y="173.7935">GET /api/fridge</text><text fill="#000000" font-family="sans-serif" font-size="13" lengthAdjust="spacing" textLength="199.8433" x="269.9692" y="188.9263">(Authorization: Bearer &lt;JWT&gt;)</text></g><g class="message" data-participant-1="Backend" data-participant-2="Backend"><line style="stroke:#181818;stroke-width:1;" x1="542.8496" x2="584.8496" y1="238.2578" y2="238.2578"/><line style="stroke:#181818;stroke-width:1;" x1="584.8496" x2="584.8496" y1="238.2578" y2="251.2578"/><line style="stroke:#181818;stroke-width:1;" x1="543.8496" x2="584.8496" y1="251.2578" y2="251.2578"/><polygon fill="#181818" points="553.8496,247.2578,543.8496,251.2578,553.8496,255.2578,549.8496,251.2578" style="stroke:#181818;stroke-width:1;"/><text fill="#000000" font-family="sans-serif" font-size="13" lengthAdjust="spacing" textLength="132.501" x="549.8496" y="218.0591">authenticateToken()</text><text fill="#000000" font-family="sans-serif" font-size="13" lengthAdjust="spacing" textLength="154.5654" x="549.8496" y="233.1919">Extract userId from JWT</text></g><g class="message" data-participant-1="Backend" data-participant-2="DB"><polygon fill="#181818" points="844.0171,276.3906,854.0171,280.3906,844.0171,284.3906,848.0171,280.3906" style="stroke:#181818;stroke-width:1;"/><line style="stroke:#181818;stroke-width:1;" x1="542.8496" x2="850.0171" y1="280.3906" y2="280.3906"/><text fill="#000000" font-family="sans-serif" font-size="13" lengthAdjust="spacing" textLength="215.0713" x="549.8496" y="275.3247">FoodItem.findAllByUserId(userId)</text></g><g class="message" data-participant-1="DB" data-participant-2="Backend"><polygon fill="#181818" points="553.8496,305.5234,543.8496,309.5234,553.8496,313.5234,549.8496,309.5234" style="stroke:#181818;stroke-width:1;"/><line style="stroke:#181818;stroke-width:1;stroke-dasharray:2,2;" x1="547.8496" x2="855.0171" y1="309.5234" y2="309.5234"/><text fill="#000000" font-family="sans-serif" font-size="13" lengthAdjust="spacing" textLength="193.7622" x="559.8496" y="304.4575">Array of FoodItem documents</text></g><path d="M492.9004,324.5234 L569.5244,324.5234 L569.5244,331.6563 L559.5244,341.6563 L492.9004,341.6563 L492.9004,324.5234" fill="#EEEEEE" style="stroke:#000000;stroke-width:1.5;"/><rect fill="none" height="75.3984" style="stroke:#000000;stroke-width:1.5;" width="409.7939" x="492.9004" y="324.5234"/><text fill="#000000" font-family="sans-serif" font-size="13" font-weight="bold" lengthAdjust="spacing" textLength="31.624" x="507.9004" y="337.5903">loop</text><text fill="#000000" font-family="sans-serif" font-size="11" font-weight="bold" lengthAdjust="spacing" textLength="126.2207" x="584.5244" y="336.7339">[For each FoodItem]</text><g class="message" data-participant-1="Backend" data-participant-2="DB"><polygon fill="#181818" points="844.0171,358.7891,854.0171,362.7891,844.0171,366.7891,848.0171,362.7891" style="stroke:#181818;stroke-width:1;"/><line style="stroke:#181818;stroke-width:1;" x1="542.8496" x2="850.0171" y1="362.7891" y2="362.7891"/><text fill="#000000" font-family="sans-serif" font-size="13" lengthAdjust="spacing" textLength="289.1675" x="549.8496" y="357.7231">FoodItem.getAssociatedFoodType(foodItem)</text></g><g class="message" data-participant-1="DB" data-participant-2="Backend"><polygon fill="#181818" points="553.8496,387.9219,543.8496,391.9219,553.8496,395.9219,549.8496,391.9219" style="stroke:#181818;stroke-width:1;"/><line style="stroke:#181818;stroke-width:1;stroke-dasharray:2,2;" x1="547.8496" x2="855.0171" y1="391.9219" y2="391.9219"/><text fill="#000000" font-family="sans-serif" font-size="13" lengthAdjust="spacing" textLength="133.2437" x="559.8496" y="386.856">FoodType document</text></g><g class="message" data-participant-1="Backend" data-participant-2="Frontend"><polygon fill="#181818" points="273.9692,454.3203,263.9692,458.3203,273.9692,462.3203,269.9692,458.3203" style="stroke:#181818;stroke-width:1;"/><line style="stroke:#181818;stroke-width:1;stroke-dasharray:2,2;" x1="267.9692" x2="541.8496" y1="458.3203" y2="458.3203"/><text fill="#000000" font-family="sans-serif" font-size="13" lengthAdjust="spacing" textLength="47.7026" x="279.9692" y="422.9888">200 OK</text><text fill="#000000" font-family="sans-serif" font-size="13" lengthAdjust="spacing" textLength="115.0386" x="279.9692" y="438.1216">List&lt;FridgeItem&gt;</text><text fill="#000000" font-family="sans-serif" font-size="13" lengthAdjust="spacing" textLength="169.6157" x="279.9692" y="453.2544">(with foodType metadata)</text></g><g class="message" data-participant-1="Frontend" data-participant-2="Frontend"><line style="stroke:#181818;stroke-width:1;" x1="262.9692" x2="304.9692" y1="502.5859" y2="502.5859"/><line style="stroke:#181818;stroke-width:1;" x1="304.9692" x2="304.9692" y1="502.5859" y2="515.5859"/><line style="stroke:#181818;stroke-width:1;" x1="263.9692" x2="304.9692" y1="515.5859" y2="515.5859"/><polygon fill="#181818" points="273.9692,511.5859,263.9692,515.5859,273.9692,519.5859,269.9692,515.5859" style="stroke:#181818;stroke-width:1;"/><text fill="#000000" font-family="sans-serif" font-size="13" lengthAdjust="spacing" textLength="112.6138" x="269.9692" y="482.3872">sortFridgeItems()</text><text fill="#000000" font-family="sans-serif" font-size="13" lengthAdjust="spacing" textLength="129.4351" x="269.9692" y="497.52">(by expiration date)</text></g><g class="message" data-participant-1="Frontend" data-participant-2="User"><polygon fill="#181818" points="34.9551,540.7188,24.9551,544.7188,34.9551,548.7188,30.9551,544.7188" style="stroke:#181818;stroke-width:1;"/><line style="stroke:#181818;stroke-width:1;stroke-dasharray:2,2;" x1="28.9551" x2="261.9692" y1="544.7188" y2="544.7188"/><text fill="#000000" font-family="sans-serif" font-size="13" lengthAdjust="spacing" textLength="159.4722" x="40.9551" y="539.6528">Display sorted inventory</text></g><g class="message" data-participant-1="User" data-participant-2="Frontend"><polygon fill="#181818" points="250.9692,569.8516,260.9692,573.8516,250.9692,577.8516,254.9692,573.8516" style="stroke:#181818;stroke-width:1;"/><line style="stroke:#181818;stroke-width:1;" x1="23.9551" x2="256.9692" y1="573.8516" y2="573.8516"/><text fill="#000000" font-family="sans-serif" font-size="13" lengthAdjust="spacing" textLength="215.0142" x="30.9551" y="568.7856">Selects "Sort by Expiration Date"</text></g><g class="message" data-participant-1="Frontend" data-participant-2="Frontend"><line style="stroke:#181818;stroke-width:1;" x1="262.9692" x2="304.9692" y1="618.1172" y2="618.1172"/><line style="stroke:#181818;stroke-width:1;" x1="304.9692" x2="304.9692" y1="618.1172" y2="631.1172"/><line style="stroke:#181818;stroke-width:1;" x1="263.9692" x2="304.9692" y1="631.1172" y2="631.1172"/><polygon fill="#181818" points="273.9692,627.1172,263.9692,631.1172,273.9692,635.1172,269.9692,631.1172" style="stroke:#181818;stroke-width:1;"/><text fill="#000000" font-family="sans-serif" font-size="13" lengthAdjust="spacing" textLength="87.166" x="269.9692" y="597.9185">Re-sort items</text><text fill="#000000" font-family="sans-serif" font-size="13" lengthAdjust="spacing" textLength="146.5229" x="269.9692" y="613.0513">(ascending expiration)</text></g><g class="message" data-participant-1="Frontend" data-participant-2="User"><polygon fill="#181818" points="34.9551,671.3828,24.9551,675.3828,34.9551,679.3828,30.9551,675.3828" style="stroke:#181818;stroke-width:1;"/><line style="stroke:#181818;stroke-width:1;stroke-dasharray:2,2;" x1="28.9551" x2="261.9692" y1="675.3828" y2="675.3828"/><text fill="#000000" font-family="sans-serif" font-size="13" lengthAdjust="spacing" textLength="97.373" x="40.9551" y="655.1841">Update display</text><text fill="#000000" font-family="sans-serif" font-size="13" lengthAdjust="spacing" textLength="148.2876" x="40.9551" y="670.3169">(soonest expiry at top)</text></g><rect fill="#EEEEEE" height="3" style="stroke:#EEEEEE;stroke-width:1;" width="912.6943" x="0" y="703.9492"/><line style="stroke:#000000;stroke-width:1;" x1="0" x2="912.6943" y1="703.9492" y2="703.9492"/><line style="stroke:#000000;stroke-width:1;" x1="0" x2="912.6943" y1="706.9492" y2="706.9492"/><rect fill="#EEEEEE" height="23.1328" style="stroke:#000000;stroke-width:2;" width="177.6553" x="367.5195" y="693.3828"/><text fill="#000000" font-family="sans-serif" font-size="13" font-weight="bold" lengthAdjust="spacing" textLength="159.1294" x="373.5195" y="709.4497">Update Item Quantity</text><g class="message" data-participant-1="User" data-participant-2="Frontend"><polygon fill="#181818" points="250.9692,743.6484,260.9692,747.6484,250.9692,751.6484,254.9692,747.6484" style="stroke:#181818;stroke-width:1;"/><line style="stroke:#181818;stroke-width:1;" x1="23.9551" x2="256.9692" y1="747.6484" y2="747.6484"/><text fill="#000000" font-family="sans-serif" font-size="13" lengthAdjust="spacing" textLength="150.4585" x="30.9551" y="742.5825">Drags left on food item</text></g><g class="message" data-participant-1="Frontend" data-participant-2="User"><polygon fill="#181818" points="34.9551,772.7813,24.9551,776.7813,34.9551,780.7813,30.9551,776.7813" style="stroke:#181818;stroke-width:1;"/><line style="stroke:#181818;stroke-width:1;stroke-dasharray:2,2;" x1="28.9551" x2="261.9692" y1="776.7813" y2="776.7813"/><text fill="#000000" font-family="sans-serif" font-size="13" lengthAdjust="spacing" textLength="153.2261" x="40.9551" y="771.7153">Show percentage slider</text></g><g class="message" data-participant-1="User" data-participant-2="Frontend"><polygon fill="#181818" points="250.9692,801.9141,260.9692,805.9141,250.9692,809.9141,254.9692,805.9141" style="stroke:#181818;stroke-width:1;"/><line style="stroke:#181818;stroke-width:1;" x1="23.9551" x2="256.9692" y1="805.9141" y2="805.9141"/><text fill="#000000" font-family="sans-serif" font-size="13" lengthAdjust="spacing" textLength="171.3931" x="30.9551" y="800.8481">Adjusts to desired percent</text></g><g class="message" data-participant-1="Frontend" data-participant-2="Backend"><polygon fill="#181818" points="530.8496,846.1797,540.8496,850.1797,530.8496,854.1797,534.8496,850.1797" style="stroke:#181818;stroke-width:1;"/><line style="stroke:#181818;stroke-width:1;" x1="262.9692" x2="536.8496" y1="850.1797" y2="850.1797"/><text fill="#000000" font-family="sans-serif" font-size="13" lengthAdjust="spacing" textLength="255.8804" x="269.9692" y="829.981">PATCH /api/food-item/{itemId}/percent</text><text fill="#000000" font-family="sans-serif" font-size="13" lengthAdjust="spacing" textLength="161.2876" x="269.9692" y="845.1138">{percentRemaining: 50}</text></g><g class="message" data-participant-1="Backend" data-participant-2="DB"><polygon fill="#181818" points="844.0171,875.3125,854.0171,879.3125,844.0171,883.3125,848.0171,879.3125" style="stroke:#181818;stroke-width:1;"/><line style="stroke:#181818;stroke-width:1;" x1="542.8496" x2="850.0171" y1="879.3125" y2="879.3125"/><text fill="#000000" font-family="sans-serif" font-size="13" lengthAdjust="spacing" textLength="287.6187" x="549.8496" y="874.2466">FoodItem.update(itemId, {percentLeft: 50})</text></g><g class="message" data-participant-1="DB" data-participant-2="Backend"><polygon fill="#181818" points="553.8496,904.4453,543.8496,908.4453,553.8496,912.4453,549.8496,908.4453" style="stroke:#181818;stroke-width:1;"/><line style="stroke:#181818;stroke-width:1;stroke-dasharray:2,2;" x1="547.8496" x2="855.0171" y1="908.4453" y2="908.4453"/><text fill="#000000" font-family="sans-serif" font-size="13" lengthAdjust="spacing" textLength="120.6943" x="559.8496" y="903.3794">Updated FoodItem</text></g><g class="message" data-participant-1="Backend" data-participant-2="Frontend"><polygon fill="#181818" points="273.9692,948.7109,263.9692,952.7109,273.9692,956.7109,269.9692,952.7109" style="stroke:#181818;stroke-width:1;"/><line style="stroke:#181818;stroke-width:1;stroke-dasharray:2,2;" x1="267.9692" x2="541.8496" y1="952.7109" y2="952.7109"/><text fill="#000000" font-family="sans-serif" font-size="13" lengthAdjust="spacing" textLength="47.7026" x="279.9692" y="932.5122">200 OK</text><text fill="#000000" font-family="sans-serif" font-size="13" lengthAdjust="spacing" textLength="120.6943" x="279.9692" y="947.645">Updated FoodItem</text></g><g class="message" data-participant-1="Frontend" data-participant-2="User"><polygon fill="#181818" points="34.9551,977.8438,24.9551,981.8438,34.9551,985.8438,30.9551,981.8438" style="stroke:#181818;stroke-width:1;"/><line style="stroke:#181818;stroke-width:1;stroke-dasharray:2,2;" x1="28.9551" x2="261.9692" y1="981.8438" y2="981.8438"/><text fill="#000000" font-family="sans-serif" font-size="13" lengthAdjust="spacing" textLength="205.7021" x="40.9551" y="976.7778">Update UI with new percentage</text></g><rect fill="#EEEEEE" height="3" style="stroke:#EEEEEE;stroke-width:1;" width="912.6943" x="0" y="1010.4102"/><line style="stroke:#000000;stroke-width:1;" x1="0" x2="912.6943" y1="1010.4102" y2="1010.4102"/><line style="stroke:#000000;stroke-width:1;" x1="0" x2="912.6943" y1="1013.4102" y2="1013.4102"/><rect fill="#EEEEEE" height="23.1328" style="stroke:#000000;stroke-width:2;" width="115.061" x="398.8167" y="999.8438"/><text fill="#000000" font-family="sans-serif" font-size="13" font-weight="bold" lengthAdjust="spacing" textLength="96.5352" x="404.8167" y="1015.9106">Remove Item</text><g class="message" data-participant-1="User" data-participant-2="Frontend"><polygon fill="#181818" points="250.9692,1050.1094,260.9692,1054.1094,250.9692,1058.1094,254.9692,1054.1094" style="stroke:#181818;stroke-width:1;"/><line style="stroke:#181818;stroke-width:1;" x1="23.9551" x2="256.9692" y1="1054.1094" y2="1054.1094"/><text fill="#000000" font-family="sans-serif" font-size="13" lengthAdjust="spacing" textLength="113.7881" x="30.9551" y="1049.0435">Drags item to 0%</text></g><g class="message" data-participant-1="Frontend" data-participant-2="Backend"><polygon fill="#181818" points="530.8496,1079.2422,540.8496,1083.2422,530.8496,1087.2422,534.8496,1083.2422" style="stroke:#181818;stroke-width:1;"/><line style="stroke:#181818;stroke-width:1;" x1="262.9692" x2="536.8496" y1="1083.2422" y2="1083.2422"/><text fill="#000000" font-family="sans-serif" font-size="13" lengthAdjust="spacing" textLength="207.7334" x="269.9692" y="1078.1763">DELETE /api/food-item/{itemId}</text></g><g class="message" data-participant-1="Backend" data-participant-2="DB"><polygon fill="#181818" points="844.0171,1108.375,854.0171,1112.375,844.0171,1116.375,848.0171,1112.375" style="stroke:#181818;stroke-width:1;"/><line style="stroke:#181818;stroke-width:1;" x1="542.8496" x2="850.0171" y1="1112.375" y2="1112.375"/><text fill="#000000" font-family="sans-serif" font-size="13" lengthAdjust="spacing" textLength="157.917" x="549.8496" y="1107.3091">FoodItem.delete(itemId)</text></g><g class="message" data-participant-1="DB" data-participant-2="Backend"><polygon fill="#181818" points="553.8496,1137.5078,543.8496,1141.5078,553.8496,1145.5078,549.8496,1141.5078" style="stroke:#181818;stroke-width:1;"/><line style="stroke:#181818;stroke-width:1;stroke-dasharray:2,2;" x1="547.8496" x2="855.0171" y1="1141.5078" y2="1141.5078"/><text fill="#000000" font-family="sans-serif" font-size="13" lengthAdjust="spacing" textLength="116.3271" x="559.8496" y="1136.4419">Deleted FoodItem</text></g><g class="message" data-participant-1="Backend" data-participant-2="Frontend"><polygon fill="#181818" points="273.9692,1166.6406,263.9692,1170.6406,273.9692,1174.6406,269.9692,1170.6406" style="stroke:#181818;stroke-width:1;"/><line style="stroke:#181818;stroke-width:1;stroke-dasharray:2,2;" x1="267.9692" x2="541.8496" y1="1170.6406" y2="1170.6406"/><text fill="#000000" font-family="sans-serif" font-size="13" lengthAdjust="spacing" textLength="47.7026" x="279.9692" y="1165.5747">200 OK</text></g><g class="message" data-participant-1="Frontend" data-participant-2="Frontend"><line style="stroke:#181818;stroke-width:1;" x1="262.9692" x2="304.9692" y1="1199.7734" y2="1199.7734"/><line style="stroke:#181818;stroke-width:1;" x1="304.9692" x2="304.9692" y1="1199.7734" y2="1212.7734"/><line style="stroke:#181818;stroke-width:1;" x1="263.9692" x2="304.9692" y1="1212.7734" y2="1212.7734"/><polygon fill="#181818" points="273.9692,1208.7734,263.9692,1212.7734,273.9692,1216.7734,269.9692,1212.7734" style="stroke:#181818;stroke-width:1;"/><text fill="#000000" font-family="sans-serif" font-size="13" lengthAdjust="spacing" textLength="145.6597" x="269.9692" y="1194.7075">Remove from local list</text></g><g class="message" data-participant-1="Frontend" data-participant-2="User"><polygon fill="#181818" points="34.9551,1237.9063,24.9551,1241.9063,34.9551,1245.9063,30.9551,1241.9063" style="stroke:#181818;stroke-width:1;"/><line style="stroke:#181818;stroke-width:1;stroke-dasharray:2,2;" x1="28.9551" x2="261.9692" y1="1241.9063" y2="1241.9063"/><text fill="#000000" font-family="sans-serif" font-size="13" lengthAdjust="spacing" textLength="181.7524" x="40.9551" y="1236.8403">Item disappears from fridge</text></g><!--SRC=[ZLJVRzCm47xFNt6gXDHAb5OWNgfrKhDaK1W3jXPU-kB5bzQGsfRjRWlJ_dVEJlgB9a0Veig-xxlllhkp4wv0c5k42qQVDoFu9l01BetWIumYbZbb_BM9D3DEP48pwQ1pQPHqAFb2TYUI6oLuhmFCmlRyE3fcsSygE7tK1gsjWklZY3F7xdpspYSbbog9msqIHv5F3Ftp7Uq8hjczM3A75fo2bLeZQ4P2jm4-kAOTmRjq1WEcnI0FrNYj6xTIHlnYJYWvWXYPeGHd7xxFpdjHL0EFE1WXK58fb7EcwApRMyZqqHbo1ZOaRyeXDseDn774aCGZk5IAJnskN-L2yabHnEKy8BeLi1SbCVGFiqsCOIMeV8S4hhBDcWJOA2gKqdHX05cssaL4GB-sl4jq4sjL9aWzzwUpKcCthwzx0VkdXctOBdNaUxGlxQWThuT3-Fnn8Q-4TMVLq7ZcS_BwGRWLv5koDJhc-qms7_PgpsILSNi2wstktfM0ZrgOq2uWEFOEq0JtTeuW4LONv9kdG0v2tfDgPSgc-Rd50ZDdeNDBmK09qds2X19qMkJTOD_JW_3YI1gp6PqBkJnGs2Xkhhrku9L6Gbgb95fNuKfWZYPPaotZyJOsDFxhXbP7k1B6uuOo4iEM5WhC7P1mxt9GrYJWTgKUGACXlOvM1MmXEAtpAUU4_zXO5nQBenM6hAnXpUlrPJAxU5yl60deUm639_-TykT13Lt8f_hV3QwPaEJO2DuEdzjtPHDCw5OyBs4Blw9Q0_9qQohR-7ub_Z6i9_7jRPjF8Sonn4CFGxEe7dLVD-ilFV9rU4k7BvfTJDAhT9QssTXk4wT1tjbqwaaIhl_NazQX3oM6zwrG6IkWe3rligjwguHbMjERQYj8zUp-1W00]--></g></svg>