<svg xmlns="http://www.w3.org/2000/svg" xmlns:xlink="http://www.w3.org/1999/xlink" contentStyleType="text/css" data-diagram-type="SEQUENCE" height="1082px" preserveAspectRatio="none" style="width:1687px;height:1082px;background:#FFFFFF;" version="1.1" viewBox="0 0 1687 1082" width="1687px" zoomAndPan="magnify"><title>Use Case 5: View Nutritional Facts</title><defs/><g><text fill="#000000" font-family="sans-serif" font-size="14" font-weight="bold" lengthAdjust="spacing" textLength="272.2549" x="706.1726" y="27.9951">Use Case 5: View Nutritional Facts</text><g><title>Frontend</title><rect fill="#FFFFFF" height="670.2578" style="stroke:#181818;stroke-width:1;" width="10" x="253.7656" y="164.8594"/></g><g><title>FoodItemController</title><rect fill="#FFFFFF" height="389.9922" style="stroke:#181818;stroke-width:1;" width="10" x="526.7061" y="267.3906"/></g><g><title>FoodItemModel</title><rect fill="#FFFFFF" height="87.3984" style="stroke:#181818;stroke-width:1;" width="10" x="910.2715" y="296.5234"/></g><g><title>FoodItemModel</title><rect fill="#FFFFFF" height="145.6641" style="stroke:#181818;stroke-width:1;" width="10" x="910.2715" y="413.0547"/></g><g><title>FoodTypeModel</title><rect fill="#FFFFFF" height="87.3984" style="stroke:#181818;stroke-width:1;" width="10" x="1217.043" y="442.1875"/></g><g><title>MongoDB</title><rect fill="#FFFFFF" height="29.1328" style="stroke:#181818;stroke-width:1;" width="10" x="1481.1982" y="325.6563"/></g><g><title>MongoDB</title><rect fill="#FFFFFF" height="29.1328" style="stroke:#181818;stroke-width:1;" width="10" x="1481.1982" y="471.3203"/></g><rect fill="none" height="254.3984" style="stroke:#000000;stroke-width:1.5;" width="606.2622" x="10" y="573.7188"/><g><title>User</title><rect fill="#000000" fill-opacity="0.00000" height="882.7188" width="8" x="34.9551" y="118.5938"/><line style="stroke:#181818;stroke-width:0.5;stroke-dasharray:5,5;" x1="38" x2="38" y1="118.5938" y2="1001.3125"/></g><g><title>Frontend</title><rect fill="#000000" fill-opacity="0.00000" height="882.7188" width="8" x="254.7656" y="118.5938"/><line style="stroke:#181818;stroke-width:0.5;stroke-dasharray:5,5;" x1="258.0864" x2="258.0864" y1="118.5938" y2="1001.3125"/></g><g><title>FoodItemController</title><rect fill="#000000" fill-opacity="0.00000" height="882.7188" width="8" x="527.7061" y="118.5938"/><line style="stroke:#181818;stroke-width:0.5;stroke-dasharray:5,5;" x1="531.1499" x2="531.1499" y1="118.5938" y2="1001.3125"/></g><g><title>FoodItemModel</title><rect fill="#000000" fill-opacity="0.00000" height="882.7188" width="8" x="911.2715" y="118.5938"/><line style="stroke:#181818;stroke-width:0.5;stroke-dasharray:5,5;" x1="914.2847" x2="914.2847" y1="118.5938" y2="1001.3125"/></g><g><title>FoodTypeModel</title><rect fill="#000000" fill-opacity="0.00000" height="882.7188" width="8" x="1218.043" y="118.5938"/><line style="stroke:#181818;stroke-width:0.5;stroke-dasharray:5,5;" x1="1221.8223" x2="1221.8223" y1="118.5938" y2="1001.3125"/></g><g><title>MongoDB</title><rect fill="#000000" fill-opacity="0.00000" height="882.7188" width="8" x="1482.1982" y="118.5938"/><line style="stroke:#181818;stroke-width:0.5;stroke-dasharray:5,5;" x1="1485.521" x2="1485.521" y1="118.5938" y2="1001.3125"/></g><g class="participant participant-head" data-participant="User"><text fill="#000000" font-family="sans-serif" font-size="14" lengthAdjust="spacing" textLength="31.9102" x="20" y="115.292">User</text><ellipse cx="38.9551" cy="50.7969" fill="#E2E2F0" rx="8" ry="8" style="stroke:#181818;stroke-width:0.5;"/><path d="M38.9551,58.7969 L38.9551,85.7969 M25.9551,66.7969 L51.9551,66.7969 M38.9551,85.7969 L25.9551,100.7969 M38.9551,85.7969 L51.9551,100.7969" fill="none" style="stroke:#181818;stroke-width:0.5;"/></g><g class="participant participant-tail" data-participant="User"><text fill="#000000" font-family="sans-serif" font-size="14" lengthAdjust="spacing" textLength="31.9102" x="20" y="1013.3076">User</text><ellipse cx="38.9551" cy="1025.1094" fill="#E2E2F0" rx="8" ry="8" style="stroke:#181818;stroke-width:0.5;"/><path d="M38.9551,1033.1094 L38.9551,1060.1094 M25.9551,1041.1094 L51.9551,1041.1094 M38.9551,1060.1094 L25.9551,1075.1094 M38.9551,1060.1094 L51.9551,1075.1094" fill="none" style="stroke:#181818;stroke-width:0.5;"/></g><g class="participant participant-head" data-participant="Frontend"><rect fill="#E2E2F0" height="46.5938" rx="2.5" ry="2.5" style="stroke:#181818;stroke-width:0.5;" width="79.3584" x="219.0864" y="71"/><text fill="#000000" font-family="sans-serif" font-size="14" lengthAdjust="spacing" textLength="63.1094" x="227.2109" y="90.9951">Frontend</text><text fill="#000000" font-family="sans-serif" font-size="14" lengthAdjust="spacing" textLength="65.3584" x="226.0864" y="107.292">(Android)</text></g><g class="participant participant-tail" data-participant="Frontend"><rect fill="#E2E2F0" height="46.5938" rx="2.5" ry="2.5" style="stroke:#181818;stroke-width:0.5;" width="79.3584" x="219.0864" y="1000.3125"/><text fill="#000000" font-family="sans-serif" font-size="14" lengthAdjust="spacing" textLength="63.1094" x="227.2109" y="1020.3076">Frontend</text><text fill="#000000" font-family="sans-serif" font-size="14" lengthAdjust="spacing" textLength="65.3584" x="226.0864" y="1036.6045">(Android)</text></g><g class="participant participant-head" data-participant="Controller"><rect fill="#E2E2F0" height="30.2969" rx="2.5" ry="2.5" style="stroke:#181818;stroke-width:0.5;" width="149.1123" x="457.1499" y="87.2969"/><text fill="#000000" font-family="sans-serif" font-size="14" lengthAdjust="spacing" textLength="135.1123" x="464.1499" y="107.292">FoodItemController</text></g><g class="participant participant-tail" data-participant="Controller"><rect fill="#E2E2F0" height="30.2969" rx="2.5" ry="2.5" style="stroke:#181818;stroke-width:0.5;" width="149.1123" x="457.1499" y="1000.3125"/><text fill="#000000" font-family="sans-serif" font-size="14" lengthAdjust="spacing" textLength="135.1123" x="464.1499" y="1020.3076">FoodItemController</text></g><g class="participant participant-head" data-participant="FoodItemModel"><rect fill="#E2E2F0" height="30.2969" rx="2.5" ry="2.5" style="stroke:#181818;stroke-width:0.5;" width="121.9736" x="854.2847" y="87.2969"/><text fill="#000000" font-family="sans-serif" font-size="14" lengthAdjust="spacing" textLength="107.9736" x="861.2847" y="107.292">FoodItemModel</text></g><g class="participant participant-tail" data-participant="FoodItemModel"><rect fill="#E2E2F0" height="30.2969" rx="2.5" ry="2.5" style="stroke:#181818;stroke-width:0.5;" width="121.9736" x="854.2847" y="1000.3125"/><text fill="#000000" font-family="sans-serif" font-size="14" lengthAdjust="spacing" textLength="107.9736" x="861.2847" y="1020.3076">FoodItemModel</text></g><g class="participant participant-head" data-participant="FoodTypeModel"><rect fill="#E2E2F0" height="30.2969" rx="2.5" ry="2.5" style="stroke:#181818;stroke-width:0.5;" width="124.4414" x="1159.8223" y="87.2969"/><text fill="#000000" font-family="sans-serif" font-size="14" lengthAdjust="spacing" textLength="110.4414" x="1166.8223" y="107.292">FoodTypeModel</text></g><g class="participant participant-tail" data-participant="FoodTypeModel"><rect fill="#E2E2F0" height="30.2969" rx="2.5" ry="2.5" style="stroke:#181818;stroke-width:0.5;" width="124.4414" x="1159.8223" y="1000.3125"/><text fill="#000000" font-family="sans-serif" font-size="14" lengthAdjust="spacing" textLength="110.4414" x="1166.8223" y="1020.3076">FoodTypeModel</text></g><g class="participant participant-head" data-participant="DB"><text fill="#000000" font-family="sans-serif" font-size="14" lengthAdjust="spacing" textLength="67.3545" x="1449.521" y="115.292">MongoDB</text><path d="M1468.1982,66.2969 C1468.1982,56.2969 1486.1982,56.2969 1486.1982,56.2969 C1486.1982,56.2969 1504.1982,56.2969 1504.1982,66.2969 L1504.1982,92.2969 C1504.1982,102.2969 1486.1982,102.2969 1486.1982,102.2969 C1486.1982,102.2969 1468.1982,102.2969 1468.1982,92.2969 L1468.1982,66.2969" fill="#E2E2F0" style="stroke:#181818;stroke-width:0.5;"/><path d="M1468.1982,66.2969 C1468.1982,76.2969 1486.1982,76.2969 1486.1982,76.2969 C1486.1982,76.2969 1504.1982,76.2969 1504.1982,66.2969" fill="none" style="stroke:#181818;stroke-width:0.5;"/></g><g class="participant participant-tail" data-participant="DB"><text fill="#000000" font-family="sans-serif" font-size="14" lengthAdjust="spacing" textLength="67.3545" x="1449.521" y="1013.3076">MongoDB</text><path d="M1468.1982,1026.6094 C1468.1982,1016.6094 1486.1982,1016.6094 1486.1982,1016.6094 C1486.1982,1016.6094 1504.1982,1016.6094 1504.1982,1026.6094 L1504.1982,1052.6094 C1504.1982,1062.6094 1486.1982,1062.6094 1486.1982,1062.6094 C1486.1982,1062.6094 1468.1982,1062.6094 1468.1982,1052.6094 L1468.1982,1026.6094" fill="#E2E2F0" style="stroke:#181818;stroke-width:0.5;"/><path d="M1468.1982,1026.6094 C1468.1982,1036.6094 1486.1982,1036.6094 1486.1982,1036.6094 C1486.1982,1036.6094 1504.1982,1036.6094 1504.1982,1026.6094" fill="none" style="stroke:#181818;stroke-width:0.5;"/></g><g><title>Frontend</title><rect fill="#FFFFFF" height="670.2578" style="stroke:#181818;stroke-width:1;" width="10" x="253.7656" y="164.8594"/></g><g><title>FoodItemController</title><rect fill="#FFFFFF" height="389.9922" style="stroke:#181818;stroke-width:1;" width="10" x="526.7061" y="267.3906"/></g><g><title>FoodItemModel</title><rect fill="#FFFFFF" height="87.3984" style="stroke:#181818;stroke-width:1;" width="10" x="910.2715" y="296.5234"/></g><g><title>FoodItemModel</title><rect fill="#FFFFFF" height="145.6641" style="stroke:#181818;stroke-width:1;" width="10" x="910.2715" y="413.0547"/></g><g><title>FoodTypeModel</title><rect fill="#FFFFFF" height="87.3984" style="stroke:#181818;stroke-width:1;" width="10" x="1217.043" y="442.1875"/></g><g><title>MongoDB</title><rect fill="#FFFFFF" height="29.1328" style="stroke:#181818;stroke-width:1;" width="10" x="1481.1982" y="325.6563"/></g><g><title>MongoDB</title><rect fill="#FFFFFF" height="29.1328" style="stroke:#181818;stroke-width:1;" width="10" x="1481.1982" y="471.3203"/></g><g class="message" data-participant-1="User" data-participant-2="Frontend"><polygon fill="#181818" points="241.7656,160.8594,251.7656,164.8594,241.7656,168.8594,245.7656,164.8594" style="stroke:#181818;stroke-width:1;"/><line style="stroke:#181818;stroke-width:1;" x1="38.9551" x2="247.7656" y1="164.8594" y2="164.8594"/><text fill="#000000" font-family="sans-serif" font-size="13" lengthAdjust="spacing" textLength="124.4458" x="45.9551" y="144.6606">Clicks on food item</text><text fill="#000000" font-family="sans-serif" font-size="13" lengthAdjust="spacing" textLength="77.2446" x="45.9551" y="159.7935">in fridge list</text></g><g class="message" data-participant-1="Frontend" data-participant-2="User"><polygon fill="#181818" points="49.9551,189.9922,39.9551,193.9922,49.9551,197.9922,45.9551,193.9922" style="stroke:#181818;stroke-width:1;"/><line style="stroke:#181818;stroke-width:1;stroke-dasharray:2,2;" x1="43.9551" x2="252.7656" y1="193.9922" y2="193.9922"/><text fill="#000000" font-family="sans-serif" font-size="13" lengthAdjust="spacing" textLength="145.958" x="55.9551" y="188.9263">Display item submenu</text></g><g class="message" data-participant-1="User" data-participant-2="Frontend"><polygon fill="#181818" points="241.7656,219.125,251.7656,223.125,241.7656,227.125,245.7656,223.125" style="stroke:#181818;stroke-width:1;"/><line style="stroke:#181818;stroke-width:1;" x1="38.9551" x2="247.7656" y1="223.125" y2="223.125"/><text fill="#000000" font-family="sans-serif" font-size="13" lengthAdjust="spacing" textLength="139.4961" x="45.9551" y="218.0591">Clicks "Nutrition Info"</text></g><g class="message" data-participant-1="Frontend" data-participant-2="Controller"><polygon fill="#181818" points="514.7061,263.3906,524.7061,267.3906,514.7061,271.3906,518.7061,267.3906" style="stroke:#181818;stroke-width:1;"/><line style="stroke:#181818;stroke-width:1;" x1="263.7656" x2="520.7061" y1="267.3906" y2="267.3906"/><text fill="#000000" font-family="sans-serif" font-size="13" lengthAdjust="spacing" textLength="243.9404" x="270.7656" y="247.1919">GET /api/food-item/{itemId}/nutrition</text><text fill="#000000" font-family="sans-serif" font-size="13" lengthAdjust="spacing" textLength="199.8433" x="270.7656" y="262.3247">(Authorization: Bearer &lt;JWT&gt;)</text></g><g class="message" data-participant-1="Controller" data-participant-2="FoodItemModel"><polygon fill="#181818" points="898.2715,292.5234,908.2715,296.5234,898.2715,300.5234,902.2715,296.5234" style="stroke:#181818;stroke-width:1;"/><line style="stroke:#181818;stroke-width:1;" x1="536.7061" x2="904.2715" y1="296.5234" y2="296.5234"/><text fill="#000000" font-family="sans-serif" font-size="13" lengthAdjust="spacing" textLength="104.9775" x="543.7061" y="291.4575">findById(itemId)</text></g><g class="message" data-participant-1="FoodItemModel" data-participant-2="DB"><polygon fill="#181818" points="1469.1982,321.6563,1479.1982,325.6563,1469.1982,329.6563,1473.1982,325.6563" style="stroke:#181818;stroke-width:1;"/><line style="stroke:#181818;stroke-width:1;" x1="920.2715" x2="1475.1982" y1="325.6563" y2="325.6563"/><text fill="#000000" font-family="sans-serif" font-size="13" lengthAdjust="spacing" textLength="235.8154" x="927.2715" y="320.5903">db.fooditems.findOne({_id: itemId})</text></g><g class="message" data-participant-1="DB" data-participant-2="FoodItemModel"><polygon fill="#181818" points="931.2715,350.7891,921.2715,354.7891,931.2715,358.7891,927.2715,354.7891" style="stroke:#181818;stroke-width:1;"/><line style="stroke:#181818;stroke-width:1;stroke-dasharray:2,2;" x1="925.2715" x2="1485.1982" y1="354.7891" y2="354.7891"/><text fill="#000000" font-family="sans-serif" font-size="13" lengthAdjust="spacing" textLength="130.9521" x="937.2715" y="349.7231">FoodItem document</text></g><g class="message" data-participant-1="FoodItemModel" data-participant-2="Controller"><polygon fill="#181818" points="547.7061,379.9219,537.7061,383.9219,547.7061,387.9219,543.7061,383.9219" style="stroke:#181818;stroke-width:1;"/><line style="stroke:#181818;stroke-width:1;stroke-dasharray:2,2;" x1="541.7061" x2="914.2715" y1="383.9219" y2="383.9219"/><text fill="#000000" font-family="sans-serif" font-size="13" lengthAdjust="spacing" textLength="349.5654" x="553.7061" y="378.856">FoodItem(userId, typeId, expirationDate, percentLeft)</text></g><g class="message" data-participant-1="Controller" data-participant-2="FoodItemModel"><polygon fill="#181818" points="898.2715,409.0547,908.2715,413.0547,898.2715,417.0547,902.2715,413.0547" style="stroke:#181818;stroke-width:1;"/><line style="stroke:#181818;stroke-width:1;" x1="536.7061" x2="904.2715" y1="413.0547" y2="413.0547"/><text fill="#000000" font-family="sans-serif" font-size="13" lengthAdjust="spacing" textLength="223.8057" x="543.7061" y="407.9888">getAssociatedFoodType(foodItem)</text></g><g class="message" data-participant-1="FoodItemModel" data-participant-2="FoodTypeModel"><polygon fill="#181818" points="1205.043,438.1875,1215.043,442.1875,1205.043,446.1875,1209.043,442.1875" style="stroke:#181818;stroke-width:1;"/><line style="stroke:#181818;stroke-width:1;" x1="920.2715" x2="1211.043" y1="442.1875" y2="442.1875"/><text fill="#000000" font-family="sans-serif" font-size="13" lengthAdjust="spacing" textLength="104.6475" x="927.2715" y="437.1216">findById(typeId)</text></g><g class="message" data-participant-1="FoodTypeModel" data-participant-2="DB"><polygon fill="#181818" points="1469.1982,467.3203,1479.1982,471.3203,1469.1982,475.3203,1473.1982,471.3203" style="stroke:#181818;stroke-width:1;"/><line style="stroke:#181818;stroke-width:1;" x1="1227.043" x2="1475.1982" y1="471.3203" y2="471.3203"/><text fill="#000000" font-family="sans-serif" font-size="13" lengthAdjust="spacing" textLength="235.1553" x="1234.043" y="466.2544">db.foodtypes.findOne({_id: typeId})</text></g><g class="message" data-participant-1="DB" data-participant-2="FoodTypeModel"><polygon fill="#181818" points="1238.043,496.4531,1228.043,500.4531,1238.043,504.4531,1234.043,500.4531" style="stroke:#181818;stroke-width:1;"/><line style="stroke:#181818;stroke-width:1;stroke-dasharray:2,2;" x1="1232.043" x2="1485.1982" y1="500.4531" y2="500.4531"/><text fill="#000000" font-family="sans-serif" font-size="13" lengthAdjust="spacing" textLength="133.2437" x="1244.043" y="495.3872">FoodType document</text></g><g class="message" data-participant-1="FoodTypeModel" data-participant-2="FoodItemModel"><polygon fill="#181818" points="931.2715,525.5859,921.2715,529.5859,931.2715,533.5859,927.2715,529.5859" style="stroke:#181818;stroke-width:1;"/><line style="stroke:#181818;stroke-width:1;stroke-dasharray:2,2;" x1="925.2715" x2="1221.043" y1="529.5859" y2="529.5859"/><text fill="#000000" font-family="sans-serif" font-size="13" lengthAdjust="spacing" textLength="272.7715" x="937.2715" y="524.52">FoodType(name, nutrients, shelfLifeDays)</text></g><g class="message" data-participant-1="FoodItemModel" data-participant-2="Controller"><polygon fill="#181818" points="547.7061,554.7188,537.7061,558.7188,547.7061,562.7188,543.7061,558.7188" style="stroke:#181818;stroke-width:1;"/><line style="stroke:#181818;stroke-width:1;stroke-dasharray:2,2;" x1="541.7061" x2="914.2715" y1="558.7188" y2="558.7188"/><text fill="#000000" font-family="sans-serif" font-size="13" lengthAdjust="spacing" textLength="158.0059" x="553.7061" y="553.6528">FoodType with nutrients</text></g><path d="M10,573.7188 L74.4429,573.7188 L74.4429,580.8516 L64.4429,590.8516 L10,590.8516 L10,573.7188" fill="#EEEEEE" style="stroke:#000000;stroke-width:1.5;"/><rect fill="none" height="254.3984" style="stroke:#000000;stroke-width:1.5;" width="606.2622" x="10" y="573.7188"/><text fill="#000000" font-family="sans-serif" font-size="13" font-weight="bold" lengthAdjust="spacing" textLength="19.4429" x="25" y="586.7856">alt</text><text fill="#000000" font-family="sans-serif" font-size="11" font-weight="bold" lengthAdjust="spacing" textLength="290.6353" x="89.4429" y="585.9292">[Nutritional data exists in FoodType.nutrients]</text><g class="message" data-participant-1="Controller" data-participant-2="Frontend"><polygon fill="#181818" points="274.7656,653.3828,264.7656,657.3828,274.7656,661.3828,270.7656,657.3828" style="stroke:#181818;stroke-width:1;"/><line style="stroke:#181818;stroke-width:1;stroke-dasharray:2,2;" x1="268.7656" x2="530.7061" y1="657.3828" y2="657.3828"/><text fill="#000000" font-family="sans-serif" font-size="13" lengthAdjust="spacing" textLength="47.7026" x="280.7656" y="606.9185">200 OK</text><text fill="#000000" font-family="sans-serif" font-size="13" lengthAdjust="spacing" textLength="81.5229" x="280.7656" y="622.0513">NutritionInfo</text><text fill="#000000" font-family="sans-serif" font-size="13" lengthAdjust="spacing" textLength="184.0249" x="280.7656" y="637.1841">(calories, protein, fat, carbs,</text><text fill="#000000" font-family="sans-serif" font-size="13" lengthAdjust="spacing" textLength="210.647" x="280.7656" y="652.3169">saturatedFat, fiber, sugars, etc.)</text></g><g class="message" data-participant-1="Frontend" data-participant-2="User"><polygon fill="#181818" points="49.9551,697.6484,39.9551,701.6484,49.9551,705.6484,45.9551,701.6484" style="stroke:#181818;stroke-width:1;"/><line style="stroke:#181818;stroke-width:1;stroke-dasharray:2,2;" x1="43.9551" x2="252.7656" y1="701.6484" y2="701.6484"/><text fill="#000000" font-family="sans-serif" font-size="13" lengthAdjust="spacing" textLength="190.8105" x="55.9551" y="681.4497">Display nutrition facts screen</text><text fill="#000000" font-family="sans-serif" font-size="13" lengthAdjust="spacing" textLength="160.7988" x="55.9551" y="696.5825">with detailed breakdown</text></g><line style="stroke:#000000;stroke-width:1;stroke-dasharray:2,2;" x1="10" x2="616.2622" y1="710.6484" y2="710.6484"/><text fill="#000000" font-family="sans-serif" font-size="11" font-weight="bold" lengthAdjust="spacing" textLength="188.0957" x="15" y="720.8589">[No nutritional data available]</text><g class="message" data-participant-1="Controller" data-participant-2="Frontend"><polygon fill="#181818" points="274.7656,756.7188,264.7656,760.7188,274.7656,764.7188,270.7656,760.7188" style="stroke:#181818;stroke-width:1;"/><line style="stroke:#181818;stroke-width:1;stroke-dasharray:2,2;" x1="268.7656" x2="530.7061" y1="760.7188" y2="760.7188"/><text fill="#000000" font-family="sans-serif" font-size="13" lengthAdjust="spacing" textLength="96.0146" x="280.7656" y="740.52">404 Not Found</text><text fill="#000000" font-family="sans-serif" font-size="13" lengthAdjust="spacing" textLength="202.103" x="280.7656" y="755.6528">"Nutritional data not available"</text></g><g class="message" data-participant-1="Frontend" data-participant-2="User"><polygon fill="#181818" points="49.9551,816.1172,39.9551,820.1172,49.9551,824.1172,45.9551,820.1172" style="stroke:#181818;stroke-width:1;"/><line style="stroke:#181818;stroke-width:1;stroke-dasharray:2,2;" x1="43.9551" x2="252.7656" y1="820.1172" y2="820.1172"/><text fill="#000000" font-family="sans-serif" font-size="13" lengthAdjust="spacing" textLength="114.8545" x="55.9551" y="784.7856">Display message:</text><text fill="#000000" font-family="sans-serif" font-size="13" lengthAdjust="spacing" textLength="185.4277" x="55.9551" y="799.9185">"No nutrition data available"</text><text fill="#000000" font-family="sans-serif" font-size="13" lengthAdjust="spacing" textLength="169.292" x="55.9551" y="815.0513">Offer manual entry option</text></g><path d="M1491,840.1172 L1491,986.1172 L1680,986.1172 L1680,850.1172 L1670,840.1172 L1491,840.1172" fill="#FEFFDD" style="stroke:#181818;stroke-width:0.5;"/><path d="M1670,840.1172 L1670,850.1172 L1680,850.1172 L1670,840.1172" fill="#FEFFDD" style="stroke:#181818;stroke-width:0.5;"/><text fill="#000000" font-family="sans-serif" font-size="13" lengthAdjust="spacing" textLength="168.6001" x="1497" y="857.1841">Nutrients stored per 100g</text><text fill="#000000" font-family="sans-serif" font-size="13" lengthAdjust="spacing" textLength="150.3887" x="1497" y="872.3169">in FoodType collection:</text><text fill="#000000" font-family="sans-serif" font-size="13" lengthAdjust="spacing" textLength="125.1567" x="1497" y="887.4497">- calories, energyKj</text><text fill="#000000" font-family="sans-serif" font-size="13" lengthAdjust="spacing" textLength="124.9727" x="1497" y="902.5825">- protein, fat, carbs</text><text fill="#000000" font-family="sans-serif" font-size="13" lengthAdjust="spacing" textLength="154.3242" x="1497" y="917.7153">- saturatedFat, transFat</text><text fill="#000000" font-family="sans-serif" font-size="13" lengthAdjust="spacing" textLength="90.2192" x="1497" y="932.8481">- fiber, sugars</text><text fill="#000000" font-family="sans-serif" font-size="13" lengthAdjust="spacing" textLength="88.0293" x="1497" y="947.981">- sodium, salt</text><text fill="#000000" font-family="sans-serif" font-size="13" lengthAdjust="spacing" textLength="168.2192" x="1497" y="963.1138">- calcium, iron, potassium</text><text fill="#000000" font-family="sans-serif" font-size="13" lengthAdjust="spacing" textLength="80.5518" x="1497" y="978.2466">- cholesterol</text><!--SRC=[dLLDRzim3BtxLn0-9K2-DdGNOoZGDEkGzUlIRPS0WsBHZbP5CYIvNLRiluzIwbXsss1O3ev5KO_aunFjX9C8Not2EQF7Xmo-2No4czePuOHMJC85ovrD4dfguprDKZ7ZH2ugfXoa5qOhXuglrE1CSQC57wR0B3JsdhVMVEbmUqwRHak99ZYtozVThpL7kOUDBI-TxtOLTfqFbeGpnzQ-olHQgr8lvi5dCKyINnMCJmyvPt0kHNvlGIie20C4HLmfGIiZU8aWXNMU4V707BQbDYym9Z0Fci52s4goNK00Mw-tgEgtuwK7uc6f2fqc4UHfn586dp_TmPHLOkhp6tlqwPD_BlcVgMf0V4zgjz56_6P-dS4ScQ7O7xzylpiTjXL4_2VjUqWnvZk3GYW-totvO1yhWkWsfhFoE8jv1dmzyTdwetRYaMuL3fv-2Ah_EVK8Z_goc0SYUoaqI-0whubEbt2CJ_L2ztXhTWSrzM39H-187_uVVrN219OM13I22arEu5TOk64SeLldSRPAT6VMwbpGGTw8SL0yE_qxUHqTHqtOvzx3QGNVMVMQu8_scx27Uxi9KGhDybWJej2lTp6meTYMs0wI9HWx0hj1MLo90XTiPrzGtwtkU9z3We_2RLhu8vraqdNcdXyNf0gwwHRevZU0anOBw1VtltEZtyzcS7kvKWT8Vw7fGkPCqdr4AhGosg5G8oYO6q7EpDgELieoLvkW5syjn1eDSLANpD0HTFba6E96TKINr-yS6KA7mK0XQQY3pGqYJOd04KV7X4GEQuFidkj7bIGeQLpUwFPWmmjx85-sbdYSX9FP2HrtH5xjln3f2tuLRHwmql-lR8lMiX8p7oDAjvTikbAtHK5PRfcgAGNgejc1hhnhuWTuh8vcg2UK8u8HvSQ1BhouOQyJhm6mz5KapcXQmBlPhAIzI2kG- -JpC7ffPmnjyr6XANUNFuFv5IK4UrSBpZ1bwIriTOInTwR9Mc_9H49kWkN18gWKafjsp5eox3StMg9rIFJwodqZy2y0]--></g></svg>