<svg xmlns="http://www.w3.org/2000/svg" xmlns:xlink="http://www.w3.org/1999/xlink" contentStyleType="text/css" data-diagram-type="SEQUENCE" height="965px" preserveAspectRatio="none" style="width:1303px;height:965px;background:#FFFFFF;" version="1.1" viewBox="0 0 1303 965" width="1303px" zoomAndPan="magnify"><title>Use Case 5: View Nutritional Facts</title><defs/><g><text fill="#000000" font-family="sans-serif" font-size="14" font-weight="bold" lengthAdjust="spacing" textLength="272.2549" x="514.1726" y="27.9951">Use Case 5: View Nutritional Facts</text><g><title>Frontend</title><rect fill="#FFFFFF" height="553.7266" style="stroke:#181818;stroke-width:1;" width="10" x="253.7656" y="164.8594"/></g><g><title>FoodItem</title><rect fill="#FFFFFF" height="273.4609" style="stroke:#181818;stroke-width:1;" width="10" x="526.7061" y="267.3906"/></g><g><title>FoodType</title><rect fill="#FFFFFF" height="87.3984" style="stroke:#181818;stroke-width:1;" width="10" x="833.4775" y="354.7891"/></g><g><title>MongoDB</title><rect fill="#FFFFFF" height="29.1328" style="stroke:#181818;stroke-width:1;" width="10" x="1097.6328" y="296.5234"/></g><g><title>MongoDB</title><rect fill="#FFFFFF" height="29.1328" style="stroke:#181818;stroke-width:1;" width="10" x="1097.6328" y="383.9219"/></g><rect fill="none" height="254.3984" style="stroke:#000000;stroke-width:1.5;" width="571.6758" x="10" y="457.1875"/><g><title>User</title><rect fill="#000000" fill-opacity="0.00000" height="766.1875" width="8" x="34.9551" y="118.5938"/><line style="stroke:#181818;stroke-width:0.5;stroke-dasharray:5,5;" x1="38" x2="38" y1="118.5938" y2="884.7813"/></g><g><title>Frontend</title><rect fill="#000000" fill-opacity="0.00000" height="766.1875" width="8" x="254.7656" y="118.5938"/><line style="stroke:#181818;stroke-width:0.5;stroke-dasharray:5,5;" x1="258.2109" x2="258.2109" y1="118.5938" y2="884.7813"/></g><g><title>FoodItem</title><rect fill="#000000" fill-opacity="0.00000" height="766.1875" width="8" x="527.7061" y="118.5938"/><line style="stroke:#181818;stroke-width:0.5;stroke-dasharray:5,5;" x1="530.7363" x2="530.7363" y1="118.5938" y2="884.7813"/></g><g><title>FoodType</title><rect fill="#000000" fill-opacity="0.00000" height="766.1875" width="8" x="834.4775" y="118.5938"/><line style="stroke:#181818;stroke-width:0.5;stroke-dasharray:5,5;" x1="838.2739" x2="838.2739" y1="118.5938" y2="884.7813"/></g><g><title>MongoDB</title><rect fill="#000000" fill-opacity="0.00000" height="766.1875" width="8" x="1098.6328" y="118.5938"/><line style="stroke:#181818;stroke-width:0.5;stroke-dasharray:5,5;" x1="1101.9556" x2="1101.9556" y1="118.5938" y2="884.7813"/></g><g class="participant participant-head" data-participant="User"><text fill="#000000" font-family="sans-serif" font-size="14" lengthAdjust="spacing" textLength="31.9102" x="20" y="115.292">User</text><ellipse cx="38.9551" cy="50.7969" fill="#E2E2F0" rx="8" ry="8" style="stroke:#181818;stroke-width:0.5;"/><path d="M38.9551,58.7969 L38.9551,85.7969 M25.9551,66.7969 L51.9551,66.7969 M38.9551,85.7969 L25.9551,100.7969 M38.9551,85.7969 L51.9551,100.7969" fill="none" style="stroke:#181818;stroke-width:0.5;"/></g><g class="participant participant-tail" data-participant="User"><text fill="#000000" font-family="sans-serif" font-size="14" lengthAdjust="spacing" textLength="31.9102" x="20" y="896.7764">User</text><ellipse cx="38.9551" cy="908.5781" fill="#E2E2F0" rx="8" ry="8" style="stroke:#181818;stroke-width:0.5;"/><path d="M38.9551,916.5781 L38.9551,943.5781 M25.9551,924.5781 L51.9551,924.5781 M38.9551,943.5781 L25.9551,958.5781 M38.9551,943.5781 L51.9551,958.5781" fill="none" style="stroke:#181818;stroke-width:0.5;"/></g><g class="participant participant-head" data-participant="Frontend"><rect fill="#E2E2F0" height="30.2969" rx="2.5" ry="2.5" style="stroke:#181818;stroke-width:0.5;" width="77.1094" x="220.2109" y="87.2969"/><text fill="#000000" font-family="sans-serif" font-size="14" lengthAdjust="spacing" textLength="63.1094" x="227.2109" y="107.292">Frontend</text></g><g class="participant participant-tail" data-participant="Frontend"><rect fill="#E2E2F0" height="30.2969" rx="2.5" ry="2.5" style="stroke:#181818;stroke-width:0.5;" width="77.1094" x="220.2109" y="883.7813"/><text fill="#000000" font-family="sans-serif" font-size="14" lengthAdjust="spacing" textLength="63.1094" x="227.2109" y="903.7764">Frontend</text></g><g class="participant participant-head" data-participant="Controller"><rect fill="#E2E2F0" height="30.2969" rx="2.5" ry="2.5" style="stroke:#181818;stroke-width:0.5;" width="79.9395" x="491.7363" y="87.2969"/><text fill="#000000" font-family="sans-serif" font-size="14" lengthAdjust="spacing" textLength="65.9395" x="498.7363" y="107.292">FoodItem</text></g><g class="participant participant-tail" data-participant="Controller"><rect fill="#E2E2F0" height="30.2969" rx="2.5" ry="2.5" style="stroke:#181818;stroke-width:0.5;" width="79.9395" x="491.7363" y="883.7813"/><text fill="#000000" font-family="sans-serif" font-size="14" lengthAdjust="spacing" textLength="65.9395" x="498.7363" y="903.7764">FoodItem</text></g><g class="participant participant-head" data-participant="FoodTypeModel"><rect fill="#E2E2F0" height="30.2969" rx="2.5" ry="2.5" style="stroke:#181818;stroke-width:0.5;" width="82.4072" x="797.2739" y="87.2969"/><text fill="#000000" font-family="sans-serif" font-size="14" lengthAdjust="spacing" textLength="68.4072" x="804.2739" y="107.292">FoodType</text></g><g class="participant participant-tail" data-participant="FoodTypeModel"><rect fill="#E2E2F0" height="30.2969" rx="2.5" ry="2.5" style="stroke:#181818;stroke-width:0.5;" width="82.4072" x="797.2739" y="883.7813"/><text fill="#000000" font-family="sans-serif" font-size="14" lengthAdjust="spacing" textLength="68.4072" x="804.2739" y="903.7764">FoodType</text></g><g class="participant participant-head" data-participant="DB"><text fill="#000000" font-family="sans-serif" font-size="14" lengthAdjust="spacing" textLength="67.3545" x="1065.9556" y="115.292">MongoDB</text><path d="M1084.6328,66.2969 C1084.6328,56.2969 1102.6328,56.2969 1102.6328,56.2969 C1102.6328,56.2969 1120.6328,56.2969 1120.6328,66.2969 L1120.6328,92.2969 C1120.6328,102.2969 1102.6328,102.2969 1102.6328,102.2969 C1102.6328,102.2969 1084.6328,102.2969 1084.6328,92.2969 L1084.6328,66.2969" fill="#E2E2F0" style="stroke:#181818;stroke-width:0.5;"/><path d="M1084.6328,66.2969 C1084.6328,76.2969 1102.6328,76.2969 1102.6328,76.2969 C1102.6328,76.2969 1120.6328,76.2969 1120.6328,66.2969" fill="none" style="stroke:#181818;stroke-width:0.5;"/></g><g class="participant participant-tail" data-participant="DB"><text fill="#000000" font-family="sans-serif" font-size="14" lengthAdjust="spacing" textLength="67.3545" x="1065.9556" y="896.7764">MongoDB</text><path d="M1084.6328,910.0781 C1084.6328,900.0781 1102.6328,900.0781 1102.6328,900.0781 C1102.6328,900.0781 1120.6328,900.0781 1120.6328,910.0781 L1120.6328,936.0781 C1120.6328,946.0781 1102.6328,946.0781 1102.6328,946.0781 C1102.6328,946.0781 1084.6328,946.0781 1084.6328,936.0781 L1084.6328,910.0781" fill="#E2E2F0" style="stroke:#181818;stroke-width:0.5;"/><path d="M1084.6328,910.0781 C1084.6328,920.0781 1102.6328,920.0781 1102.6328,920.0781 C1102.6328,920.0781 1120.6328,920.0781 1120.6328,910.0781" fill="none" style="stroke:#181818;stroke-width:0.5;"/></g><g><title>Frontend</title><rect fill="#FFFFFF" height="553.7266" style="stroke:#181818;stroke-width:1;" width="10" x="253.7656" y="164.8594"/></g><g><title>FoodItem</title><rect fill="#FFFFFF" height="273.4609" style="stroke:#181818;stroke-width:1;" width="10" x="526.7061" y="267.3906"/></g><g><title>FoodType</title><rect fill="#FFFFFF" height="87.3984" style="stroke:#181818;stroke-width:1;" width="10" x="833.4775" y="354.7891"/></g><g><title>MongoDB</title><rect fill="#FFFFFF" height="29.1328" style="stroke:#181818;stroke-width:1;" width="10" x="1097.6328" y="296.5234"/></g><g><title>MongoDB</title><rect fill="#FFFFFF" height="29.1328" style="stroke:#181818;stroke-width:1;" width="10" x="1097.6328" y="383.9219"/></g><g class="message" data-participant-1="User" data-participant-2="Frontend"><polygon fill="#181818" points="241.7656,160.8594,251.7656,164.8594,241.7656,168.8594,245.7656,164.8594" style="stroke:#181818;stroke-width:1;"/><line style="stroke:#181818;stroke-width:1;" x1="38.9551" x2="247.7656" y1="164.8594" y2="164.8594"/><text fill="#000000" font-family="sans-serif" font-size="13" lengthAdjust="spacing" textLength="124.4458" x="45.9551" y="144.6606">Clicks on food item</text><text fill="#000000" font-family="sans-serif" font-size="13" lengthAdjust="spacing" textLength="77.2446" x="45.9551" y="159.7935">in fridge list</text></g><g class="message" data-participant-1="Frontend" data-participant-2="User"><polygon fill="#181818" points="49.9551,189.9922,39.9551,193.9922,49.9551,197.9922,45.9551,193.9922" style="stroke:#181818;stroke-width:1;"/><line style="stroke:#181818;stroke-width:1;stroke-dasharray:2,2;" x1="43.9551" x2="252.7656" y1="193.9922" y2="193.9922"/><text fill="#000000" font-family="sans-serif" font-size="13" lengthAdjust="spacing" textLength="145.958" x="55.9551" y="188.9263">Display item submenu</text></g><g class="message" data-participant-1="User" data-participant-2="Frontend"><polygon fill="#181818" points="241.7656,219.125,251.7656,223.125,241.7656,227.125,245.7656,223.125" style="stroke:#181818;stroke-width:1;"/><line style="stroke:#181818;stroke-width:1;" x1="38.9551" x2="247.7656" y1="223.125" y2="223.125"/><text fill="#000000" font-family="sans-serif" font-size="13" lengthAdjust="spacing" textLength="139.4961" x="45.9551" y="218.0591">Clicks "Nutrition Info"</text></g><g class="message" data-participant-1="Frontend" data-participant-2="Controller"><polygon fill="#181818" points="514.7061,263.3906,524.7061,267.3906,514.7061,271.3906,518.7061,267.3906" style="stroke:#181818;stroke-width:1;"/><line style="stroke:#181818;stroke-width:1;" x1="263.7656" x2="520.7061" y1="267.3906" y2="267.3906"/><text fill="#000000" font-family="sans-serif" font-size="13" lengthAdjust="spacing" textLength="243.9404" x="270.7656" y="247.1919">GET /api/food-item/{itemId}/nutrition</text><text fill="#000000" font-family="sans-serif" font-size="13" lengthAdjust="spacing" textLength="199.8433" x="270.7656" y="262.3247">(Authorization: Bearer &lt;JWT&gt;)</text></g><g class="message" data-participant-1="Controller" data-participant-2="DB"><polygon fill="#181818" points="1085.6328,292.5234,1095.6328,296.5234,1085.6328,300.5234,1089.6328,296.5234" style="stroke:#181818;stroke-width:1;"/><line style="stroke:#181818;stroke-width:1;" x1="536.7061" x2="1091.6328" y1="296.5234" y2="296.5234"/><text fill="#000000" font-family="sans-serif" font-size="13" lengthAdjust="spacing" textLength="235.8154" x="543.7061" y="291.4575">db.fooditems.findOne({_id: itemId})</text></g><g class="message" data-participant-1="DB" data-participant-2="Controller"><polygon fill="#181818" points="547.7061,321.6563,537.7061,325.6563,547.7061,329.6563,543.7061,325.6563" style="stroke:#181818;stroke-width:1;"/><line style="stroke:#181818;stroke-width:1;stroke-dasharray:2,2;" x1="541.7061" x2="1101.6328" y1="325.6563" y2="325.6563"/><text fill="#000000" font-family="sans-serif" font-size="13" lengthAdjust="spacing" textLength="130.9521" x="553.7061" y="320.5903">FoodItem document</text></g><g class="message" data-participant-1="Controller" data-participant-2="FoodTypeModel"><polygon fill="#181818" points="821.4775,350.7891,831.4775,354.7891,821.4775,358.7891,825.4775,354.7891" style="stroke:#181818;stroke-width:1;"/><line style="stroke:#181818;stroke-width:1;" x1="536.7061" x2="827.4775" y1="354.7891" y2="354.7891"/><text fill="#000000" font-family="sans-serif" font-size="13" lengthAdjust="spacing" textLength="104.6475" x="543.7061" y="349.7231">findById(typeId)</text></g><g class="message" data-participant-1="FoodTypeModel" data-participant-2="DB"><polygon fill="#181818" points="1085.6328,379.9219,1095.6328,383.9219,1085.6328,387.9219,1089.6328,383.9219" style="stroke:#181818;stroke-width:1;"/><line style="stroke:#181818;stroke-width:1;" x1="843.4775" x2="1091.6328" y1="383.9219" y2="383.9219"/><text fill="#000000" font-family="sans-serif" font-size="13" lengthAdjust="spacing" textLength="235.1553" x="850.4775" y="378.856">db.foodtypes.findOne({_id: typeId})</text></g><g class="message" data-participant-1="DB" data-participant-2="FoodTypeModel"><polygon fill="#181818" points="854.4775,409.0547,844.4775,413.0547,854.4775,417.0547,850.4775,413.0547" style="stroke:#181818;stroke-width:1;"/><line style="stroke:#181818;stroke-width:1;stroke-dasharray:2,2;" x1="848.4775" x2="1101.6328" y1="413.0547" y2="413.0547"/><text fill="#000000" font-family="sans-serif" font-size="13" lengthAdjust="spacing" textLength="133.2437" x="860.4775" y="407.9888">FoodType document</text></g><g class="message" data-participant-1="FoodTypeModel" data-participant-2="Controller"><polygon fill="#181818" points="547.7061,438.1875,537.7061,442.1875,547.7061,446.1875,543.7061,442.1875" style="stroke:#181818;stroke-width:1;"/><line style="stroke:#181818;stroke-width:1;stroke-dasharray:2,2;" x1="541.7061" x2="837.4775" y1="442.1875" y2="442.1875"/><text fill="#000000" font-family="sans-serif" font-size="13" lengthAdjust="spacing" textLength="272.7715" x="553.7061" y="437.1216">FoodType(name, nutrients, shelfLifeDays)</text></g><path d="M10,457.1875 L74.4429,457.1875 L74.4429,464.3203 L64.4429,474.3203 L10,474.3203 L10,457.1875" fill="#EEEEEE" style="stroke:#000000;stroke-width:1.5;"/><rect fill="none" height="254.3984" style="stroke:#000000;stroke-width:1.5;" width="571.6758" x="10" y="457.1875"/><text fill="#000000" font-family="sans-serif" font-size="13" font-weight="bold" lengthAdjust="spacing" textLength="19.4429" x="25" y="470.2544">alt</text><text fill="#000000" font-family="sans-serif" font-size="11" font-weight="bold" lengthAdjust="spacing" textLength="290.6353" x="89.4429" y="469.3979">[Nutritional data exists in FoodType.nutrients]</text><g class="message" data-participant-1="Controller" data-participant-2="Frontend"><polygon fill="#181818" points="274.7656,536.8516,264.7656,540.8516,274.7656,544.8516,270.7656,540.8516" style="stroke:#181818;stroke-width:1;"/><line style="stroke:#181818;stroke-width:1;stroke-dasharray:2,2;" x1="268.7656" x2="530.7061" y1="540.8516" y2="540.8516"/><text fill="#000000" font-family="sans-serif" font-size="13" lengthAdjust="spacing" textLength="47.7026" x="280.7656" y="490.3872">200 OK</text><text fill="#000000" font-family="sans-serif" font-size="13" lengthAdjust="spacing" textLength="81.5229" x="280.7656" y="505.52">NutritionInfo</text><text fill="#000000" font-family="sans-serif" font-size="13" lengthAdjust="spacing" textLength="184.0249" x="280.7656" y="520.6528">(calories, protein, fat, carbs,</text><text fill="#000000" font-family="sans-serif" font-size="13" lengthAdjust="spacing" textLength="210.647" x="280.7656" y="535.7856">saturatedFat, fiber, sugars, etc.)</text></g><g class="message" data-participant-1="Frontend" data-participant-2="User"><polygon fill="#181818" points="49.9551,581.1172,39.9551,585.1172,49.9551,589.1172,45.9551,585.1172" style="stroke:#181818;stroke-width:1;"/><line style="stroke:#181818;stroke-width:1;stroke-dasharray:2,2;" x1="43.9551" x2="252.7656" y1="585.1172" y2="585.1172"/><text fill="#000000" font-family="sans-serif" font-size="13" lengthAdjust="spacing" textLength="190.8105" x="55.9551" y="564.9185">Display nutrition facts screen</text><text fill="#000000" font-family="sans-serif" font-size="13" lengthAdjust="spacing" textLength="160.7988" x="55.9551" y="580.0513">with detailed breakdown</text></g><line style="stroke:#000000;stroke-width:1;stroke-dasharray:2,2;" x1="10" x2="581.6758" y1="594.1172" y2="594.1172"/><text fill="#000000" font-family="sans-serif" font-size="11" font-weight="bold" lengthAdjust="spacing" textLength="188.0957" x="15" y="604.3276">[No nutritional data available]</text><g class="message" data-participant-1="Controller" data-participant-2="Frontend"><polygon fill="#181818" points="274.7656,640.1875,264.7656,644.1875,274.7656,648.1875,270.7656,644.1875" style="stroke:#181818;stroke-width:1;"/><line style="stroke:#181818;stroke-width:1;stroke-dasharray:2,2;" x1="268.7656" x2="530.7061" y1="644.1875" y2="644.1875"/><text fill="#000000" font-family="sans-serif" font-size="13" lengthAdjust="spacing" textLength="96.0146" x="280.7656" y="623.9888">404 Not Found</text><text fill="#000000" font-family="sans-serif" font-size="13" lengthAdjust="spacing" textLength="202.103" x="280.7656" y="639.1216">"Nutritional data not available"</text></g><g class="message" data-participant-1="Frontend" data-participant-2="User"><polygon fill="#181818" points="49.9551,699.5859,39.9551,703.5859,49.9551,707.5859,45.9551,703.5859" style="stroke:#181818;stroke-width:1;"/><line style="stroke:#181818;stroke-width:1;stroke-dasharray:2,2;" x1="43.9551" x2="252.7656" y1="703.5859" y2="703.5859"/><text fill="#000000" font-family="sans-serif" font-size="13" lengthAdjust="spacing" textLength="114.8545" x="55.9551" y="668.2544">Display message:</text><text fill="#000000" font-family="sans-serif" font-size="13" lengthAdjust="spacing" textLength="185.4277" x="55.9551" y="683.3872">"No nutrition data available"</text><text fill="#000000" font-family="sans-serif" font-size="13" lengthAdjust="spacing" textLength="169.292" x="55.9551" y="698.52">Offer manual entry option</text></g><path d="M1107,723.5859 L1107,869.5859 L1296,869.5859 L1296,733.5859 L1286,723.5859 L1107,723.5859" fill="#FEFFDD" style="stroke:#181818;stroke-width:0.5;"/><path d="M1286,723.5859 L1286,733.5859 L1296,733.5859 L1286,723.5859" fill="#FEFFDD" style="stroke:#181818;stroke-width:0.5;"/><text fill="#000000" font-family="sans-serif" font-size="13" lengthAdjust="spacing" textLength="168.6001" x="1113" y="740.6528">Nutrients stored per 100g</text><text fill="#000000" font-family="sans-serif" font-size="13" lengthAdjust="spacing" textLength="150.3887" x="1113" y="755.7856">in FoodType collection:</text><text fill="#000000" font-family="sans-serif" font-size="13" lengthAdjust="spacing" textLength="125.1567" x="1113" y="770.9185">- calories, energyKj</text><text fill="#000000" font-family="sans-serif" font-size="13" lengthAdjust="spacing" textLength="124.9727" x="1113" y="786.0513">- protein, fat, carbs</text><text fill="#000000" font-family="sans-serif" font-size="13" lengthAdjust="spacing" textLength="154.3242" x="1113" y="801.1841">- saturatedFat, transFat</text><text fill="#000000" font-family="sans-serif" font-size="13" lengthAdjust="spacing" textLength="90.2192" x="1113" y="816.3169">- fiber, sugars</text><text fill="#000000" font-family="sans-serif" font-size="13" lengthAdjust="spacing" textLength="88.0293" x="1113" y="831.4497">- sodium, salt</text><text fill="#000000" font-family="sans-serif" font-size="13" lengthAdjust="spacing" textLength="168.2192" x="1113" y="846.5825">- calcium, iron, potassium</text><text fill="#000000" font-family="sans-serif" font-size="13" lengthAdjust="spacing" textLength="80.5518" x="1113" y="861.7153">- cholesterol</text><!--SRC=[dLHDRzim3BthLn0-fK2-DdGNOoYmDEkGTMqltNO9CD0MxMXL94EIssN3_liefqviz-Cm7moBfDvxf9uLLD04Npt1EVBhNGhV53t0THsS2ieQr721UV12yDkwMEb4XIweN5Le0YGNpff0HYQ07jh5eCHQkGgqRKhEkS9PhP_WSD7jhg8zpkFYoahIGcB0BCfBhgmfxNBHr2mNGaGvC3axyAPmhbL-vy4QA1W35DEkZUALKx8aqCg7s8gwnq17kUq7J1WiWgQmLBxIk6iGmDVPbapzCbzoc1YiJ64JqO4yw_ISmgUFjp33IisYlab4d_s9xvNyEpCjoDgCFjHXOvtwZN6TmeBGCVVxpzzlpqwE7NIcAOxVaNEvI45cqyWIuVsqK4RU61hz-Q5OzoDb1uhdkLmq0-ZARSyEfCrhda4GahfR1gozWqiXSYvsApaA75l93bl_X7khWVguTQX-3_Uy-e64TlbI0mFgPzgFsP71BOsXEI36y6Fm6zB55rNG4dV-f0lQRqsW3ht_ARePw1SRqGCRiwsU7h05yDCTQyzmR-TpkBbScmDaz1lx9KVDTY5MLZaRI9an51Z6aAFB_7XjF8RQiJnv4QE5oiXn4tM9ZhTGoASd3M-dZuwtOkQLV-JWMwRaom9yxeZOn0ygR1WneD8a8NE4Tz8-6258yzzyROyRsxdWFTTYfkdr8PpEJtbxuE7LHgvDycI-XfC7hEJ_EzkIzrXI6ZawSWTYaxMvAGfMkKLJimG-HRS3MyLI4U-NhZlQEqUmHWAdoaq0MqGhmjudqGFW-RRbcLKC-cO-BpdNyGhaKNpUt0oScS3nyCcGAtUNFvlmCqveudql18V6yrUJwXbZNymNIBtb41kv9SkRYE9Ms6useFSSs2StLfCFnEEDdSU3e7y0]--></g></svg>