<svg xmlns="http://www.w3.org/2000/svg" xmlns:xlink="http://www.w3.org/1999/xlink" contentStyleType="text/css" data-diagram-type="SEQUENCE" height="956px" preserveAspectRatio="none" style="width:1303px;height:956px;background:#FFFFFF;" version="1.1" viewBox="0 0 1303 956" width="1303px" zoomAndPan="magnify"><title>Use Case 5: View Nutritional Facts</title><defs/><g><text fill="#000000" font-family="sans-serif" font-size="14" font-weight="bold" lengthAdjust="spacing" textLength="0" x="650.3" y="15">Use Case 5: View Nutritional Facts</text><g><title>Frontend</title><rect fill="#FFFFFF" height="550.9219" style="stroke:#181818;stroke-width:1;" width="10" x="253.7656" y="158.5625"/></g><g><title>FoodItem</title><rect fill="#FFFFFF" height="273.4609" style="stroke:#181818;stroke-width:1;" width="10" x="526.7061" y="261.0938"/></g><g><title>FoodType</title><rect fill="#FFFFFF" height="87.3984" style="stroke:#181818;stroke-width:1;" width="10" x="833.4775" y="348.4922"/></g><g><title>MongoDB</title><rect fill="#FFFFFF" height="29.1328" style="stroke:#181818;stroke-width:1;" width="10" x="1097.6328" y="290.2266"/></g><g><title>MongoDB</title><rect fill="#FFFFFF" height="29.1328" style="stroke:#181818;stroke-width:1;" width="10" x="1097.6328" y="377.625"/></g><rect fill="none" height="251.5938" style="stroke:#000000;stroke-width:1.5;" width="538.7061" x="10" y="450.8906"/><g><title>User</title><rect fill="#000000" fill-opacity="0.00000" height="763.3828" width="8" x="34.9551" y="112.2969"/><line style="stroke:#181818;stroke-width:0.5;stroke-dasharray:5,5;" x1="38" x2="38" y1="112.2969" y2="875.6797"/></g><g><title>Frontend</title><rect fill="#000000" fill-opacity="0.00000" height="763.3828" width="8" x="254.7656" y="112.2969"/><line style="stroke:#181818;stroke-width:0.5;stroke-dasharray:5,5;" x1="258.7656" x2="258.7656" y1="112.2969" y2="875.6797"/></g><g><title>FoodItem</title><rect fill="#000000" fill-opacity="0.00000" height="763.3828" width="8" x="527.7061" y="112.2969"/><line style="stroke:#181818;stroke-width:0.5;stroke-dasharray:5,5;" x1="531.7061" x2="531.7061" y1="112.2969" y2="875.6797"/></g><g><title>FoodType</title><rect fill="#000000" fill-opacity="0.00000" height="763.3828" width="8" x="834.4775" y="112.2969"/><line style="stroke:#181818;stroke-width:0.5;stroke-dasharray:5,5;" x1="838.4775" x2="838.4775" y1="112.2969" y2="875.6797"/></g><g><title>MongoDB</title><rect fill="#000000" fill-opacity="0.00000" height="763.3828" width="8" x="1098.6328" y="112.2969"/><line style="stroke:#181818;stroke-width:0.5;stroke-dasharray:5,5;" x1="1102.6328" x2="1102.6328" y1="112.2969" y2="875.6797"/></g><g class="participant participant-head" data-participant="User"><text fill="#000000" font-family="sans-serif" font-size="14" lengthAdjust="spacing" textLength="31.9102" x="20" y="112.2969">User</text><ellipse cx="38.9551" cy="44.5" fill="#E2E2F0" rx="8" ry="8" style="stroke:#181818;stroke-width:0.5;"/><path d="M38.9551,52.5 L38.9551,79.5 M25.9551,60.5 L51.9551,60.5 M38.9551,79.5 L25.9551,94.5 M38.9551,79.5 L51.9551,94.5" fill="none" style="stroke:#181818;stroke-width:0.5;"/></g><g class="participant participant-tail" data-participant="User"><text fill="#000000" font-family="sans-serif" font-size="14" lengthAdjust="spacing" textLength="31.9102" x="20" y="890.9766">User</text><ellipse cx="38.9551" cy="899.4766" fill="#E2E2F0" rx="8" ry="8" style="stroke:#181818;stroke-width:0.5;"/><path d="M38.9551,907.4766 L38.9551,934.4766 M25.9551,915.4766 L51.9551,915.4766 M38.9551,934.4766 L25.9551,949.4766 M38.9551,934.4766 L51.9551,949.4766" fill="none" style="stroke:#181818;stroke-width:0.5;"/></g><g class="participant participant-head" data-participant="Frontend"><rect fill="#E2E2F0" height="24" rx="2.5" ry="2.5" style="stroke:#181818;stroke-width:0.5;" width="14" x="251.7656" y="87.2969"/><text fill="#000000" font-family="sans-serif" font-size="14" lengthAdjust="spacing" textLength="0" x="258.7656" y="94.2969">Frontend</text></g><g class="participant participant-tail" data-participant="Frontend"><rect fill="#E2E2F0" height="24" rx="2.5" ry="2.5" style="stroke:#181818;stroke-width:0.5;" width="14" x="251.7656" y="874.6797"/><text fill="#000000" font-family="sans-serif" font-size="14" lengthAdjust="spacing" textLength="0" x="258.7656" y="881.6797">Frontend</text></g><g class="participant participant-head" data-participant="Controller"><rect fill="#E2E2F0" height="24" rx="2.5" ry="2.5" style="stroke:#181818;stroke-width:0.5;" width="14" x="524.7061" y="87.2969"/><text fill="#000000" font-family="sans-serif" font-size="14" lengthAdjust="spacing" textLength="0" x="531.7061" y="94.2969">FoodItem</text></g><g class="participant participant-tail" data-participant="Controller"><rect fill="#E2E2F0" height="24" rx="2.5" ry="2.5" style="stroke:#181818;stroke-width:0.5;" width="14" x="524.7061" y="874.6797"/><text fill="#000000" font-family="sans-serif" font-size="14" lengthAdjust="spacing" textLength="0" x="531.7061" y="881.6797">FoodItem</text></g><g class="participant participant-head" data-participant="FoodTypeModel"><rect fill="#E2E2F0" height="24" rx="2.5" ry="2.5" style="stroke:#181818;stroke-width:0.5;" width="14" x="831.4775" y="87.2969"/><text fill="#000000" font-family="sans-serif" font-size="14" lengthAdjust="spacing" textLength="0" x="838.4775" y="94.2969">FoodType</text></g><g class="participant participant-tail" data-participant="FoodTypeModel"><rect fill="#E2E2F0" height="24" rx="2.5" ry="2.5" style="stroke:#181818;stroke-width:0.5;" width="14" x="831.4775" y="874.6797"/><text fill="#000000" font-family="sans-serif" font-size="14" lengthAdjust="spacing" textLength="0" x="838.4775" y="881.6797">FoodType</text></g><g class="participant participant-head" data-participant="DB"><text fill="#000000" font-family="sans-serif" font-size="14" lengthAdjust="spacing" textLength="0" x="1099.6328" y="102.2969">MongoDB</text><path d="M1084.6328,66.2969 C1084.6328,56.2969 1102.6328,56.2969 1102.6328,56.2969 C1102.6328,56.2969 1120.6328,56.2969 1120.6328,66.2969 L1120.6328,92.2969 C1120.6328,102.2969 1102.6328,102.2969 1102.6328,102.2969 C1102.6328,102.2969 1084.6328,102.2969 1084.6328,92.2969 L1084.6328,66.2969" fill="#E2E2F0" style="stroke:#181818;stroke-width:0.5;"/><path d="M1084.6328,66.2969 C1084.6328,76.2969 1102.6328,76.2969 1102.6328,76.2969 C1102.6328,76.2969 1120.6328,76.2969 1120.6328,66.2969" fill="none" style="stroke:#181818;stroke-width:0.5;"/></g><g class="participant participant-tail" data-participant="DB"><text fill="#000000" font-family="sans-serif" font-size="14" lengthAdjust="spacing" textLength="0" x="1099.6328" y="874.6797">MongoDB</text><path d="M1084.6328,894.6797 C1084.6328,884.6797 1102.6328,884.6797 1102.6328,884.6797 C1102.6328,884.6797 1120.6328,884.6797 1120.6328,894.6797 L1120.6328,920.6797 C1120.6328,930.6797 1102.6328,930.6797 1102.6328,930.6797 C1102.6328,930.6797 1084.6328,930.6797 1084.6328,920.6797 L1084.6328,894.6797" fill="#E2E2F0" style="stroke:#181818;stroke-width:0.5;"/><path d="M1084.6328,894.6797 C1084.6328,904.6797 1102.6328,904.6797 1102.6328,904.6797 C1102.6328,904.6797 1120.6328,904.6797 1120.6328,894.6797" fill="none" style="stroke:#181818;stroke-width:0.5;"/></g><g><title>Frontend</title><rect fill="#FFFFFF" height="550.9219" style="stroke:#181818;stroke-width:1;" width="10" x="253.7656" y="158.5625"/></g><g><title>FoodItem</title><rect fill="#FFFFFF" height="273.4609" style="stroke:#181818;stroke-width:1;" width="10" x="526.7061" y="261.0938"/></g><g><title>FoodType</title><rect fill="#FFFFFF" height="87.3984" style="stroke:#181818;stroke-width:1;" width="10" x="833.4775" y="348.4922"/></g><g><title>MongoDB</title><rect fill="#FFFFFF" height="29.1328" style="stroke:#181818;stroke-width:1;" width="10" x="1097.6328" y="290.2266"/></g><g><title>MongoDB</title><rect fill="#FFFFFF" height="29.1328" style="stroke:#181818;stroke-width:1;" width="10" x="1097.6328" y="377.625"/></g><g class="message" data-participant-1="User" data-participant-2="Frontend"><polygon fill="#181818" points="241.7656,154.5625,251.7656,158.5625,241.7656,162.5625,245.7656,158.5625" style="stroke:#181818;stroke-width:1;"/><line style="stroke:#181818;stroke-width:1;" x1="38.9551" x2="247.7656" y1="158.5625" y2="158.5625"/><text fill="#000000" font-family="sans-serif" font-size="13" lengthAdjust="spacing" textLength="124.4458" x="45.9551" y="138.3638">Clicks on food item</text><text fill="#000000" font-family="sans-serif" font-size="13" lengthAdjust="spacing" textLength="77.2446" x="45.9551" y="153.4966">in fridge list</text></g><g class="message" data-participant-1="Frontend" data-participant-2="User"><polygon fill="#181818" points="49.9551,183.6953,39.9551,187.6953,49.9551,191.6953,45.9551,187.6953" style="stroke:#181818;stroke-width:1;"/><line style="stroke:#181818;stroke-width:1;stroke-dasharray:2,2;" x1="43.9551" x2="252.7656" y1="187.6953" y2="187.6953"/><text fill="#000000" font-family="sans-serif" font-size="13" lengthAdjust="spacing" textLength="145.958" x="55.9551" y="182.6294">Display item submenu</text></g><g class="message" data-participant-1="User" data-participant-2="Frontend"><polygon fill="#181818" points="241.7656,212.8281,251.7656,216.8281,241.7656,220.8281,245.7656,216.8281" style="stroke:#181818;stroke-width:1;"/><line style="stroke:#181818;stroke-width:1;" x1="38.9551" x2="247.7656" y1="216.8281" y2="216.8281"/><text fill="#000000" font-family="sans-serif" font-size="13" lengthAdjust="spacing" textLength="139.4961" x="45.9551" y="211.7622">Clicks "Nutrition Info"</text></g><g class="message" data-participant-1="Frontend" data-participant-2="Controller"><polygon fill="#181818" points="514.7061,257.0938,524.7061,261.0938,514.7061,265.0938,518.7061,261.0938" style="stroke:#181818;stroke-width:1;"/><line style="stroke:#181818;stroke-width:1;" x1="263.7656" x2="520.7061" y1="261.0938" y2="261.0938"/><text fill="#000000" font-family="sans-serif" font-size="13" lengthAdjust="spacing" textLength="243.9404" x="270.7656" y="240.895">GET /api/food-item/{itemId}/nutrition</text><text fill="#000000" font-family="sans-serif" font-size="13" lengthAdjust="spacing" textLength="199.8433" x="270.7656" y="256.0278">(Authorization: Bearer &lt;JWT&gt;)</text></g><g class="message" data-participant-1="Controller" data-participant-2="DB"><polygon fill="#181818" points="1085.6328,286.2266,1095.6328,290.2266,1085.6328,294.2266,1089.6328,290.2266" style="stroke:#181818;stroke-width:1;"/><line style="stroke:#181818;stroke-width:1;" x1="536.7061" x2="1091.6328" y1="290.2266" y2="290.2266"/><text fill="#000000" font-family="sans-serif" font-size="13" lengthAdjust="spacing" textLength="235.8154" x="543.7061" y="285.1606">db.fooditems.findOne({_id: itemId})</text></g><g class="message" data-participant-1="DB" data-participant-2="Controller"><polygon fill="#181818" points="547.7061,315.3594,537.7061,319.3594,547.7061,323.3594,543.7061,319.3594" style="stroke:#181818;stroke-width:1;"/><line style="stroke:#181818;stroke-width:1;stroke-dasharray:2,2;" x1="541.7061" x2="1101.6328" y1="319.3594" y2="319.3594"/><text fill="#000000" font-family="sans-serif" font-size="13" lengthAdjust="spacing" textLength="130.9521" x="553.7061" y="314.2935">FoodItem document</text></g><g class="message" data-participant-1="Controller" data-participant-2="FoodTypeModel"><polygon fill="#181818" points="821.4775,344.4922,831.4775,348.4922,821.4775,352.4922,825.4775,348.4922" style="stroke:#181818;stroke-width:1;"/><line style="stroke:#181818;stroke-width:1;" x1="536.7061" x2="827.4775" y1="348.4922" y2="348.4922"/><text fill="#000000" font-family="sans-serif" font-size="13" lengthAdjust="spacing" textLength="104.6475" x="543.7061" y="343.4263">findById(typeId)</text></g><g class="message" data-participant-1="FoodTypeModel" data-participant-2="DB"><polygon fill="#181818" points="1085.6328,373.625,1095.6328,377.625,1085.6328,381.625,1089.6328,377.625" style="stroke:#181818;stroke-width:1;"/><line style="stroke:#181818;stroke-width:1;" x1="843.4775" x2="1091.6328" y1="377.625" y2="377.625"/><text fill="#000000" font-family="sans-serif" font-size="13" lengthAdjust="spacing" textLength="235.1553" x="850.4775" y="372.5591">db.foodtypes.findOne({_id: typeId})</text></g><g class="message" data-participant-1="DB" data-participant-2="FoodTypeModel"><polygon fill="#181818" points="854.4775,402.7578,844.4775,406.7578,854.4775,410.7578,850.4775,406.7578" style="stroke:#181818;stroke-width:1;"/><line style="stroke:#181818;stroke-width:1;stroke-dasharray:2,2;" x1="848.4775" x2="1101.6328" y1="406.7578" y2="406.7578"/><text fill="#000000" font-family="sans-serif" font-size="13" lengthAdjust="spacing" textLength="133.2437" x="860.4775" y="401.6919">FoodType document</text></g><g class="message" data-participant-1="FoodTypeModel" data-participant-2="Controller"><polygon fill="#181818" points="547.7061,431.8906,537.7061,435.8906,547.7061,439.8906,543.7061,435.8906" style="stroke:#181818;stroke-width:1;"/><line style="stroke:#181818;stroke-width:1;stroke-dasharray:2,2;" x1="541.7061" x2="837.4775" y1="435.8906" y2="435.8906"/><text fill="#000000" font-family="sans-serif" font-size="13" lengthAdjust="spacing" textLength="272.7715" x="553.7061" y="430.8247">FoodType(name, nutrients, shelfLifeDays)</text></g><path d="M10,450.8906 L74.4429,450.8906 L74.4429,458.0234 L64.4429,468.0234 L10,468.0234 L10,450.8906" fill="#EEEEEE" style="stroke:#000000;stroke-width:1.5;"/><rect fill="none" height="251.5938" style="stroke:#000000;stroke-width:1.5;" width="538.7061" x="10" y="450.8906"/><text fill="#000000" font-family="sans-serif" font-size="13" font-weight="bold" lengthAdjust="spacing" textLength="19.4429" x="25" y="467.0234">alt</text><text fill="#000000" font-family="sans-serif" font-size="11" font-weight="bold" lengthAdjust="spacing" textLength="0" x="89.4429" y="452.8906">[Nutritional data exists in FoodType.nutrients]</text><g class="message" data-participant-1="Controller" data-participant-2="Frontend"><polygon fill="#181818" points="274.7656,530.5547,264.7656,534.5547,274.7656,538.5547,270.7656,534.5547" style="stroke:#181818;stroke-width:1;"/><line style="stroke:#181818;stroke-width:1;stroke-dasharray:2,2;" x1="268.7656" x2="530.7061" y1="534.5547" y2="534.5547"/><text fill="#000000" font-family="sans-serif" font-size="13" lengthAdjust="spacing" textLength="47.7026" x="280.7656" y="484.0903">200 OK</text><text fill="#000000" font-family="sans-serif" font-size="13" lengthAdjust="spacing" textLength="81.5229" x="280.7656" y="499.2231">NutritionInfo</text><text fill="#000000" font-family="sans-serif" font-size="13" lengthAdjust="spacing" textLength="184.0249" x="280.7656" y="514.356">(calories, protein, fat, carbs,</text><text fill="#000000" font-family="sans-serif" font-size="13" lengthAdjust="spacing" textLength="210.647" x="280.7656" y="529.4888">saturatedFat, fiber, sugars, etc.)</text></g><g class="message" data-participant-1="Frontend" data-participant-2="User"><polygon fill="#181818" points="49.9551,574.8203,39.9551,578.8203,49.9551,582.8203,45.9551,578.8203" style="stroke:#181818;stroke-width:1;"/><line style="stroke:#181818;stroke-width:1;stroke-dasharray:2,2;" x1="43.9551" x2="252.7656" y1="578.8203" y2="578.8203"/><text fill="#000000" font-family="sans-serif" font-size="13" lengthAdjust="spacing" textLength="190.8105" x="55.9551" y="558.6216">Display nutrition facts screen</text><text fill="#000000" font-family="sans-serif" font-size="13" lengthAdjust="spacing" textLength="160.7988" x="55.9551" y="573.7544">with detailed breakdown</text></g><line style="stroke:#000000;stroke-width:1;stroke-dasharray:2,2;" x1="10" x2="548.7061" y1="587.8203" y2="587.8203"/><text fill="#000000" font-family="sans-serif" font-size="11" font-weight="bold" lengthAdjust="spacing" textLength="0" x="15" y="587.8203">[No nutritional data available]</text><g class="message" data-participant-1="Controller" data-participant-2="Frontend"><polygon fill="#181818" points="274.7656,631.0859,264.7656,635.0859,274.7656,639.0859,270.7656,635.0859" style="stroke:#181818;stroke-width:1;"/><line style="stroke:#181818;stroke-width:1;stroke-dasharray:2,2;" x1="268.7656" x2="530.7061" y1="635.0859" y2="635.0859"/><text fill="#000000" font-family="sans-serif" font-size="13" lengthAdjust="spacing" textLength="96.0146" x="280.7656" y="614.8872">404 Not Found</text><text fill="#000000" font-family="sans-serif" font-size="13" lengthAdjust="spacing" textLength="202.103" x="280.7656" y="630.02">"Nutritional data not available"</text></g><g class="message" data-participant-1="Frontend" data-participant-2="User"><polygon fill="#181818" points="49.9551,690.4844,39.9551,694.4844,49.9551,698.4844,45.9551,694.4844" style="stroke:#181818;stroke-width:1;"/><line style="stroke:#181818;stroke-width:1;stroke-dasharray:2,2;" x1="43.9551" x2="252.7656" y1="694.4844" y2="694.4844"/><text fill="#000000" font-family="sans-serif" font-size="13" lengthAdjust="spacing" textLength="114.8545" x="55.9551" y="659.1528">Display message:</text><text fill="#000000" font-family="sans-serif" font-size="13" lengthAdjust="spacing" textLength="185.4277" x="55.9551" y="674.2856">"No nutrition data available"</text><text fill="#000000" font-family="sans-serif" font-size="13" lengthAdjust="spacing" textLength="169.292" x="55.9551" y="689.4185">Offer manual entry option</text></g><path d="M1107,714.4844 L1107,860.4844 L1296,860.4844 L1296,724.4844 L1286,714.4844 L1107,714.4844" fill="#FEFFDD" style="stroke:#181818;stroke-width:0.5;"/><path d="M1286,714.4844 L1286,724.4844 L1296,724.4844 L1286,714.4844" fill="#FEFFDD" style="stroke:#181818;stroke-width:0.5;"/><text fill="#000000" font-family="sans-serif" font-size="13" lengthAdjust="spacing" textLength="168.6001" x="1113" y="731.5513">Nutrients stored per 100g</text><text fill="#000000" font-family="sans-serif" font-size="13" lengthAdjust="spacing" textLength="150.3887" x="1113" y="746.6841">in FoodType collection:</text><text fill="#000000" font-family="sans-serif" font-size="13" lengthAdjust="spacing" textLength="125.1567" x="1113" y="761.8169">- calories, energyKj</text><text fill="#000000" font-family="sans-serif" font-size="13" lengthAdjust="spacing" textLength="124.9727" x="1113" y="776.9497">- protein, fat, carbs</text><text fill="#000000" font-family="sans-serif" font-size="13" lengthAdjust="spacing" textLength="154.3242" x="1113" y="792.0825">- saturatedFat, transFat</text><text fill="#000000" font-family="sans-serif" font-size="13" lengthAdjust="spacing" textLength="90.2192" x="1113" y="807.2153">- fiber, sugars</text><text fill="#000000" font-family="sans-serif" font-size="13" lengthAdjust="spacing" textLength="88.0293" x="1113" y="822.3481">- sodium, salt</text><text fill="#000000" font-family="sans-serif" font-size="13" lengthAdjust="spacing" textLength="168.2192" x="1113" y="837.481">- calcium, iron, potassium</text><text fill="#000000" font-family="sans-serif" font-size="13" lengthAdjust="spacing" textLength="80.5518" x="1113" y="852.6138">- cholesterol</text><!--SRC=[dLHDRzim3BthLn0-fK2-DdGNOoYmDEkGTMqltNO9CD0MxMXL94EIssN3_liefqviz-Cm7moBfDvxf9uLLD04Npt1EVBhNGhV53t0THsS2ieQr721UV12yDkwMEb4XIweN5Le0YGNpff0HYQ07jh5eCHQkGgqRKhEkS9PhP_WSD7jhg8zpkFYoahIGcB0BCfBhgmfxNBHr2mNGaGvC3axyAPmhbL-vy4QA1W35DEkZUALKx8aqCg7s8gwnq17kUq7J1WiWgQmLBxIk6iGmDVPbapzCbzoc1YiJ64JqO4yw_ISmgUFjp33IisYlab4d_s9xvNyEpCjoDgCFjHXOvtwZN6TmeBGCVVxpzzlpqwE7NIcAOxVaNEvI45cqyWIuVsqK4RU61hz-Q5OzoDb1uhdkLmq0-ZARSyEfCrhda4GahfR1gozWqiXSYvsApaA75l93bl_X7khWVguTQX-3_Uy-e64TlbI0mFgPzgFsP71BOsXEI36y6Fm6zB55rNG4dV-f0lQRqsW3ht_ARePw1SRqGCRiwsU7h05yDCTQyzmR-TpkBbScmDaz1lx9KVDTY5MLZaRI9an51Z6aAFB_7XjF8RQiJnv4QE5oiXn4tM9ZhTGoASd3M-dZuwtOkQLV-JWMwRaom9yxeZOn0ygR1WneD8a8NE4Tz8-6258yzzyROyRsxdWFTTYfkdr8PpEJtbxuE7LHgvDycI-XfC7hEJ_EzkIzrXI6ZawSWTYaxMvAGfMkKLJimG-HRS3MyLI4U-NhZlQEqUmHWAdoaq0MqGhmjudqGFW-RRbcLKC-cO-BpdNyGhaKNpUt0oScS3nyCcGAtUNFvlmCqveudql18V6yrUJwXbZNymNIBtb41kv9SkRYE9Ms6useFSSs2StLfCFnEEDdSU3e7y0]--></g></svg>